<svg width="145" height="84" viewBox="0 0 145 84" fill="none" xmlns="http://www.w3.org/2000/svg">
<path d="M67.5051 34.855V37.1069H60.5453C59.6418 37.1069 58.9077 37.841 58.9077 38.744V45.9724C58.9077 46.8758 59.6418 47.6095 60.5453 47.6095H67.5051V49.8586C67.5051 50.4968 67.8747 51.0751 68.4535 51.3432C69.0304 51.6118 69.7125 51.52 70.1987 51.1083L79.0688 43.6077C79.4375 43.2975 79.6476 42.8394 79.6476 42.3589C79.6476 41.876 79.4375 41.4208 79.0688 41.1092L70.2291 33.6329C69.939 33.376 69.5586 33.2197 69.1408 33.2197C68.2368 33.2197 67.5051 33.952 67.5051 34.855Z" fill="#9FEA38"/>
<path d="M79.6477 31.9246H82.5144V52.7922H79.6477V55.518H85.3802V29.1973H79.6477V31.9246Z" fill="#9FEA38"/>
<path d="M141.213 41.5H102.162V42.5H144.651V41.5H141.213Z" fill="#39AAFF"/>
<path d="M40.958 41.9837C40.958 53.2933 31.7889 62.462 20.4783 62.462C9.16864 62.462 0 53.2933 0 41.9837C0 30.6735 9.16864 21.5049 20.4783 21.5049C31.7889 21.5049 40.958 30.6735 40.958 41.9837Z" fill="#F7DC19"/>
<path d="M35.2502 41.984C35.2502 50.141 28.6376 56.755 20.4786 56.755C12.3215 56.755 5.70801 50.141 5.70801 41.984C5.70801 33.826 12.3215 27.2129 20.4786 27.2129C28.6376 27.2129 35.2502 33.826 35.2502 41.984Z" fill="#F6C81B"/>
<path d="M7.02463 43.3011C7.02463 35.1426 13.6386 28.5286 21.7957 28.5286C25.5397 28.5286 28.9557 29.9243 31.5595 32.2202C28.8528 29.1504 24.8936 27.2129 20.4786 27.2129C12.3215 27.2129 5.70801 33.826 5.70801 41.984C5.70801 46.3984 7.64692 50.3572 10.7158 53.0639C8.41939 50.4606 7.02463 47.0441 7.02463 43.3011Z" fill="#EFAA18"/>
<path d="M21.3242 47.4688C21.8884 47.365 22.3465 47.103 22.6997 46.6856C23.053 46.2687 23.2294 45.7784 23.2294 45.215C23.2294 44.7107 23.0811 44.2774 22.7844 43.912C22.4873 43.5484 22.0007 43.2672 21.3242 43.0735V47.4688ZM19.6898 35.4756C19.2463 35.6253 18.8926 35.8808 18.6301 36.2415C18.3676 36.6027 18.2357 37.0014 18.2357 37.437C18.2357 37.8351 18.3559 38.2048 18.5959 38.5468C18.8374 38.8893 19.2018 39.1648 19.6898 39.3749V35.4756ZM19.6898 47.3116V42.5874C18.2169 42.1677 17.1366 41.5309 16.4488 40.6775C15.762 39.825 15.4176 38.7896 15.4176 37.5717C15.4176 36.3402 15.8064 35.3048 16.5845 34.4673C17.3616 33.6289 18.3971 33.146 19.6898 33.0187V31.9028H21.3242V33.0187C22.5191 33.161 23.4703 33.568 24.1759 34.2408C24.8824 34.9137 25.3334 35.8143 25.5285 36.941L22.6768 37.3125C22.5042 36.4254 22.0531 35.8251 21.3242 35.5083V39.9167C23.1274 40.4057 24.3565 41.0378 25.0101 41.8154C25.6638 42.5944 25.9908 43.5915 25.9908 44.8085C25.9908 46.1686 25.58 47.314 24.7565 48.2474C23.934 49.179 22.7896 49.7498 21.3242 49.9608V52.0681H19.6898V50.0165C18.3901 49.8588 17.3336 49.3741 16.5223 48.5623C15.711 47.7505 15.1925 46.6051 14.9666 45.1247L17.9086 44.8085C18.0288 45.4097 18.2548 45.9281 18.5847 46.3651C18.916 46.8007 19.2837 47.1161 19.6898 47.3116Z" fill="#EFAA18"/>
<path d="M20.4768 30.2417C20.2845 30.2417 20.0926 30.2464 19.9008 30.2557C19.709 30.2656 19.5172 30.2796 19.3263 30.2983C19.1349 30.317 18.9445 30.3409 18.7545 30.369C18.5645 30.397 18.375 30.4298 18.1865 30.4672C17.9984 30.5046 17.8108 30.5468 17.6246 30.5935C17.4383 30.6403 17.2531 30.6913 17.0692 30.7475C16.8853 30.8032 16.7033 30.863 16.5222 30.9281C16.3412 30.9927 16.162 31.0619 15.9846 31.1354C15.8073 31.2088 15.6314 31.2865 15.4578 31.3688C15.2842 31.4512 15.113 31.5373 14.9431 31.628C14.7738 31.7183 14.6067 31.8129 14.442 31.912C14.2773 32.0108 14.115 32.1132 13.9554 32.2199C13.7954 32.3266 13.6387 32.4375 13.4843 32.5516C13.3299 32.6663 13.1787 32.7846 13.03 32.9063C12.8816 33.0279 12.7361 33.1538 12.5939 33.2825C12.4516 33.4116 12.3122 33.544 12.1765 33.6797C12.0408 33.8159 11.9084 33.9548 11.7793 34.0971C11.6502 34.2393 11.5248 34.3848 11.4031 34.5336C11.281 34.6819 11.1631 34.8335 11.0485 34.9874C10.9338 35.1418 10.8234 35.299 10.7167 35.4586C10.6101 35.6186 10.5071 35.7805 10.4084 35.9452C10.3097 36.1104 10.2152 36.2774 10.1244 36.4468C10.0341 36.6161 9.94754 36.7879 9.86566 36.9614C9.78331 37.135 9.70564 37.3105 9.63218 37.4883C9.55826 37.6656 9.48948 37.8448 9.42444 38.0254C9.35987 38.2065 9.29952 38.3889 9.24384 38.5728C9.18816 38.7567 9.13669 38.9415 9.09037 39.1277C9.04359 39.3144 9.00148 39.5016 8.96405 39.6901C8.92661 39.8787 8.89386 40.0677 8.86532 40.2577C8.83725 40.4476 8.81385 40.6385 8.79514 40.8294C8.77596 41.0208 8.76192 41.2122 8.75256 41.404C8.7432 41.5958 8.73853 41.7881 8.73853 41.98C8.73853 42.1723 8.7432 42.3641 8.75256 42.5559C8.76192 42.7478 8.77596 42.9396 8.79514 43.1305C8.81385 43.3218 8.83725 43.5123 8.86532 43.7022C8.89386 43.8927 8.92661 44.0817 8.96405 44.2702C9.00148 44.4583 9.04359 44.646 9.09037 44.8322C9.13669 45.0184 9.18816 45.2037 9.24384 45.3875C9.29952 45.5714 9.35987 45.7539 9.42444 45.9345C9.48948 46.1156 9.55826 46.2948 9.63218 46.4721C9.70564 46.6494 9.78331 46.8254 9.86566 46.9989C9.94754 47.1725 10.0341 47.3442 10.1244 47.5136C10.2152 47.683 10.3097 47.85 10.4084 48.0147C10.5071 48.1794 10.6101 48.3418 10.7167 48.5013C10.8234 48.6613 10.9338 48.8181 11.0485 48.9725C11.1631 49.1269 11.281 49.2785 11.4031 49.4268C11.5248 49.5751 11.6502 49.7206 11.7793 49.8629C11.9084 50.0056 12.0408 50.1445 12.1765 50.2802C12.3122 50.4164 12.4516 50.5488 12.5939 50.6774C12.7361 50.8066 12.8816 50.932 13.03 51.0541C13.1787 51.1757 13.3299 51.2941 13.4843 51.4083C13.6387 51.5229 13.7954 51.6333 13.9554 51.74C14.115 51.8467 14.2773 51.9496 14.442 52.0483C14.6067 52.1471 14.7738 52.2416 14.9431 52.3323C15.113 52.4231 15.2842 52.5092 15.4578 52.5915C15.6314 52.6734 15.8073 52.7511 15.9846 52.825C16.162 52.8985 16.3412 52.9673 16.5222 53.0323C16.7033 53.0969 16.8853 53.1572 17.0692 53.2129C17.2531 53.2686 17.4383 53.32 17.6246 53.3664C17.8108 53.4131 17.9984 53.4553 18.1865 53.4927C18.375 53.5301 18.5645 53.5633 18.7545 53.5914C18.9445 53.6195 19.1349 53.6429 19.3263 53.6621C19.5172 53.6808 19.709 53.6948 19.9008 53.7042C20.0926 53.7135 20.2845 53.7182 20.4768 53.7182C20.6686 53.7182 20.8609 53.7135 21.0527 53.7042C21.2446 53.6948 21.4359 53.6808 21.6273 53.6621C21.8182 53.6429 22.0091 53.6195 22.1991 53.5914C22.389 53.5633 22.5785 53.5301 22.7666 53.4927C22.9552 53.4553 23.1423 53.4131 23.329 53.3664C23.5152 53.32 23.7005 53.2686 23.8839 53.2129C24.0678 53.1572 24.2503 53.0969 24.4313 53.0323C24.6119 52.9673 24.7911 52.8985 24.9689 52.825C25.1463 52.7511 25.3217 52.6734 25.4953 52.5915C25.6693 52.5092 25.8406 52.4231 26.01 52.3323C26.1793 52.2416 26.3464 52.1471 26.5115 52.0483C26.6762 51.9496 26.8386 51.8467 26.9981 51.74C27.1577 51.6333 27.3149 51.5229 27.4693 51.4083C27.6237 51.2941 27.7748 51.1757 27.9236 51.0541C28.0719 50.932 28.2174 50.8066 28.3597 50.6774C28.5019 50.5488 28.6409 50.4164 28.777 50.2802C28.9127 50.1445 29.0451 50.0056 29.1743 49.8629C29.3034 49.7206 29.4288 49.5751 29.5504 49.4268C29.6726 49.2785 29.7905 49.1269 29.9051 48.9725C30.0193 48.8181 30.1301 48.6613 30.2368 48.5013C30.3435 48.3418 30.446 48.1794 30.5452 48.0147C30.6439 47.85 30.7384 47.683 30.8292 47.5136C30.9195 47.3442 31.006 47.1725 31.0879 46.9989C31.1702 46.8254 31.2479 46.6494 31.3214 46.4721C31.3948 46.2948 31.4641 46.1156 31.5286 45.9345C31.5937 45.7539 31.6536 45.5714 31.7097 45.3875C31.7654 45.2037 31.8164 45.0184 31.8632 44.8322C31.91 44.646 31.9521 44.4583 31.9895 44.2702C32.0269 44.0817 32.0597 43.8927 32.0878 43.7022C32.1163 43.5123 32.1397 43.3218 32.1584 43.1305C32.1771 42.9396 32.1916 42.7478 32.201 42.5559C32.2104 42.3641 32.215 42.1723 32.215 41.98C32.215 41.7881 32.2104 41.5958 32.201 41.404C32.1916 41.2122 32.1771 41.0208 32.1584 40.8294C32.1397 40.6385 32.1163 40.4476 32.0878 40.2577C32.0597 40.0677 32.0269 39.8787 31.9895 39.6901C31.9521 39.5016 31.91 39.3144 31.8632 39.1277C31.8164 38.9415 31.7654 38.7567 31.7097 38.5728C31.6536 38.3889 31.5937 38.2065 31.5286 38.0254C31.4641 37.8448 31.3948 37.6656 31.3214 37.4883C31.2479 37.3105 31.1702 37.135 31.0879 36.9614C31.006 36.7879 30.9195 36.6161 30.8292 36.4468C30.7384 36.2774 30.6439 36.1104 30.5452 35.9452C30.446 35.7805 30.3435 35.6186 30.2368 35.4586C30.1301 35.299 30.0193 35.1418 29.9051 34.9874C29.7905 34.8335 29.6726 34.6819 29.5504 34.5336C29.4288 34.3848 29.3034 34.2393 29.1743 34.0971C29.0451 33.9548 28.9127 33.8159 28.777 33.6797C28.6409 33.544 28.5019 33.4116 28.3597 33.2825C28.2174 33.1538 28.0719 33.0279 27.9236 32.9063C27.7748 32.7846 27.6237 32.6663 27.4693 32.5516C27.3149 32.4375 27.1577 32.3266 26.9981 32.2199C26.8386 32.1132 26.6762 32.0108 26.5115 31.912C26.3464 31.8129 26.1793 31.7183 26.01 31.628C25.8406 31.5373 25.6693 31.4512 25.4953 31.3688C25.3217 31.2865 25.1463 31.2088 24.9689 31.1354C24.7911 31.0619 24.6119 30.9927 24.4313 30.9281C24.2503 30.863 24.0678 30.8032 23.8844 30.7475C23.7005 30.6913 23.5152 30.6403 23.329 30.5935C23.1423 30.5468 22.9552 30.5046 22.7666 30.4672C22.5785 30.4298 22.389 30.397 22.1991 30.369C22.0091 30.3409 21.8182 30.317 21.6273 30.2983C21.4359 30.2796 21.2446 30.2656 21.0527 30.2557C20.8609 30.2464 20.6686 30.2417 20.4768 30.2417Z" fill="#F6C81B"/>
<path d="M26.7765 41.3521C27.1241 41.6993 27.1241 42.2636 26.7765 42.6107L21.1118 48.2759C20.7642 48.6235 20.2004 48.6235 19.8528 48.2759L14.1876 42.6107C13.8405 42.2636 13.8405 41.6993 14.1876 41.3521L19.8528 35.687C20.2004 35.3394 20.7642 35.3394 21.1118 35.687L26.7765 41.3521Z" fill="#FBECCD"/>
<path d="M140.04 16.6454C140.04 25.8379 132.587 33.2904 123.394 33.2904C114.201 33.2904 106.748 25.8379 106.748 16.6454C106.748 7.45244 114.201 0 123.394 0C132.587 0 140.04 7.45244 140.04 16.6454Z" fill="#F7DC19"/>
<path d="M135.4 16.645C135.4 23.2754 130.025 28.6514 123.394 28.6514C116.764 28.6514 111.388 23.2754 111.388 16.645C111.388 10.0142 116.764 4.63916 123.394 4.63916C130.025 4.63916 135.4 10.0142 135.4 16.645Z" fill="#F6C81B"/>
<path d="M112.458 17.7156C112.458 11.0847 117.834 5.70874 124.464 5.70874C127.508 5.70874 130.284 6.84289 132.4 8.70881C130.201 6.21405 126.982 4.63916 123.394 4.63916C116.764 4.63916 111.388 10.0142 111.388 16.645C111.388 20.2332 112.964 23.4509 115.459 25.6509C113.592 23.5351 112.458 20.7582 112.458 17.7156Z" fill="#EFAA18"/>
<path d="M119.773 20.0261C120.232 19.9418 120.604 19.7289 120.891 19.3897C121.179 19.0505 121.322 18.6519 121.322 18.1943C121.322 17.7844 121.201 17.4321 120.96 17.1355C120.719 16.8398 120.323 16.611 119.773 16.4538V20.0261ZM118.445 10.2782C118.084 10.3998 117.797 10.6071 117.584 10.9005C117.37 11.1943 117.263 11.5181 117.263 11.8723C117.263 12.1956 117.361 12.4964 117.556 12.7743C117.752 13.0527 118.048 13.2768 118.445 13.4476V10.2782ZM118.445 19.8983V16.0589C117.248 15.7173 116.37 15.1998 115.81 14.5064C115.253 13.813 114.972 12.9718 114.972 11.9817C114.972 10.9805 115.289 10.1392 115.921 9.45844C116.552 8.77674 117.394 8.38418 118.445 8.28125V7.37402H119.773V8.28125C120.745 8.39682 121.518 8.72714 122.091 9.2741C122.665 9.82105 123.032 10.5533 123.191 11.4694L120.873 11.7712C120.733 11.0502 120.366 10.5622 119.773 10.3048V13.8874C121.239 14.2851 122.238 14.7993 122.769 15.431C123.301 16.064 123.567 16.8744 123.567 17.864C123.567 18.9696 123.232 19.9007 122.563 20.6591C121.895 21.4161 120.965 21.8803 119.773 22.0515V23.7644H118.445V22.0969C117.389 21.9687 116.53 21.5747 115.871 20.915C115.211 20.2553 114.789 19.3242 114.606 18.1208L116.997 17.864C117.095 18.3524 117.279 18.774 117.547 19.1291C117.816 19.4828 118.115 19.7392 118.445 19.8983Z" fill="#EFAA18"/>
<path d="M123.392 7.10107C123.236 7.10107 123.08 7.10482 122.924 7.11277C122.768 7.12026 122.612 7.13195 122.457 7.14693C122.302 7.16237 122.147 7.18155 121.992 7.20448C121.838 7.2274 121.684 7.25407 121.531 7.28448C121.378 7.3149 121.226 7.34905 121.074 7.38695C120.922 7.42485 120.772 7.46649 120.623 7.51188C120.473 7.55726 120.325 7.60639 120.178 7.65879C120.031 7.71166 119.885 7.76781 119.741 7.82723C119.597 7.88712 119.454 7.95028 119.313 8.01719C119.172 8.0841 119.033 8.15428 118.895 8.22774C118.757 8.30119 118.621 8.3784 118.487 8.4584C118.353 8.53888 118.221 8.62216 118.092 8.70919C117.962 8.79575 117.834 8.88558 117.709 8.97869C117.584 9.0718 117.46 9.16771 117.34 9.26691C117.219 9.3661 117.101 9.46763 116.985 9.5729C116.869 9.67771 116.756 9.78532 116.646 9.89574C116.535 10.0062 116.428 10.1189 116.323 10.235C116.218 10.3505 116.116 10.4684 116.017 10.5891C115.918 10.7099 115.822 10.8329 115.729 10.9588C115.636 11.0842 115.546 11.2114 115.459 11.3415C115.372 11.4711 115.289 11.603 115.209 11.7369C115.129 11.8711 115.051 12.0068 114.978 12.1444C114.904 12.2824 114.834 12.4218 114.767 12.5627C114.7 12.704 114.637 12.8467 114.577 12.9908C114.518 13.1354 114.462 13.2809 114.409 13.4278C114.357 13.5747 114.307 13.723 114.262 13.8723C114.217 14.022 114.175 14.1722 114.137 14.3238C114.099 14.4754 114.065 14.6274 114.035 14.7809C114.004 14.9339 113.978 15.0878 113.955 15.2422C113.932 15.3966 113.912 15.5515 113.897 15.7069C113.882 15.8622 113.87 16.018 113.863 16.1738C113.855 16.3301 113.851 16.4859 113.851 16.6421C113.851 16.7984 113.855 16.9542 113.863 17.11C113.87 17.2663 113.882 17.4221 113.897 17.5774C113.912 17.7328 113.932 17.8877 113.955 18.0421C113.978 18.1965 114.004 18.3504 114.035 18.5034C114.065 18.6564 114.099 18.8089 114.137 18.9605C114.175 19.1116 114.217 19.2623 114.262 19.4116C114.307 19.5613 114.357 19.7091 114.409 19.8565C114.462 20.0034 114.518 20.1489 114.577 20.293C114.637 20.4376 114.7 20.5803 114.767 20.7212C114.834 20.8625 114.904 21.0019 114.978 21.1394C115.051 21.2775 115.129 21.4132 115.209 21.547C115.289 21.6813 115.372 21.8127 115.459 21.9428C115.546 22.0724 115.636 22.2001 115.729 22.3255C115.822 22.4509 115.918 22.574 116.017 22.6947C116.116 22.8154 116.218 22.9338 116.323 23.0493C116.428 23.1649 116.535 23.2781 116.646 23.3886C116.756 23.499 116.869 23.6066 116.985 23.7114C117.101 23.8162 117.219 23.9182 117.34 24.0174C117.46 24.1166 117.584 24.2125 117.709 24.3056C117.834 24.3987 117.962 24.4886 118.092 24.5751C118.221 24.6617 118.353 24.7454 118.487 24.8254C118.621 24.9059 118.757 24.9826 118.895 25.0566C119.033 25.13 119.172 25.2002 119.313 25.2671C119.454 25.334 119.597 25.3972 119.741 25.4566C119.885 25.5165 120.031 25.5726 120.178 25.6255C120.325 25.6779 120.473 25.727 120.623 25.7724C120.772 25.8173 120.922 25.859 121.074 25.8973C121.226 25.9352 121.378 25.9694 121.531 25.9998C121.684 26.0302 121.838 26.0569 121.992 26.0798C122.147 26.1028 122.302 26.1219 122.457 26.1369C122.612 26.1523 122.768 26.164 122.924 26.1715C123.08 26.179 123.236 26.1832 123.392 26.1832C123.549 26.1832 123.704 26.179 123.861 26.1715C124.016 26.164 124.172 26.1523 124.328 26.1369C124.483 26.1219 124.638 26.1028 124.792 26.0798C124.947 26.0569 125.101 26.0302 125.254 25.9998C125.407 25.9694 125.559 25.9352 125.711 25.8973C125.862 25.859 126.012 25.8173 126.162 25.7724C126.311 25.727 126.459 25.6779 126.607 25.6255C126.754 25.5726 126.899 25.5165 127.044 25.4566C127.188 25.3972 127.33 25.334 127.472 25.2671C127.613 25.2002 127.752 25.13 127.89 25.0566C128.028 24.9826 128.163 24.9059 128.297 24.8254C128.431 24.7454 128.563 24.6617 128.693 24.5751C128.823 24.4886 128.95 24.3987 129.076 24.3056C129.201 24.2125 129.324 24.1166 129.445 24.0174C129.566 23.9182 129.684 23.8162 129.799 23.7114C129.915 23.6066 130.028 23.499 130.139 23.3886C130.249 23.2781 130.357 23.1649 130.462 23.0493C130.566 22.9338 130.668 22.8154 130.768 22.6947C130.867 22.574 130.963 22.4509 131.056 22.3255C131.149 22.2001 131.239 22.0724 131.325 21.9428C131.412 21.8127 131.496 21.6813 131.576 21.547C131.656 21.4132 131.733 21.2775 131.807 21.1394C131.88 21.0019 131.95 20.8625 132.017 20.7212C132.084 20.5803 132.147 20.4376 132.207 20.293C132.267 20.1489 132.323 20.0034 132.376 19.8565C132.428 19.7091 132.477 19.5613 132.523 19.4116C132.568 19.2623 132.609 19.1116 132.647 18.9605C132.685 18.8089 132.72 18.6564 132.75 18.5034C132.78 18.3504 132.807 18.1965 132.83 18.0421C132.853 17.8877 132.872 17.7328 132.887 17.5774C132.902 17.4221 132.914 17.2663 132.922 17.11C132.93 16.9542 132.933 16.7984 132.933 16.6421C132.933 16.4859 132.93 16.3301 132.922 16.1738C132.914 16.018 132.902 15.8622 132.887 15.7069C132.872 15.5515 132.853 15.3966 132.83 15.2422C132.807 15.0878 132.78 14.9339 132.75 14.7809C132.72 14.6274 132.685 14.4754 132.647 14.3238C132.609 14.1722 132.568 14.022 132.523 13.8723C132.477 13.723 132.428 13.5747 132.376 13.4278C132.323 13.2809 132.267 13.1354 132.207 12.9908C132.147 12.8467 132.084 12.704 132.017 12.5627C131.95 12.4218 131.88 12.2824 131.807 12.1444C131.733 12.0068 131.656 11.8711 131.576 11.7369C131.496 11.603 131.412 11.4711 131.325 11.3415C131.239 11.2114 131.149 11.0842 131.056 10.9588C130.963 10.8329 130.867 10.7099 130.768 10.5891C130.668 10.4684 130.566 10.3505 130.462 10.235C130.357 10.1189 130.249 10.0062 130.139 9.89574C130.028 9.78532 129.915 9.67771 129.799 9.5729C129.684 9.46763 129.566 9.3661 129.445 9.26691C129.324 9.16771 129.201 9.0718 129.076 8.97869C128.95 8.88558 128.823 8.79575 128.693 8.70919C128.563 8.62216 128.431 8.53888 128.297 8.4584C128.163 8.3784 128.028 8.30119 127.89 8.22774C127.752 8.15428 127.613 8.0841 127.472 8.01719C127.33 7.95028 127.188 7.88712 127.044 7.82723C126.899 7.76781 126.754 7.71166 126.607 7.65879C126.459 7.60639 126.311 7.55726 126.162 7.51188C126.012 7.46649 125.862 7.42485 125.711 7.38695C125.559 7.34905 125.407 7.3149 125.254 7.28448C125.101 7.25407 124.947 7.2274 124.792 7.20448C124.638 7.18155 124.483 7.16237 124.328 7.14693C124.172 7.13195 124.016 7.12026 123.861 7.11277C123.704 7.10482 123.549 7.10107 123.392 7.10107Z" fill="#F6C81B"/>
<path d="M128.513 16.1305C128.796 16.4131 128.796 16.8716 128.513 17.1538L123.908 21.7587C123.626 22.0408 123.167 22.0408 122.885 21.7587L118.281 17.1538C117.998 16.8716 117.998 16.4131 118.281 16.1305L122.885 11.5261C123.167 11.2439 123.626 11.2439 123.908 11.5261L128.513 16.1305Z" fill="#EFAA18"/>
<path d="M140.072 67.3391C140.072 76.5409 132.612 84.0004 123.41 84.0004C114.208 84.0004 106.748 76.5409 106.748 67.3391C106.748 58.1377 114.208 50.6777 123.41 50.6777C132.612 50.6777 140.072 58.1377 140.072 67.3391Z" fill="#F7DC19"/>
<path d="M135.428 67.3394C135.428 73.9763 130.048 79.3574 123.41 79.3574C116.773 79.3574 111.392 73.9763 111.392 67.3394C111.392 60.702 116.773 55.3223 123.41 55.3223C130.048 55.3223 135.428 60.702 135.428 67.3394Z" fill="#F6C81B"/>
<path d="M112.463 68.4108C112.463 61.7734 117.845 56.3923 124.481 56.3923C127.527 56.3923 130.306 57.5279 132.425 59.3957C130.223 56.8981 127.002 55.3223 123.41 55.3223C116.773 55.3223 111.392 60.702 111.392 67.3394C111.392 70.9313 112.97 74.1522 115.467 76.3541C113.599 74.236 112.463 71.4568 112.463 68.4108Z" fill="#EFAA18"/>
<path d="M119.79 72.8771C120.249 72.7924 120.622 72.579 120.91 72.2398C121.197 71.9006 121.34 71.5015 121.34 71.043C121.34 70.6331 121.22 70.2803 120.978 69.9832C120.737 69.6875 120.341 69.4587 119.79 69.301V72.8771ZM118.461 63.1194C118.1 63.2415 117.812 63.4488 117.598 63.7426C117.385 64.0364 117.277 64.3607 117.277 64.7148C117.277 65.0391 117.375 65.3399 117.571 65.6179C117.767 65.8967 118.063 66.1208 118.461 66.2916V63.1194ZM118.461 72.7489V68.9057C117.262 68.5641 116.383 68.0462 115.824 67.3518C115.265 66.658 114.985 65.8158 114.985 64.8248C114.985 63.8226 115.301 62.9804 115.935 62.2987C116.566 61.6165 117.409 61.224 118.461 61.1206V60.2124H119.79V61.1206C120.763 61.2361 121.537 61.5674 122.111 62.1148C122.685 62.6622 123.052 63.3949 123.211 64.3115L120.891 64.6138C120.75 63.8923 120.384 63.4038 119.79 63.146V66.7324C121.258 67.1301 122.258 67.6447 122.789 68.2773C123.321 68.9113 123.587 69.7221 123.587 70.7126C123.587 71.8192 123.253 72.7512 122.583 73.5106C121.914 74.2685 120.983 74.7327 119.79 74.9044V76.6192H118.461V74.9498C117.403 74.8216 116.544 74.4267 115.884 73.7665C115.223 73.1063 114.802 72.1743 114.618 70.9695L117.012 70.7126C117.109 71.2016 117.293 71.6236 117.562 71.9787C117.831 72.3334 118.13 72.5898 118.461 72.7489Z" fill="#EFAA18"/>
<path d="M123.392 57.7793C123.236 57.7793 123.08 57.783 122.924 57.7905C122.768 57.7985 122.612 57.8097 122.457 57.8251C122.302 57.8406 122.147 57.8598 121.992 57.8827C121.838 57.9056 121.684 57.9323 121.531 57.9627C121.378 57.9931 121.226 58.0273 121.074 58.0652C120.922 58.1031 120.772 58.1447 120.623 58.1901C120.473 58.2355 120.325 58.2846 120.178 58.337C120.031 58.3894 119.885 58.4456 119.741 58.5055C119.597 58.5653 119.454 58.6285 119.313 58.6954C119.172 58.7619 119.033 58.832 118.895 58.906C118.757 58.9794 118.621 59.0566 118.487 59.1366C118.353 59.2171 118.221 59.3004 118.092 59.3874C117.962 59.474 117.834 59.5638 117.709 59.6569C117.584 59.75 117.46 59.8459 117.34 59.9451C117.219 60.0439 117.101 60.1459 116.985 60.2507C116.869 60.3555 116.756 60.4635 116.646 60.574C116.535 60.6844 116.428 60.7971 116.323 60.9127C116.218 61.0287 116.116 61.1467 116.017 61.2674C115.918 61.3881 115.822 61.5111 115.729 61.6365C115.636 61.7619 115.546 61.8897 115.459 62.0197C115.372 62.1493 115.289 62.2813 115.209 62.4151C115.129 62.5489 115.051 62.6851 114.978 62.8226C114.904 62.9602 114.834 63.0996 114.767 63.2409C114.7 63.3822 114.637 63.5249 114.577 63.669C114.518 63.8131 114.462 63.9591 114.409 64.106C114.357 64.2529 114.307 64.4012 114.262 64.5505C114.217 64.7002 114.175 64.8504 114.137 65.002C114.099 65.1536 114.065 65.3057 114.035 65.4587C114.004 65.6121 113.978 65.7656 113.955 65.9205C113.932 66.0749 113.912 66.2297 113.897 66.3851C113.882 66.5404 113.87 66.6962 113.863 66.852C113.855 67.0078 113.851 67.1641 113.851 67.3204C113.851 67.4762 113.855 67.6325 113.863 67.7883C113.87 67.9445 113.882 68.0999 113.897 68.2552C113.912 68.411 113.932 68.5659 113.955 68.7203C113.978 68.8747 114.004 69.0286 114.035 69.1816C114.065 69.3346 114.099 69.4871 114.137 69.6383C114.175 69.7899 114.217 69.9405 114.262 70.0898C114.307 70.239 114.357 70.3873 114.409 70.5343C114.462 70.6816 114.518 70.8272 114.577 70.9713C114.637 71.1158 114.7 71.2585 114.767 71.3994C114.834 71.5407 114.904 71.6801 114.978 71.8177C115.051 71.9557 115.129 72.0914 115.209 72.2252C115.289 72.359 115.372 72.4909 115.459 72.621C115.546 72.7506 115.636 72.8784 115.729 73.0037C115.822 73.1291 115.918 73.2522 116.017 73.3729C116.116 73.4936 116.218 73.612 116.323 73.7276C116.428 73.8431 116.535 73.9564 116.646 74.0668C116.756 74.1772 116.869 74.2848 116.985 74.3896C117.101 74.4944 117.219 74.5964 117.34 74.6956C117.46 74.7943 117.584 74.8907 117.709 74.9838C117.834 75.0765 117.962 75.1663 118.092 75.2533C118.221 75.3399 118.353 75.4236 118.487 75.5037C118.621 75.5841 118.757 75.6609 118.895 75.7348C119.033 75.8082 119.172 75.8784 119.313 75.9453C119.454 76.0118 119.597 76.0754 119.741 76.1348C119.885 76.1947 120.031 76.2509 120.178 76.3033C120.325 76.3561 120.473 76.4053 120.623 76.4502C120.772 76.4956 120.922 76.5372 121.074 76.5751C121.226 76.613 121.378 76.6476 121.531 76.678C121.684 76.7085 121.838 76.7351 121.992 76.758C122.147 76.781 122.302 76.8002 122.457 76.8151C122.612 76.8306 122.768 76.8423 122.924 76.8498C123.08 76.8572 123.236 76.861 123.392 76.861C123.549 76.861 123.704 76.8572 123.861 76.8498C124.016 76.8423 124.172 76.8306 124.328 76.8151C124.483 76.8002 124.638 76.781 124.792 76.758C124.947 76.7351 125.101 76.7085 125.254 76.678C125.407 76.6476 125.559 76.613 125.711 76.5751C125.862 76.5372 126.012 76.4956 126.162 76.4502C126.311 76.4053 126.459 76.3561 126.607 76.3033C126.754 76.2509 126.899 76.1947 127.044 76.1348C127.188 76.0754 127.33 76.0118 127.472 75.9453C127.613 75.8784 127.752 75.8082 127.89 75.7348C128.028 75.6609 128.163 75.5841 128.297 75.5037C128.431 75.4236 128.563 75.3399 128.693 75.2533C128.823 75.1663 128.95 75.0765 129.076 74.9838C129.201 74.8907 129.324 74.7943 129.445 74.6956C129.566 74.5964 129.684 74.4944 129.799 74.3896C129.915 74.2848 130.028 74.1772 130.139 74.0668C130.249 73.9564 130.357 73.8431 130.462 73.7276C130.566 73.612 130.668 73.4936 130.768 73.3729C130.867 73.2522 130.963 73.1291 131.056 73.0037C131.149 72.8784 131.239 72.7506 131.325 72.621C131.412 72.4909 131.496 72.359 131.576 72.2252C131.656 72.0914 131.733 71.9557 131.807 71.8177C131.88 71.6801 131.95 71.5407 132.017 71.3994C132.084 71.2585 132.147 71.1158 132.207 70.9713C132.267 70.8272 132.323 70.6816 132.376 70.5343C132.428 70.3873 132.477 70.239 132.523 70.0898C132.568 69.9405 132.609 69.7899 132.647 69.6383C132.685 69.4871 132.72 69.3346 132.75 69.1816C132.78 69.0286 132.807 68.8747 132.83 68.7203C132.853 68.5659 132.872 68.411 132.887 68.2552C132.902 68.0999 132.914 67.9445 132.922 67.7883C132.93 67.6325 132.933 67.4762 132.933 67.3204C132.933 67.1641 132.93 67.0078 132.922 66.852C132.914 66.6962 132.902 66.5404 132.887 66.3851C132.872 66.2297 132.853 66.0749 132.83 65.9205C132.807 65.7656 132.78 65.6121 132.75 65.4587C132.72 65.3057 132.685 65.1536 132.647 65.002C132.609 64.8504 132.568 64.7002 132.523 64.5505C132.477 64.4012 132.428 64.2529 132.376 64.106C132.323 63.9591 132.267 63.8131 132.207 63.669C132.147 63.5249 132.084 63.3822 132.017 63.2409C131.95 63.0996 131.88 62.9602 131.807 62.8226C131.733 62.6851 131.656 62.5489 131.576 62.4151C131.496 62.2813 131.412 62.1493 131.325 62.0197C131.239 61.8897 131.149 61.7619 131.056 61.6365C130.963 61.5111 130.867 61.3881 130.768 61.2674C130.668 61.1467 130.566 61.0287 130.462 60.9127C130.357 60.7971 130.249 60.6844 130.139 60.574C130.028 60.4635 129.915 60.3555 129.799 60.2507C129.684 60.1459 129.566 60.0439 129.445 59.9451C129.324 59.8459 129.201 59.75 129.076 59.6569C128.95 59.5638 128.823 59.474 128.693 59.3874C128.563 59.3004 128.431 59.2171 128.297 59.1366C128.163 59.0566 128.028 58.9794 127.89 58.906C127.752 58.832 127.613 58.7619 127.472 58.6954C127.33 58.6285 127.188 58.5653 127.044 58.5055C126.899 58.4456 126.754 58.3894 126.607 58.337C126.459 58.2846 126.311 58.2355 126.162 58.1901C126.012 58.1447 125.862 58.1031 125.711 58.0652C125.559 58.0273 125.407 57.9931 125.254 57.9627C125.101 57.9323 124.947 57.9056 124.792 57.8827C124.638 57.8598 124.483 57.8406 124.328 57.8251C124.172 57.8097 124.016 57.7985 123.861 57.7905C123.704 57.783 123.549 57.7793 123.392 57.7793Z" fill="#F6C81B"/>
<path d="M128.562 66.8053C128.846 67.0888 128.846 67.5492 128.562 67.8332L123.937 72.4587C123.653 72.7423 123.192 72.7423 122.909 72.4587L118.283 67.8332C117.999 67.5492 117.999 67.0888 118.283 66.8053L122.909 62.1798C123.192 61.8958 123.653 61.8958 123.937 62.1798L128.562 66.8053Z" fill="#FBECCD"/>
</svg>
