<svg width="184" height="74" viewBox="0 0 184 74" fill="none" xmlns="http://www.w3.org/2000/svg">
<path d="M128.351 22.7949H128.034C124.644 22.7949 121.996 25.4429 121.996 28.8322V29.1503C121.996 32.4339 124.644 35.1876 128.034 35.1876H128.351C131.635 35.1876 134.389 32.5395 134.389 29.1503V28.8322C134.389 25.4429 131.741 22.7949 128.351 22.7949Z" fill="#FBECCD"/>
<path d="M128.351 41.8604H128.034C124.644 41.8604 121.996 44.614 121.996 47.8976V48.3214C121.996 51.605 124.644 54.3592 128.034 54.3592H128.351C131.635 54.3592 134.389 51.7112 134.389 48.3214V47.8976C134.389 44.614 131.741 41.8604 128.351 41.8604Z" fill="#FBECCD"/>
<path d="M128.351 61.0332H128.034C124.75 61.0332 121.996 63.6812 121.996 67.0711V67.4948C121.996 70.7784 124.644 73.5321 128.034 73.5321H128.351C131.635 73.5321 134.389 70.8841 134.389 67.4948V67.0711C134.389 63.6812 131.741 61.0332 128.351 61.0332Z" fill="#FBECCD"/>
<path d="M177.362 22.7949H146.253C143.142 22.7949 140.533 25.4429 140.533 28.8322V29.1503C140.533 32.4339 143.041 35.1876 146.253 35.1876H177.362C180.473 35.1876 183.083 32.5395 183.083 29.1503V28.8322C183.083 25.4429 180.473 22.7949 177.362 22.7949Z" fill="#FBECCD"/>
<path d="M177.362 41.8604H146.253C143.142 41.8604 140.533 44.5084 140.533 47.8976V48.3214C140.533 51.605 143.041 54.3592 146.253 54.3592H177.362C180.473 54.3592 183.083 51.7112 183.083 48.3214V47.8976C183.083 44.614 180.473 41.8604 177.362 41.8604Z" fill="#FBECCD"/>
<path d="M177.362 61.0332H146.253C143.142 61.0332 140.533 63.6812 140.533 67.0711V67.4948C140.533 70.7784 143.041 73.5321 146.253 73.5321H177.362C180.473 73.5321 183.083 70.8841 183.083 67.4948V67.0711C183.083 63.6812 180.473 61.0332 177.362 61.0332Z" fill="#FBECCD"/>
<path d="M89.4526 39.4969V41.6622H82.9339C82.0876 41.6622 81.4001 42.3683 81.4001 43.2366V50.1879C81.4001 51.0567 82.0876 51.7623 82.9339 51.7623H89.4526V53.9248C89.4526 54.539 89.7989 55.0952 90.3409 55.3527C90.8816 55.6112 91.5201 55.523 91.9753 55.127L100.283 47.9135C100.628 47.6157 100.825 47.1746 100.825 46.7132C100.825 46.2485 100.628 45.8108 100.283 45.511L92.004 38.3212C91.7325 38.0746 91.3761 37.9243 90.985 37.9243C90.1382 37.9243 89.4526 38.6281 89.4526 39.4969Z" fill="#9FEA38"/>
<path d="M101.039 37.0715H103.708V56.4873H101.039V59.0238H106.375V34.5342H101.039V37.0715Z" fill="#9FEA38"/>
<path d="M42.7989 12.3791C42.7989 19.215 37.257 24.7575 30.4198 24.7575C23.5839 24.7575 18.0414 19.215 18.0414 12.3791C18.0414 5.5425 23.5839 0 30.4198 0C37.257 0 42.7989 5.5425 42.7989 12.3791Z" fill="#F7DC19"/>
<path d="M39.3491 12.3793C39.3491 17.3097 35.3521 21.308 30.4199 21.308C25.4895 21.308 21.4918 17.3097 21.4918 12.3793C21.4918 7.44773 25.4895 3.45068 30.4199 3.45068C35.3521 3.45068 39.3491 7.44773 39.3491 12.3793Z" fill="#F6C81B"/>
<path d="M22.2874 13.1755C22.2874 8.24393 26.2851 4.24626 31.2161 4.24626C33.4793 4.24626 35.5442 5.08941 37.1181 6.47735C35.4818 4.62182 33.0889 3.45068 30.4199 3.45068C25.4895 3.45068 21.4918 7.44773 21.4918 12.3793C21.4918 15.0477 22.6636 17.4407 24.5185 19.0769C23.1305 17.5031 22.2874 15.4381 22.2874 13.1755Z" fill="#EFAA18"/>
<path d="M37.1335 12.3735C37.1335 16.0839 34.1253 19.0921 30.4143 19.0921C26.7032 19.0921 23.6951 16.0839 23.6951 12.3735C23.6951 8.66243 26.7032 5.6543 30.4143 5.6543C34.1253 5.6543 37.1335 8.66243 37.1335 12.3735Z" fill="#F6C81B"/>
<path d="M30.8206 16.4683C30.5952 16.6931 30.2295 16.6931 30.0047 16.4683L26.3332 12.7967C26.1077 12.5713 26.1077 12.2062 26.3332 11.9808L30.0047 8.30925C30.2295 8.08442 30.5952 8.08442 30.8206 8.30925L34.4916 11.9808C34.717 12.2062 34.717 12.5713 34.4916 12.7967L30.8206 16.4683Z" fill="#E6E7E8"/>
<path d="M19.2755 29.3651C22.6333 29.3651 25.3641 32.0953 25.3641 35.4487C25.3641 38.8065 22.6333 41.5373 19.2755 41.5373C15.9178 41.5373 13.187 38.8065 13.187 35.4487C13.187 32.0953 15.9178 29.3651 19.2755 29.3651ZM33.7689 30.3491C34.344 29.3867 35.5892 29.073 36.5522 29.6524C37.5146 30.2274 37.8234 31.477 37.249 32.435L25.0719 52.7254C24.6933 53.361 24.0224 53.7094 23.3343 53.7094C22.9773 53.7094 22.616 53.618 22.2892 53.4222C21.3312 52.8428 21.0174 51.5975 21.5925 50.6345L33.7689 30.3491ZM45.6538 47.6258C45.6538 50.9786 42.923 53.7094 39.5659 53.7094C36.2082 53.7094 33.4774 50.9786 33.4774 47.6258C33.4774 44.268 36.2082 41.5373 39.5659 41.5373C42.923 41.5373 45.6538 44.268 45.6538 47.6258ZM52.7529 35.4487H54.782C55.9013 35.4487 56.8117 36.3592 56.8117 37.4784C56.8117 38.602 55.9013 39.5075 54.782 39.5075H52.7529C51.6337 39.5075 50.7232 38.602 50.7232 37.4784C50.7232 36.3592 51.6337 35.4487 52.7529 35.4487ZM9.49384 60.116C10.1517 60.5336 10.5087 61.2915 10.4216 62.0537L15.5435 73.9998H20.2904V67.149C20.2904 66.5437 20.5603 65.9736 21.0217 65.59C21.4838 65.207 22.0977 65.0501 22.6858 65.1545C25.3159 65.6381 27.92 65.8865 30.4377 65.8865C32.297 65.8865 34.2001 65.7469 36.2471 65.464C36.8222 65.3898 37.4145 65.564 37.8543 65.947C38.2984 66.3349 38.5511 66.8921 38.5511 67.4758V73.9998H43.1065L46.0677 63.643C46.2289 63.0686 46.6384 62.5979 47.1783 62.3545C51.2328 60.5076 54.7517 57.9992 57.3559 55.1029C57.5912 54.8416 57.8871 54.6458 58.2182 54.5328L67.969 51.2399V42.2816L65.4087 41.9159C62.8996 41.5546 60.9095 39.699 60.335 37.1819C59.6728 34.264 58.3794 31.6512 56.5591 29.3651C56.228 28.947 55.8926 28.5374 55.5269 28.1452L54.8259 29.3651L54.2026 30.4405C53.824 31.094 53.1445 31.4554 52.4434 31.4554C52.0994 31.4554 51.751 31.3683 51.4286 31.1854C50.7578 30.7975 50.423 30.0835 50.4446 29.3651C50.4533 29.0384 50.5144 28.7116 50.6886 28.4108L52.4305 25.3971L53.441 23.6379L54.4688 21.8609L55.1872 20.6199C54.1551 20.3105 53.0834 20.2017 52.0209 20.2932C51.6337 20.3284 51.2414 20.3846 50.8541 20.476C50.2618 20.6156 49.7127 20.838 49.1858 21.0992C48.4804 21.4519 47.8491 21.909 47.3 22.4575C46.8602 22.8973 46.455 23.3767 46.1375 23.9252L45.3314 25.3193C44.7699 26.2903 43.529 26.617 42.5574 26.0636C41.5907 25.5021 41.2553 24.2606 41.8174 23.2896L42.6185 21.8961C42.8143 21.565 43.067 21.2821 43.2893 20.9769C39.4696 19.8361 35.1538 19.2178 30.4377 19.2178C18.5917 19.2178 9.30236 23.0326 4.24165 29.3651C1.52445 32.7618 0 36.8731 0 41.5373C0 49.9773 3.10511 56.0523 9.49384 60.116Z" fill="#39AAFF"/>
<path d="M39.5659 49.6507C40.6845 49.6507 41.595 48.7452 41.595 47.6259C41.595 46.5017 40.6845 45.5962 39.5659 45.5962C38.4466 45.5962 37.5361 46.5017 37.5361 47.6259C37.5361 48.7452 38.4466 49.6507 39.5659 49.6507Z" fill="#39AAFF"/>
<path d="M19.2754 37.4787C20.3947 37.4787 21.3045 36.5683 21.3045 35.449C21.3045 34.3298 20.3947 33.4199 19.2754 33.4199C18.1562 33.4199 17.2457 34.3298 17.2457 35.449C17.2457 36.5683 18.1562 37.4787 19.2754 37.4787Z" fill="#39AAFF"/>
</svg>
