<svg width="184" height="72" viewBox="0 0 184 72" fill="none" xmlns="http://www.w3.org/2000/svg">
<path d="M85.4743 35.9702V38.0372H79.1049C78.2779 38.0372 77.6062 38.7112 77.6062 39.54V46.1754C77.6062 47.0052 78.2779 47.6787 79.1049 47.6787H85.4743V49.743C85.4743 50.3289 85.8126 50.86 86.3423 51.1061C86.8706 51.3528 87.4948 51.2684 87.9392 50.8908L96.0571 44.0047C96.3941 43.7202 96.5868 43.2994 96.5868 42.8587C96.5868 42.4152 96.3941 41.9971 96.0571 41.7113L87.9673 34.8481C87.7018 34.6126 87.3537 34.4688 86.9716 34.4688C86.1441 34.4688 85.4743 35.1409 85.4743 35.9702Z" fill="#9FEA38"/>
<path d="M96.5865 33.2795H99.21V52.4357H96.5865V54.9384H101.833V30.7759H96.5865V33.2795Z" fill="#9FEA38"/>
<path d="M154.618 35.4781C154.267 35.4781 153.892 35.3372 153.635 35.0567C153.097 34.518 153.097 33.6284 153.635 33.0666L180.766 5.93523C181.305 5.39659 182.217 5.39659 182.756 5.93523C183.294 6.47388 183.294 7.36291 182.756 7.92524L155.625 35.0567C155.344 35.3372 154.993 35.4781 154.618 35.4781Z" fill="#FBECCD"/>
<path d="M159.885 18.8799C156.21 18.8799 153.213 15.8837 153.213 12.2085C153.213 8.53336 156.21 5.53711 159.885 5.53711C163.56 5.53711 166.557 8.53336 166.557 12.2085C166.557 15.8837 163.584 18.8799 159.885 18.8799ZM159.885 8.34571C157.755 8.34571 156.022 10.0782 156.022 12.2085C156.022 14.3388 157.755 16.0713 159.885 16.0713C162.016 16.0713 163.747 14.3388 163.747 12.2085C163.747 10.0782 162.016 8.34571 159.885 8.34571Z" fill="#FBECCD"/>
<path d="M176.506 35.4772C172.83 35.4772 169.834 32.4804 169.834 28.8052C169.834 25.13 172.83 22.1338 176.506 22.1338C180.181 22.1338 183.178 25.1064 183.178 28.7821C183.178 32.4573 180.181 35.4772 176.506 35.4772ZM176.506 24.9193C174.375 24.9193 172.643 26.6518 172.643 28.7821C172.643 30.9118 174.375 32.668 176.506 32.668C178.636 32.668 180.368 30.9355 180.368 28.8052C180.368 26.6749 178.636 24.9193 176.506 24.9193Z" fill="#FBECCD"/>
<path d="M150.896 30.8076C149.403 30.8076 148.195 29.6004 148.195 28.1065V20.6784C148.195 16.2108 144.56 12.5751 140.092 12.5751C135.624 12.5751 131.989 16.2108 131.989 20.6784V28.1065C131.989 29.6004 130.781 30.8076 129.288 30.8076C127.794 30.8076 126.586 29.6004 126.586 28.1065V20.6784C126.586 13.2315 132.645 7.17285 140.092 7.17285C147.539 7.17285 153.598 13.2315 153.598 20.6784V28.1065C153.598 29.6004 152.39 30.8076 150.896 30.8076Z" fill="#90A4AE"/>
<path d="M155.623 61.1961H124.561C121.211 61.1961 118.483 58.4682 118.483 55.1186V32.1591C118.483 28.81 121.211 26.0815 124.561 26.0815H155.623C158.973 26.0815 161.701 28.81 161.701 32.1591V55.1186C161.701 58.4682 158.973 61.1961 155.623 61.1961Z" fill="#FFC107"/>
<path d="M140.092 7.17285C132.645 7.17285 126.586 13.2315 126.586 20.6784V26.0807H131.989V20.6784C131.989 16.2108 135.624 12.5751 140.092 12.5751V7.17285Z" fill="#7D8F97"/>
<path d="M140.092 26.0815H124.561C121.211 26.0815 118.483 28.81 118.483 32.1591V55.1186C118.483 58.4682 121.211 61.1961 124.561 61.1961H140.092V26.0815Z" fill="#DEA806"/>
<path d="M165.752 36.8857C156.071 36.8857 148.195 44.7626 148.195 54.443C148.195 64.124 156.071 72.0003 165.752 72.0003C175.433 72.0003 183.31 64.124 183.31 54.443C183.31 44.7626 175.433 36.8857 165.752 36.8857Z" fill="#2196F3"/>
<path d="M171.714 60.4042C171.187 60.9313 170.496 61.1955 169.804 61.1955C169.113 61.1955 168.422 60.9313 167.894 60.4042L163.843 56.3525C163.335 55.8473 163.052 55.1617 163.052 54.4427V47.6899C163.052 46.1966 164.259 44.9888 165.753 44.9888C167.247 44.9888 168.454 46.1966 168.454 47.6899V53.3247L171.714 56.5851C172.77 57.6411 172.77 59.3482 171.714 60.4042Z" fill="#FBECCD"/>
<path d="M165.752 36.8857C156.071 36.8857 148.195 44.7626 148.195 54.443C148.195 64.124 156.071 72.0003 165.752 72.0003V58.2627L163.843 56.3529C163.335 55.8476 163.051 55.162 163.051 54.443V47.6902C163.051 46.1969 164.259 44.9891 165.752 44.9891V36.8857Z" fill="#1D83D4"/>
<path d="M165.501 44.9888C164.007 44.9888 162.799 46.1966 162.799 47.6899V54.4427C162.799 55.1617 163.083 55.8473 163.591 56.3525L165.501 58.2624V44.9888Z" fill="#DEDEDE"/>
<path d="M45.0263 23.5175V11.8458C45.0263 11.711 45.0184 11.5768 45.002 11.4426C44.9856 11.3084 44.9619 11.176 44.9297 11.0448C44.8976 10.9143 44.8575 10.7855 44.8101 10.6592C44.7621 10.5329 44.7069 10.4096 44.6449 10.29C44.5824 10.1704 44.5132 10.055 44.4366 9.94387C44.3601 9.83213 44.2775 9.72586 44.1883 9.62445C44.099 9.52303 44.0043 9.42709 43.9035 9.33721C43.8033 9.24733 43.6976 9.16353 43.5865 9.08641C43.476 9.00929 43.3612 8.93884 43.2416 8.87508C43.1225 8.81193 42.9999 8.75545 42.8742 8.70687C42.7478 8.65768 42.6197 8.61699 42.4891 8.58359C42.358 8.55019 42.2256 8.52469 42.0914 8.50708C41.9578 8.49007 41.823 8.48036 41.6882 8.47914C41.5534 8.47793 41.4185 8.48461 41.2843 8.49979C41.1501 8.51437 41.0171 8.53744 40.8854 8.56841C40.7542 8.59878 40.6248 8.63764 40.4979 8.68379L1.99365 22.8234C1.84973 22.8762 1.71006 22.94 1.57585 23.014C1.44104 23.0881 1.31291 23.1725 1.19085 23.2661C1.06879 23.3596 0.954621 23.4616 0.84835 23.5721C0.742078 23.6832 0.644309 23.8017 0.556255 23.9268C0.467594 24.0525 0.389257 24.1842 0.320029 24.3215C0.251408 24.4587 0.193718 24.6008 0.146351 24.7466C0.0995916 24.8929 0.0637628 25.0417 0.038865 25.1935C0.0145744 25.3447 0.00121461 25.4978 0 25.6508V58.7243C0 59.0443 0.0151815 59.3637 0.0467594 59.6825C0.0783371 60.0014 0.125097 60.3184 0.187645 60.6323C0.250193 60.9463 0.327923 61.2572 0.421442 61.5633C0.514354 61.8699 0.622447 62.1711 0.745115 62.4675C0.867782 62.7632 1.00442 63.0529 1.15563 63.3353C1.30684 63.6176 1.4714 63.8921 1.64994 64.1587C1.82787 64.4247 2.01855 64.6822 2.22198 64.9293C2.42542 65.1771 2.64039 65.4145 2.8669 65.641C3.09402 65.8675 3.33146 66.0819 3.57922 66.2853C3.82699 66.4888 4.08386 66.6795 4.35045 66.8574C4.61704 67.0353 4.89213 67.1999 5.17451 67.3505C5.45749 67.5017 5.74716 67.6383 6.04351 67.761C6.33924 67.8837 6.64106 67.9918 6.94772 68.0847C7.255 68.1776 7.56531 68.2553 7.87988 68.3179C8.19444 68.3804 8.51083 68.4272 8.83025 68.4588C9.14906 68.4903 9.46909 68.5055 9.78973 68.5055H57.3896C57.5323 68.5061 57.6744 68.4994 57.8165 68.4861C57.9586 68.4727 58.0995 68.4521 58.2398 68.4247C58.3795 68.3968 58.5179 68.3628 58.6546 68.3215C58.7912 68.2808 58.9254 68.2328 59.0572 68.1788C59.1896 68.1248 59.3183 68.064 59.444 67.9972C59.5703 67.9298 59.6924 67.8569 59.8114 67.778C59.9304 67.6991 60.0446 67.6147 60.1551 67.5242C60.2656 67.4337 60.3713 67.3383 60.4727 67.2381C60.5735 67.1373 60.6695 67.0317 60.7599 66.9218C60.8504 66.8118 60.9354 66.6977 61.015 66.5793C61.0945 66.4602 61.168 66.3382 61.2354 66.2131C61.3028 66.0874 61.3636 65.9586 61.4182 65.8269C61.4729 65.6951 61.5215 65.5609 61.5627 65.4249C61.604 65.2882 61.6387 65.1504 61.6666 65.0101C61.6945 64.8704 61.7158 64.7295 61.7297 64.588C61.7437 64.4459 61.7504 64.3038 61.7504 64.1611V27.8618C61.7504 27.7197 61.7437 27.5776 61.7297 27.4361C61.7158 27.2947 61.6951 27.1538 61.6672 27.0141C61.6393 26.875 61.6047 26.7372 61.5634 26.6006C61.5221 26.4645 61.4741 26.3309 61.4194 26.1992C61.3654 26.068 61.3041 25.9392 61.2373 25.8141C61.1698 25.6884 61.097 25.5664 61.018 25.448C60.9385 25.3302 60.8541 25.216 60.7636 25.1055C60.6731 24.9956 60.5778 24.8905 60.477 24.7897C60.3762 24.6895 60.2711 24.5935 60.1606 24.5037C60.0507 24.4132 59.9365 24.3288 59.8181 24.2498C59.6997 24.1703 59.5776 24.0974 59.4519 24.0306C59.3262 23.9632 59.1981 23.9025 59.0663 23.8478C58.9345 23.7938 58.8009 23.7458 58.6643 23.7045C58.5282 23.6632 58.3904 23.6286 58.2507 23.6007C58.1111 23.5733 57.9702 23.5521 57.8287 23.5381C57.6866 23.5241 57.5445 23.5175 57.4024 23.5175H45.0263Z" fill="#39AAFF"/>
<path d="M40.4977 8.68379L1.99346 22.8234C1.56412 22.9812 1.19065 23.2254 0.874268 23.5557H45.0261V11.8458C45.0261 11.711 45.0182 11.5768 45.0018 11.4426C44.9854 11.3084 44.9617 11.176 44.9296 11.0448C44.8974 10.9143 44.8573 10.7855 44.8099 10.6592C44.7619 10.5329 44.7067 10.4096 44.6447 10.29C44.5822 10.1704 44.513 10.055 44.4365 9.94387C44.3599 9.83213 44.2774 9.72586 44.1881 9.62445C44.0988 9.52303 44.0041 9.42709 43.9033 9.33721C43.8031 9.24733 43.6974 9.16353 43.5863 9.08641C43.4758 9.00929 43.361 8.93884 43.2414 8.87508C43.1223 8.81193 42.9997 8.75545 42.874 8.70687C42.7477 8.65768 42.6195 8.61699 42.489 8.58359C42.3578 8.55019 42.2254 8.52469 42.0912 8.50708C41.9576 8.49007 41.8228 8.48036 41.688 8.47914C41.5532 8.47793 41.4183 8.48461 41.2841 8.49979C41.1499 8.51437 41.0169 8.53744 40.8852 8.56841C40.754 8.59878 40.6246 8.63764 40.4977 8.68379Z" fill="#737373"/>
<path d="M51.459 46.0121C51.459 46.0959 51.4547 46.1803 51.4462 46.2641C51.4383 46.3479 51.4256 46.4311 51.4092 46.5137C51.3928 46.5963 51.3721 46.6776 51.3478 46.7584C51.3235 46.8386 51.295 46.9181 51.2628 46.9958C51.2306 47.0736 51.1948 47.1495 51.1547 47.2236C51.1152 47.2983 51.0721 47.3699 51.0248 47.4404C50.978 47.5102 50.9282 47.5776 50.8748 47.6426C50.8213 47.7076 50.7649 47.7701 50.7053 47.8296C50.6452 47.8891 50.5833 47.9456 50.5177 47.9991C50.4527 48.0525 50.3853 48.1029 50.3155 48.1497C50.245 48.1964 50.1728 48.2395 50.0987 48.279C50.024 48.3185 49.9481 48.3549 49.8703 48.3871C49.7926 48.4193 49.7131 48.4472 49.6329 48.4721C49.5521 48.4964 49.4702 48.517 49.3876 48.5334C49.305 48.5498 49.2218 48.562 49.138 48.5705C49.0542 48.5784 48.9698 48.5826 48.886 48.5826C48.8016 48.5826 48.7172 48.5784 48.6333 48.5705C48.5495 48.562 48.4664 48.5498 48.3838 48.5334C48.3012 48.517 48.2192 48.4964 48.139 48.4721C48.0583 48.4472 47.9787 48.4193 47.901 48.3871C47.8233 48.3549 47.7473 48.3185 47.6727 48.279C47.5986 48.2395 47.5263 48.1964 47.4565 48.1497C47.386 48.1029 47.3186 48.0525 47.2536 47.9991C47.1881 47.9456 47.1261 47.8891 47.0666 47.8296C47.0065 47.7701 46.95 47.7076 46.8966 47.6426C46.8431 47.5776 46.7933 47.5102 46.7466 47.4404C46.6998 47.3699 46.6561 47.2983 46.6166 47.2236C46.5771 47.1495 46.5407 47.0736 46.5085 46.9958C46.4763 46.9181 46.4478 46.8386 46.4235 46.7584C46.3992 46.6776 46.3786 46.5963 46.3622 46.5137C46.3458 46.4311 46.3336 46.3479 46.3251 46.2641C46.3166 46.1803 46.313 46.0959 46.313 46.0121C46.313 45.9277 46.3166 45.8439 46.3251 45.7601C46.3336 45.6763 46.3458 45.5931 46.3622 45.5105C46.3786 45.4279 46.3992 45.3459 46.4235 45.2658C46.4478 45.185 46.4763 45.106 46.5085 45.0283C46.5407 44.9506 46.5771 44.8741 46.6166 44.8C46.6561 44.7259 46.6998 44.6536 46.7466 44.5838C46.7933 44.5133 46.8431 44.4459 46.8966 44.381C46.95 44.316 47.0065 44.2534 47.0666 44.1939C47.1261 44.1344 47.1881 44.0779 47.2536 44.0245C47.3186 43.9711 47.386 43.9213 47.4565 43.8745C47.5263 43.8277 47.5986 43.7846 47.6727 43.7446C47.7473 43.7051 47.8233 43.6692 47.901 43.6371C47.9787 43.6043 48.0583 43.5763 48.139 43.552C48.2192 43.5271 48.3012 43.5071 48.3838 43.4907C48.4664 43.4743 48.5495 43.4616 48.6333 43.4537C48.7172 43.4452 48.8016 43.4409 48.886 43.4409C48.9698 43.4409 49.0542 43.4452 49.138 43.4537C49.2218 43.4616 49.305 43.4743 49.3876 43.4907C49.4702 43.5071 49.5521 43.5271 49.6329 43.552C49.7131 43.5763 49.7926 43.6043 49.8703 43.6371C49.9481 43.6692 50.024 43.7051 50.0987 43.7446C50.1728 43.7846 50.245 43.8277 50.3155 43.8745C50.3853 43.9213 50.4527 43.9711 50.5177 44.0245C50.5833 44.0779 50.6452 44.1344 50.7053 44.1939C50.7649 44.2534 50.8213 44.316 50.8748 44.381C50.9282 44.4459 50.978 44.5133 51.0248 44.5838C51.0721 44.6536 51.1152 44.7259 51.1547 44.8C51.1948 44.8741 51.2306 44.9506 51.2628 45.0283C51.295 45.106 51.3235 45.185 51.3478 45.2658C51.3721 45.3459 51.3928 45.4279 51.4092 45.5105C51.4256 45.5931 51.4383 45.6763 51.4462 45.7601C51.4547 45.8439 51.459 45.9277 51.459 46.0121Z" fill="#FBECCD"/>
<path d="M47.1251 16.3002C47.1251 25.3017 39.827 32.5998 30.8243 32.5998C21.8222 32.5998 14.5247 25.3017 14.5247 16.3002C14.5247 7.29812 21.8222 0 30.8243 0C39.827 0 47.1251 7.29812 47.1251 16.3002Z" fill="#F7DC19"/>
<path d="M42.5816 16.3007C42.5816 22.7936 37.3184 28.058 30.8243 28.058C24.3314 28.058 19.0676 22.7936 19.0676 16.3007C19.0676 9.80723 24.3314 4.54346 30.8243 4.54346C37.3184 4.54346 42.5816 9.80723 42.5816 16.3007Z" fill="#F6C81B"/>
<path d="M20.1158 17.3489C20.1158 10.8554 25.3802 5.59099 31.873 5.59099C34.8529 5.59099 37.5716 6.70168 39.6442 8.52894C37.4896 6.08591 34.3385 4.54346 30.8243 4.54346C24.3314 4.54346 19.0676 9.80723 19.0676 16.3007C19.0676 19.8144 20.6107 22.9655 23.0537 25.1194C21.2258 23.0474 20.1158 20.3281 20.1158 17.3489Z" fill="#EFAA18"/>
<path d="M40.0615 16.0647C40.0615 20.6678 35.9309 24.3994 30.8359 24.3994C25.741 24.3994 21.6104 20.6678 21.6104 16.0647C21.6104 11.4616 25.741 7.72998 30.8359 7.72998C35.9315 7.72998 40.0615 11.4616 40.0615 16.0647Z" fill="#F6C81B"/>
<path d="M36.331 15.9806C36.6213 16.2709 36.6213 16.7422 36.331 17.0318L31.6004 21.763C31.3102 22.0533 30.8389 22.0533 30.5486 21.763L25.818 17.0318C25.5278 16.7422 25.5278 16.2709 25.818 15.9806L30.5486 11.2494C30.8389 10.9592 31.3102 10.9592 31.6004 11.2494L36.331 15.9806Z" fill="#E6E7E8"/>
</svg>
