<svg width="237" height="49" viewBox="0 0 237 49" fill="none" xmlns="http://www.w3.org/2000/svg">
<path d="M64.1082 15.6521H66.6848L73.8945 32.388H70.4906L68.9305 28.5586H61.6735L60.1606 32.388H56.8276L64.1082 15.6521ZM67.8903 26.0057L65.3138 19.1979L62.6899 26.0057H67.8903Z" fill="white"/>
<path d="M77.0889 15.6521H80.5164L85.0786 28.2986L89.7824 15.6521H92.9978L86.2369 32.388H83.6605L77.0889 15.6521Z" fill="white"/>
<path d="M103.642 15.6521H106.219L113.428 32.388H110.024L108.464 28.5586H101.207L99.6939 32.388H96.3613L103.642 15.6521ZM107.424 26.0057L104.847 19.1979L102.224 26.0057H107.424Z" fill="white"/>
<path d="M120.016 15.6521H122.994V29.6932H130.109V32.388H120.016V15.6521Z" fill="white"/>
<path d="M142.414 15.6521H144.991L152.2 32.388H148.796L147.237 28.5586H139.979L138.467 32.388H135.134L142.414 15.6521ZM146.196 26.0057L143.62 19.1979L140.996 26.0057H146.196Z" fill="white"/>
<path d="M158.788 15.6521H162.736L170.843 28.0859H170.891V15.6521H173.869V32.388H170.087L161.813 19.5524H161.767V32.388H158.788V15.6521Z" fill="white"/>
<path d="M193.818 19.576C193.204 18.9141 192.605 18.4729 192.022 18.2523C191.455 18.0317 190.879 17.9213 190.296 17.9213C189.43 17.9213 188.641 18.0789 187.932 18.3941C187.239 18.6935 186.64 19.119 186.136 19.6706C185.632 20.2064 185.238 20.8367 184.953 21.5616C184.686 22.2865 184.552 23.0666 184.552 23.9018C184.552 24.8001 184.686 25.6274 184.953 26.3839C185.238 27.1403 185.632 27.7943 186.136 28.3459C186.64 28.8974 187.239 29.3308 187.932 29.6459C188.641 29.9612 189.43 30.1187 190.296 30.1187C190.974 30.1187 191.627 29.9612 192.258 29.6459C192.904 29.315 193.503 28.7949 194.055 28.0858L196.513 29.8351C195.756 30.8751 194.835 31.6316 193.747 32.1044C192.66 32.5771 191.501 32.8135 190.272 32.8135C188.98 32.8135 187.79 32.6086 186.703 32.1989C185.632 31.7734 184.702 31.1824 183.914 30.426C183.141 29.6538 182.534 28.7319 182.094 27.6603C181.652 26.5887 181.432 25.3989 181.432 24.0909C181.432 22.7514 181.652 21.538 182.094 20.4506C182.534 19.3476 183.141 18.4099 183.914 17.6377C184.702 16.8655 185.632 16.2746 186.703 15.8648C187.79 15.4393 188.98 15.2266 190.272 15.2266C191.407 15.2266 192.455 15.4314 193.417 15.8412C194.393 16.2352 195.299 16.9128 196.135 17.8741L193.818 19.576Z" fill="white"/>
<path d="M203.239 15.6521H206.217V22.3181H214.041V15.6521H217.02V32.388H214.041V25.0129H206.217V32.388H203.239V15.6521Z" fill="white"/>
<path d="M225.488 15.6521H236.574V18.3469H228.466V22.4599H236.149V25.1547H228.466V29.6932H237V32.388H225.488V15.6521Z" fill="white"/>
<path fill-rule="evenodd" clip-rule="evenodd" d="M24.0054 48.0109C37.2633 48.0109 48.0109 37.2633 48.0109 24.0055C48.0109 10.7476 37.2633 0 24.0054 0C10.7476 0 0 10.7476 0 24.0055C0 37.2633 10.7476 48.0109 24.0054 48.0109ZM16.7521 34.881H11.1206C9.78544 34.881 9.11782 34.881 8.718 34.6224C8.2859 34.343 8.01327 33.8741 7.9844 33.3607C7.95761 32.8855 8.28827 32.3062 8.94959 31.1477L8.94989 31.1473L21.2796 9.5469C21.9507 8.37119 22.2862 7.78333 22.7132 7.5645C23.1744 7.3281 23.7214 7.32769 24.1829 7.56346C24.6102 7.78163 24.9466 8.36903 25.6193 9.54371L28.463 14.5086L28.4631 14.5088C28.9523 15.3629 29.1969 15.79 29.3045 16.2406C29.4216 16.7312 29.4218 17.2422 29.3052 17.7328C29.198 18.1835 28.9537 18.6109 28.4652 19.4656L21.0921 32.3639C20.5965 33.231 20.3487 33.6646 20.0091 33.9887C19.6395 34.3414 19.1913 34.6015 18.7014 34.7472C18.2512 34.881 17.7515 34.881 16.7521 34.881ZM36.8434 34.881H30.3144C28.9671 34.881 28.2934 34.881 27.8923 34.6202C27.4589 34.3383 27.1871 33.8659 27.1615 33.3501C27.1378 32.8726 27.4768 32.2909 28.1549 31.1276L31.414 25.5361C32.0836 24.3875 32.4184 23.8133 32.8422 23.5981C33.3002 23.3657 33.8419 23.3653 34.3003 23.597C34.7245 23.8115 35.06 24.3853 35.7311 25.5327L35.7312 25.5331L39.0012 31.1245C39.6818 32.2885 40.0221 32.8705 39.9989 33.3484C39.9738 33.8647 39.7021 34.3376 39.2685 34.6199C38.8674 34.881 38.1928 34.881 36.8434 34.881Z" fill="white"/>
</svg>
