<svg width="166" height="45" viewBox="0 0 166 45" fill="none" xmlns="http://www.w3.org/2000/svg">
<path d="M46.2927 5.42159H53.9248C55.8641 5.42159 57.2821 5.9429 58.1996 6.83957C59.0962 7.61112 59.4924 8.65375 59.4924 9.67553C59.4924 10.0717 59.4924 10.5722 59.3673 10.9684C59.1171 11.6148 58.7209 12.2613 58.1996 12.7826C57.9494 13.0328 57.6783 13.1788 57.428 13.3039C58.3247 13.5541 59.1171 14.0754 59.7635 14.7219C60.2848 15.3683 60.5351 16.1398 60.5351 17.3076C60.5351 17.954 60.41 18.7256 60.1389 19.2469C59.8886 19.7682 59.3673 20.2895 58.846 20.6649C58.1996 21.0611 57.5531 21.3113 56.9067 21.5615C56.1352 21.8118 55.2177 21.8118 54.321 21.8118H46.4178V5.37988H46.2927V5.42159ZM53.2784 12.1361C53.9248 12.1361 54.5712 12.011 55.2177 11.7399C55.739 11.4897 55.9892 10.9684 55.9892 10.4471C55.9892 9.92576 55.739 9.40444 55.3428 9.15421C54.8215 8.75801 54.175 8.6329 53.5286 8.75801H49.9002V12.2404H53.2575V12.1361H53.2784ZM54.175 18.7464C54.8215 18.7464 55.4679 18.6213 56.1143 18.3502C56.6356 18.1 56.8859 17.5787 56.7608 16.9322C56.7608 16.4109 56.5105 15.8896 56.1143 15.6394C55.7181 15.3892 54.9466 15.1181 54.0499 15.1181H49.7751V18.7464H54.175Z" fill="#F3BA2F"/>
<path d="M65.0398 5.42139H68.6682V21.9784H65.0398V5.42139Z" fill="#F3BA2F"/>
<path d="M74.2356 5.42139H77.5929L85.35 15.6392V5.42139H88.9576V21.9784H85.8714L77.718 11.4895V21.9784H74.2356V5.42139Z" fill="#F3BA2F"/>
<path d="M99.9679 5.29663H103.325L110.436 21.9787H106.682L105.139 18.2253H98.1537L96.6107 21.9787H92.8572L99.9679 5.29663ZM103.847 15.1182L101.657 9.69654L99.4675 15.1182H103.847Z" fill="#F3BA2F"/>
<path d="M114.314 5.42139H117.672L125.429 15.6392V5.42139H129.057V21.9784H125.95L117.922 11.4895V21.9784H114.314V5.42139Z" fill="#F3BA2F"/>
<path d="M142.236 22.2289C141.068 22.2289 139.9 21.9786 138.878 21.5824C136.814 20.6858 135.25 19.1218 134.353 17.0574C133.957 16.0148 133.707 14.8679 133.707 13.7001C133.707 11.5106 134.604 9.30021 136.168 7.632C136.939 6.86045 137.857 6.21402 138.878 5.81782C140.046 5.2965 141.214 5.17139 142.361 5.17139C143.007 5.17139 143.779 5.17139 144.425 5.2965C145.072 5.42162 145.593 5.54674 146.114 5.81782C146.636 6.06805 147.157 6.33914 147.532 6.58937C147.929 6.8396 148.429 7.2358 148.825 7.632L146.636 10.3428C145.989 9.82153 145.343 9.30021 144.696 8.92486C144.05 8.54951 143.278 8.40355 142.507 8.40355C141.86 8.40355 141.214 8.52866 140.568 8.79975C139.921 9.04998 139.4 9.44618 139.024 9.96749C138.649 10.4888 138.253 11.0101 137.982 11.6566C137.732 12.303 137.586 12.9494 137.586 13.5959C137.586 14.2423 137.711 15.0138 137.982 15.6603C138.253 16.3067 138.503 16.828 139.024 17.3493C139.921 18.392 141.214 18.8924 142.507 18.8924C143.278 18.8924 144.196 18.7673 144.967 18.3711C145.614 17.9749 146.385 17.4744 146.907 16.9531L149.221 19.2678C148.825 19.664 148.325 20.1644 147.929 20.5606C147.407 20.9568 146.886 21.2071 146.385 21.4573C145.864 21.7075 145.218 21.9786 144.571 22.1037C143.654 22.2288 142.882 22.2289 142.236 22.2289Z" fill="#F3BA2F"/>
<path d="M153.371 5.42139H165.779V8.65355H156.854V12.0108H164.736V15.243H156.854V18.7462H165.904V21.9784H153.371V5.42139Z" fill="#F3BA2F"/>
<path d="M50.9434 38.2648C50.0468 38.2648 49.1293 38.1397 48.3577 37.7435C47.5862 37.4932 46.8146 36.9719 46.0222 36.3255L47.3151 34.9075C47.8364 35.4288 48.3577 35.679 49.0041 36.0752C49.6506 36.3255 50.297 36.4714 50.9434 36.4714C51.4648 36.4714 51.9861 36.3463 52.4865 36.0752C52.8827 35.825 53.0079 35.4288 53.0079 35.0326C53.0079 34.9075 53.0078 34.6364 52.8827 34.5113C52.7576 34.3862 52.6325 34.1151 52.4865 33.99C52.2363 33.8649 51.9652 33.7397 51.715 33.5938C51.3188 33.4687 50.8183 33.3435 50.4221 33.1976C49.9008 33.0725 49.2544 32.9473 48.7331 32.6763C48.3369 32.5511 47.8364 32.2801 47.5653 32.0298C47.3151 31.7796 47.044 31.5085 46.7938 31.1332C46.5435 30.6118 46.5435 30.0905 46.5435 29.7152C46.5435 29.1939 46.6686 28.8185 46.7938 28.2972C46.9189 27.901 47.3151 27.5257 47.5653 27.2546C47.9615 27.0043 48.3369 26.7333 48.8582 26.6081C49.3795 26.483 49.9008 26.3579 50.4013 26.3579C51.1728 26.3579 51.9444 26.483 52.7368 26.7541C53.3832 27.0043 54.0296 27.4005 54.6761 27.7967L53.6334 29.3398C53.1121 28.9436 52.5908 28.6934 52.0903 28.4432C51.569 28.1929 51.0477 28.1929 50.5472 28.1929C50.0259 28.1929 49.5046 28.3181 49.1293 28.5891C48.879 28.8394 48.6079 29.2356 48.6079 29.6318C48.6079 29.882 48.6079 30.028 48.7331 30.2782C48.8582 30.4033 48.9833 30.6744 49.1293 30.7995C49.3795 30.9246 49.6506 31.0498 50.0259 31.1957C50.4221 31.3208 50.7975 31.446 51.4439 31.5919C51.9652 31.717 52.4865 31.8422 53.133 32.1132C53.5292 32.2384 53.9045 32.5094 54.3007 32.7597C54.5509 33.0099 54.822 33.4061 54.9471 33.6563C55.0723 34.0525 55.1974 34.4279 55.1974 34.9492C55.1974 35.4705 55.0723 35.9918 54.9471 36.3672C54.6969 36.7634 54.4258 37.1387 54.0505 37.5349C53.6543 37.7852 53.2789 38.0562 52.7576 38.1814C52.1112 38.1397 51.4648 38.2648 50.9434 38.2648Z" fill="#F3BA2F"/>
<path d="M57.4077 26.5039H59.6181L63.1005 31.9256L66.7288 26.5039H68.9184V38.1397H66.854V29.7361L63.2256 35.1578H63.1005L59.493 29.7361V38.1397H57.4077V26.5039Z" fill="#F3BA2F"/>
<path d="M75.9042 26.3789H77.8434L82.8898 38.0147H80.7003L79.5325 35.1787H74.1108L72.9431 38.0147H70.8787L75.9042 26.3789ZM78.8861 33.4897L76.8217 28.8395L74.8824 33.4897H78.8861Z" fill="#F3BA2F"/>
<path d="M84.954 26.5039H90.1254C90.7719 26.5039 91.4183 26.629 92.0647 26.7541C92.586 26.8792 93.1074 27.2755 93.4827 27.6508C93.7329 27.901 94.004 28.2972 94.2543 28.8185C94.3794 29.2147 94.5045 29.7152 94.5045 30.2365C94.5045 30.6327 94.3794 31.1332 94.2543 31.5294C94.1291 31.9256 93.8581 32.1758 93.7329 32.572C93.4827 32.8223 93.2116 33.0933 92.8363 33.3436C92.4401 33.5938 92.0647 33.7398 91.6685 33.8649L94.7756 38.2648H92.3149L89.479 34.2611H86.8933V38.2648H84.8289L84.954 26.5039ZM90.0003 32.1967C90.6467 32.1967 91.2932 32.0716 91.6894 31.6754C92.0856 31.2792 92.3358 30.7787 92.3358 30.2574C92.3358 29.7361 92.0856 29.2147 91.6894 28.8394C91.1681 28.4432 90.5216 28.3181 89.8752 28.3181H86.8933V32.1967H90.0003Z" fill="#F3BA2F"/>
<path d="M99.8218 28.3181H96.0684V26.5039H105.515V28.3181H101.761V38.1397H99.6967L99.8218 28.3181Z" fill="#F3BA2F"/>
<path d="M118.068 38.2645C117.296 38.2645 116.525 38.1394 115.732 37.7432C114.314 37.0968 113.147 36.0541 112.625 34.6361C112.375 33.8646 112.104 33.093 112.229 32.3006C112.229 31.5291 112.354 30.7575 112.625 29.9651C113.147 28.5472 114.314 27.3794 115.732 26.733C116.504 26.4828 117.275 26.2117 118.193 26.2117C118.714 26.2117 119.236 26.2117 119.611 26.3368C120.007 26.4619 120.382 26.587 120.779 26.733C121.175 26.8581 121.425 27.1292 121.821 27.2543C122.071 27.5045 122.468 27.7756 122.718 28.0259L121.425 29.5689C121.029 29.1727 120.528 28.7974 120.007 28.5263C119.486 28.2761 118.839 28.1301 118.193 28.1301C117.672 28.1301 117.15 28.2552 116.65 28.3803C116.128 28.6306 115.753 28.9017 115.357 29.277C114.961 29.6732 114.711 30.0486 114.585 30.5699C114.46 31.0912 114.335 31.6125 114.335 32.113C114.335 32.6343 114.46 33.1556 114.585 33.6561C114.711 34.1565 114.982 34.5527 115.357 34.9489C115.753 35.3451 116.128 35.5954 116.65 35.8456C117.171 36.0958 117.692 36.2418 118.193 36.0958C118.839 36.0958 119.486 35.9707 120.007 35.6996C120.528 35.4494 121.05 35.0532 121.55 34.5319L122.843 35.8247C122.593 36.075 122.197 36.4712 121.946 36.7214C121.55 36.9716 121.3 37.2427 120.904 37.3678C120.508 37.4929 120.132 37.764 119.611 37.764C119.09 38.2645 118.568 38.2645 118.068 38.2645Z" fill="#F3BA2F"/>
<path d="M124.908 26.5039H126.847V31.2792H132.415V26.5039H134.479V38.1397H132.415V33.2185H126.847V38.1397H124.908V26.5039Z" fill="#F3BA2F"/>
<path d="M141.59 26.3789H143.529L148.576 38.0147H146.386L145.218 35.1787H139.797L138.629 38.0147H136.564L141.59 26.3789ZM144.447 33.4897L142.507 28.8395L140.568 33.4897H144.447Z" fill="#F3BA2F"/>
<path d="M150.64 26.5039H152.725V38.1397H150.64V26.5039Z" fill="#F3BA2F"/>
<path d="M155.811 26.5039H157.625L163.839 34.5113V26.5039H165.904V38.1397H164.215L157.896 29.8612V38.1397H155.811V26.5039Z" fill="#F3BA2F"/>
<path d="M23.5429 37.3679V42.4143L19.143 45L14.8682 42.4143V37.3679L19.143 39.9537L23.5429 37.3679ZM0.000244141 19.9143L4.27503 22.5V31.1538L11.636 35.5538V40.6001L0.000244141 33.7396V19.9143ZM38.2857 19.9143V33.7604L26.5248 40.6209V35.5746L33.8858 31.1747V22.5209L38.2857 19.9143ZM26.5039 13.0538L30.9039 15.6395V20.6858L23.5429 25.0857V33.8647L19.2681 36.4504L15.0141 33.8647V25.0649L7.38208 20.665V15.6186L11.782 13.0329L19.143 17.4328L26.5039 13.0538ZM7.38208 24.2933L11.6569 26.8791V31.9254L7.38208 29.3397V24.2933ZM30.9039 24.2933V29.3397L26.6291 31.9254V26.8791L30.9039 24.2933ZM4.27503 8.65385L8.67494 11.2396L4.27503 13.8253V18.8716L0.000244141 16.2859V11.2396L4.27503 8.65385ZM34.0109 8.65385L38.4108 11.2396V16.2859L34.0109 18.8716V13.8253L29.7361 11.2396L34.0109 8.65385ZM19.143 8.65385L23.5429 11.2396L19.143 13.8253L14.8682 11.2396L19.143 8.65385ZM19.143 0L30.9039 6.86052L26.6291 9.44624L19.2681 5.04634L11.7611 9.44624L7.48634 6.86052L19.143 0Z" fill="#F3BA2F"/>
</svg>
