<svg width="224" height="44" viewBox="0 0 224 44" fill="none" xmlns="http://www.w3.org/2000/svg">
<path d="M23.5951 2.06714C23.4712 1.36491 22.8016 0.896008 22.0993 1.01983C21.3971 1.14365 20.9282 1.81331 21.052 2.51555L21.6428 5.86601C20.5988 5.06699 19.4674 4.48899 18.2488 4.15254C16.5236 3.66081 14.7855 3.68552 13.0661 4.22265C11.3449 4.7177 9.79372 5.68307 8.41203 7.06477L4.8099 10.6669C2.66318 12.8136 1.35829 15.1727 1.06142 17.7421C0.758975 20.3164 1.57689 22.5845 3.43918 24.4468L5.19243 26.2001C6.76392 27.7716 8.66611 28.5801 10.8384 28.5545L10.8532 28.5543C13.0153 28.504 15.1652 27.638 17.284 26.1116C17.8625 25.6947 17.9937 24.8878 17.5768 24.3093C17.16 23.7307 16.3531 23.5996 15.7746 24.0164C13.9436 25.3355 12.2919 25.936 10.8006 25.9725C9.36333 25.9877 8.12267 25.4785 7.01836 24.3741L5.26511 22.6209C3.94001 21.2958 3.41904 19.8029 3.62616 18.0424L3.62649 18.0396C3.83999 16.1893 4.78767 14.341 6.63583 12.4928L10.238 8.8907C11.3596 7.76908 12.5444 7.0573 13.7919 6.70088L13.8081 6.69623L13.8243 6.69115C15.0729 6.29873 16.3026 6.28208 17.5453 6.63713L17.5572 6.64048C18.4332 6.88169 19.2775 7.30432 20.0901 7.92935L16.8628 8.49841C16.1606 8.62223 15.6917 9.29189 15.8155 9.99413C15.9393 10.6964 16.609 11.1653 17.3112 11.0414L24.9403 9.69623L23.5951 2.06714Z" fill="white"/>
<path d="M25.8719 26.1821C25.6584 28.0324 24.7107 29.8807 22.8626 31.7288L19.2605 35.331C18.1388 36.4526 16.954 37.1644 15.7066 37.5208L15.6903 37.5254L15.6741 37.5305C14.4255 37.9229 13.1958 37.9396 11.9531 37.5845L11.9412 37.5812C10.984 37.3176 10.0646 36.8374 9.183 36.1132L12.6515 35.5016C13.3537 35.3778 13.8226 34.7081 13.6988 34.0059C13.575 33.3036 12.9053 32.8347 12.2031 32.9586L4.574 34.3038L5.91921 41.9329C6.04304 42.6351 6.71269 43.104 7.41493 42.9802C8.11716 42.8563 8.58606 42.1867 8.46224 41.4845L7.91905 38.4039C8.9454 39.178 10.0556 39.7395 11.2497 40.0691C12.9749 40.5609 14.7129 40.5362 16.4323 39.999C18.1535 39.504 19.7047 38.5386 21.0864 37.1569L24.6885 33.5548C26.8352 31.4081 28.1401 29.049 28.437 26.4795C28.7394 23.9053 27.9215 21.6371 26.0592 19.7749L24.306 18.0216C22.7345 16.4501 20.8323 15.6416 18.66 15.6671L18.6452 15.6674C16.4831 15.7177 14.3332 16.5837 12.2144 18.1101C11.6359 18.5269 11.5048 19.3338 11.9216 19.9124C12.3384 20.491 13.1453 20.6221 13.7239 20.2053C15.5549 18.8862 17.2065 18.2857 18.6978 18.2491C20.1351 18.234 21.3757 18.7432 22.4801 19.8475L24.2333 21.6008C25.5584 22.9259 26.0794 24.4187 25.8723 26.1792L25.8719 26.1821Z" fill="white"/>
<path d="M23.5951 2.06714C23.4712 1.36491 22.8016 0.896008 22.0993 1.01983C21.3971 1.14365 20.9282 1.81331 21.052 2.51555L21.6428 5.86601C20.5988 5.06699 19.4674 4.48899 18.2488 4.15254C16.5236 3.66081 14.7855 3.68552 13.0661 4.22265C11.3449 4.7177 9.79372 5.68307 8.41203 7.06477L4.8099 10.6669C2.66318 12.8136 1.35829 15.1727 1.06142 17.7421C0.758975 20.3164 1.57689 22.5845 3.43918 24.4468L5.19243 26.2001C6.76392 27.7716 8.66611 28.5801 10.8384 28.5545L10.8532 28.5543C13.0153 28.504 15.1652 27.638 17.284 26.1116C17.8625 25.6947 17.9937 24.8878 17.5768 24.3093C17.16 23.7307 16.3531 23.5996 15.7746 24.0164C13.9436 25.3355 12.2919 25.936 10.8006 25.9725C9.36333 25.9877 8.12267 25.4785 7.01836 24.3741L5.26511 22.6209C3.94001 21.2958 3.41904 19.8029 3.62616 18.0424L3.62649 18.0396C3.83999 16.1893 4.78767 14.341 6.63583 12.4928L10.238 8.8907C11.3596 7.76908 12.5444 7.0573 13.7919 6.70088L13.8081 6.69623L13.8243 6.69115C15.0729 6.29873 16.3026 6.28208 17.5453 6.63713L17.5572 6.64048C18.4332 6.88169 19.2775 7.30432 20.0901 7.92935L16.8628 8.49841C16.1606 8.62223 15.6917 9.29189 15.8155 9.99413C15.9393 10.6964 16.609 11.1653 17.3112 11.0414L24.9403 9.69623L23.5951 2.06714Z" stroke="white" stroke-width="0.3" stroke-linecap="round"/>
<path d="M25.8719 26.1821C25.6584 28.0324 24.7107 29.8807 22.8626 31.7288L19.2605 35.331C18.1388 36.4526 16.954 37.1644 15.7066 37.5208L15.6903 37.5254L15.6741 37.5305C14.4255 37.9229 13.1958 37.9396 11.9531 37.5845L11.9412 37.5812C10.984 37.3176 10.0646 36.8374 9.183 36.1132L12.6515 35.5016C13.3537 35.3778 13.8226 34.7081 13.6988 34.0059C13.575 33.3036 12.9053 32.8347 12.2031 32.9586L4.574 34.3038L5.91921 41.9329C6.04304 42.6351 6.71269 43.104 7.41493 42.9802C8.11716 42.8563 8.58606 42.1867 8.46224 41.4845L7.91905 38.4039C8.9454 39.178 10.0556 39.7395 11.2497 40.0691C12.9749 40.5609 14.7129 40.5362 16.4323 39.999C18.1535 39.504 19.7047 38.5386 21.0864 37.1569L24.6885 33.5548C26.8352 31.4081 28.1401 29.049 28.437 26.4795C28.7394 23.9053 27.9215 21.6371 26.0592 19.7749L24.306 18.0216C22.7345 16.4501 20.8323 15.6416 18.66 15.6671L18.6452 15.6674C16.4831 15.7177 14.3332 16.5837 12.2144 18.1101C11.6359 18.5269 11.5048 19.3338 11.9216 19.9124C12.3384 20.491 13.1453 20.6221 13.7239 20.2053C15.5549 18.8862 17.2065 18.2857 18.6978 18.2491C20.1351 18.234 21.3757 18.7432 22.4801 19.8475L24.2333 21.6008C25.5584 22.9259 26.0794 24.4187 25.8723 26.1792L25.8719 26.1821Z" stroke="white" stroke-width="0.3" stroke-linecap="round"/>
<path d="M61.9189 26.7833C60.2169 31.1329 56.6507 33.3347 51.2204 33.3888C48.87 33.3888 46.7897 32.889 44.9796 31.8894C43.1695 30.8627 41.7646 29.4579 40.765 27.6748C39.7654 25.8917 39.2656 23.8385 39.2656 21.5151C39.2656 19.2457 39.7519 17.2194 40.7245 15.4364C41.7241 13.6533 43.129 12.2619 44.9391 11.2623C46.7762 10.2357 48.8835 9.72239 51.2609 9.72239C52.963 9.72239 54.4894 10.0466 55.8402 10.695C57.191 11.3164 58.2447 12.1809 59.0011 13.2886V10.1276H61.4326V17.0168L59.2443 17.0979C58.4068 15.3688 57.3531 14.1126 56.0834 13.3291C54.8136 12.5456 53.2601 12.1539 51.423 12.1539C49.667 12.1539 48.1135 12.5726 46.7627 13.4101C45.4389 14.2206 44.4123 15.3283 43.6828 16.7331C42.9534 18.138 42.5886 19.7185 42.5886 21.4745C42.5886 23.3657 42.9669 25.0272 43.7233 26.4591C44.4798 27.8909 45.5334 28.9986 46.8843 29.7821C48.2351 30.5655 49.748 30.9573 51.423 30.9573C53.2601 30.9573 54.8946 30.525 56.3265 29.6605C57.7854 28.796 58.839 27.4316 59.4874 25.5675L61.9189 26.7833Z" fill="white"/>
<path d="M84.8574 30.7952V32.943H76.3067V30.7952H78.9408V22.4876C78.9408 21.38 78.6707 20.5154 78.1303 19.8941C77.617 19.2727 76.8876 18.962 75.942 18.962C74.321 18.962 72.565 19.5834 70.6738 20.8261V30.7952H73.2674V32.943H64.7167V30.7952H67.675V11.8297H64.7572V9.72239H70.6738V18.7999C72.8621 17.341 74.8614 16.6116 76.6715 16.6116C78.1844 16.6116 79.4406 17.0844 80.4403 18.0299C81.4399 18.9485 81.9397 20.2453 81.9397 21.9203V30.7952H84.8574Z" fill="white"/>
<path d="M103.235 30.7952V32.943H98.0881L97.926 31.5246C97.0615 32.173 96.197 32.6458 95.3324 32.943C94.4679 33.2402 93.4953 33.3888 92.4146 33.3888C90.7937 33.3888 89.4699 32.943 88.4432 32.0515C87.4436 31.1329 86.9438 29.9982 86.9438 28.6474C86.9438 26.9183 87.5247 25.6621 88.6864 24.8786C89.8751 24.0681 91.4286 23.6629 93.3467 23.6629C94.7246 23.6629 96.197 23.8385 97.7639 24.1897V22.5282C97.7639 21.3124 97.4262 20.3939 96.7508 19.7725C96.1024 19.1511 95.1838 18.8404 93.9951 18.8404C93.2116 18.8404 92.3066 18.9755 91.28 19.2457C90.2803 19.4888 89.3618 19.84 88.5243 20.2993L87.6327 18.3541C88.5243 17.7868 89.5509 17.3545 90.7126 17.0573C91.9013 16.7602 93.009 16.6116 94.0356 16.6116C96.1159 16.6116 97.7504 17.1249 98.9391 18.1515C100.128 19.1511 100.722 20.5154 100.722 22.2445V30.7952H103.235ZM89.7805 28.4853C89.7805 29.3228 90.0507 30.0117 90.591 30.552C91.1584 31.0654 91.9148 31.322 92.8604 31.322C94.4544 31.322 96.0889 30.7412 97.7639 29.5794V25.9322C96.332 25.608 94.9272 25.4459 93.5493 25.4459C92.4687 25.4459 91.5636 25.6891 90.8342 26.1754C90.1318 26.6347 89.7805 27.4046 89.7805 28.4853Z" fill="white"/>
<path d="M108.91 13.5317C108.289 13.5317 107.762 13.3426 107.33 12.9644C106.925 12.5591 106.722 12.0593 106.722 11.4649C106.722 10.8706 106.925 10.3843 107.33 10.0061C107.762 9.60082 108.289 9.39819 108.91 9.39819C109.532 9.39819 110.045 9.60082 110.45 10.0061C110.883 10.3843 111.099 10.8706 111.099 11.4649C111.099 12.0593 110.883 12.5591 110.45 12.9644C110.045 13.3426 109.532 13.5317 108.91 13.5317ZM104.736 30.7952H107.816V19.1646H104.777V17.0168H110.775V30.7952H113.652V32.943H104.736V30.7952Z" fill="white"/>
<path d="M135.519 30.7952V32.943H126.968V30.7952H129.602V22.4876C129.602 21.38 129.332 20.5154 128.792 19.8941C128.252 19.2727 127.509 18.962 126.563 18.962C125.78 18.962 124.983 19.1106 124.172 19.4078C123.389 19.6779 122.524 20.0967 121.578 20.664V30.7952H124.456V32.943H115.54V30.7952H118.62V19.1646H115.54V17.0168H121.578V18.5973C123.686 17.2735 125.604 16.6116 127.333 16.6116C128.846 16.6116 130.089 17.0844 131.061 18.0299C132.061 18.9485 132.561 20.2453 132.561 21.9203V30.7952H135.519Z" fill="white"/>
<path d="M147.133 19.813C149.943 20.2993 151.956 21.0423 153.172 22.0419C154.414 23.0145 155.036 24.5544 155.036 26.6617C155.036 27.8774 154.752 28.9986 154.185 30.0252C153.617 31.0248 152.78 31.8353 151.672 32.4567C150.564 33.0511 149.254 33.3482 147.741 33.3482C146.336 33.3482 145.053 33.0646 143.891 32.4972C142.757 31.9299 141.825 31.1464 141.095 30.1468V32.943H138.461V25.2433H140.893C141.055 26.9454 141.73 28.3367 142.919 29.4174C144.135 30.471 145.701 30.9978 147.62 30.9978C149.025 30.9978 150.119 30.6601 150.902 29.9847C151.686 29.3093 152.077 28.3637 152.077 27.148C152.077 26.1754 151.902 25.4189 151.551 24.8786C151.199 24.3113 150.632 23.879 149.849 23.5818C149.092 23.2576 147.998 22.9739 146.566 22.7308L145.593 22.5687C143.297 22.1905 141.514 21.461 140.244 20.3804C138.974 19.2727 138.34 17.7868 138.34 15.9227C138.34 13.9505 138.988 12.424 140.285 11.3434C141.581 10.2357 143.324 9.68187 145.512 9.68187C146.755 9.68187 147.876 9.898 148.876 10.3303C149.903 10.7355 150.727 11.3299 151.348 12.1133V10.1276H153.942V16.5711H151.551C151.037 13.5452 149.079 12.0323 145.674 12.0323C144.297 12.0323 143.216 12.3565 142.433 13.0049C141.676 13.6533 141.298 14.5178 141.298 15.5985C141.298 16.7331 141.703 17.6247 142.514 18.2731C143.324 18.8945 144.553 19.3537 146.201 19.6509L147.133 19.813Z" fill="white"/>
<path d="M159.228 19.1646H157.121V17.0168H164.334V19.1646H162.146L165.915 29.9847L169.684 19.1646H167.414V17.0168H175.236V19.1646H172.926L176.857 30.0252L180.342 19.1646H178.113V17.0168H185.286V19.1646H183.057L178.275 32.943H175.357L171.264 21.6366L167.171 32.943H164.253L159.228 19.1646Z" fill="white"/>
<path d="M203.597 30.7952V32.943H198.45L198.288 31.5246C197.423 32.173 196.559 32.6458 195.694 32.943C194.83 33.2402 193.857 33.3888 192.776 33.3888C191.155 33.3888 189.832 32.943 188.805 32.0515C187.805 31.1329 187.306 29.9982 187.306 28.6474C187.306 26.9183 187.887 25.6621 189.048 24.8786C190.237 24.0681 191.79 23.6629 193.709 23.6629C195.086 23.6629 196.559 23.8385 198.126 24.1897V22.5282C198.126 21.3124 197.788 20.3939 197.113 19.7725C196.464 19.1511 195.546 18.8404 194.357 18.8404C193.573 18.8404 192.668 18.9755 191.642 19.2457C190.642 19.4888 189.724 19.84 188.886 20.2993L187.995 18.3541C188.886 17.7868 189.913 17.3545 191.074 17.0573C192.263 16.7602 193.371 16.6116 194.397 16.6116C196.478 16.6116 198.112 17.1249 199.301 18.1515C200.49 19.1511 201.084 20.5154 201.084 22.2445V30.7952H203.597ZM190.142 28.4853C190.142 29.3228 190.413 30.0117 190.953 30.552C191.52 31.0654 192.277 31.322 193.222 31.322C194.816 31.322 196.451 30.7412 198.126 29.5794V25.9322C196.694 25.608 195.289 25.4459 193.911 25.4459C192.831 25.4459 191.925 25.6891 191.196 26.1754C190.494 26.6347 190.142 27.4046 190.142 28.4853Z" fill="white"/>
<path d="M216.121 16.6116C217.58 16.6116 218.89 16.9358 220.052 17.5842C221.24 18.2055 222.173 19.1376 222.848 20.3804C223.523 21.5961 223.861 23.055 223.861 24.757C223.861 26.5131 223.483 28.0395 222.726 29.3363C221.997 30.6331 220.997 31.6327 219.728 32.3351C218.485 33.0105 217.12 33.3482 215.635 33.3482C214.689 33.3482 213.784 33.1996 212.919 32.9025C212.082 32.6053 211.393 32.2136 210.853 31.7273L210.812 37.117H213.933V39.2648H204.977V37.117H207.854V19.1646H205.058V17.0168H210.65L210.691 18.5162C211.474 17.8949 212.325 17.4221 213.244 17.0979C214.189 16.7737 215.148 16.6116 216.121 16.6116ZM215.108 31.1194C216.783 31.1194 218.134 30.5926 219.16 29.5389C220.214 28.4583 220.741 26.9453 220.741 25.0002C220.741 23.109 220.227 21.6231 219.201 20.5425C218.201 19.4618 216.904 18.9215 215.31 18.9215C214.662 18.9215 213.906 19.0566 213.041 19.3267C212.204 19.5969 211.461 20.0021 210.812 20.5425L210.853 29.5794C211.474 30.0657 212.149 30.444 212.879 30.7141C213.635 30.9843 214.378 31.1194 215.108 31.1194Z" fill="white"/>
</svg>
