<svg width="205" height="48" viewBox="0 0 205 48" fill="none" xmlns="http://www.w3.org/2000/svg">
<mask id="mask0" style="mask-type:alpha" maskUnits="userSpaceOnUse" x="0" y="0" width="57" height="48">
<path d="M22.337 35.9989C14.6791 39.4209 5.69696 35.9871 2.27492 28.3291C-1.14712 20.6712 2.28676 11.6891 9.94467 8.2671C17.6026 4.8451 26.5847 8.2789 30.0068 15.9368C33.4288 23.5948 29.9949 32.5768 22.337 35.9989Z" fill="black"/>
<path d="M49.9233 20.3791C44.6217 22.7482 38.4033 20.3709 36.0342 15.0693C33.6651 9.76758 36.0424 3.54928 41.344 1.18018C46.6457 -1.18896 52.8641 1.18828 55.2332 6.48998C57.6023 11.7916 55.225 18.01 49.9233 20.3791Z" fill="black"/>
<path d="M46.2054 46.5311C41.9346 48.4396 36.9254 46.5245 35.0169 42.2538C33.1085 37.983 35.0235 32.9738 39.2943 31.0653C43.565 29.1569 48.5743 31.0719 50.4827 35.3427C52.3912 39.6134 50.4761 44.6227 46.2054 46.5311Z" fill="black"/>
</mask>
<g mask="url(#mask0)">
<path d="M-5.43746 42.1901C3.70992 62.6603 27.7197 71.8393 48.1899 62.6919C68.6601 53.5446 77.8391 29.5348 68.6917 9.06457C59.5443 -11.4056 35.5345 -20.5846 15.0643 -11.4372C-5.40587 -2.28984 -14.5848 21.7199 -5.43746 42.1901Z" fill="#1568CA"/>
<path d="M15.9856 31.7343C19.9999 40.7176 30.5366 44.7458 39.5199 40.7314C48.5032 36.7171 52.5314 26.1805 48.5171 17.1971C44.5028 8.21382 33.9661 4.18564 24.9828 8.19995C15.9995 12.2143 11.9713 22.7509 15.9856 31.7343Z" fill="#8FD8E7"/>
</g>
<path d="M70.7139 41.1667C70.5156 41.1667 70.347 41.0973 70.2082 40.9584C70.0694 40.8196 70 40.6511 70 40.4528V21.0877C70 20.8696 70.0595 20.6911 70.1784 20.5523C70.3173 20.4135 70.4957 20.344 70.7139 20.344H83.8024C84.0205 20.344 84.199 20.4135 84.3378 20.5523C84.4767 20.6911 84.5461 20.8696 84.5461 21.0877V23.051C84.5461 23.2691 84.4767 23.4476 84.3378 23.5864C84.199 23.7054 84.0205 23.7649 83.8024 23.7649H74.0158V29.0301H83.148C83.3661 29.0301 83.5446 29.0995 83.6834 29.2383C83.8222 29.3573 83.8916 29.5258 83.8916 29.744V31.5883C83.8916 31.8064 83.8222 31.9849 83.6834 32.1237C83.5446 32.2427 83.3661 32.3022 83.148 32.3022H74.0158V37.7458H84.0404C84.2585 37.7458 84.437 37.8152 84.5758 37.954C84.7146 38.0929 84.784 38.2713 84.784 38.4895V40.4528C84.784 40.6709 84.7146 40.8494 84.5758 40.9882C84.437 41.1072 84.2585 41.1667 84.0404 41.1667H70.7139Z" fill="#1568CA"/>
<path d="M88.8908 41.1666C88.6925 41.1666 88.5239 41.0972 88.3851 40.9583C88.2463 40.8195 88.1768 40.651 88.1768 40.4527V20.7604C88.1768 20.5423 88.2463 20.3737 88.3851 20.2547C88.5239 20.1159 88.6925 20.0465 88.8908 20.0465H91.3597C91.5779 20.0465 91.7464 20.1159 91.8654 20.2547C92.0042 20.3737 92.0737 20.5423 92.0737 20.7604V40.4527C92.0737 40.651 92.0042 40.8195 91.8654 40.9583C91.7464 41.0972 91.5779 41.1666 91.3597 41.1666H88.8908Z" fill="#1568CA"/>
<path d="M102.683 41.464C100.482 41.464 98.7265 40.8294 97.4177 39.5603C96.1287 38.2712 95.4445 36.4666 95.3652 34.1464L95.3354 33.4027L95.3652 32.659C95.4643 30.3983 96.1584 28.6234 97.4474 27.3344C98.7563 26.0454 100.502 25.4009 102.683 25.4009C105.023 25.4009 106.828 26.1148 108.097 27.5426C109.386 28.9705 110.03 30.8742 110.03 33.254V33.8787C110.03 34.077 109.961 34.2455 109.822 34.3843C109.683 34.5232 109.505 34.5926 109.287 34.5926H99.4109V34.8305C99.4499 35.9213 99.7479 36.8434 100.303 37.597C100.878 38.3307 101.662 38.6976 102.653 38.6976C103.823 38.6976 104.765 38.2415 105.479 37.3293C105.658 37.1111 105.796 36.9723 105.896 36.9128C106.015 36.8533 106.183 36.8236 106.401 36.8236H108.959C109.138 36.8236 109.287 36.8831 109.406 37.002C109.544 37.1012 109.614 37.2301 109.614 37.3888C109.614 37.8647 109.326 38.4299 108.751 39.0843C108.196 39.7189 107.393 40.2742 106.342 40.7501C105.291 41.2261 104.071 41.464 102.683 41.464ZM105.985 32.0939V32.0046C105.985 30.8346 105.687 29.8926 105.092 29.1787C104.517 28.4648 103.714 28.1078 102.683 28.1078C101.652 28.1078 100.849 28.4648 100.273 29.1787C99.6979 29.8926 99.4109 30.8346 99.4109 32.0046V32.0939H105.985Z" fill="#1568CA"/>
<path d="M113.902 41.1666C113.704 41.1666 113.535 41.0972 113.396 40.9583C113.257 40.8195 113.188 40.651 113.188 40.4527V26.4123C113.188 26.2139 113.257 26.0454 113.396 25.9066C113.535 25.7677 113.704 25.6983 113.902 25.6983H116.222C116.42 25.6983 116.589 25.7677 116.728 25.9066C116.867 26.0454 116.936 26.2139 116.936 26.4123V27.4236C117.967 26.0751 119.405 25.4009 121.249 25.4009C123.45 25.4009 124.987 26.2834 125.86 28.0483C126.336 27.2551 127.01 26.6205 127.883 26.1445C128.755 25.6488 129.697 25.4009 130.709 25.4009C132.335 25.4009 133.664 25.9561 134.695 27.0667C135.726 28.1772 136.242 29.7935 136.242 31.9154V40.4527C136.242 40.651 136.172 40.8195 136.033 40.9583C135.914 41.0972 135.746 41.1666 135.528 41.1666H133.088C132.89 41.1666 132.722 41.0972 132.583 40.9583C132.444 40.8195 132.374 40.651 132.374 40.4527V32.1534C132.374 30.904 132.107 30.0017 131.571 29.4464C131.056 28.8713 130.362 28.5838 129.489 28.5838C128.716 28.5838 128.051 28.8713 127.496 29.4464C126.961 30.0215 126.693 30.9238 126.693 32.1534V40.4527C126.693 40.651 126.623 40.8195 126.485 40.9583C126.346 41.0972 126.177 41.1666 125.979 41.1666H123.54C123.341 41.1666 123.173 41.0972 123.034 40.9583C122.895 40.8195 122.826 40.651 122.826 40.4527V32.1534C122.826 30.904 122.548 30.0017 121.993 29.4464C121.457 28.8713 120.773 28.5838 119.94 28.5838C119.147 28.5838 118.473 28.8713 117.918 29.4464C117.382 30.0215 117.114 30.9238 117.114 32.1534V40.4527C117.114 40.651 117.045 40.8195 116.906 40.9583C116.767 41.0972 116.599 41.1666 116.401 41.1666H113.902Z" fill="#1568CA"/>
<path d="M146.693 41.464C144.492 41.464 142.737 40.8294 141.428 39.5603C140.139 38.2712 139.454 36.4666 139.375 34.1464L139.345 33.4027L139.375 32.659C139.474 30.3983 140.168 28.6234 141.457 27.3344C142.766 26.0454 144.511 25.4009 146.693 25.4009C149.033 25.4009 150.838 26.1148 152.107 27.5426C153.396 28.9705 154.04 30.8742 154.04 33.254V33.8787C154.04 34.077 153.971 34.2455 153.832 34.3843C153.693 34.5232 153.515 34.5926 153.297 34.5926H143.421V34.8305C143.46 35.9213 143.758 36.8434 144.313 37.597C144.888 38.3307 145.672 38.6976 146.663 38.6976C147.833 38.6976 148.775 38.2415 149.489 37.3293C149.667 37.1111 149.806 36.9723 149.905 36.9128C150.024 36.8533 150.193 36.8236 150.411 36.8236H152.969C153.148 36.8236 153.297 36.8831 153.416 37.002C153.554 37.1012 153.624 37.2301 153.624 37.3888C153.624 37.8647 153.336 38.4299 152.761 39.0843C152.206 39.7189 151.403 40.2742 150.352 40.7501C149.301 41.2261 148.081 41.464 146.693 41.464ZM149.995 32.0939V32.0046C149.995 30.8346 149.697 29.8926 149.102 29.1787C148.527 28.4648 147.724 28.1078 146.693 28.1078C145.662 28.1078 144.858 28.4648 144.283 29.1787C143.708 29.8926 143.421 30.8346 143.421 32.0046V32.0939H149.995Z" fill="#1568CA"/>
<path d="M157.912 41.1666C157.713 41.1666 157.545 41.0972 157.406 40.9583C157.267 40.8195 157.198 40.651 157.198 40.4527V26.4123C157.198 26.2139 157.267 26.0454 157.406 25.9066C157.545 25.7677 157.713 25.6983 157.912 25.6983H160.351C160.549 25.6983 160.718 25.7677 160.857 25.9066C160.995 26.0454 161.065 26.2139 161.065 26.4123V27.6319C162.235 26.1445 163.891 25.4009 166.033 25.4009C167.857 25.4009 169.305 26.0057 170.376 27.2154C171.446 28.4053 171.982 30.0314 171.982 32.0939V40.4527C171.982 40.651 171.912 40.8195 171.774 40.9583C171.655 41.0972 171.486 41.1666 171.268 41.1666H168.65C168.452 41.1666 168.283 41.0972 168.145 40.9583C168.006 40.8195 167.936 40.651 167.936 40.4527V32.2723C167.936 31.1023 167.649 30.2 167.074 29.5654C166.518 28.911 165.705 28.5838 164.634 28.5838C163.583 28.5838 162.751 28.911 162.136 29.5654C161.541 30.2198 161.243 31.1221 161.243 32.2723V40.4527C161.243 40.651 161.174 40.8195 161.035 40.9583C160.916 41.0972 160.748 41.1666 160.529 41.1666H157.912Z" fill="#1568CA"/>
<path d="M182.577 41.1666C180.772 41.1666 179.414 40.7005 178.501 39.7685C177.609 38.8166 177.163 37.4284 177.163 35.604V28.8515H174.813C174.614 28.8515 174.446 28.7821 174.307 28.6432C174.168 28.4846 174.099 28.3061 174.099 28.1078V26.4123C174.099 26.2139 174.168 26.0454 174.307 25.9066C174.446 25.7677 174.614 25.6983 174.813 25.6983H177.163V20.7604C177.163 20.5423 177.232 20.3737 177.371 20.2547C177.51 20.1159 177.678 20.0465 177.877 20.0465H180.286C180.504 20.0465 180.673 20.1159 180.792 20.2547C180.931 20.3737 181 20.5423 181 20.7604V25.6983H184.718C184.936 25.6983 185.105 25.7677 185.224 25.9066C185.363 26.0255 185.432 26.1941 185.432 26.4123V28.1078C185.432 28.326 185.363 28.5044 185.224 28.6432C185.085 28.7821 184.917 28.8515 184.718 28.8515H181V35.3065C181 36.1592 181.149 36.8037 181.446 37.24C181.744 37.6763 182.239 37.8944 182.934 37.8944H184.986C185.184 37.8944 185.353 37.9639 185.492 38.1027C185.631 38.2415 185.7 38.4101 185.7 38.6084V40.4527C185.7 40.651 185.631 40.8195 185.492 40.9583C185.373 41.0972 185.204 41.1666 184.986 41.1666H182.577Z" fill="#1568CA"/>
<path d="M192.763 41.1812C192.563 41.1812 192.393 41.1113 192.254 40.9714C192.114 40.8315 192.044 40.6616 192.044 40.4618V28.7717H189.616C189.416 28.7717 189.246 28.7018 189.106 28.5619C188.966 28.402 188.896 28.2222 188.896 28.0223V26.3138C188.896 26.1139 188.966 25.9441 189.106 25.8042C189.246 25.6643 189.416 25.5944 189.616 25.5944H192.044V24.3654C192.044 20.7885 194.002 19 197.919 19H204.034C204.253 19 204.423 19.0699 204.543 19.2098C204.683 19.3297 204.753 19.4995 204.753 19.7194V21.4279C204.753 21.6477 204.683 21.8276 204.543 21.9675C204.403 22.1073 204.233 22.1773 204.034 22.1773H198.039C197.259 22.1773 196.71 22.3671 196.39 22.7468C196.09 23.1265 195.94 23.716 195.94 24.5153V25.5944H204.034C204.253 25.5944 204.423 25.6643 204.543 25.8042C204.683 25.9241 204.753 26.094 204.753 26.3138V40.4618C204.753 40.6616 204.683 40.8315 204.543 40.9714C204.423 41.1113 204.253 41.1812 204.034 41.1812H201.606C201.406 41.1812 201.236 41.1113 201.096 40.9714C200.956 40.8315 200.886 40.6616 200.886 40.4618V28.7717H195.94V40.4618C195.94 40.6616 195.87 40.8315 195.731 40.9714C195.591 41.1113 195.421 41.1812 195.221 41.1812H192.763Z" fill="#8FD8E7"/>
</svg>
