<svg width="173" height="46" viewBox="0 0 173 46" fill="none" xmlns="http://www.w3.org/2000/svg">
<path fill-rule="evenodd" clip-rule="evenodd" d="M36.1395 8.97037C35.954 8.78541 35.8613 8.60045 35.8613 8.36926C35.8613 8.13806 35.954 7.9531 36.1395 7.76815C36.5103 7.44447 37.0666 7.44447 37.4374 7.76815C37.6229 7.9531 37.7156 8.13806 37.7156 8.36926C37.7156 8.60045 37.6229 8.78541 37.4374 8.97037C37.252 9.10908 37.0202 9.20156 36.7884 9.20156C36.5567 9.2478 36.3249 9.15532 36.1395 8.97037Z" fill="white"/>
<path fill-rule="evenodd" clip-rule="evenodd" d="M33.869 11.3744C33.7299 11.1895 33.6372 11.0045 33.6372 10.7733C33.6372 10.5421 33.7299 10.3572 33.869 10.1722C34.1935 9.84852 34.7498 9.84852 35.0742 10.1722C35.2133 10.3572 35.306 10.5421 35.306 10.7733C35.306 11.0045 35.2133 11.1895 35.0742 11.3744C34.8888 11.5131 34.7034 11.6056 34.4716 11.6056C34.2398 11.6056 34.0544 11.5131 33.869 11.3744Z" fill="white"/>
<path fill-rule="evenodd" clip-rule="evenodd" d="M31.4146 13.7331C31.2756 13.5943 31.1829 13.3631 31.1829 13.132C31.1829 12.9008 31.2756 12.7158 31.4146 12.5308C31.7391 12.2072 32.2954 12.2072 32.6199 12.5308C32.759 12.6696 32.8517 12.9008 32.8517 13.132C32.8517 13.3631 32.759 13.5481 32.6199 13.7331C32.4345 13.918 32.2491 13.9643 32.0173 13.9643C31.7855 13.9643 31.5537 13.8718 31.4146 13.7331Z" fill="white"/>
<path fill-rule="evenodd" clip-rule="evenodd" d="M29.0521 16.0915C28.8666 15.9527 28.7739 15.7215 28.7739 15.4903C28.7739 15.2592 28.8666 15.0742 29.0521 14.8892C29.4229 14.5656 29.9792 14.5656 30.35 14.8892C30.5355 15.028 30.6282 15.2592 30.6282 15.4903C30.6282 15.7215 30.5355 15.9527 30.35 16.0915C30.1646 16.2764 29.9328 16.3227 29.701 16.3227C29.4693 16.3227 29.2375 16.2764 29.0521 16.0915Z" fill="white"/>
<path fill-rule="evenodd" clip-rule="evenodd" d="M26.7813 18.4494C26.5959 18.3107 26.5496 18.0795 26.5496 17.8483C26.5496 17.6171 26.6423 17.4321 26.7813 17.2472C27.1058 16.9235 27.6621 16.9235 27.9866 17.2472C28.172 17.3859 28.2184 17.6171 28.2184 17.8483C28.2184 18.0795 28.1257 18.3107 27.9866 18.4494C27.8475 18.6343 27.6157 18.6806 27.384 18.6806C27.1522 18.7268 26.9204 18.6343 26.7813 18.4494Z" fill="white"/>
<path fill-rule="evenodd" clip-rule="evenodd" d="M24.0471 20.2069C24.0471 19.9757 24.1398 19.7907 24.2789 19.6058C24.6034 19.2821 25.1597 19.2821 25.4842 19.6058C25.6696 19.7907 25.7159 19.9757 25.7159 20.2069C25.7159 20.4381 25.6232 20.6231 25.4842 20.808C25.3451 20.9467 25.1133 21.0392 24.8815 21.0392C24.6497 21.0392 24.4643 20.9467 24.2789 20.808C24.1398 20.6693 24.0471 20.4381 24.0471 20.2069Z" fill="white"/>
<path fill-rule="evenodd" clip-rule="evenodd" d="M19.6458 25.4315C19.5068 25.2928 19.4141 25.0616 19.4141 24.8304C19.4141 24.5992 19.5068 24.4143 19.6458 24.2293C19.9703 23.9057 20.5266 23.9057 20.8511 24.2293C21.0365 24.4143 21.0829 24.5992 21.0829 24.8304C21.0829 25.0616 20.9902 25.2466 20.8511 25.4315C20.712 25.6165 20.4803 25.6627 20.2485 25.6627C20.0167 25.709 19.8313 25.6165 19.6458 25.4315Z" fill="white"/>
<path fill-rule="evenodd" clip-rule="evenodd" d="M17.1898 27.7902C17.0043 27.6515 16.9116 27.4203 16.9116 27.1891C16.9116 26.9579 17.0043 26.7729 17.1898 26.588C17.5606 26.2643 18.1169 26.2643 18.4877 26.588C18.6731 26.7729 18.7659 26.9579 18.7659 27.1891C18.7659 27.4203 18.6731 27.6052 18.4877 27.7902C18.3023 27.9751 18.0705 28.0214 17.8387 28.0214C17.607 28.0676 17.3752 27.9751 17.1898 27.7902Z" fill="white"/>
<path fill-rule="evenodd" clip-rule="evenodd" d="M14.919 30.1942C14.78 30.0555 14.6873 29.8243 14.6873 29.5931C14.6873 29.3619 14.78 29.1307 14.919 28.992C15.2435 28.6683 15.7998 28.6683 16.1243 28.992C16.2634 29.1307 16.3561 29.3619 16.3561 29.5931C16.3561 29.8243 16.2634 30.0093 16.1243 30.1942C15.9389 30.3792 15.7534 30.4254 15.5217 30.4254C15.2899 30.4254 15.1045 30.333 14.919 30.1942Z" fill="white"/>
<path fill-rule="evenodd" clip-rule="evenodd" d="M12.557 32.5522C12.3716 32.4134 12.3252 32.1822 12.3252 31.951C12.3252 31.7198 12.4179 31.5349 12.557 31.3499C12.8815 31.0263 13.4377 31.0263 13.7622 31.3499C13.9013 31.5349 13.994 31.7198 13.994 31.951C13.994 32.1822 13.9013 32.4134 13.7622 32.5522C13.5768 32.7371 13.3914 32.7833 13.1596 32.7833C12.9278 32.7833 12.696 32.7371 12.557 32.5522Z" fill="white"/>
<path fill-rule="evenodd" clip-rule="evenodd" d="M10.1021 34.9106C9.91669 34.7718 9.82397 34.5406 9.82397 34.3094C9.82397 34.0782 9.91669 33.8933 10.1021 33.7083C10.473 33.3847 11.0292 33.3847 11.3537 33.7083C11.5391 33.8933 11.6319 34.0782 11.6319 34.3094C11.6319 34.5406 11.5391 34.7718 11.3537 34.9106C11.1683 35.0493 10.9365 35.1417 10.7047 35.1417C10.473 35.1417 10.2412 35.0955 10.1021 34.9106Z" fill="white"/>
<path fill-rule="evenodd" clip-rule="evenodd" d="M7.78354 37.2685C7.59811 37.0835 7.55176 36.8985 7.55176 36.6674C7.55176 36.4362 7.64447 36.2512 7.78354 36.0662C8.10803 35.7426 8.6643 35.7426 8.98879 36.0662C9.17422 36.2512 9.22057 36.4362 9.22057 36.6674C9.22057 36.8985 9.12786 37.0835 8.98879 37.2685C8.84973 37.4072 8.61795 37.4997 8.38617 37.4997C8.20074 37.5459 7.96896 37.4534 7.78354 37.2685Z" fill="white"/>
<path fill-rule="evenodd" clip-rule="evenodd" d="M8.98879 8.97037C9.12786 8.78541 9.22057 8.60045 9.22057 8.36926C9.22057 8.13806 9.12786 7.9531 8.98879 7.76815C8.6643 7.44447 8.10803 7.44447 7.78354 7.76815C7.59811 7.9531 7.55176 8.13806 7.55176 8.36926C7.55176 8.60045 7.64447 8.78541 7.78354 8.97037C7.92261 9.10908 8.15439 9.20156 8.38617 9.20156C8.61795 9.2478 8.84973 9.15532 8.98879 8.97037Z" fill="white"/>
<path fill-rule="evenodd" clip-rule="evenodd" d="M11.3534 11.3744C11.5389 11.1895 11.6316 11.0045 11.6316 10.7733C11.6316 10.5421 11.5389 10.3572 11.3534 10.1722C10.9826 9.84852 10.4263 9.84852 10.0555 10.1722C9.87006 10.3572 9.77734 10.5421 9.77734 10.7733C9.77734 11.0045 9.87006 11.1895 10.0555 11.3744C10.2409 11.5131 10.4727 11.6056 10.7045 11.6056C10.9362 11.6056 11.168 11.5131 11.3534 11.3744Z" fill="white"/>
<path fill-rule="evenodd" clip-rule="evenodd" d="M13.7622 13.7331C13.9013 13.5943 13.994 13.3631 13.994 13.132C13.994 12.9008 13.9013 12.7158 13.7622 12.5308C13.4377 12.2072 12.8815 12.2072 12.557 12.5308C12.4179 12.6696 12.3252 12.9008 12.3252 13.132C12.3252 13.3631 12.4179 13.5481 12.557 13.7331C12.7424 13.918 12.9278 13.9643 13.1596 13.9643C13.345 13.9643 13.5768 13.8718 13.7622 13.7331Z" fill="white"/>
<path fill-rule="evenodd" clip-rule="evenodd" d="M16.1243 16.0915C16.2634 15.9527 16.3561 15.7215 16.3561 15.4903C16.3561 15.2592 16.2634 15.0742 16.1243 14.8892C15.7998 14.5656 15.2435 14.5656 14.919 14.8892C14.78 15.028 14.6873 15.2592 14.6873 15.4903C14.6873 15.7215 14.78 15.9527 14.919 16.0915C15.1045 16.2764 15.2899 16.3227 15.5217 16.3227C15.7071 16.3227 15.9389 16.2764 16.1243 16.0915Z" fill="white"/>
<path fill-rule="evenodd" clip-rule="evenodd" d="M18.4414 18.4494C18.6268 18.3107 18.7195 18.0795 18.7195 17.8483C18.7195 17.6171 18.6268 17.4321 18.4414 17.2472C18.1169 16.9235 17.5142 16.9235 17.1898 17.2472C17.0043 17.3859 16.9116 17.6171 16.9116 17.8483C16.9116 18.0795 17.0043 18.3107 17.1898 18.4494C17.3752 18.6343 17.607 18.6806 17.8387 18.6806C18.0705 18.7268 18.3023 18.6343 18.4414 18.4494Z" fill="white"/>
<path fill-rule="evenodd" clip-rule="evenodd" d="M21.0829 20.2069C21.0829 19.9757 20.9902 19.7907 20.8511 19.6058C20.5266 19.2821 19.9703 19.2821 19.6458 19.6058C19.4604 19.7907 19.4141 19.9757 19.4141 20.2069C19.4141 20.4381 19.5068 20.6231 19.6458 20.808C19.7849 20.9467 20.0167 21.0392 20.2485 21.0392C20.4803 21.0392 20.6657 20.9467 20.8511 20.808C21.0365 20.6693 21.0829 20.4381 21.0829 20.2069Z" fill="white"/>
<path fill-rule="evenodd" clip-rule="evenodd" d="M23.2144 23.2121C23.3998 23.0271 23.4462 22.8422 23.4462 22.611C23.4462 22.3798 23.3534 22.1948 23.2144 22.0098C22.8899 21.6862 22.3336 21.6862 22.0091 22.0098C21.8237 22.1948 21.7773 22.3798 21.7773 22.611C21.7773 22.8422 21.8701 23.0271 22.0091 23.2121C22.1482 23.3508 22.38 23.4433 22.6118 23.4433C22.8435 23.4433 23.0753 23.3508 23.2144 23.2121Z" fill="white"/>
<path fill-rule="evenodd" clip-rule="evenodd" d="M25.5769 25.4315C25.7623 25.2928 25.855 25.0616 25.855 24.8304C25.855 24.5992 25.7623 24.4143 25.5769 24.2293C25.206 23.9057 24.6497 23.9057 24.3253 24.2293C24.1398 24.4143 24.0471 24.5992 24.0471 24.8304C24.0471 25.0616 24.1398 25.2466 24.3253 25.4315C24.5107 25.6165 24.7425 25.6627 24.9742 25.6627C25.1597 25.709 25.3914 25.6165 25.5769 25.4315Z" fill="white"/>
<path fill-rule="evenodd" clip-rule="evenodd" d="M27.9866 27.7902C28.1257 27.6515 28.2184 27.4203 28.2184 27.1891C28.2184 26.9579 28.1257 26.7729 27.9866 26.588C27.6621 26.2643 27.1058 26.2643 26.7813 26.588C26.6423 26.7729 26.5496 26.9579 26.5496 27.1891C26.5496 27.4203 26.6423 27.6052 26.7813 27.7902C26.9668 27.9751 27.1522 28.0214 27.384 28.0214C27.5694 28.0676 27.8012 27.9751 27.9866 27.7902Z" fill="white"/>
<path fill-rule="evenodd" clip-rule="evenodd" d="M30.3501 30.1942C30.4892 30.0555 30.5819 29.8243 30.5819 29.5931C30.5819 29.3619 30.4892 29.1307 30.3501 28.992C30.0256 28.6683 29.4694 28.6683 29.1449 28.992C29.0058 29.1307 28.9131 29.3619 28.9131 29.5931C28.9131 29.8243 29.0058 30.0093 29.1449 30.1942C29.3303 30.3792 29.5157 30.4254 29.7475 30.4254C29.9793 30.4254 30.1647 30.333 30.3501 30.1942Z" fill="white"/>
<path fill-rule="evenodd" clip-rule="evenodd" d="M32.573 32.5522C32.7584 32.4134 32.8048 32.1822 32.8048 31.951C32.8048 31.7198 32.7121 31.5349 32.573 31.3499C32.2485 31.0263 31.6923 31.0263 31.3678 31.3499C31.2287 31.5349 31.136 31.7198 31.136 31.951C31.136 32.1822 31.2287 32.4134 31.3678 32.5522C31.5532 32.7371 31.7386 32.7833 31.9704 32.7833C32.2022 32.7833 32.434 32.7371 32.573 32.5522Z" fill="white"/>
<path fill-rule="evenodd" clip-rule="evenodd" d="M35.0742 34.9106C35.2597 34.7718 35.306 34.5406 35.306 34.3094C35.306 34.0782 35.2133 33.8933 35.0742 33.7083C34.7498 33.3847 34.1935 33.3847 33.869 33.7083C33.6836 33.8933 33.6372 34.0782 33.6372 34.3094C33.6372 34.5406 33.7299 34.7718 33.869 34.9106C34.0081 35.0493 34.2398 35.1417 34.4716 35.1417C34.7034 35.1417 34.9352 35.0955 35.0742 34.9106Z" fill="white"/>
<path fill-rule="evenodd" clip-rule="evenodd" d="M37.4394 37.2685C37.6248 37.0835 37.7176 36.8985 37.7176 36.6674C37.7176 36.4362 37.6248 36.2512 37.4394 36.0662C37.0686 35.7426 36.5123 35.7426 36.1878 36.0662C36.0024 36.2512 35.9097 36.4362 35.9097 36.6674C35.9097 36.8985 36.0024 37.0835 36.1878 37.2685C36.3732 37.4072 36.605 37.4997 36.8368 37.4997C37.0222 37.5459 37.254 37.4534 37.4394 37.2685Z" fill="white"/>
<path fill-rule="evenodd" clip-rule="evenodd" d="M14.5948 9.61775C17.0042 8.04562 19.6452 7.30579 22.5642 7.25955C25.4369 7.25955 28.0779 8.04562 30.5336 9.61775L35.6303 4.53144C31.6456 1.52589 27.3366 0 22.5642 0C17.7918 0 13.4365 1.52589 9.54443 4.53144L14.5948 9.61775Z" fill="white"/>
<path fill-rule="evenodd" clip-rule="evenodd" d="M9.4984 30.4716C7.87672 28.0209 7.08905 25.3852 7.08905 22.5647C7.08905 19.6978 7.87672 17.0622 9.4984 14.6577L4.44803 9.61768C1.48268 13.5018 0 17.802 0 22.6109C0 27.3273 1.48268 31.6738 4.49436 35.6041L9.4984 30.4716Z" fill="white"/>
<path fill-rule="evenodd" clip-rule="evenodd" d="M30.5345 35.5117C28.1252 37.1301 25.4841 37.9624 22.6114 38.0086C19.6924 38.0086 17.0051 37.2226 14.5957 35.558L9.49902 40.598C13.4374 43.6498 17.7927 45.1757 22.6114 45.1295C27.3838 45.0832 31.6928 43.5573 35.5849 40.598L30.5345 35.5117Z" fill="white"/>
<path fill-rule="evenodd" clip-rule="evenodd" d="M35.4924 14.6116C37.1141 17.0622 37.9481 19.7441 37.9018 22.6572C37.8554 25.4778 37.0678 28.0672 35.4924 30.4254L40.5891 35.4654C43.6008 31.5813 45.1298 27.2811 45.1298 22.5647C45.1762 17.7558 43.6472 13.4093 40.5891 9.479L35.4924 14.6116Z" fill="white"/>
<path fill-rule="evenodd" clip-rule="evenodd" d="M40.8216 37.0837C42.7676 37.0837 44.3893 38.6559 44.3893 40.6442C44.3893 42.5862 42.8139 44.2046 40.8216 44.2046C38.8756 44.2046 37.2539 42.6324 37.2539 40.6442C37.2539 38.6559 38.8293 37.0837 40.8216 37.0837Z" fill="white"/>
<path fill-rule="evenodd" clip-rule="evenodd" d="M4.40148 37.0837C6.3475 37.0837 7.92284 38.6559 7.92284 40.6442C7.92284 42.5862 6.3475 44.2046 4.40148 44.2046C2.45547 44.2046 0.880127 42.6324 0.880127 40.6442C0.880127 38.6559 2.45547 37.0837 4.40148 37.0837Z" fill="white"/>
<path fill-rule="evenodd" clip-rule="evenodd" d="M40.8661 0.785645C42.8121 0.785645 44.3874 2.35778 44.3874 4.34606C44.3874 6.33435 42.8121 7.90648 40.8661 7.90648C38.9201 7.90648 37.3447 6.33435 37.3447 4.34606C37.3447 2.35778 38.9201 0.785645 40.8661 0.785645Z" fill="white"/>
<path fill-rule="evenodd" clip-rule="evenodd" d="M4.35553 0.785645C6.30155 0.785645 7.92323 2.35778 7.92323 4.29982C7.92323 6.24187 6.34788 7.814 4.35553 7.814C2.40952 7.814 0.787842 6.24187 0.787842 4.29982C0.787842 2.35778 2.36319 0.785645 4.35553 0.785645Z" fill="white"/>
<path d="M75.6511 32.7194L73.5029 30.8328C72.2027 32.331 69.6022 33.2188 67.3974 33.2188C63.7228 33.2188 60.7831 31.0547 60.4439 27.559H76.7252C77.4602 20.068 72.9941 16.5168 67.1147 16.5168C61.3484 16.5168 57.165 20.5674 57.165 26.2827C57.165 32.2755 61.2919 36.1042 67.2843 36.1042C70.3371 36.0487 73.6725 34.9389 75.6511 32.7194ZM73.7856 24.8955H60.5004C61.0658 21.2888 63.9489 19.2912 67.2843 19.2912C71.0155 19.2912 73.5594 21.2333 73.7856 24.7846V24.8955ZM84.6398 9.02588H81.474V35.7158H84.6398V9.02588ZM93.6284 16.9052H90.6888V35.7158H93.8546V25.2285C93.8546 21.7882 96.3985 19.6241 99.5078 19.5687C100.808 19.5687 101.826 19.9016 102.843 20.6229L104.257 17.9595C103.069 17.0717 101.486 16.5168 99.7905 16.5723C97.5857 16.5723 95.2113 17.2381 93.9111 19.6796L93.6284 16.9052ZM106.066 26.3382C106.066 32.0535 110.249 36.0487 116.015 36.0487C121.782 36.0487 125.965 32.0535 125.965 26.3382C125.965 20.512 121.838 16.4613 116.015 16.4613C110.305 16.4613 106.066 20.512 106.066 26.3382ZM122.799 26.3382C122.743 30.2779 119.916 33.1078 115.959 33.1078C112.058 33.1078 109.231 30.2779 109.231 26.3382C109.231 22.1211 112.115 19.3467 116.015 19.3467C119.859 19.3467 122.799 22.1766 122.799 26.3382ZM130.544 16.8497V35.7158H133.71V25.6169C133.71 22.2321 136.141 19.5132 139.589 19.4577C143.264 19.4577 145.412 21.7327 145.412 25.3394V35.7158H148.578V25.3394C148.578 19.7906 145.016 16.6278 140.155 16.6278C137.611 16.6278 135.236 17.6821 133.597 19.9016L133.427 16.9052L130.544 16.8497ZM172.943 9.02588H169.778V20.29C168.421 17.7375 165.312 16.5168 162.598 16.5168C157.171 16.5168 152.931 19.9571 152.931 26.2827C152.931 32.4974 157.171 36.0487 162.655 36.0487C165.481 36.0487 168.308 34.8279 169.834 32.22L170.004 35.6603H173L172.943 9.02588ZM162.881 19.4577C166.668 19.4577 169.665 22.2321 169.665 26.2273C169.665 30.3334 166.668 33.1078 162.881 33.1078C159.149 33.1078 156.153 30.6108 156.153 26.2827C156.153 21.8992 159.093 19.5132 162.768 19.4577H162.881Z" fill="white"/>
</svg>
