<svg width="198" height="44" viewBox="0 0 198 44" fill="none" xmlns="http://www.w3.org/2000/svg">
<path fill-rule="evenodd" clip-rule="evenodd" d="M18.3353 2.52569C17.9645 2.52569 17.6627 2.604 17.4956 2.69229L7.65221 7.89277L17.4956 13.0933C17.6627 13.1815 17.9645 13.2599 18.3353 13.2599C18.7062 13.2599 19.0079 13.1815 19.1751 13.0933L29.0185 7.89277L19.1751 2.69229C19.0079 2.604 18.7062 2.52569 18.3353 2.52569ZM18.3353 0C18.9994 0 19.7324 0.130257 20.3549 0.459111L30.8822 6.02088C31.478 6.33566 32.1473 6.95154 32.1473 7.89277C32.1473 8.83401 31.478 9.44988 30.8822 9.76466L20.3549 15.3264C19.7324 15.6553 18.9994 15.7855 18.3353 15.7855C17.6713 15.7855 16.9383 15.6553 16.3158 15.3264L5.78854 9.76466C5.19272 9.44988 4.52344 8.83401 4.52344 7.89277C4.52344 6.95154 5.19272 6.33566 5.78854 6.02088L16.3158 0.459111C16.9383 0.130257 17.6713 0 18.3353 0Z" fill="white"/>
<path fill-rule="evenodd" clip-rule="evenodd" d="M18.3353 16.0975C17.9645 16.0975 17.6627 16.1758 17.4956 16.2641L7.65221 21.4645L17.4956 26.665C17.6627 26.7533 17.9645 26.8316 18.3353 26.8316C18.7062 26.8316 19.0079 26.7533 19.1751 26.665L29.0185 21.4645L19.1751 16.2641C19.0079 16.1758 18.7062 16.0975 18.3353 16.0975ZM18.3353 13.5718C18.9994 13.5718 19.7324 13.702 20.3549 14.0309L30.8822 19.5927C31.478 19.9074 32.1473 20.5233 32.1473 21.4645C32.1473 22.4058 31.478 23.0217 30.8822 23.3364L20.3549 28.8982C19.7324 29.2271 18.9994 29.3573 18.3353 29.3573C17.6713 29.3573 16.9383 29.2271 16.3158 28.8982L5.78854 23.3364C5.19272 23.0217 4.52344 22.4058 4.52344 21.4645C4.52344 20.5233 5.19272 19.9074 5.78854 19.5927L16.3158 14.0309C16.9383 13.702 17.6713 13.5718 18.3353 13.5718Z" fill="white"/>
<path fill-rule="evenodd" clip-rule="evenodd" d="M5.26199 35.8255C5.58779 35.2088 6.35182 34.973 6.96849 35.2989L17.4958 40.8606C17.6629 40.9489 17.9646 41.0272 18.3355 41.0272C18.7063 41.0272 19.0081 40.9489 19.1752 40.8606L29.7024 35.2989C30.3191 34.973 31.0832 35.2088 31.409 35.8255C31.7348 36.4422 31.499 37.2062 30.8823 37.532L20.355 43.0938C19.7326 43.4227 18.9995 43.5529 18.3355 43.5529C17.6715 43.5529 16.9384 43.4227 16.3159 43.0938L5.78866 37.532C5.17198 37.2062 4.93618 36.4422 5.26199 35.8255Z" fill="white"/>
<path fill-rule="evenodd" clip-rule="evenodd" d="M31.6312 4.25156C31.5821 4.22184 31.5317 4.19135 31.48 4.16004L32.7881 1.99951C32.8827 2.05678 32.9784 2.11407 33.0746 2.17171C33.9253 2.68112 34.8233 3.21883 35.4445 4.02486C36.2025 5.00835 36.4714 6.23612 36.4714 7.91572H33.9457C33.9457 6.47536 33.7079 5.90915 33.444 5.56665C33.1287 5.15753 32.6564 4.87178 31.6312 4.25156Z" fill="white"/>
<path fill-rule="evenodd" clip-rule="evenodd" d="M4.84046 38.8334C4.88959 38.8631 4.93999 38.8936 4.9917 38.9249L3.68357 41.0854C3.58898 41.0282 3.49332 40.9709 3.39705 40.9132C2.54636 40.4038 1.64841 39.8661 1.0272 39.0601C0.269222 38.0766 0.000313759 36.8488 0.000313759 35.1692H2.526C2.526 36.6096 2.76373 37.1758 3.02769 37.5183C3.34301 37.9274 3.81531 38.2132 4.84046 38.8334Z" fill="white"/>
<path fill-rule="evenodd" clip-rule="evenodd" d="M5.70864 6.77563C6.40609 6.77563 6.97149 7.34103 6.97149 8.03848V35.5045C6.97149 36.202 6.40609 36.7674 5.70864 36.7674C5.01119 36.7674 4.4458 36.202 4.4458 35.5045V8.03848C4.4458 7.34103 5.01119 6.77563 5.70864 6.77563Z" fill="white"/>
<path fill-rule="evenodd" clip-rule="evenodd" d="M30.9626 6.77563C31.66 6.77563 32.2254 7.34103 32.2254 8.03848V35.5045C32.2254 36.202 31.66 36.7674 30.9626 36.7674C30.2651 36.7674 29.6997 36.202 29.6997 35.5045V8.03848C29.6997 7.34103 30.2651 6.77563 30.9626 6.77563Z" fill="white"/>
<path fill-rule="evenodd" clip-rule="evenodd" d="M19.5982 13.6497V28.9672H17.0725V13.6497H19.5982Z" fill="white"/>
<path d="M56.6121 36.6226V17.2556H61.9767V13.7096H56.6121V11.1637C56.6121 8.28441 57.8699 6.84477 60.3855 6.84477C61.1129 6.84477 61.8858 6.966 62.7041 7.20847V3.43509C61.7039 3.13201 60.5977 2.98047 59.3854 2.98047C57.0516 2.98047 55.2407 3.64725 53.9526 4.98081C52.6645 6.31437 52.0204 8.2541 52.0204 10.8V13.7096H47.6106V17.2556H52.0204V36.6226H56.6121ZM75.479 36.9408C77.2369 36.9408 78.7751 36.5771 80.0935 35.8498C81.4119 35.1224 82.4045 34.0767 83.0712 32.7128V36.6226H87.6175V13.7096H83.0712V17.4375C82.3741 16.0736 81.374 15.0204 80.0707 14.2779C78.7675 13.5353 77.2369 13.164 75.479 13.164C73.509 13.164 71.7511 13.6641 70.2054 14.6643C68.6597 15.6645 67.4549 17.0738 66.5911 18.8923C65.7273 20.7108 65.2955 22.8021 65.2955 25.1661C65.2955 27.5301 65.7198 29.5987 66.5684 31.3717C67.417 33.1447 68.6066 34.5162 70.1372 35.486C71.6678 36.4559 73.4484 36.9408 75.479 36.9408ZM76.5701 33.3039C74.4789 33.3039 72.8498 32.5916 71.6829 31.1671C70.5161 29.7426 69.9326 27.7423 69.9326 25.1661C69.9326 22.5596 70.5161 20.5214 71.6829 19.0514C72.8498 17.5815 74.4637 16.8465 76.5247 16.8465C78.6159 16.8465 80.2298 17.5587 81.3664 18.9832C82.503 20.4077 83.0712 22.4384 83.0712 25.0752C83.0712 27.6817 82.503 29.7048 81.3664 31.1444C80.2298 32.584 78.6311 33.3039 76.5701 33.3039ZM98.8921 36.6226V23.5749C98.8921 21.5443 99.4756 19.9228 100.642 18.7104C101.809 17.4981 103.363 16.8919 105.302 16.8919C107 16.8919 108.235 17.3466 109.008 18.2558C109.78 19.1651 110.167 20.6199 110.167 22.6202V36.6226H114.759V22.3474C114.759 16.2252 112.016 13.164 106.53 13.164C104.772 13.164 103.203 13.5505 101.824 14.3233C100.445 15.0962 99.3922 16.21 98.6648 17.6648L98.2557 13.7096H93.9822C94.2247 15.619 94.3459 17.7709 94.3459 20.1652V36.6226H98.8921ZM130.125 36.9408C131.398 36.9408 132.534 36.7742 133.534 36.4408V32.7128C132.716 32.9553 131.913 33.0765 131.125 33.0765C129.913 33.0765 128.965 32.7507 128.284 32.0991C127.602 31.4475 127.261 30.3337 127.261 28.7576V17.2556H133.58V13.7096H127.261V6.39015L122.669 7.98133V13.7096H118.214V17.2556H122.669V29.1213C122.669 31.6672 123.321 33.6069 124.624 34.9405C125.927 36.2741 127.761 36.9408 130.125 36.9408ZM147.673 36.9408C149.886 36.9408 151.841 36.4559 153.538 35.486C155.235 34.5162 156.546 33.1372 157.47 31.349C158.395 29.5608 158.857 27.4695 158.857 25.0752C158.857 22.6808 158.395 20.582 157.47 18.7786C156.546 16.9753 155.235 15.5887 153.538 14.6188C151.841 13.649 149.886 13.164 147.673 13.164C145.43 13.164 143.46 13.649 141.763 14.6188C140.066 15.5887 138.755 16.9753 137.831 18.7786C136.906 20.582 136.444 22.6808 136.444 25.0752C136.444 27.4695 136.906 29.5608 137.831 31.349C138.755 33.1372 140.066 34.5162 141.763 35.486C143.46 36.4559 145.43 36.9408 147.673 36.9408ZM147.628 33.3039C145.537 33.3039 143.923 32.6068 142.786 31.2126C141.649 29.8184 141.081 27.7726 141.081 25.0752C141.081 22.4384 141.657 20.4077 142.809 18.9832C143.96 17.5587 145.582 16.8465 147.673 16.8465C149.734 16.8465 151.333 17.5587 152.47 18.9832C153.606 20.4077 154.174 22.4384 154.174 25.0752C154.174 27.7726 153.614 29.8184 152.492 31.2126C151.371 32.6068 149.749 33.3039 147.628 33.3039ZM168.768 36.6226V23.6658C168.768 21.5746 169.283 19.9228 170.314 18.7104C171.344 17.4981 172.738 16.8919 174.496 16.8919C176.011 16.8919 177.11 17.3466 177.792 18.2558C178.474 19.1651 178.815 20.6047 178.815 22.5747V36.6226H183.407V23.6658C183.407 21.5746 183.914 19.9228 184.93 18.7104C185.945 17.4981 187.332 16.8919 189.089 16.8919C190.605 16.8919 191.704 17.3466 192.385 18.2558C193.067 19.1651 193.408 20.6047 193.408 22.5747V36.6226H198V22.3474C198 16.2252 195.454 13.164 190.362 13.164C188.665 13.164 187.142 13.558 185.793 14.3461C184.445 15.1341 183.422 16.21 182.725 17.5739C181.634 14.634 179.315 13.164 175.769 13.164C174.102 13.164 172.647 13.5429 171.405 14.3006C170.162 15.0583 169.207 16.1342 168.54 17.5284L168.131 13.7096H163.858C164.1 15.619 164.222 17.7709 164.222 20.1652V36.6226H168.768Z" fill="white"/>
</svg>
