<svg width="203" height="51" viewBox="0 0 203 51" fill="none" xmlns="http://www.w3.org/2000/svg">
<path d="M6.40261 17.0415C9.92101 17.0415 12.7732 14.1893 12.7732 10.6709C12.7732 7.15252 9.92101 4.30029 6.40261 4.30029C2.88421 4.30029 0.0319824 7.15252 0.0319824 10.6709C0.0319824 14.1893 2.88421 17.0415 6.40261 17.0415Z" fill="white"/>
<path d="M35.5802 17.0414H26.7569C25.6739 17.0414 24.782 16.1495 24.782 15.0665V6.24321C24.782 5.1602 25.6739 4.26831 26.7569 4.26831H35.5802C36.6632 4.26831 37.5551 5.1602 37.5551 6.24321V15.0665C37.5551 16.1814 36.6632 17.0414 35.5802 17.0414Z" fill="#00FFB9"/>
<path d="M12.7731 23.062H12.3909H2.70752C1.21042 23.062 0 24.2724 0 25.7695V35.8351V45.8688C0 47.3659 1.21042 48.5764 2.70752 48.5764H10.0656C11.5627 48.5764 12.7731 47.3659 12.7731 45.8688V38.5426C12.7731 37.0455 13.9835 35.8351 15.4806 35.8351H22.4565C23.9535 35.8351 25.164 34.6247 25.164 33.1276V25.7695C25.164 24.2724 23.9535 23.062 22.4565 23.062H12.7731Z" fill="#00DAFF"/>
<path d="M61.6357 0H65.3944V22.2335H61.6357V0Z" fill="white"/>
<path d="M69.4082 7.67681H73.1669V9.1102C74.0269 8.0272 75.2692 7.39014 76.7026 7.39014C78.3589 7.39014 79.856 8.25017 80.8753 9.68356C81.8309 8.28202 83.328 7.39014 85.2074 7.39014C88.2971 7.39014 90.5905 9.84282 90.5905 13.0281V22.2337H86.8319V13.3148C86.8319 11.8814 85.8126 10.7347 84.411 10.7347C82.8821 10.7347 81.8946 11.977 81.8946 13.4741V22.2337H78.136V13.3148C78.136 11.8814 77.1167 10.7347 75.6514 10.7347C74.1543 10.7347 73.1987 11.977 73.1987 13.4741V22.2337H69.4082V7.67681Z" fill="white"/>
<path d="M94.0623 7.67681H97.8209V9.23761C98.9676 8.0909 100.528 7.39014 102.44 7.39014C106.358 7.39014 109.607 10.7347 109.607 14.9712C109.607 19.2076 106.358 22.5522 102.44 22.5522C100.528 22.5522 98.9676 21.8515 97.8209 20.7047V28.9228H94.0623V7.67681ZM105.88 14.9712C105.88 12.6459 104.032 10.7984 101.739 10.7984C99.4454 10.7984 97.5661 12.6459 97.5661 14.9712C97.5661 17.2965 99.4454 19.1439 101.739 19.1439C104.032 19.1121 105.88 17.2646 105.88 14.9712Z" fill="white"/>
<path d="M111.486 14.9712C111.486 10.7666 114.799 7.39014 119.195 7.39014C123.527 7.39014 126.871 10.7347 126.871 14.9712C126.871 19.2076 123.527 22.5522 119.195 22.5522C114.799 22.5204 111.486 19.1758 111.486 14.9712ZM123.24 14.9712C123.24 12.6778 121.424 10.894 119.195 10.894C116.869 10.894 115.054 12.6778 115.054 14.9712C115.054 17.2646 116.869 19.0802 119.195 19.0802C121.424 19.0484 123.24 17.2327 123.24 14.9712Z" fill="white"/>
<path d="M128.4 20.3545L130.502 17.7744C131.522 18.8255 132.86 19.4626 134.006 19.4626C135.153 19.4626 135.854 18.8574 135.854 18.0611C135.854 17.0417 134.675 16.7869 132.923 16.1817C130.662 15.3854 128.751 14.3661 128.751 11.8178C128.751 8.8555 131.299 7.3584 134.102 7.3584C136.204 7.3584 137.988 8.18658 139.103 9.42885L136.905 11.6586C136.077 10.8304 134.962 10.257 133.974 10.257C133.051 10.257 132.445 10.7348 132.445 11.4993C132.445 12.4868 133.497 12.7734 135.185 13.3149C137.351 14.0475 139.549 15.035 139.549 17.9336C139.549 20.896 137.255 22.4886 134.102 22.4886C131.617 22.5205 129.579 21.5012 128.4 20.3545Z" fill="white"/>
<path d="M140.855 20.3545L142.957 17.7744C143.976 18.8255 145.314 19.4626 146.461 19.4626C147.608 19.4626 148.308 18.8574 148.308 18.0611C148.308 17.0417 147.13 16.7869 145.378 16.1817C143.116 15.3854 141.205 14.3661 141.205 11.8178C141.205 8.8555 143.753 7.3584 146.556 7.3584C148.659 7.3584 150.443 8.18658 151.557 9.42885L149.36 11.6586C148.531 10.8304 147.416 10.257 146.429 10.257C145.505 10.257 144.9 10.7348 144.9 11.4993C144.9 12.4868 145.951 12.7734 147.639 13.3149C149.805 14.0475 152.003 15.035 152.003 17.9336C152.003 20.896 149.71 22.4886 146.556 22.4886C144.072 22.5205 142.033 21.5012 140.855 20.3545Z" fill="white"/>
<path d="M154.488 2.93091C154.488 1.72049 155.507 0.764893 156.686 0.764893C157.896 0.764893 158.884 1.72049 158.884 2.93091C158.884 4.14133 157.896 5.09692 156.686 5.09692C155.475 5.09692 154.488 4.14133 154.488 2.93091ZM154.838 7.67702H158.533V22.2339H154.838V7.67702Z" fill="white"/>
<path d="M166.05 20.3541L165.955 22.2335H162.451V0H166.21V9.33296C167.324 7.99513 169.076 7.32622 170.86 7.32622C174.937 7.32622 178.155 10.7026 178.155 14.9391C178.155 19.1756 174.937 22.552 170.86 22.552C168.853 22.5202 167.133 21.7238 166.05 20.3541ZM174.396 14.9391C174.396 12.5501 172.58 10.7027 170.223 10.7027C167.898 10.7027 166.05 12.5501 166.05 14.9391C166.05 17.3281 167.898 19.2074 170.223 19.2074C172.58 19.2074 174.396 17.3281 174.396 14.9391Z" fill="white"/>
<path d="M181.085 0H184.812V22.2335H181.085V0Z" fill="white"/>
<path d="M202.968 15.6084H191.501C191.788 17.9655 193.476 19.4944 195.61 19.4944C197.139 19.4944 198.573 18.73 199.337 17.3921L202.331 18.6344C201.153 21.0234 198.7 22.5205 195.642 22.5205C191.023 22.5205 187.838 19.1759 187.838 14.9394C187.838 10.703 191.087 7.3584 195.515 7.3584C199.719 7.3584 202.937 10.3207 203 14.7802L202.968 15.6084ZM191.883 12.7734H199.019C198.413 11.3082 197.267 10.3844 195.547 10.3844C193.763 10.3526 192.521 11.2763 191.883 12.7734Z" fill="white"/>
<path d="M61.6357 28.2539H75.4919V32.0126H65.3944V37.4913H74.3451V41.25H65.3944V50.4874H61.6357V28.2539Z" fill="white"/>
<path d="M77.8811 31.1846C77.8811 29.9742 78.9004 29.0186 80.079 29.0186C81.2894 29.0186 82.2768 29.9742 82.2768 31.1846C82.2768 32.395 81.2894 33.3506 80.079 33.3506C78.8685 33.3506 77.8811 32.395 77.8811 31.1846ZM78.2315 35.9307H81.9264V50.4876H78.2315V35.9307Z" fill="white"/>
<path d="M85.8441 35.9305H89.5709V37.2683C90.6221 36.2171 91.9918 35.6438 93.457 35.6438C96.3875 35.6438 98.6809 38.0328 98.6809 41.0907V50.5192H94.9223V41.5685C94.9223 40.0395 93.7755 38.9565 92.2784 38.9565C90.7176 38.9565 89.5709 40.0714 89.5391 41.5685V50.5192H85.8123V35.9305H85.8441Z" fill="white"/>
<path d="M101.293 43.193C101.293 38.9884 104.574 35.5801 108.492 35.5801C110.562 35.5801 112.155 36.3445 113.238 37.5868V35.9305H116.997V50.4873H113.493L113.397 48.608C112.314 49.9777 110.658 50.774 108.492 50.774C104.542 50.774 101.293 47.4294 101.293 43.193ZM113.333 43.193C113.333 40.8677 111.518 39.0202 109.193 39.0202C106.867 39.0202 105.02 40.8677 105.02 43.193C105.02 45.5182 106.835 47.3976 109.193 47.3976C111.518 47.3657 113.333 45.4864 113.333 43.193Z" fill="white"/>
<path d="M120.883 35.9305H124.609V37.2683C125.661 36.2171 127.03 35.6438 128.496 35.6438C131.426 35.6438 133.72 38.0328 133.72 41.0907V50.5192H129.961V41.5685C129.961 40.0395 128.814 38.9565 127.317 38.9565C125.756 38.9565 124.61 40.0714 124.578 41.5685V50.5192H120.851V35.9305H120.883Z" fill="white"/>
<path d="M136.332 43.2248C136.332 39.0202 139.644 35.6438 144.04 35.6438C145.123 35.6438 146.206 35.8668 147.13 36.2809V40.4536C146.397 39.5936 145.314 39.0521 144.04 39.0521C141.683 39.0521 139.931 40.8996 139.931 43.2248C139.931 45.5501 141.651 47.3657 144.04 47.3657C145.314 47.3657 146.397 46.8242 147.13 45.9642V50.1688C146.206 50.5829 145.123 50.8059 144.04 50.8059C139.644 50.774 136.332 47.4295 136.332 43.2248Z" fill="white"/>
<path d="M164.458 43.8623H152.991C153.277 46.2194 154.965 47.7484 157.1 47.7484C158.628 47.7484 160.062 46.9839 160.826 45.646L163.821 46.8883C162.642 49.2773 160.189 50.7744 157.131 50.7744C152.513 50.7744 149.327 47.4298 149.327 43.1933C149.327 38.9569 152.576 35.6123 157.004 35.6123C161.209 35.6123 164.426 38.5746 164.489 43.0341L164.458 43.8623ZM153.341 41.0273H160.476C159.871 39.5621 158.724 38.6384 157.004 38.6384C155.252 38.6065 153.978 39.5302 153.341 41.0273Z" fill="white"/>
</svg>
