<svg width="193" height="60" viewBox="0 0 193 60" fill="none" xmlns="http://www.w3.org/2000/svg">
<path d="M28.3884 55.4506C26.2618 53.78 25.2064 52.0459 25.2117 50.248C25.1639 48.5993 25.7724 46.999 26.9035 45.7986L51.0123 21.6898C52.6722 23.1057 53.6533 24.7126 53.9715 26.5264C54.1351 27.4034 54.0804 28.3072 53.8122 29.1581C53.544 30.0089 53.0705 30.7807 52.4336 31.4054L28.3884 55.4506ZM19.7971 46.8592C17.6651 45.1834 16.6098 43.4492 16.6204 41.6567C16.5726 40.008 17.181 38.4077 18.3121 37.2072L42.421 13.0984C44.0756 14.5091 45.062 16.1213 45.3802 17.935C45.5422 18.8117 45.4862 19.7147 45.2171 20.5646C44.9479 21.4145 44.474 22.1851 43.8369 22.8088L19.7971 46.8592ZM11.2004 38.2626C9.06849 36.5867 8.01313 34.8526 8.02374 33.06C7.97591 31.4113 8.58437 29.811 9.71549 28.6106L33.8243 4.50176C35.4842 5.91775 36.4653 7.52465 36.7835 9.33838C36.9471 10.2154 36.8924 11.1192 36.6242 11.9701C36.356 12.8209 35.8825 13.5927 35.2456 14.2174L11.2004 38.2626Z" fill="url(#paint0_linear)"/>
<path fill-rule="evenodd" clip-rule="evenodd" d="M163.957 24.1875C166.657 24.1875 168.78 25.0875 170.317 26.91L170.482 27.105V24.7425H175.642V44.745H170.482V42.3825L170.317 42.585C168.78 44.4 166.665 45.3075 163.957 45.3075C161.295 45.3075 159.007 44.2875 157.102 42.2475C155.197 40.2075 154.237 37.7025 154.237 34.7475C154.237 31.7925 155.19 29.2875 157.102 27.2475C157.96 26.2772 159.016 25.502 160.198 24.9741C161.381 24.4463 162.663 24.1781 163.957 24.1875ZM141.562 24.1875C144.487 24.1875 146.917 25.2 148.822 27.225C150.73 29.2571 151.758 31.9612 151.68 34.7475C151.68 35.3025 151.635 35.8875 151.545 36.495L151.477 36.87H136.402C137.092 39.375 138.975 40.62 142.042 40.62C143.932 40.62 145.38 40.02 146.392 38.79L146.52 38.625H151.477C151.325 39.4786 151.006 40.2939 150.54 41.025C149.062 43.425 145.8 45.3 141.96 45.3C138.66 45.3 135.997 44.3025 134.002 42.3C132.007 40.2975 131.002 37.785 131.002 34.7475C131.002 31.7325 131.985 29.22 133.957 27.2025C135.93 25.1925 138.465 24.1875 141.562 24.1875ZM85.5224 14.655V38.715C85.5224 38.9139 85.6015 39.1047 85.7421 39.2454C85.8828 39.386 86.0735 39.465 86.2724 39.465H96.2024V44.745H81.5024C81.1046 44.745 80.7231 44.587 80.4418 44.3057C80.1605 44.0244 80.0024 43.6429 80.0024 43.245V14.655H85.5224ZM104.242 24.7425V44.745H99.0824V24.7425H104.242ZM120.082 24.1875C122.265 24.1875 124.072 24.915 125.497 26.385C126.922 27.855 127.642 29.88 127.642 32.46V44.745H122.482V32.8725C122.509 31.8245 122.121 30.8082 121.402 30.045C121.018 29.685 120.564 29.4059 120.07 29.2242C119.575 29.0426 119.049 28.9621 118.522 28.9875C117.187 28.9875 116.122 29.4 115.32 30.225C114.517 31.05 114.12 32.295 114.12 33.945V44.745H108.96V24.7425H114.12V26.985L114.247 26.805C115.507 25.0575 117.45 24.18 120.082 24.18V24.1875ZM191.557 24.345V30.105L191.302 30.075C189.907 29.934 188.507 30.2841 187.342 31.065C186.097 31.89 185.482 33.2625 185.482 35.19V44.745H180.322V24.7425H185.482V28.185L185.572 27.945C186.017 26.8335 186.823 25.9037 187.86 25.305C188.985 24.6607 190.261 24.3292 191.557 24.345ZM164.917 29.1075C163.32 29.1075 162 29.6325 160.957 30.6825C159.922 31.7325 159.397 33.09 159.397 34.7475C159.397 36.405 159.922 37.755 160.957 38.8275C161.476 39.3441 162.095 39.7489 162.776 40.0172C163.457 40.2855 164.186 40.4115 164.917 40.3875C165.661 40.411 166.401 40.2806 167.092 40.0045C167.783 39.7284 168.409 39.3125 168.932 38.783C169.454 38.2534 169.862 37.6216 170.129 36.9272C170.395 36.2328 170.516 35.4907 170.482 34.7475C170.516 34.005 170.396 33.2636 170.129 32.5697C169.863 31.8758 169.456 31.2444 168.934 30.7149C168.413 30.1855 167.787 29.7695 167.097 29.4929C166.407 29.2163 165.668 29.0851 164.925 29.1075H164.917ZM141.562 28.8225C140.175 28.8225 139.027 29.175 138.12 29.8875C137.251 30.5807 136.639 31.5441 136.38 32.625L136.32 32.865H146.52C146.319 31.6583 145.668 30.5727 144.697 29.8275C143.788 29.1631 142.688 28.8106 141.562 28.8225Z" fill="white"/>
<path d="M113.295 14.805C113.295 17.445 111.255 19.605 108.667 19.7925L108.292 19.8075H98.8274V19.6425C98.8295 18.3821 99.3073 17.169 100.165 16.2457C101.023 15.3224 102.198 14.7569 103.455 14.6625L103.83 14.6475H113.287V14.805H113.295Z" fill="url(#paint1_linear)"/>
<defs>
<linearGradient id="paint0_linear" x1="22.5261" y1="21.439" x2="42.4632" y2="41.3761" gradientUnits="userSpaceOnUse">
<stop stop-color="#7EB5FF"/>
<stop offset="0.9997" stop-color="#1A38F8"/>
</linearGradient>
<linearGradient id="paint1_linear" x1="112.398" y1="16.9075" x2="99.723" y2="16.9075" gradientUnits="userSpaceOnUse">
<stop stop-color="#7EB5FF"/>
<stop offset="0.9995" stop-color="#1A38F8"/>
</linearGradient>
</defs>
</svg>
