<svg width="134" height="35" viewBox="0 0 134 35" fill="none" xmlns="http://www.w3.org/2000/svg">
<path d="M67.0792 7.31112V27.7277C67.0792 27.8833 66.9617 28.0388 66.7658 28.0388H64.6107C63.6313 28.0388 62.691 27.5333 62.1423 26.7167L52.4254 11.8222L52.7389 19.25V27.7667C52.7389 27.9223 52.6213 28.0777 52.4254 28.0777H49.6043C49.4476 28.0777 49.291 27.9611 49.291 27.7667V7.31112C49.291 7.15556 49.4084 7 49.6043 7H51.7201C52.6997 7 53.64 7.50556 54.1885 8.32223L63.9055 23.1777L63.5922 15.75V7.31112C63.5922 7.15556 63.7096 7 63.9055 7H66.7265C66.9617 7 67.0792 7.11667 67.0792 7.31112V7.31112Z" fill="white"/>
<path d="M95.9933 28H93.0155C92.8196 28 92.6629 27.8056 92.7414 27.6111L100.656 7.27223C100.734 7.11667 100.891 7 101.048 7H104.809C105.005 7 105.162 7.11667 105.201 7.27223L113.155 27.6111C113.233 27.8056 113.076 28 112.88 28H109.903C109.785 28 109.668 27.9223 109.629 27.8056L103.242 11.0833C103.164 10.85 102.772 10.85 102.693 11.0833L96.3068 27.8056C96.2285 27.9223 96.1109 28 95.9933 28V28Z" fill="white"/>
<path d="M133.922 27.5333L127.966 19.9889C131.336 19.3667 133.295 17.1111 133.295 13.65C133.295 9.68333 130.709 7 126.085 7H117.779C117.544 7 117.348 7.19444 117.348 7.42777C117.348 8.98333 118.602 10.2278 120.169 10.2278H125.772C128.554 10.2278 129.886 11.6278 129.886 13.6889C129.886 15.75 128.593 17.15 125.772 17.15H117.857C117.622 17.15 117.426 17.3444 117.426 17.5777V27.6888C117.426 27.8444 117.544 28 117.74 28H120.561C120.718 28 120.874 27.8833 120.874 27.6888V20.1833H124.126L129.298 26.8723C129.847 27.6112 130.709 28 131.649 28H133.804C133.961 28 134.078 27.7277 133.922 27.5333V27.5333Z" fill="white"/>
<path d="M87.0606 7H73.9349C73.6997 7 73.543 7.15556 73.543 7.38888C73.543 8.94444 74.8361 10.2278 76.4033 10.2278H87.0606C87.2173 10.2278 87.3741 10.1111 87.3741 9.91667V7.27223C87.3349 7.11667 87.2173 7 87.0606 7V7ZM87.0606 24.7723H77.2654C77.1086 24.7723 76.9519 24.6556 76.9519 24.4611V19.2111C76.9519 19.0556 77.0693 18.9 77.2654 18.9H86.3162C86.4729 18.9 86.6297 18.7833 86.6297 18.5888V15.9444C86.6297 15.7889 86.512 15.6333 86.3162 15.6333H73.9741C73.739 15.6333 73.543 15.8278 73.543 16.0611V27.5333C73.543 27.7667 73.739 27.9611 73.9741 27.9611H87.0606C87.2173 27.9611 87.3741 27.8444 87.3741 27.65V25.0056C87.3349 24.8888 87.2173 24.7723 87.0606 24.7723V24.7723Z" fill="white"/>
<path d="M28.2888 1.78889L20.9229 12.6389C20.4135 13.3778 21.3929 14.2722 22.0982 13.65L29.3467 7.38888C29.5428 7.23333 29.8169 7.35 29.8169 7.62223V27.1833C29.8169 27.4556 29.4643 27.5723 29.3076 27.3777L7.36609 1.32222C6.66082 0.466667 5.64211 0 4.50586 0H3.72222C1.6848 0 0 1.67222 0 3.73333V31.2667C0 33.3277 1.6848 35 3.7614 35C5.05439 35 6.26901 34.3389 6.97428 33.2112L14.3403 22.3611C14.8497 21.6223 13.8702 20.7277 13.1649 21.35L5.91638 27.5723C5.72046 27.7277 5.4462 27.6112 5.4462 27.3389V7.81667C5.4462 7.54444 5.79883 7.42777 5.95556 7.62223L27.897 33.6777C28.6023 34.5333 29.6602 35 30.7572 35H31.541C33.6176 35 35.3023 33.3277 35.3023 31.2667V3.73333C35.2632 1.67222 33.5783 0 31.5018 0C30.2087 0 28.9941 0.661111 28.2888 1.78889V1.78889Z" fill="white"/>
</svg>
