<svg width="199" height="57" viewBox="0 0 199 57" fill="none" xmlns="http://www.w3.org/2000/svg">
<path d="M84.5132 15.2837C82.9043 14.0664 80.6968 13.4539 77.9447 13.4539H69.925V40.6748H73.243V28.3164H77.9447C80.6968 28.3164 82.9062 27.6943 84.5152 26.4712C86.151 25.2249 86.9767 23.341 86.9767 20.8678C86.9767 18.3946 86.1472 16.5165 84.5132 15.2837V15.2837ZM83.1179 22.5739C82.9041 23.0974 82.5618 23.5581 82.1229 23.913C81.661 24.2994 81.0202 24.6143 80.2311 24.8481C79.4266 25.0897 78.4316 25.2114 77.2711 25.2114H73.243V16.559H77.2711C78.4355 16.559 79.4305 16.6749 80.2369 16.9048C81.0259 17.129 81.661 17.442 82.121 17.8362C82.5603 18.2006 82.9028 18.6686 83.1179 19.1984C83.3285 19.7295 83.4357 20.2962 83.4336 20.8678C83.4336 21.4745 83.3277 22.0503 83.1179 22.5739V22.5739ZM103.418 38.5127C103.357 37.79 103.324 37.0848 103.324 36.4182V28.5676C103.324 27.4527 103.141 26.4731 102.774 25.6597C102.435 24.8835 101.936 24.1881 101.311 23.6193C100.707 23.0782 99.9829 22.6705 99.1592 22.4078C98.3363 22.1461 97.4781 22.0138 96.6149 22.0155C93.2508 22.0155 90.6815 22.9082 88.9821 24.6626L88.7838 24.8675L90.6738 27.0972L90.9105 26.8808C92.3101 25.5855 94.1495 24.8757 96.0529 24.8964C98.8666 24.8964 100.231 26.2799 100.231 29.128V29.2652H99.3074C98.2643 29.2652 97.0922 29.3154 95.8239 29.4159C94.5827 29.5095 93.3595 29.7688 92.1865 30.1868C91.0796 30.572 90.0851 31.2265 89.2919 32.092C88.5067 32.9615 88.1083 34.1652 88.1083 35.6646C88.1083 36.5631 88.2892 37.365 88.6511 38.047C89.001 38.7149 89.4892 39.3 90.0829 39.7628C90.6886 40.231 91.3768 40.5804 92.1114 40.7927C92.8695 41.0129 93.6548 41.1242 94.444 41.1231C95.9105 41.1231 97.173 40.8526 98.1969 40.3193C99.0187 39.8942 99.7577 39.2431 100.401 38.3813C100.41 38.5842 100.422 38.7871 100.439 38.9957C100.476 39.5058 100.535 39.985 100.608 40.4159L100.656 40.6748H103.678L103.62 40.3135C103.547 39.8401 103.482 39.2315 103.418 38.5127V38.5127ZM95.2331 38.246C94.7603 38.2464 94.289 38.1932 93.8281 38.0876C93.3906 37.9883 92.9742 37.8117 92.5983 37.5659C92.2463 37.3357 91.9535 37.0252 91.7438 36.6597C91.5237 36.253 91.4148 35.795 91.4282 35.3323C91.4282 34.5459 91.6919 33.9527 92.2307 33.5063C92.8482 33.0157 93.5606 32.6597 94.3227 32.461C95.1828 32.2256 96.0641 32.0773 96.9536 32.0185C97.887 31.9567 98.6665 31.9258 99.2708 31.9258H100.233V32.89C100.233 33.6319 100.129 34.3391 99.929 34.9922C99.7413 35.6152 99.4245 36.1914 98.9994 36.6829C98.5666 37.171 98.0352 37.5609 97.4405 37.8267C96.8247 38.105 96.0818 38.248 95.2331 38.248V38.246ZM115.658 22.0194C115.062 22.0194 114.446 22.1044 113.836 22.2764C113.23 22.4445 112.647 22.6821 112.104 22.9797C111.566 23.2757 111.068 23.6393 110.622 24.0617C110.405 24.2655 110.203 24.4837 110.016 24.7148C110.012 24.5351 110.01 24.3612 110.002 24.1854C109.99 23.7064 109.958 23.2281 109.906 22.7517L109.877 22.4696H106.717L106.742 22.8077C106.79 23.4627 106.834 24.1545 106.873 24.8675C106.911 25.5843 106.929 26.1852 106.929 26.6547V40.6787H110.021V31.35C110.021 29.8081 110.262 28.5966 110.73 27.7484C111.203 26.8924 111.746 26.2451 112.339 25.822C112.935 25.4007 113.501 25.1399 114.028 25.0491C114.76 24.9216 114.964 24.9022 115.023 24.9022C116.723 24.9022 117.895 25.3776 118.503 26.3205C119.138 27.304 119.465 28.7551 119.465 30.637V40.6787H122.556V29.2091C122.556 26.9368 121.99 25.1515 120.866 23.9091C119.739 22.6532 117.985 22.0194 115.658 22.0194V22.0194ZM141.095 24.9138C140.739 24.5014 140.344 24.1253 139.914 23.7912C139.358 23.3609 138.751 23.0001 138.109 22.7169C137.522 22.4651 136.908 22.2817 136.28 22.1701C135.713 22.0704 135.139 22.0187 134.563 22.0155C133.296 22.0021 132.039 22.2473 130.868 22.7362C129.772 23.1989 128.782 23.8814 127.958 24.7419C126.257 26.5426 125.321 28.9377 125.349 31.4196C125.349 32.7335 125.595 33.9759 126.086 35.1101C126.554 36.2161 127.24 37.2157 128.103 38.049C128.972 38.8753 129.99 39.5278 131.103 39.9715C132.276 40.4405 133.528 40.6774 134.791 40.669C136.099 40.669 137.364 40.4062 138.545 39.8942C139.546 39.4487 140.424 38.7657 141.103 37.904V40.2072C141.103 41.1231 140.988 42.0003 140.759 42.808C140.549 43.5732 140.174 44.2829 139.662 44.887C139.115 45.5038 138.431 45.983 137.666 46.2859C136.834 46.6299 135.805 46.8057 134.606 46.8057C133.239 46.8057 131.983 46.5197 130.872 45.9555C129.804 45.4277 128.873 44.6561 128.155 43.7026L127.933 43.4031L125.645 45.8415L125.845 46.0579C126.992 47.283 128.287 48.2085 129.694 48.7997C131.095 49.3871 132.712 49.6885 134.492 49.6885C136.5 49.6885 138.159 49.3755 139.419 48.7553C140.678 48.137 141.679 47.3467 142.391 46.4096C143.103 45.4783 143.584 44.4387 143.83 43.3219C144.062 42.3011 144.183 41.2581 144.192 40.2111V22.4657H141.099V24.9138H141.095V24.9138ZM134.86 37.7958C133.986 37.7958 133.166 37.6219 132.427 37.2799C131.691 36.9418 131.026 36.4679 130.464 35.883C129.297 34.6655 128.649 33.038 128.661 31.3481C128.651 29.6581 129.297 28.0307 130.462 26.8113C131.023 26.2254 131.69 25.752 132.427 25.4162C133.191 25.0692 134.021 24.8925 134.86 24.8984C135.832 24.8984 136.721 25.0742 137.504 25.4201C138.255 25.7443 138.932 26.2175 139.496 26.8113C140.043 27.399 140.466 28.0909 140.741 28.8459C141.031 29.6512 141.176 30.5016 141.171 31.3577C141.196 32.3374 141.047 33.2281 140.726 34.0106C140.421 34.773 139.955 35.4599 139.359 36.024C138.142 37.1725 136.531 37.8069 134.86 37.7958V37.7958ZM163.214 24.7399C162.345 23.8745 161.311 23.1931 160.174 22.7362C158.939 22.2482 157.622 22.0047 156.296 22.0194C154.981 22.0062 153.677 22.249 152.454 22.7343C151.317 23.1918 150.283 23.8738 149.413 24.7399C148.567 25.5901 147.893 26.6122 147.418 27.7735C146.933 28.9805 146.69 30.271 146.7 31.5722C146.7 32.9344 146.94 34.2155 147.418 35.3729C147.875 36.5076 148.553 37.5391 149.413 38.4064C150.282 39.2729 151.317 39.9544 152.454 40.4101C153.677 40.8954 154.981 41.1382 156.296 41.125C157.701 41.125 159.005 40.8854 160.174 40.4101C161.311 39.9544 162.345 39.2729 163.214 38.4064C164.061 37.5562 164.735 36.5341 165.21 35.3729C165.694 34.1652 165.938 32.874 165.928 31.5722C165.928 30.2119 165.688 28.9347 165.21 27.7735C164.752 26.6395 164.073 25.6083 163.214 24.7399V24.7399ZM156.296 38.246C155.322 38.246 154.44 38.0721 153.672 37.7301C152.93 37.4046 152.265 36.9245 151.721 36.3216C151.173 35.7035 150.75 34.9851 150.474 34.2058C150.171 33.3613 150.019 32.4697 150.025 31.5722C150.025 30.637 150.174 29.7501 150.474 28.9367C150.753 28.1587 151.176 27.4407 151.721 26.8209C152.266 26.2194 152.931 25.7395 153.672 25.4123C154.501 25.0566 155.395 24.8808 156.296 24.8964C157.268 24.8964 158.151 25.0703 158.917 25.4123C159.663 25.7425 160.335 26.2218 160.892 26.8209C161.448 27.4348 161.879 28.1532 162.158 28.9347C162.46 29.78 162.612 30.6721 162.606 31.5703C162.606 32.5055 162.456 33.3923 162.158 34.2019C161.879 34.9835 161.448 35.7019 160.892 36.3158C160.337 36.9168 159.665 37.3964 158.917 37.7243C158.09 38.0838 157.196 38.2617 156.296 38.246V38.246ZM171.952 11.6512H168.857V40.6767H171.952V11.6512ZM179.331 14.4915C178.942 14.1173 178.426 13.9065 177.887 13.9022C177.36 13.9022 176.873 14.0993 176.444 14.4896C176.228 14.6798 176.057 14.9153 175.942 15.1794C175.827 15.4435 175.771 15.7298 175.778 16.018C175.778 16.6363 176.003 17.1483 176.442 17.5444C176.831 17.9186 177.347 18.1295 177.885 18.1337C178.415 18.1337 178.9 17.9366 179.329 17.5463C179.544 17.3558 179.715 17.1206 179.83 16.8569C179.945 16.5933 180.001 16.3076 179.995 16.0199C179.995 15.4055 179.77 14.8915 179.331 14.4896V14.4915ZM179.435 22.4715H176.342V40.6767H179.435V22.4696V22.4715ZM191.994 22.0194C191.396 22.0194 190.782 22.1044 190.17 22.2764C189.566 22.4445 188.982 22.6821 188.44 22.9797C187.901 23.2756 187.403 23.6393 186.956 24.0617C186.74 24.2655 186.538 24.4837 186.352 24.7148L186.338 24.1854C186.326 23.7064 186.294 23.2281 186.242 22.7517L186.213 22.4696H183.051L183.076 22.8077C183.126 23.4627 183.17 24.1545 183.207 24.8675C183.245 25.5843 183.265 26.1852 183.265 26.6547V40.6787H186.357V31.35C186.357 29.8081 186.598 28.5966 187.066 27.7484C187.539 26.8924 188.082 26.2451 188.675 25.822C189.269 25.4007 189.837 25.1399 190.364 25.0491C191.094 24.9216 191.3 24.9022 191.359 24.9022C193.059 24.9022 194.231 25.3776 194.839 26.3205C195.474 27.304 195.799 28.7551 195.799 30.637V40.6787H198.892V29.2091C198.892 26.9368 198.324 25.1515 197.202 23.9091C196.073 22.6532 194.321 22.0194 191.994 22.0194V22.0194ZM11.2489 41.7742C11.3798 42.0119 11.4606 42.1858 11.4953 42.2631C12.3132 43.8552 13.3159 45.4609 14.6881 46.3729L14.8228 46.4579C16.374 47.4221 19.1531 48.2568 22.0111 48.7186C22.2016 46.5043 23.5238 44.4967 24.8344 43.0186C23.1215 43.5367 21.3424 43.801 19.5534 43.8031C16.6631 43.8064 13.8145 43.1105 11.2489 41.7742V41.7742ZM33.1254 33.3479C31.4953 32.8204 29.0531 30.3646 25.3444 31.2553C22.2844 31.9896 21.3663 34.1304 20.8794 34.9091C19.7382 33.7807 18.5276 33.0156 17.523 32.8417C16.7589 32.7122 16.2585 32.946 15.9718 33.1624C15.4522 33.5604 15.4387 33.574 18.901 40.8062L19.1897 41.4071C19.1935 41.4187 19.2031 41.4264 19.2089 41.438L19.5207 42.0834C19.5207 42.0834 19.7189 42.7597 20.8698 42.4389C20.8698 42.4389 28.8414 41.6738 31.8745 36.1361C32.3169 35.2178 32.7341 34.2874 33.1254 33.346V33.3479ZM1.60106 23.6811C1.62608 23.2174 1.59529 22.1836 0.93324 21.6523C0.40076 23.6169 0.0946752 25.6364 0.0209961 27.6711C0.648161 27.7356 1.24287 27.9827 1.73193 28.3821C1.58374 27.4257 1.27004 25.8065 1.60299 23.6811H1.60106ZM31.6204 47.938C30.3194 46.5236 30.0981 43.8784 30.968 40.0391C31.0373 39.7377 31.1123 39.4382 31.1874 39.1426C29.9499 40.4739 27.8868 41.7742 26.6185 43.007C25.2155 44.3711 23.4487 46.5545 23.2794 48.8983C24.7747 49.0799 26.2451 49.1668 27.5269 49.0722C29.9903 48.8905 31.1758 48.137 31.6204 47.938V47.938ZM46.6417 14.6113C47.2601 15.3809 47.7776 16.227 48.1813 17.129C49.0705 18.81 51.9708 23.5922 55.7987 22.6763C55.5817 21.2979 55.2796 19.9344 54.8942 18.5936C54.8672 18.5124 54.8403 18.4313 54.8095 18.3482L54.823 18.3443C54.4381 17.0536 53.9569 15.7552 53.3661 14.4703C51.1682 15.3939 48.5835 15.0963 46.6417 14.6113V14.6113ZM42.652 4.73003C42.7487 4.81903 42.8159 4.93567 42.8445 5.06421C42.873 5.19275 42.8616 5.32699 42.8118 5.44881C41.863 7.74814 39.7036 9.6417 37.856 10.9247C39.5496 10.8996 41.7898 11.2338 44.413 12.513C45.2502 12.8685 49.6209 14.5997 52.8041 13.3167C52.7945 13.2994 52.781 13.2781 52.7733 13.2588C52.7098 13.1351 52.6405 13.0134 52.5751 12.8917C50.358 8.95565 47.2164 5.62319 43.4238 3.18427C40.6423 1.48989 37.5355 0.404761 34.3071 0C34.6166 1.59455 34.445 3.24554 33.8144 4.74163C38.699 2.58915 41.301 3.48956 42.652 4.73003ZM32.8868 47.3583C34.8914 46.4366 36.855 45.4277 38.7721 44.3344C38.6432 44.2822 38.5238 44.2262 38.4141 44.1663C36.0411 42.864 34.7132 38.3813 34.1147 34.4647C34.0304 34.6866 33.9406 34.9063 33.8452 35.1236C33.1804 36.8216 32.637 38.565 32.219 40.3405C31.1835 44.9063 31.9611 46.6859 32.8868 47.3564V47.3583ZM48.2371 24.7824C45.254 26.4461 42.3152 27.2827 39.4515 27.2827C37.8419 27.2824 36.2434 27.0147 34.7209 26.4905C35.2502 28.6237 34.8633 30.7742 35.1751 32.718C35.3194 32.7682 35.4676 32.8204 35.6177 32.8668C40.0154 34.314 43.4315 34.5652 45.4965 33.5933C46.0616 33.3346 46.558 32.9461 46.9457 32.4591C48.3892 30.6332 48.3026 26.8209 48.2352 24.7824H48.2371Z" fill="#FF6B00"/>
<path d="M41.3243 42.7211L41.3281 42.7269C44.3939 40.9106 46.2357 36.7158 46.8824 34.2735C46.6226 34.4551 46.3435 34.6174 46.0414 34.7604C44.9848 35.257 43.7377 35.4618 42.4039 35.4618C40.1329 35.4618 37.6118 34.8706 35.3639 34.1421C35.9374 37.9157 37.1922 42.0275 39.0321 43.038C39.7192 43.4148 40.4697 43.3124 41.3243 42.7211ZM34.392 24.997C34.9153 25.2089 35.4506 25.3896 35.9951 25.538C39.8654 26.5775 43.9628 25.8375 48.1776 23.3353C48.1353 20.9973 47.6811 19.1444 47.019 17.6759C46.8401 17.332 46.7438 17.1155 46.7304 17.0885H46.7323C46.0066 15.6869 44.9525 14.4833 43.6607 13.5815C40.8008 12.2329 38.4586 12.1131 36.9266 12.285C41.3069 14.0144 42.0537 16.505 42.0883 16.6248L42.1191 16.7291C42.1512 16.8431 42.1426 16.9648 42.0948 17.0731C42.047 17.1814 41.963 17.2696 41.8574 17.3223L41.7611 17.3706C37.5502 19.5115 33.5663 18.3154 31.3897 17.2894C32.0305 18.8101 32.8812 20.8428 33.2122 21.6292L33.2199 21.6253C33.3566 21.9383 33.4894 22.2649 33.6202 22.603L33.6279 22.6223C33.9108 23.3682 34.1726 24.1604 34.39 24.997H34.392ZM48.6665 43.5906C47.5406 41.9598 47.1711 39.5851 47.1172 37.4018C46.7265 38.3273 46.3204 39.1523 45.9297 39.8615L45.9317 39.8634C45.8739 39.9986 45.8027 40.13 45.7219 40.2653C45.0675 41.556 42.9544 46.0774 43.9359 48.9815C44.2207 49.8278 44.7442 50.4499 45.5256 50.8731C46.3204 50.2838 48.6318 48.4385 50.8836 45.347C49.9781 45.0127 49.2017 44.3984 48.6665 43.5925V43.5906ZM5.68516 37.2395C4.23019 35.3266 3.17938 33.6803 2.65013 31.9452C2.35952 30.9907 1.37799 29.1938 0 28.9735C0.0192456 31.7906 0.452273 34.5112 1.24134 37.0771C2.96768 36.7835 4.4419 36.8955 5.68516 37.2395Z" fill="#FF6B00"/>
<path d="M42.7198 49.3911C42.052 47.4048 42.5466 44.918 43.2202 42.9066C42.8375 43.209 42.4454 43.499 42.0443 43.7761L42.0481 43.7819L41.8403 43.9133C41.3468 44.2511 40.845 44.5765 40.3352 44.8891L40.3391 44.8949C40.0389 45.0823 33.1143 49.48 36.4188 55.7577C39.3047 54.8618 42.0277 53.504 44.4827 51.7368C43.6486 51.1766 43.0274 50.3501 42.7198 49.3911V49.3911ZM55.9762 23.9556C55.5893 24.0387 55.2025 24.0831 54.8176 24.0831C52.9161 24.0831 51.0339 23.061 49.2979 21.065C49.2934 21.0587 49.2883 21.0528 49.2825 21.0476C49.3999 21.8823 49.4615 22.7595 49.4615 23.6715C49.4808 23.942 49.4962 24.2126 49.5077 24.4811C49.6424 26.0134 50.1736 29.414 52.231 31.238C53.2337 32.1288 54.502 32.5346 56.0089 32.4534C56.0224 32.3935 56.0358 32.3239 56.0474 32.2525C56.1898 31.0967 56.2612 29.9332 56.261 28.7687C56.2629 27.3137 56.1879 25.6849 55.9762 23.9556V23.9556Z" fill="#FF6B00"/>
<path d="M51.3803 32.1981C50.4449 31.3673 49.7829 30.2949 49.3152 29.1897C49.1864 30.2284 49.004 31.2596 48.7686 32.2793C48.6012 33.2705 47.612 39.811 49.7194 42.86C50.2236 43.5923 50.8568 44.0425 51.6478 44.2396C52.6245 42.76 53.4535 41.1873 54.1228 39.5444L54.1305 39.5482C54.8926 37.703 55.4681 35.7611 55.826 33.7458C54.0843 33.7903 52.5928 33.2724 51.3803 32.1981ZM11.6688 45.0782C11.0456 44.1527 10.4942 43.1806 10.0195 42.1702C9.21692 40.7617 6.78619 37.5426 1.65723 38.3116C2.69084 41.1866 4.18182 43.8744 6.07218 46.2704C7.60221 44.6512 9.75772 44.5855 11.6688 45.0782V45.0782ZM27.891 50.3473C26.0203 50.5038 23.8263 50.3435 21.7016 49.9821C20.1504 49.8179 15.8259 49.6575 12.8005 52.436C16.3473 54.7641 20.3749 56.252 24.5788 56.7873C24.5268 54.8957 25.4006 52.9423 27.1385 51.0951C27.3887 50.8246 27.6427 50.5773 27.889 50.3473H27.891ZM14.0745 47.505C13.3682 47.08 9.18997 44.7323 6.93438 47.221C7.55794 47.992 9.17265 49.8237 11.7265 51.6863C13.3874 50.0575 15.389 49.2556 17.2173 48.8904C16.1117 48.5748 15.0542 48.1087 14.0745 47.505V47.505ZM36.0665 47.2423C34.4884 48.0383 30.2389 49.4817 27.8082 52.2679C26.7189 53.5161 25.7643 55.1141 25.8644 56.8801C26.7228 56.9748 28.6877 57.1158 31.2532 56.8337L31.6304 56.7912L31.7844 56.7719C32.9314 56.6231 34.0592 56.4048 35.162 56.1188C33.3702 52.494 34.4903 49.416 36.0665 47.2423V47.2423ZM11.1242 32.743C11.2031 32.8048 11.3397 32.8937 11.7824 32.8937C12.3135 32.8937 13.2874 32.7643 15.1388 32.2928C16.7362 31.8871 19.1419 31.1625 21.8267 29.9742C22.125 29.8351 22.8852 29.4641 23.7628 29.0274C24.0553 29.3559 24.3094 29.7423 24.4749 30.1983C29.4787 29.1008 31.3821 31.2803 33.4761 32.0957C33.9052 30.0437 33.8359 27.356 33.3144 25.9359C28.4529 23.7563 25.3563 19.5267 24.2131 17.7356C23.0699 18.6283 21.3648 19.8166 20.3294 21.9188C18.2239 26.1928 16.0029 30.036 12.0345 31.261C11.3551 31.4716 10.9125 31.6397 10.8547 32.1344C10.8441 32.2505 10.8632 32.3674 10.9104 32.474C10.9576 32.5805 11.0312 32.6731 11.1242 32.743V32.743Z" fill="#FF6B00"/>
<path d="M14.4844 23.6619C15.6449 22.8233 17.7369 21.3239 18.4682 20.721C19.8 19.6216 23.4817 16.7021 24.4094 15.9659C24.4355 15.9452 24.4659 15.9306 24.4984 15.9232C24.5309 15.9159 24.5646 15.9159 24.5971 15.9233C24.6296 15.9307 24.66 15.9453 24.6861 15.9661C24.7122 15.9868 24.7334 16.0132 24.7481 16.0432C27.6157 21.7722 32.8524 24.2724 32.8524 24.2724C32.6273 23.573 32.3578 22.8619 32.0441 22.1393L32.0499 22.1373L30.9529 19.5385L30.26 17.8981C29.8674 16.9764 29.5633 16.2557 29.4748 16.0586L28.6396 14.14C28.6126 14.0762 28.6857 14.0182 28.7435 14.0588L30.4371 15.2819C30.4852 15.3167 35.3698 18.7425 40.6084 16.4934C40.0772 15.6432 38.5106 13.8656 34.3228 12.7971L32.8928 12.4319C32.7908 12.4068 32.7774 12.2657 32.8736 12.2193L34.2073 11.5894C34.2631 11.5643 39.6076 9.00609 41.4244 5.39094C39.0341 3.74856 34.8617 5.54551 32.5099 6.80917L29.8289 8.25446C29.7654 8.28731 29.7019 8.20809 29.7481 8.15205L31.7189 5.82761C31.8035 5.72714 33.7185 3.38917 33.0276 0.133411C31.7208 -0.0694704 27.2924 -0.378623 23.3759 3.73117L22.5945 4.55236C22.5786 4.56863 22.5585 4.58004 22.5364 4.58523C22.5144 4.59043 22.4913 4.5892 22.4699 4.5817C22.4485 4.5742 22.4296 4.56073 22.4156 4.54288C22.4015 4.52502 22.3928 4.50351 22.3905 4.48087L22.0633 1.22897C20.108 2.06948 14.9405 4.97358 14.1764 12.4164C13.9051 15.0635 13.4778 17.3397 12.8947 19.2738L12.8908 19.27L12.8139 19.5424C12.6098 20.1858 12.3885 20.7887 12.1499 21.3548C11.9634 21.762 11.7459 22.1541 11.4994 22.5276C11.0702 23.173 11.2627 23.6039 11.4416 23.7816C11.7881 24.1372 13.5009 24.3729 14.4844 23.6619V23.6619ZM20.285 11.4774C21.153 10.917 22.0749 11.8445 21.5187 12.7179C21.4821 12.7758 21.4321 12.8261 21.3743 12.8628C20.5044 13.4231 19.5825 12.4956 20.1387 11.6242C20.1772 11.5663 20.2273 11.516 20.285 11.4774ZM15.7065 11.4774C16.5764 10.917 17.4963 11.8445 16.9401 12.7179C16.9036 12.7758 16.8535 12.8261 16.7958 12.8628C15.9259 13.4231 15.004 12.4956 15.5621 11.6242C15.6006 11.5663 15.6487 11.516 15.7065 11.4774Z" fill="#FF6B00"/>
</svg>
