<svg width="223" height="39" viewBox="0 0 223 39" fill="none" xmlns="http://www.w3.org/2000/svg">
<path d="M48.0456 22.668C47.6069 18.1152 45.8177 13.7973 42.9077 10.2685C43.294 9.84552 43.5079 9.29316 43.5072 8.7203C43.5048 8.27225 43.3729 7.83443 43.1273 7.45966C42.8818 7.08488 42.533 6.78915 42.1232 6.60811C41.7133 6.42708 41.2598 6.36847 40.8174 6.43937C40.375 6.51026 39.9625 6.70763 39.6297 7.00766C36.1019 4.09828 31.7853 2.30915 27.2337 1.86975C27.1289 1.34268 26.8447 0.868247 26.4293 0.527301C26.014 0.186355 25.4932 0 24.9559 0C24.4185 0 23.8977 0.186355 23.4824 0.527301C23.067 0.868247 22.7828 1.34268 22.678 1.86975C18.1264 2.30915 13.8098 4.09828 10.282 7.00766C9.84162 6.60396 9.26246 6.38577 8.66521 6.39857C8.06795 6.41137 7.49867 6.65417 7.07603 7.07637C6.65339 7.49857 6.40999 8.06759 6.39656 8.66484C6.38314 9.26208 6.60073 9.84147 7.00397 10.2822C4.09396 13.811 2.30479 18.1289 1.86606 22.6817C1.41721 22.7717 1.00496 22.9923 0.681092 23.3158C0.357226 23.6393 0.136193 24.0513 0.0457647 24.5C-0.0446641 24.9488 -0.000455405 25.4143 0.172837 25.838C0.346129 26.2617 0.640775 26.6247 1.01975 26.8814C1.39873 27.1382 1.84514 27.2772 2.30289 27.2811C2.76064 27.2849 3.20932 27.1534 3.59254 26.903C3.97577 26.6526 4.27645 26.2946 4.45682 25.8738C4.63718 25.4531 4.68918 24.9884 4.60628 24.5382L10.9396 21.6542C11.1631 21.9362 11.4493 22.1622 11.7755 22.3143C12.1016 22.4664 12.4587 22.5405 12.8184 22.5305C13.1781 22.5205 13.5306 22.4268 13.8478 22.2569C14.165 22.0869 14.4382 21.8454 14.6458 21.5514L22.6438 24.6684C22.5708 25.2313 22.7074 25.8015 23.0277 26.2702C23.3479 26.7389 23.8294 27.0734 24.3804 27.21V34.3208C23.8168 34.459 23.3234 34.7988 22.9933 35.276C22.6632 35.7532 22.5194 36.3349 22.589 36.9109C22.6586 37.487 22.9367 38.0176 23.371 38.4025C23.8052 38.7875 24.3653 39 24.9456 39C25.5258 39 26.086 38.7875 26.5202 38.4025C26.9544 38.0176 27.2326 37.487 27.3022 36.9109C27.3717 36.3349 27.2279 35.7532 26.8978 35.276C26.5678 34.7988 26.0743 34.459 25.5107 34.3208V27.1963C26.0617 27.0597 26.5432 26.7252 26.8635 26.2565C27.1837 25.7878 27.3204 25.2176 27.2474 24.6547L35.4646 21.4555C35.6876 21.6974 35.9597 21.8889 36.2626 22.0171C36.5656 22.1453 36.8925 22.2072 37.2214 22.1988C37.5503 22.1904 37.8736 22.1117 38.1696 21.9682C38.4656 21.8246 38.7276 21.6195 38.9378 21.3664L45.3191 24.4492C45.2255 24.8991 45.2674 25.3668 45.4397 25.7929C45.6119 26.219 45.9068 26.5844 46.2868 26.8428C46.6669 27.1013 47.1151 27.2412 47.5746 27.2447C48.0342 27.2483 48.4846 27.1154 48.8686 26.8629C49.2526 26.6104 49.5531 26.2497 49.732 25.8263C49.9108 25.4029 49.9601 24.936 49.8734 24.4846C49.7868 24.0333 49.5681 23.6178 49.2452 23.2907C48.9223 22.9637 48.5096 22.7398 48.0594 22.6475L48.0456 22.668ZM41.1951 7.52146C41.4323 7.52078 41.6645 7.59051 41.8621 7.72183C42.0597 7.85315 42.2139 8.04015 42.3051 8.25915C42.3964 8.47815 42.4206 8.7193 42.3747 8.95208C42.3289 9.18486 42.215 9.39879 42.0474 9.5668C41.8799 9.7348 41.6663 9.84932 41.4337 9.89586C41.201 9.94239 40.9598 9.91885 40.7405 9.82822C40.5213 9.73758 40.3338 9.58392 40.202 9.3867C40.0701 9.18948 39.9997 8.95756 39.9997 8.7203C39.9997 8.40294 40.1255 8.09853 40.3496 7.8738C40.5737 7.64907 40.8777 7.52236 41.1951 7.52146V7.52146ZM39.0132 7.93249C38.8669 8.32416 38.8337 8.74908 38.9173 9.15874L32.2483 11.8202L26.7164 3.84613C26.9301 3.59749 27.092 3.30869 27.1926 2.99666C31.5375 3.42364 35.6548 5.14286 39.0132 7.93249V7.93249ZM24.168 4.50036C24.2639 4.53804 24.3496 4.55859 24.4044 4.57572V13.0122C23.8844 13.1595 23.4301 13.4797 23.1165 13.9199L18.9068 12.2072L24.168 4.50036ZM25.0449 14.05C25.2916 14.0507 25.5326 14.1246 25.7374 14.2623C25.9421 14.4 26.1014 14.5954 26.195 14.8237C26.2886 15.052 26.3124 15.3029 26.2634 15.5447C26.2143 15.7865 26.0946 16.0083 25.9194 16.1821C25.7443 16.3558 25.5215 16.4737 25.2792 16.5207C25.037 16.5678 24.7863 16.5419 24.5588 16.4464C24.3313 16.3509 24.1373 16.19 24.0012 15.9842C23.8652 15.7783 23.7933 15.5367 23.7947 15.29C23.7974 14.9602 23.9303 14.6448 24.1645 14.4126C24.3987 14.1803 24.7151 14.05 25.0449 14.05V14.05ZM25.5347 12.9745V4.57572C25.6238 4.5506 25.7094 4.5232 25.7916 4.49351L31.1727 12.2483L26.9768 13.9199C26.6328 13.4339 26.1176 13.0961 25.5347 12.9745V12.9745ZM24.9696 1.12646C25.206 1.12646 25.4371 1.19657 25.6337 1.32793C25.8303 1.45928 25.9835 1.64598 26.074 1.86442C26.1645 2.08285 26.1881 2.32321 26.142 2.5551C26.0959 2.78699 25.982 2.99999 25.8148 3.16718C25.6477 3.33436 25.4347 3.44821 25.2028 3.49434C24.9709 3.54046 24.7305 3.51679 24.5121 3.42631C24.2937 3.33583 24.107 3.18261 23.9756 2.98603C23.8442 2.78944 23.7741 2.55832 23.7741 2.32188C23.775 2.00512 23.9013 1.70158 24.1253 1.47759C24.3493 1.2536 24.6528 1.12737 24.9696 1.12646V1.12646ZM22.7465 2.99666C22.8477 3.31679 23.0132 3.61286 23.2329 3.86669L17.8347 11.7825L11.0424 9.04228C11.0822 8.67077 11.0437 8.29504 10.9293 7.93934C14.2853 5.14678 18.4017 3.42503 22.7465 2.99666V2.99666ZM8.74401 7.52146C8.98127 7.52078 9.21339 7.59051 9.41099 7.72183C9.60859 7.85315 9.76278 8.04015 9.85404 8.25915C9.94531 8.47815 9.96954 8.7193 9.92367 8.95208C9.8778 9.18486 9.76389 9.39879 9.59636 9.5668C9.42884 9.7348 9.21523 9.84932 8.98258 9.89586C8.74994 9.94239 8.50871 9.91885 8.28945 9.82822C8.07019 9.73758 7.88276 9.58392 7.75087 9.3867C7.61899 9.18948 7.54859 8.95756 7.54859 8.7203C7.54859 8.40294 7.67443 8.09853 7.89851 7.8738C8.1226 7.64907 8.42665 7.52236 8.74401 7.52146V7.52146ZM2.34559 26.1413C2.10931 26.1406 1.87852 26.0699 1.68239 25.9381C1.48625 25.8064 1.33357 25.6194 1.24361 25.4009C1.15366 25.1825 1.13048 24.9422 1.17699 24.7105C1.2235 24.4789 1.33762 24.2662 1.50494 24.0994C1.67226 23.9325 1.88527 23.819 2.11706 23.7731C2.34886 23.7273 2.58904 23.7512 2.80728 23.8417C3.02551 23.9323 3.21201 24.0855 3.34321 24.2821C3.47442 24.4786 3.54444 24.7096 3.54444 24.9458C3.54444 25.1031 3.51341 25.2588 3.45312 25.4041C3.39283 25.5494 3.30447 25.6813 3.1931 25.7923C3.08173 25.9034 2.94955 25.9914 2.80411 26.0513C2.65868 26.1111 2.50287 26.1417 2.34559 26.1413V26.1413ZM10.4567 20.195C10.4564 20.3353 10.4702 20.4753 10.4978 20.6129L4.16442 23.5107C3.86916 23.1455 3.47221 22.8761 3.0238 22.7365C3.44501 18.386 5.16474 14.2627 7.95962 10.9022C8.43132 11.0713 8.94505 11.0832 9.4241 10.9363C9.90315 10.7894 10.3218 10.4914 10.6176 10.087L17.1839 12.7347L13.5839 18.0302C13.3254 17.9384 13.0533 17.8909 12.779 17.8898C12.1663 17.8906 11.5787 18.1333 11.1439 18.5649C10.709 18.9965 10.4621 19.5823 10.4567 20.195V20.195ZM12.779 21.3904C12.541 21.3938 12.3075 21.3263 12.108 21.1965C11.9085 21.0667 11.7522 20.8805 11.6589 20.6615C11.5657 20.4426 11.5397 20.2009 11.5842 19.9671C11.6288 19.7333 11.742 19.5181 11.9093 19.3489C12.0766 19.1796 12.2905 19.064 12.5237 19.0167C12.757 18.9695 12.999 18.9927 13.219 19.0834C13.439 19.1741 13.627 19.3283 13.7591 19.5263C13.8912 19.7242 13.9614 19.957 13.9607 20.195C13.9598 20.5094 13.8355 20.8109 13.6145 21.0345C13.3934 21.2581 13.0934 21.3859 12.779 21.3904V21.3904ZM14.6458 18.8351C14.5978 18.7701 14.5499 18.7118 14.4985 18.6536L18.2423 13.1732L22.6952 14.9475C22.6613 15.1688 22.6613 15.394 22.6952 15.6154L14.6458 18.8351ZM23.0651 23.6031L15.0671 20.4861C15.0962 20.2862 15.0962 20.0832 15.0671 19.8833L23.1028 16.6772C23.4181 17.115 23.8719 17.4335 24.3907 17.5815V22.6954C23.8577 22.8288 23.3915 23.1514 23.0788 23.6031H23.0651ZM26.2027 36.6192C26.2027 36.8658 26.1295 37.1068 25.9925 37.3119C25.8555 37.5169 25.6608 37.6767 25.433 37.7711C25.2052 37.8655 24.9545 37.8901 24.7126 37.842C24.4708 37.7939 24.2486 37.6752 24.0742 37.5008C23.8999 37.3264 23.7811 37.1043 23.733 36.8624C23.6849 36.6206 23.7096 36.3699 23.804 36.1421C23.8983 35.9142 24.0581 35.7195 24.2632 35.5825C24.4682 35.4455 24.7093 35.3724 24.9559 35.3724C25.12 35.371 25.2829 35.402 25.4351 35.4636C25.5873 35.5252 25.7259 35.6162 25.8429 35.7313C25.96 35.8464 26.0532 35.9835 26.1173 36.1347C26.1813 36.2858 26.215 36.4482 26.2164 36.6123L26.2027 36.6192ZM24.9559 26.1481C24.7194 26.1481 24.4883 26.078 24.2917 25.9467C24.0951 25.8153 23.9419 25.6286 23.8514 25.4102C23.7609 25.1917 23.7373 24.9514 23.7834 24.7195C23.8295 24.4876 23.9434 24.2746 24.1106 24.1074C24.2777 23.9402 24.4907 23.8264 24.7226 23.7802C24.9545 23.7341 25.1949 23.7578 25.4133 23.8483C25.6318 23.9387 25.8185 24.092 25.9498 24.2886C26.0812 24.4851 26.1513 24.7163 26.1513 24.9527C26.1495 25.2662 26.0246 25.5664 25.8036 25.7888C25.5826 26.0111 25.283 26.1377 24.9696 26.1413L24.9559 26.1481ZM26.85 23.61C26.5341 23.1539 26.0608 22.8307 25.521 22.7023V17.6192C26.1065 17.5014 26.6262 17.1676 26.9768 16.6841L34.8549 19.8662C34.8534 20.0686 34.8799 20.2704 34.9337 20.4656L26.85 23.61ZM27.3912 15.6325C27.424 15.4053 27.424 15.1746 27.3912 14.9475L31.8441 13.1766L35.4098 18.3727C35.3018 18.4977 35.2066 18.6331 35.1255 18.7769L27.3912 15.6325ZM37.1635 21.0684C36.927 21.0691 36.6955 20.9996 36.4985 20.8686C36.3014 20.7377 36.1477 20.5512 36.0567 20.3329C35.9657 20.1145 35.9415 19.874 35.9873 19.6419C36.033 19.4098 36.1466 19.1965 36.3136 19.0289C36.4807 18.8614 36.6937 18.7472 36.9256 18.7008C37.1576 18.6544 37.3982 18.6779 37.6168 18.7683C37.8354 18.8586 38.0223 19.0119 38.1538 19.2085C38.2853 19.4052 38.3555 19.6364 38.3555 19.873C38.3564 20.0303 38.3263 20.1862 38.2668 20.3318C38.2074 20.4774 38.1198 20.6098 38.0091 20.7215C37.8983 20.8332 37.7666 20.9219 37.6215 20.9826C37.4765 21.0434 37.3208 21.0748 37.1635 21.0753V21.0684ZM45.8158 23.4661L39.4345 20.3834C39.5066 20.0454 39.5021 19.6955 39.4214 19.3595C39.3406 19.0234 39.1857 18.7097 38.9679 18.4413C38.7501 18.173 38.475 17.9568 38.1628 17.8086C37.8506 17.6604 37.5091 17.584 37.1635 17.5849C36.8812 17.5884 36.6018 17.6418 36.3381 17.7425L32.9128 12.7998L39.4003 10.2103C39.7032 10.584 40.115 10.854 40.5784 10.9829C41.0419 11.1118 41.534 11.0932 41.9863 10.9296C44.7697 14.2809 46.4874 18.3879 46.9187 22.7228C46.4876 22.8548 46.1044 23.1095 45.8158 23.4558V23.4661ZM47.5935 26.1515C47.3571 26.1515 47.126 26.0814 46.9294 25.9501C46.7328 25.8187 46.5796 25.632 46.4891 25.4136C46.3986 25.1952 46.3749 24.9548 46.4211 24.7229C46.4672 24.491 46.581 24.278 46.7482 24.1108C46.9154 23.9436 47.1284 23.8298 47.3603 23.7837C47.5922 23.7375 47.8325 23.7612 48.051 23.8517C48.2694 23.9422 48.4561 24.0954 48.5875 24.292C48.7188 24.4886 48.7889 24.7197 48.7889 24.9561C48.7853 25.2711 48.6579 25.572 48.4342 25.7938C48.2105 26.0156 47.9085 26.1404 47.5935 26.1413V26.1515Z" fill="url(#paint0_linear)"/>
<path d="M75.0149 14.5349V25.4869C75.0149 27.2668 74.5001 28.621 73.4706 29.5494C72.4235 30.4812 70.9367 30.9419 68.9421 30.9419C66.9475 30.9419 65.466 30.4812 64.4346 29.5494C63.4033 28.6175 62.8955 27.2668 62.8955 25.4869V14.5349H64.9896V25.3822C64.9529 25.8913 65.0239 26.4025 65.198 26.8824C65.3721 27.3623 65.6453 27.8001 66 28.1673C66.8607 28.7871 67.8945 29.1206 68.9552 29.1206C70.0159 29.1206 71.0497 28.7871 71.9105 28.1673C72.2625 27.7985 72.5338 27.3603 72.7069 26.8808C72.8799 26.4012 72.951 25.8908 72.9156 25.3822V14.5349H75.0149Z" fill="white"/>
<path d="M97.2746 14.5349H100.625V30.6121H98.5887V22.5761C98.5887 22.0003 98.6026 19.8259 98.6305 16.0531C98.1803 17.3968 97.7057 18.7632 97.2066 20.1522L96.369 22.5761L93.5681 30.6121H91.7149L88.8355 22.5761C88.8147 22.4942 88.7884 22.4138 88.757 22.3353C88.7047 22.194 88.6104 21.9322 88.4743 21.5448L88.066 20.4035L87.3645 18.4089C87.0346 17.4718 86.7677 16.697 86.5739 16.0741C86.5984 17.9797 86.6123 20.154 86.6158 22.5971V30.6121H84.6265V14.5349H87.977L90.4899 21.6233C91.4427 24.2514 92.1669 26.41 92.6625 28.0992C93.0568 26.7276 93.7671 24.569 94.7932 21.6233L97.2746 14.5349Z" fill="white"/>
<path d="M119.651 22.1212C120.536 22.3556 121.323 22.8631 121.902 23.5714C122.455 24.3001 122.739 25.1966 122.709 26.1104C122.739 26.7248 122.634 27.3383 122.401 27.9075C122.167 28.4766 121.811 28.9873 121.358 29.4033C120.359 30.2459 119.077 30.6781 117.772 30.6126H110.322V14.5355H117.432C118.66 14.4633 119.873 14.8349 120.85 15.5825C121.543 16.2487 121.984 17.1352 122.095 18.0902C122.207 19.0452 121.983 20.0094 121.463 20.8177C121.014 21.4346 120.379 21.8914 119.651 22.1212ZM112.448 16.2107V21.3516H117.023C117.836 21.4005 118.639 21.1552 119.285 20.6606C119.559 20.421 119.775 20.122 119.917 19.7863C120.058 19.4507 120.122 19.0873 120.102 18.7236C120.123 18.3719 120.062 18.0201 119.923 17.6964C119.784 17.3727 119.571 17.0862 119.301 16.8599C118.638 16.3888 117.834 16.1596 117.023 16.2107H112.448ZM112.448 28.9374H117.128C118.066 29.0033 118.996 28.7261 119.746 28.1573C120.036 27.8771 120.267 27.5412 120.425 27.1697C120.582 26.7982 120.664 26.3988 120.664 25.9952C120.664 25.5916 120.582 25.1922 120.425 24.8208C120.267 24.4493 120.036 24.1134 119.746 23.8331C119.004 23.2475 118.071 22.96 117.128 23.0269H112.443L112.448 28.9374Z" fill="white"/>
<path d="M144.014 30.6122H141.658L137.355 24.1624H133.596V30.6122H131.502V14.535H138.271C139.64 14.4793 140.98 14.9452 142.019 15.8385C142.505 16.2782 142.888 16.8196 143.14 17.424C143.393 18.0285 143.509 18.6812 143.48 19.3356C143.537 20.4617 143.173 21.5686 142.457 22.44C141.742 23.3114 140.727 23.8845 139.611 24.0473L144.014 30.6122ZM133.596 16.2783V22.4192H137.92C138.84 22.473 139.748 22.186 140.47 21.6129C140.782 21.3252 141.026 20.9716 141.185 20.5776C141.343 20.1837 141.412 19.7594 141.386 19.3356C141.411 18.9133 141.341 18.4906 141.181 18.0991C141.02 17.7076 140.774 17.3572 140.459 17.074C139.731 16.5075 138.821 16.2248 137.899 16.2783H133.596Z" fill="white"/>
<path d="M152.643 14.5349H163.354V16.2782L152.643 16.3725V14.5349ZM154.737 21.4663H162.757V23.2096H154.747V28.8688H163.558V30.6121H152.643V21.4506L154.737 21.4663Z" fill="white"/>
<path d="M174.588 14.5349V28.8479H182.106V30.6121H172.483V14.5349H174.588Z" fill="white"/>
<path d="M192.702 14.5349V28.8479H200.225V30.6121H190.598V14.5349H192.702Z" fill="white"/>
<path d="M218.024 24.7493L217.276 22.6552C216.264 19.8631 215.508 17.6818 215.009 16.1113C214.66 17.2281 214.351 18.1861 214.082 18.9854L213.627 20.3098C213.449 20.8334 213.328 21.1894 213.266 21.3569L212.789 22.6918L212.046 24.7859L211.433 26.5345L209.962 30.6336H207.868L213.69 14.5564H216.428L222.27 30.6336H220.124L218.632 26.5345L218.024 24.7493Z" fill="white"/>
<defs>
<linearGradient id="paint0_linear" x1="17.04" y1="36.1088" x2="36.0983" y2="3.09257" gradientUnits="userSpaceOnUse">
<stop stop-color="#0655A3"/>
<stop offset="0.26" stop-color="#0759A6"/>
<stop offset="0.53" stop-color="#0A66AF"/>
<stop offset="0.81" stop-color="#0F7ABF"/>
<stop offset="1" stop-color="#148DCD"/>
</linearGradient>
</defs>
</svg>
