<svg width="235" height="43" viewBox="0 0 235 43" fill="none" xmlns="http://www.w3.org/2000/svg">
<path d="M0.0347786 28.0308C0.026084 28.0654 0.0217366 28.0999 0.0173894 28.1366C0.0108683 28.1776 0.00652099 28.2164 0.00434732 28.2575C0.00434732 28.2682 0 28.279 0 28.2919C0 28.3157 0.00652099 28.3373 0.00652099 28.3589C0.00869466 28.3998 0.0108683 28.4387 0.019563 28.4796C0.026084 28.5163 0.0347786 28.5509 0.0434732 28.5854C0.0521679 28.62 0.0630362 28.6545 0.0760782 28.6889C0.0891202 28.7236 0.104336 28.758 0.121725 28.7904C0.136941 28.8228 0.15433 28.8531 0.173894 28.8854C0.193457 28.9156 0.215193 28.9459 0.236929 28.9739C0.258666 29.0041 0.282577 29.0321 0.308661 29.0602C0.33257 29.0861 0.360828 29.1119 0.386912 29.1356C0.415169 29.1594 0.441253 29.1831 0.471685 29.2047C0.504291 29.2284 0.539069 29.2478 0.573847 29.2695C0.593411 29.2802 0.610799 29.2954 0.632537 29.3062L27.9903 42.8857C28.0011 42.89 28.0119 42.8921 28.0207 42.8965C28.036 42.903 28.0489 42.9115 28.0642 42.9181C28.0772 42.9245 28.0925 42.9267 28.1077 42.9332C28.1293 42.9418 28.1534 42.9482 28.175 42.9548C28.1968 42.9612 28.2184 42.9678 28.2402 42.972C28.2533 42.9742 28.2641 42.9806 28.2772 42.9828C28.2903 42.9849 28.3032 42.9849 28.3163 42.9872C28.3402 42.9915 28.3641 42.9936 28.3902 42.9958C28.4164 42.9979 28.4424 43 28.4663 43C28.4881 43 28.5119 43 28.5337 43C28.5597 43 28.5836 42.9979 28.6098 42.9958C28.6337 42.9936 28.6576 42.9893 28.6837 42.9872C28.6967 42.9849 28.7097 42.9849 28.7228 42.9828C28.7359 42.9806 28.7467 42.9763 28.7598 42.972C28.7814 42.9678 28.8032 42.9612 28.825 42.9548C28.8466 42.9482 28.8705 42.9396 28.8923 42.9332C28.9075 42.9288 28.9206 42.9245 28.9358 42.9181C28.9511 42.9115 28.964 42.903 28.9793 42.8965C28.9902 42.8921 29.001 42.89 29.0097 42.8857L56.3674 29.3062C56.3892 29.2954 56.4044 29.2802 56.4262 29.2695C56.4609 29.2501 56.4956 29.2284 56.5283 29.2047C56.5588 29.1831 56.5848 29.1594 56.613 29.1356C56.6413 29.1119 56.6674 29.0861 56.6913 29.0602C56.7175 29.0321 56.7391 29.0041 56.763 28.9739C56.7848 28.9459 56.8066 28.9156 56.8261 28.8854C56.8457 28.8552 56.8608 28.8228 56.8783 28.7904C56.8957 28.758 56.9109 28.7236 56.924 28.6889C56.9369 28.6545 56.9479 28.62 56.9566 28.5854C56.9651 28.5509 56.9739 28.5163 56.9805 28.4796C56.9869 28.4387 56.9892 28.3998 56.9934 28.3589C56.9956 28.3373 57 28.3157 57 28.2919C57 28.2812 56.9978 28.2704 56.9956 28.2575C56.9934 28.2164 56.9892 28.1776 56.9826 28.1366C56.9782 28.102 56.9739 28.0654 56.9651 28.0308C56.9566 27.9985 56.9456 27.964 56.9348 27.9316C56.9217 27.8928 56.9086 27.8518 56.8891 27.8151C56.8847 27.8042 56.8826 27.7935 56.8783 27.7848L43.1972 0.625785C43.1907 0.612837 43.1799 0.604206 43.1733 0.593416C43.1342 0.522207 43.0885 0.455313 43.0342 0.394892C43.0212 0.379787 43.0103 0.364681 42.9973 0.351734C42.9341 0.286998 42.8625 0.228735 42.7842 0.179104C42.7646 0.166157 42.7451 0.157525 42.7255 0.146736C42.6624 0.11221 42.5951 0.0841573 42.5255 0.0604206C42.5016 0.0517891 42.4777 0.0453154 42.4538 0.0388419C42.3668 0.0172631 42.2778 0.00215788 42.1865 0.00215788C42.1821 0.00215788 42.18 0 42.1777 0C42.1669 0 42.1538 0.00431576 42.143 0.00431576C42.0712 0.00647363 42.0017 0.0129473 41.9343 0.0280525C41.9126 0.0323682 41.8908 0.0431576 41.8691 0.0474734C41.8104 0.0647363 41.7539 0.0841573 41.6995 0.107894C41.6908 0.11221 41.68 0.114368 41.6713 0.118683C41.6496 0.129473 41.6343 0.144579 41.6127 0.155367C41.5778 0.174788 41.5431 0.196367 41.5105 0.220104C41.4801 0.241683 41.4539 0.26542 41.4257 0.289156C41.3974 0.312893 41.3713 0.338786 41.3474 0.364681C41.3214 0.392733 41.2996 0.420787 41.2757 0.450997C41.2539 0.479049 41.2323 0.50926 41.2127 0.539469C41.1931 0.56968 41.1779 0.602049 41.1604 0.634416C41.1431 0.666784 41.1278 0.70131 41.1149 0.735838C41.1018 0.770363 41.0931 0.804889 41.0823 0.839415C41.0736 0.873941 41.0649 0.908467 41.0584 0.945152C41.0518 0.986151 41.0497 1.02499 41.0453 1.06599C41.0431 1.08757 41.0387 1.10915 41.0387 1.13289V25.5601L29.3076 13.914C29.2532 13.8601 29.1944 13.8126 29.1314 13.7716C29.1053 13.7543 29.0749 13.7414 29.0467 13.7263C29.0097 13.7068 28.975 13.6853 28.9358 13.668C28.8988 13.6529 28.8597 13.6443 28.8228 13.6335C28.7901 13.6248 28.7575 13.6119 28.7249 13.6054C28.6511 13.5903 28.5772 13.5838 28.5011 13.5838C28.4272 13.5838 28.3511 13.5925 28.2772 13.6054C28.2425 13.6119 28.212 13.6248 28.1773 13.6335C28.138 13.6443 28.1011 13.6529 28.0642 13.668C28.025 13.6831 27.9903 13.7068 27.9533 13.7263C27.9251 13.7414 27.8968 13.7543 27.8686 13.7716C27.8054 13.8126 27.7468 13.8601 27.6924 13.914L15.9612 25.5601V1.13289C15.9612 1.10915 15.9547 1.08757 15.9547 1.06599C15.9526 1.02499 15.9503 0.986151 15.9416 0.945152C15.9352 0.908467 15.9264 0.873941 15.9177 0.839415C15.909 0.804889 15.8982 0.770363 15.8851 0.735838C15.872 0.70131 15.8569 0.666784 15.8394 0.634416C15.8242 0.602049 15.8068 0.571838 15.7873 0.539469C15.7677 0.50926 15.7461 0.479049 15.7243 0.450997C15.7025 0.420787 15.6786 0.392733 15.6526 0.364681C15.6287 0.338786 15.6003 0.312893 15.5743 0.289156C15.5461 0.26542 15.5199 0.241683 15.4895 0.220104C15.4569 0.196367 15.4222 0.176946 15.3874 0.155367C15.3678 0.144579 15.3504 0.129473 15.3287 0.118683C15.32 0.114368 15.3091 0.11221 15.3005 0.107894C15.2461 0.0819994 15.1896 0.0647363 15.1331 0.0474734C15.1092 0.0409997 15.0874 0.0302103 15.0635 0.0258946C14.9961 0.0107894 14.9287 0.00431576 14.857 0.00215788C14.8462 0.00431576 14.8331 0 14.8223 0C14.8179 0 14.8157 0.00215788 14.8135 0.00215788C14.7201 0.00215788 14.6309 0.0172631 14.5462 0.0388419C14.5223 0.0453154 14.4984 0.0539469 14.4745 0.0604206C14.4049 0.0819994 14.3374 0.11221 14.2745 0.146736C14.2549 0.157525 14.2354 0.166157 14.2157 0.179104C14.1375 0.228735 14.0657 0.28484 14.0027 0.351734C13.9897 0.364681 13.9788 0.381945 13.9658 0.394892C13.9115 0.455313 13.8658 0.522207 13.8267 0.593416C13.8202 0.606364 13.8093 0.614996 13.8028 0.625785L0.121725 27.7848C0.117378 27.7957 0.115204 27.8042 0.110857 27.8151C0.0934675 27.8518 0.0804256 27.8928 0.0652099 27.9316C0.0543415 27.964 0.0434732 27.9964 0.0347786 28.0308ZM14.3484 29.4227L22.7257 37.7391L5.97105 29.4227H14.3484ZM42.6495 29.4227H51.0268L34.2721 37.7391L42.6495 29.4227ZM43.3168 27.1591V5.92554L54.0112 27.1591H43.3168ZM29.6379 39.1374V17.4421L40.5648 28.2898L29.6379 39.1374ZM27.3598 39.1374L16.4329 28.2898L27.3598 17.4421V39.1374ZM2.98662 27.1591L13.681 5.92554V27.1591H2.98662Z" fill="#A3EC26"/>
<path d="M65.025 19.8133C64.9285 19.479 65.1197 19.2377 65.4558 19.2377H67.6579C67.8492 19.2377 68.0404 19.4048 68.0887 19.5719L70.5786 29.1269H70.6733L74.4797 19.2618C74.528 19.1188 74.6469 19 74.8864 19H75.3171C75.5567 19 75.6755 19.1188 75.7238 19.2618L79.5599 29.1269H79.6564L82.0981 19.5719C82.1463 19.4048 82.3376 19.2377 82.5289 19.2377H84.731C85.0652 19.2377 85.2584 19.4772 85.1618 19.8133L80.6369 35.9042C80.5886 36.0953 80.3973 36.2383 80.206 36.2383H79.8236C79.6082 36.2383 79.4651 36.1176 79.4169 35.9746L75.1315 25.1292H75.0126L70.7736 35.9746C70.7012 36.1176 70.6065 36.2383 70.367 36.2383H69.9845C69.7932 36.2383 69.602 36.0935 69.5537 35.9042L65.025 19.8133Z" fill="white"/>
<path d="M89.9038 19.6954C89.9038 19.4559 90.1192 19.2405 90.3588 19.2405H92.585C92.8246 19.2405 93.04 19.4559 93.04 19.6954V35.5468C93.04 35.7862 92.8246 36.0016 92.585 36.0016H90.3588C90.1192 36.0016 89.9038 35.7862 89.9038 35.5468V19.6954Z" fill="white"/>
<path d="M99.4257 19.4308C99.4257 19.1912 99.6412 19 99.8806 19H100.478L110.438 29.5818H110.462V19.6944C110.462 19.4549 110.654 19.2395 110.917 19.2395H113.119C113.359 19.2395 113.574 19.4549 113.574 19.6944V35.8076C113.574 36.047 113.359 36.2383 113.119 36.2383H112.544L102.536 25.2481H102.512V35.5439C102.512 35.7835 102.32 35.9988 102.057 35.9988H99.8788C99.6392 35.9988 99.4238 35.7835 99.4238 35.5439V19.4308H99.4257Z" fill="white"/>
<path d="M122.175 22.1129H118.511C118.247 22.1129 118.056 21.8975 118.056 21.658V19.6954C118.056 19.4559 118.247 19.2405 118.511 19.2405H128.974C129.238 19.2405 129.429 19.4559 129.429 19.6954V21.658C129.429 21.8975 129.238 22.1129 128.974 22.1129H125.311V35.5448C125.311 35.7844 125.095 35.9998 124.856 35.9998H122.629C122.39 35.9998 122.175 35.7844 122.175 35.5448V22.1129Z" fill="white"/>
<path d="M133.898 19.6954C133.898 19.4559 134.09 19.2405 134.353 19.2405H144.098C144.361 19.2405 144.553 19.4559 144.553 19.6954V21.658C144.553 21.8975 144.361 22.1129 144.098 22.1129H137.01V26.04H142.924C143.164 26.04 143.379 26.2554 143.379 26.4949V28.4817C143.379 28.7453 143.164 28.9366 142.924 28.9366H137.01V33.1273H144.098C144.361 33.1273 144.553 33.3428 144.553 33.5823V35.5468C144.553 35.7862 144.361 36.0016 144.098 36.0016H134.353C134.09 36.0016 133.898 35.7862 133.898 35.5468V19.6954Z" fill="white"/>
<path d="M150.155 19.6954C150.155 19.4559 150.346 19.2405 150.61 19.2405H157.458C160.33 19.2405 162.677 21.5392 162.677 24.3893C162.677 26.5915 161.216 28.387 159.134 29.2262L162.415 35.3072C162.582 35.6192 162.415 36.0016 162.008 36.0016H159.494C159.279 36.0016 159.16 35.8827 159.112 35.7862L155.927 29.4416H153.27V35.5468C153.27 35.7862 153.055 36.0016 152.816 36.0016H150.613C150.35 36.0016 150.159 35.7862 150.159 35.5468V19.6954H150.155ZM157.194 26.8774C158.462 26.8774 159.565 25.7763 159.565 24.4357C159.565 23.1676 158.464 22.1129 157.194 22.1129H153.291V26.8774H157.194Z" fill="white"/>
<path d="M169.814 19.3584C169.838 19.1671 169.981 19 170.245 19H170.627C170.819 19 170.962 19.0947 171.034 19.2395L176.302 30.5417C176.35 30.5417 176.35 30.5417 176.374 30.5417L181.642 19.2395C181.714 19.0966 181.833 19 182.048 19H182.431C182.695 19 182.838 19.1671 182.862 19.3584L185.688 35.4474C185.76 35.7816 185.568 35.9988 185.257 35.9988H183.079C182.864 35.9988 182.672 35.8076 182.624 35.6405L181.211 26.5664C181.187 26.5664 181.139 26.5664 181.139 26.5664L176.948 35.9766C176.9 36.1196 176.757 36.2402 176.541 36.2402H176.112C175.897 36.2402 175.778 36.1196 175.706 35.9766L171.467 26.5664C171.467 26.5664 171.418 26.5664 171.394 26.5664L170.005 35.6405C169.981 35.8076 169.79 35.9988 169.575 35.9988H167.419C167.107 35.9988 166.916 35.7835 166.964 35.4474L169.814 19.3584Z" fill="white"/>
<path d="M190.624 19.6954C190.624 19.4559 190.84 19.2405 191.079 19.2405H193.353C193.617 19.2405 193.808 19.4559 193.808 19.6954V29.488C193.808 31.5231 195.197 33.1273 197.281 33.1273C199.364 33.1273 200.777 31.5231 200.777 29.5122V19.6954C200.777 19.4559 200.968 19.2405 201.231 19.2405H203.507C203.746 19.2405 203.962 19.4559 203.962 19.6954V29.6552C203.962 33.2945 201.064 36.2393 197.281 36.2393C193.522 36.2393 190.624 33.2945 190.624 29.6552V19.6954Z" fill="white"/>
<path d="M212.44 22.1129H208.776C208.513 22.1129 208.322 21.8975 208.322 21.658V19.6954C208.322 19.4559 208.513 19.2405 208.776 19.2405H219.24C219.504 19.2405 219.695 19.4559 219.695 19.6954V21.658C219.695 21.8975 219.504 22.1129 219.24 22.1129H215.576V35.5448C215.576 35.7844 215.361 35.9998 215.121 35.9998H212.895C212.656 35.9998 212.44 35.7844 212.44 35.5448V22.1129Z" fill="white"/>
<path d="M224.164 19.6954C224.164 19.4559 224.355 19.2405 224.619 19.2405H234.363C234.626 19.2405 234.819 19.4559 234.819 19.6954V21.658C234.819 21.8975 234.626 22.1129 234.363 22.1129H227.276V26.04H233.19C233.429 26.04 233.644 26.2554 233.644 26.4949V28.4817C233.644 28.7453 233.429 28.9366 233.19 28.9366H227.276V33.1273H234.363C234.626 33.1273 234.819 33.3428 234.819 33.5823V35.5468C234.819 35.7862 234.626 36.0016 234.363 36.0016H224.619C224.355 36.0016 224.164 35.7862 224.164 35.5468V19.6954Z" fill="white"/>
</svg>
