<svg width="16" height="13" viewBox="0 0 16 13" fill="#232323" xmlns="http://www.w3.org/2000/svg">
<path opacity="0.2" fill-rule="evenodd" clip-rule="evenodd" d="M14.1152 1.98749C14.7932 1.59526 15.3135 0.973319 15.5577 0.232434C14.9228 0.596521 14.2213 0.859825 13.4728 1.00237C12.8755 0.384969 12.0218 0 11.0771 0C9.26454 0 7.79574 1.42094 7.79574 3.17327C7.79574 3.42205 7.82297 3.66447 7.87932 3.896C5.15208 3.76344 2.73381 2.50139 1.11381 0.580178C0.831132 1.05049 0.669602 1.59526 0.669602 2.17635C0.669602 3.27678 1.24905 4.24828 2.12995 4.81847C1.59183 4.80213 1.08564 4.65777 0.642367 4.4217V4.46074C0.642367 5.9988 1.77308 7.28173 3.27663 7.57227C3.00053 7.64673 2.71128 7.68395 2.41075 7.68395C2.19945 7.68395 1.99284 7.66488 1.79374 7.62766C2.21072 8.88789 3.42314 9.80673 4.86001 9.83124C3.73587 10.6829 2.3206 11.1895 0.783237 11.1895C0.518401 11.1895 0.256383 11.1759 0 11.146C1.45284 12.0457 3.17802 12.5714 5.03187 12.5714C11.0705 12.5714 14.3706 7.7357 14.3706 3.5419C14.3706 3.40389 14.3687 3.26679 14.3622 3.13151C15.0036 2.68389 15.5614 2.12459 16 1.48812C15.4112 1.74053 14.7782 1.91123 14.1152 1.98749Z"/>
</svg>
