<svg width="158" height="47" viewBox="0 0 158 47" fill="none" xmlns="http://www.w3.org/2000/svg">
<path d="M54.5977 13.3169H58.2597C59.1918 13.3169 59.7911 13.5167 60.2572 13.9828C60.5235 14.2491 60.7232 14.6486 60.7232 15.1147C60.7232 15.9802 60.2572 16.4463 59.5913 16.7126C60.4569 16.979 60.9896 17.5116 60.9896 18.4438C60.9896 19.7088 59.9908 20.4413 58.2597 20.4413H54.5977V13.3169ZM57.7936 16.18C58.3929 16.18 58.7258 15.9802 58.7258 15.5807C58.7258 15.1812 58.3929 14.9815 57.7936 14.9815H56.5285V16.2466H57.7936V16.18ZM58.0599 18.9099C58.6592 18.9099 58.9921 18.6435 58.9921 18.244C58.9921 17.8445 58.6592 17.5782 57.9934 17.5782H56.462V18.9099H58.0599ZM65.6503 13.3169H67.6478V18.7767H71.1101V20.5078H65.6503V13.3169ZM75.0384 16.9124C75.0384 14.8483 76.703 13.1172 78.9002 13.1172C81.0974 13.1172 82.762 14.7817 82.762 16.8458C82.762 18.9099 81.0974 20.5744 78.9002 20.5744C76.703 20.641 75.0384 18.9764 75.0384 16.9124ZM80.7645 16.9124C80.7645 15.8471 80.0321 14.9149 78.9002 14.9149C77.8349 14.9149 77.1025 15.7805 77.1025 16.8458C77.1025 17.9111 77.8349 18.7767 78.9668 18.7767C80.0321 18.8433 80.7645 17.9777 80.7645 16.9124ZM87.2896 16.9124C87.2896 14.7817 88.8876 13.1172 91.0848 13.1172C92.5496 13.1172 93.4818 13.7164 94.1476 14.6486L92.6162 15.7805C92.2167 15.2478 91.7506 14.9149 91.0182 14.9149C90.0195 14.9149 89.2871 15.7805 89.2871 16.8458C89.2871 17.9111 90.0195 18.7767 91.0182 18.7767C91.7506 18.7767 92.2167 18.4438 92.6162 17.9111L94.1476 18.9764C93.4818 19.9086 92.5496 20.5744 90.9516 20.5744C88.9542 20.641 87.2896 19.1096 87.2896 16.9124ZM98.8084 13.3169H100.806V16.2466L103.269 13.3169H105.666L102.936 16.4463L105.733 20.5744H103.336L101.538 17.9111L100.806 18.7101V20.5744H98.8084V13.3169ZM109.195 16.9124C109.195 14.7817 110.793 13.1172 112.99 13.1172C114.455 13.1172 115.387 13.7164 116.053 14.6486L114.522 15.7805C114.122 15.2478 113.656 14.9149 112.924 14.9149C111.925 14.9149 111.193 15.7805 111.193 16.8458C111.193 17.9111 111.925 18.7767 112.924 18.7767C113.656 18.7767 114.122 18.4438 114.522 17.9111L116.053 18.9764C115.387 19.9086 114.455 20.5744 112.857 20.5744C110.86 20.641 109.195 19.1096 109.195 16.9124ZM120.647 13.3169H122.645V15.9802H125.175V13.3169H127.172V20.5078H125.175V17.778H122.645V20.5078H120.647V13.3169ZM134.696 13.2504H136.627L139.69 20.5078H137.559L137.027 19.2428H134.23L133.698 20.5078H131.567L134.696 13.2504ZM136.427 17.6448L135.628 15.5807L134.829 17.6448H136.427ZM144.084 13.3169H146.082V20.5078H144.084V13.3169ZM151.142 13.3169H153.006L156.003 17.1121V13.3169H158V20.5078H156.269L153.206 16.5795V20.5078H151.209V13.3169H151.142ZM54.6642 30.5618C54.6642 28.4977 56.1956 26.8332 58.3263 26.8332C59.6579 26.8332 60.3903 27.2992 61.1227 27.9651L60.5901 28.5643C59.9242 27.9651 59.2584 27.5656 58.3263 27.5656C56.7283 27.5656 55.5298 28.8306 55.5298 30.4952C55.5298 32.1597 56.7283 33.4914 58.3263 33.4914C59.325 33.4914 59.9908 33.0919 60.6567 32.4261L61.1893 32.9587C60.4569 33.6911 59.5913 34.2238 58.3263 34.2238C56.1956 34.2904 54.6642 32.6258 54.6642 30.5618ZM68.9794 26.8997H69.7119L72.9744 34.1572H72.1088L71.2433 32.2263H67.3149L66.4493 34.1572H65.5837L68.9794 26.8997ZM70.9769 31.4939L69.3124 27.8319L67.6478 31.4939H70.9769ZM78.1012 26.9663H80.7645C82.3625 26.9663 83.4278 27.8319 83.4278 29.2301C83.4278 30.7615 82.1628 31.5605 80.5648 31.5605H78.8336V34.0906H78.0347V26.9663H78.1012ZM80.6979 30.8947C81.8964 30.8947 82.6954 30.2289 82.6954 29.2967C82.6954 28.298 81.8964 27.7653 80.7645 27.7653H78.9668V30.9613H80.6979V30.8947ZM88.7544 26.9663H89.5534V34.1572H88.7544V26.9663ZM97.277 27.6987H94.88V26.9663H100.54V27.6987H98.1425V34.1572H97.3435V27.6987H97.277ZM107.531 26.8997H108.263L111.526 34.1572H110.66L109.794 32.2263H105.866L105.001 34.1572H104.135L107.531 26.8997ZM109.528 31.4939L107.864 27.8319L106.199 31.4939H109.528ZM116.652 26.9663H117.451V33.4248H121.513V34.1572H116.652V26.9663Z" fill="black"/>
<path d="M26.8992 29.5622C27.7818 29.5622 28.4972 28.8467 28.4972 27.9642C28.4972 27.0817 27.7818 26.3662 26.8992 26.3662C26.0167 26.3662 25.3013 27.0817 25.3013 27.9642C25.3013 28.8467 26.0167 29.5622 26.8992 29.5622Z" fill="black"/>
<path opacity="0.9" d="M29.5625 32.6259C30.3715 32.6259 31.0273 31.9701 31.0273 31.1611C31.0273 30.3521 30.3715 29.6963 29.5625 29.6963C28.7535 29.6963 28.0977 30.3521 28.0977 31.1611C28.0977 31.9701 28.7535 32.6259 29.5625 32.6259Z" fill="black"/>
<path opacity="0.8" d="M31.8263 35.5549C32.5617 35.5549 33.1579 34.9587 33.1579 34.2232C33.1579 33.4878 32.5617 32.8916 31.8263 32.8916C31.0908 32.8916 30.4946 33.4878 30.4946 34.2232C30.4946 34.9587 31.0908 35.5549 31.8263 35.5549Z" fill="black"/>
<path opacity="0.7" d="M33.5575 38.2849C34.1459 38.2849 34.6228 37.808 34.6228 37.2196C34.6228 36.6313 34.1459 36.1543 33.5575 36.1543C32.9691 36.1543 32.4922 36.6313 32.4922 37.2196C32.4922 37.808 32.9691 38.2849 33.5575 38.2849Z" fill="black"/>
<path opacity="0.6" d="M34.9559 40.9479C35.4339 40.9479 35.8215 40.5604 35.8215 40.0824C35.8215 39.6043 35.4339 39.2168 34.9559 39.2168C34.4779 39.2168 34.0903 39.6043 34.0903 40.0824C34.0903 40.5604 34.4779 40.9479 34.9559 40.9479Z" fill="black"/>
<path opacity="0.5" d="M35.8883 43.7445C36.3296 43.7445 36.6873 43.3867 36.6873 42.9455C36.6873 42.5042 36.3296 42.1465 35.8883 42.1465C35.4471 42.1465 35.0894 42.5042 35.0894 42.9455C35.0894 43.3867 35.4471 43.7445 35.8883 43.7445Z" fill="black"/>
<path opacity="0.4" d="M36.4205 46.2083C36.7515 46.2083 37.0198 45.94 37.0198 45.609C37.0198 45.2781 36.7515 45.0098 36.4205 45.0098C36.0896 45.0098 35.8213 45.2781 35.8213 45.609C35.8213 45.94 36.0896 46.2083 36.4205 46.2083Z" fill="black"/>
<path d="M27.2992 24.1696C28.1817 24.1696 28.8971 23.4541 28.8971 22.5716C28.8971 21.6891 28.1817 20.9736 27.2992 20.9736C26.4166 20.9736 25.7012 21.6891 25.7012 22.5716C25.7012 23.4541 26.4166 24.1696 27.2992 24.1696Z" fill="black"/>
<path opacity="0.9" d="M31.1606 22.5048C31.9696 22.5048 32.6254 21.849 32.6254 21.04C32.6254 20.231 31.9696 19.5752 31.1606 19.5752C30.3516 19.5752 29.6958 20.231 29.6958 21.04C29.6958 21.849 30.3516 22.5048 31.1606 22.5048Z" fill="black"/>
<path opacity="0.8" d="M34.756 21.1067C35.4914 21.1067 36.0876 20.5105 36.0876 19.775C36.0876 19.0396 35.4914 18.4434 34.756 18.4434C34.0205 18.4434 33.4243 19.0396 33.4243 19.775C33.4243 20.5105 34.0205 21.1067 34.756 21.1067Z" fill="black"/>
<path opacity="0.7" d="M38.0849 20.1072C38.6732 20.1072 39.1502 19.6302 39.1502 19.0419C39.1502 18.4535 38.6732 17.9766 38.0849 17.9766C37.4965 17.9766 37.0195 18.4535 37.0195 19.0419C37.0195 19.6302 37.4965 20.1072 38.0849 20.1072Z" fill="black"/>
<path opacity="0.6" d="M41.2811 19.5085C41.7591 19.5085 42.1467 19.121 42.1467 18.6429C42.1467 18.1649 41.7591 17.7773 41.2811 17.7773C40.8031 17.7773 40.4155 18.1649 40.4155 18.6429C40.4155 19.121 40.8031 19.5085 41.2811 19.5085Z" fill="black"/>
<path opacity="0.5" d="M44.277 19.4417C44.7183 19.4417 45.076 19.084 45.076 18.6427C45.076 18.2015 44.7183 17.8438 44.277 17.8438C43.8357 17.8438 43.478 18.2015 43.478 18.6427C43.478 19.084 43.8357 19.4417 44.277 19.4417Z" fill="black"/>
<path opacity="0.4" d="M47.007 19.509C47.3379 19.509 47.6062 19.2407 47.6062 18.9098C47.6062 18.5788 47.3379 18.3105 47.007 18.3105C46.676 18.3105 46.4077 18.5788 46.4077 18.9098C46.4077 19.2407 46.676 19.509 47.007 19.509Z" fill="black"/>
<path d="M22.2381 22.1051C23.1207 22.1051 23.8361 21.3897 23.8361 20.5072C23.8361 19.6246 23.1207 18.9092 22.2381 18.9092C21.3556 18.9092 20.6401 19.6246 20.6401 20.5072C20.6401 21.3897 21.3556 22.1051 22.2381 22.1051Z" fill="black"/>
<path opacity="0.9" d="M21.9721 17.7773C22.7811 17.7773 23.4369 17.1215 23.4369 16.3125C23.4369 15.5035 22.7811 14.8477 21.9721 14.8477C21.1631 14.8477 20.5073 15.5035 20.5073 16.3125C20.5073 17.1215 21.1631 17.7773 21.9721 17.7773Z" fill="black"/>
<path opacity="0.8" d="M21.9054 13.8498C22.6408 13.8498 23.237 13.2536 23.237 12.5182C23.237 11.7827 22.6408 11.1865 21.9054 11.1865C21.1699 11.1865 20.5737 11.7827 20.5737 12.5182C20.5737 13.2536 21.1699 13.8498 21.9054 13.8498Z" fill="black"/>
<path opacity="0.7" d="M22.2387 10.1863C22.827 10.1863 23.304 9.70934 23.304 9.12098C23.304 8.53262 22.827 8.05566 22.2387 8.05566C21.6503 8.05566 21.1733 8.53262 21.1733 9.12098C21.1733 9.70934 21.6503 10.1863 22.2387 10.1863Z" fill="black"/>
<path opacity="0.6" d="M22.8377 6.8581C23.3158 6.8581 23.7033 6.47057 23.7033 5.99252C23.7033 5.51448 23.3158 5.12695 22.8377 5.12695C22.3597 5.12695 21.9722 5.51448 21.9722 5.99252C21.9722 6.47057 22.3597 6.8581 22.8377 6.8581Z" fill="black"/>
<path opacity="0.5" d="M23.7033 3.92903C24.1446 3.92903 24.5023 3.57131 24.5023 3.13004C24.5023 2.68877 24.1446 2.33105 23.7033 2.33105C23.262 2.33105 22.9043 2.68877 22.9043 3.13004C22.9043 3.57131 23.262 3.92903 23.7033 3.92903Z" fill="black"/>
<path opacity="0.4" d="M24.8356 1.19848C25.1665 1.19848 25.4348 0.930193 25.4348 0.599241C25.4348 0.26829 25.1665 0 24.8356 0C24.5046 0 24.2363 0.26829 24.2363 0.599241C24.2363 0.930193 24.5046 1.19848 24.8356 1.19848Z" fill="black"/>
<path d="M18.7098 26.3004C19.5923 26.3004 20.3078 25.585 20.3078 24.7025C20.3078 23.8199 19.5923 23.1045 18.7098 23.1045C17.8273 23.1045 17.1118 23.8199 17.1118 24.7025C17.1118 25.585 17.8273 26.3004 18.7098 26.3004Z" fill="black"/>
<path opacity="0.9" d="M14.6479 25.1015C15.4569 25.1015 16.1127 24.4457 16.1127 23.6367C16.1127 22.8277 15.4569 22.1719 14.6479 22.1719C13.8389 22.1719 13.1831 22.8277 13.1831 23.6367C13.1831 24.4457 13.8389 25.1015 14.6479 25.1015Z" fill="black"/>
<path opacity="0.8" d="M11.0528 23.8361C11.7883 23.8361 12.3845 23.2399 12.3845 22.5045C12.3845 21.7691 11.7883 21.1729 11.0528 21.1729C10.3174 21.1729 9.72119 21.7691 9.72119 22.5045C9.72119 23.2399 10.3174 23.8361 11.0528 23.8361Z" fill="black"/>
<path opacity="0.7" d="M7.92323 22.1717C8.51159 22.1717 8.98855 21.6947 8.98855 21.1063C8.98855 20.518 8.51159 20.041 7.92323 20.041C7.33487 20.041 6.85791 20.518 6.85791 21.1063C6.85791 21.6947 7.33487 22.1717 7.92323 22.1717Z" fill="black"/>
<path opacity="0.6" d="M5.0604 20.4401C5.53844 20.4401 5.92597 20.0526 5.92597 19.5746C5.92597 19.0965 5.53844 18.709 5.0604 18.709C4.58235 18.709 4.19482 19.0965 4.19482 19.5746C4.19482 20.0526 4.58235 20.4401 5.0604 20.4401Z" fill="black"/>
<path opacity="0.5" d="M2.66325 18.6429C3.10452 18.6429 3.46223 18.2852 3.46223 17.8439C3.46223 17.4026 3.10452 17.0449 2.66325 17.0449C2.22198 17.0449 1.86426 17.4026 1.86426 17.8439C1.86426 18.2852 2.22198 18.6429 2.66325 18.6429Z" fill="black"/>
<path opacity="0.4" d="M0.599241 16.6457C0.930193 16.6457 1.19848 16.3775 1.19848 16.0465C1.19848 15.7156 0.930193 15.4473 0.599241 15.4473C0.26829 15.4473 0 15.7156 0 16.0465C0 16.3775 0.26829 16.6457 0.599241 16.6457Z" fill="black"/>
<path d="M21.5726 30.8932C22.4551 30.8932 23.1706 30.1778 23.1706 29.2952C23.1706 28.4127 22.4551 27.6973 21.5726 27.6973C20.69 27.6973 19.9746 28.4127 19.9746 29.2952C19.9746 30.1778 20.69 30.8932 21.5726 30.8932Z" fill="black"/>
<path opacity="0.9" d="M19.3755 34.289C20.1845 34.289 20.8403 33.6332 20.8403 32.8242C20.8403 32.0152 20.1845 31.3594 19.3755 31.3594C18.5665 31.3594 17.9106 32.0152 17.9106 32.8242C17.9106 33.6332 18.5665 34.289 19.3755 34.289Z" fill="black"/>
<path opacity="0.8" d="M17.1783 37.2863C17.9138 37.2863 18.51 36.6901 18.51 35.9547C18.51 35.2192 17.9138 34.623 17.1783 34.623C16.4429 34.623 15.8467 35.2192 15.8467 35.9547C15.8467 36.6901 16.4429 37.2863 17.1783 37.2863Z" fill="black"/>
<path opacity="0.7" d="M14.848 39.5496C15.4364 39.5496 15.9134 39.0726 15.9134 38.4843C15.9134 37.8959 15.4364 37.4189 14.848 37.4189C14.2597 37.4189 13.7827 37.8959 13.7827 38.4843C13.7827 39.0726 14.2597 39.5496 14.848 39.5496Z" fill="black"/>
<path opacity="0.6" d="M12.5838 41.5475C13.0619 41.5475 13.4494 41.16 13.4494 40.682C13.4494 40.2039 13.0619 39.8164 12.5838 39.8164C12.1058 39.8164 11.7183 40.2039 11.7183 40.682C11.7183 41.16 12.1058 41.5475 12.5838 41.5475Z" fill="black"/>
<path opacity="0.5" d="M10.1872 43.2786C10.6284 43.2786 10.9862 42.9209 10.9862 42.4797C10.9862 42.0384 10.6284 41.6807 10.1872 41.6807C9.7459 41.6807 9.38818 42.0384 9.38818 42.4797C9.38818 42.9209 9.7459 43.2786 10.1872 43.2786Z" fill="black"/>
<path opacity="0.4" d="M7.78967 44.4114C8.12062 44.4114 8.38891 44.1431 8.38891 43.8121C8.38891 43.4812 8.12062 43.2129 7.78967 43.2129C7.45872 43.2129 7.19043 43.4812 7.19043 43.8121C7.19043 44.1431 7.45872 44.4114 7.78967 44.4114Z" fill="black"/>
</svg>
