<svg width="85" height="16" viewBox="0 0 85 16" fill="none" xmlns="http://www.w3.org/2000/svg">
<path d="M7.146 2.004C7.866 2.004 8.478 2.106 8.982 2.31C9.486 2.514 9.978 2.802 10.458 3.174C10.59 3.282 10.704 3.336 10.8 3.336C11.04 3.336 11.196 2.976 11.268 2.256H11.682C11.634 3.072 11.61 4.524 11.61 6.612H11.196C11.088 5.724 10.944 5.046 10.764 4.578C10.584 4.11 10.278 3.702 9.846 3.354C9.546 3.066 9.198 2.85 8.802 2.706C8.406 2.55 7.992 2.472 7.56 2.472C6.348 2.472 5.448 3.066 4.86 4.254C4.272 5.43 3.978 6.9 3.978 8.664C3.978 10.416 4.284 11.88 4.896 13.056C5.508 14.232 6.42 14.82 7.632 14.82C8.04 14.82 8.442 14.748 8.838 14.604C9.246 14.448 9.588 14.226 9.864 13.938C10.308 13.602 10.614 13.182 10.782 12.678C10.962 12.174 11.1 11.436 11.196 10.464H11.61C11.61 12.636 11.634 14.148 11.682 15H11.268C11.232 14.616 11.178 14.346 11.106 14.19C11.046 14.022 10.956 13.938 10.836 13.938C10.74 13.938 10.614 13.986 10.458 14.082C9.918 14.466 9.402 14.76 8.91 14.964C8.418 15.156 7.824 15.252 7.128 15.252C5.856 15.252 4.74 14.994 3.78 14.478C2.832 13.962 2.094 13.218 1.566 12.246C1.038 11.262 0.774 10.092 0.774 8.736C0.774 7.416 1.044 6.246 1.584 5.226C2.124 4.206 2.874 3.414 3.834 2.85C4.806 2.286 5.91 2.004 7.146 2.004ZM15.4994 15.126C14.7314 15.126 14.1554 14.928 13.7714 14.532C13.3994 14.136 13.2134 13.614 13.2134 12.966C13.2134 12.426 13.3514 11.982 13.6274 11.634C13.9154 11.274 14.2574 10.998 14.6534 10.806C15.0614 10.614 15.5774 10.41 16.2014 10.194C16.8614 9.966 17.3414 9.762 17.6414 9.582C17.9534 9.39 18.1094 9.132 18.1094 8.808V7.404C18.1094 6.9 17.9894 6.51 17.7494 6.234C17.5214 5.946 17.1614 5.802 16.6694 5.802C16.0934 5.802 15.6554 5.946 15.3554 6.234C15.6914 6.354 15.9494 6.534 16.1294 6.774C16.3214 7.014 16.4174 7.296 16.4174 7.62C16.4174 8.028 16.2794 8.352 16.0034 8.592C15.7274 8.832 15.3914 8.952 14.9954 8.952C14.5754 8.952 14.2514 8.82 14.0234 8.556C13.7954 8.292 13.6814 7.962 13.6814 7.566C13.6814 7.23 13.7594 6.948 13.9154 6.72C14.0834 6.48 14.3354 6.258 14.6714 6.054C14.9954 5.862 15.3914 5.712 15.8594 5.604C16.3394 5.496 16.8614 5.442 17.4254 5.442C18.0134 5.442 18.5234 5.502 18.9554 5.622C19.3874 5.742 19.7474 5.946 20.0354 6.234C20.2994 6.498 20.4734 6.822 20.5574 7.206C20.6534 7.59 20.7014 8.112 20.7014 8.772V13.668C20.7014 13.956 20.7254 14.16 20.7734 14.28C20.8334 14.4 20.9414 14.46 21.0974 14.46C21.2774 14.46 21.4934 14.358 21.7454 14.154L21.9254 14.46C21.3854 14.904 20.7254 15.126 19.9454 15.126C19.2854 15.126 18.8234 14.994 18.5594 14.73C18.2954 14.466 18.1574 14.112 18.1454 13.668C17.5454 14.64 16.6634 15.126 15.4994 15.126ZM16.8854 13.974C17.3534 13.974 17.7614 13.728 18.1094 13.236V9.546C17.9654 9.786 17.6594 10.05 17.1914 10.338C16.7234 10.638 16.3694 10.938 16.1294 11.238C15.8894 11.538 15.7694 11.97 15.7694 12.534C15.7694 13.026 15.8714 13.392 16.0754 13.632C16.2794 13.86 16.5494 13.974 16.8854 13.974ZM26.1118 13.326C26.1118 13.818 26.1958 14.16 26.3638 14.352C26.5318 14.532 26.8318 14.622 27.2638 14.622V15C26.0158 14.952 25.2118 14.928 24.8518 14.928C24.4438 14.928 23.6158 14.952 22.3678 15V14.622C22.7878 14.622 23.0818 14.532 23.2498 14.352C23.4298 14.16 23.5198 13.818 23.5198 13.326V3.066C23.5198 2.514 23.4298 2.112 23.2498 1.86C23.0818 1.608 22.7878 1.482 22.3678 1.482V1.104C22.7518 1.14 23.1238 1.158 23.4838 1.158C24.5278 1.158 25.4038 1.074 26.1118 0.905999V13.326ZM35.3377 5.748C35.9497 5.748 36.4117 5.73 36.7237 5.694V6.054C36.4717 6.126 36.2437 6.282 36.0397 6.522C35.8477 6.75 35.6617 7.11 35.4817 7.602L32.8537 15.036C32.7217 15.024 32.5237 15.018 32.2597 15.018C32.0077 15.018 31.8157 15.024 31.6837 15.036L28.4797 7.08C28.3117 6.672 28.1377 6.402 27.9577 6.27C27.7897 6.138 27.6157 6.072 27.4357 6.072V5.694C28.2757 5.754 29.1277 5.784 29.9917 5.784C30.7477 5.784 31.5277 5.754 32.3317 5.694V6.072C31.9237 6.072 31.6297 6.102 31.4497 6.162C31.2817 6.21 31.1977 6.354 31.1977 6.594C31.1977 6.69 31.2277 6.84 31.2877 7.044L33.3397 12.498L34.6357 8.934C34.8277 8.37 34.9237 7.884 34.9237 7.476C34.9237 6.6 34.4857 6.126 33.6097 6.054V5.694C34.1617 5.73 34.7377 5.748 35.3377 5.748ZM39.5103 1.05C40.0143 1.05 40.4103 1.176 40.6983 1.428C40.9983 1.668 41.1483 2.004 41.1483 2.436C41.1483 2.868 40.9983 3.21 40.6983 3.462C40.4103 3.702 40.0143 3.822 39.5103 3.822C39.0063 3.822 38.6043 3.702 38.3043 3.462C38.0163 3.21 37.8723 2.868 37.8723 2.436C37.8723 2.004 38.0163 1.668 38.3043 1.428C38.6043 1.176 39.0063 1.05 39.5103 1.05ZM40.9143 13.326C40.9143 13.818 40.9983 14.16 41.1663 14.352C41.3463 14.532 41.6463 14.622 42.0663 14.622V15C40.8663 14.952 40.0683 14.928 39.6723 14.928C39.3003 14.928 38.4663 14.952 37.1703 15V14.622C37.6023 14.622 37.9023 14.532 38.0703 14.352C38.2383 14.16 38.3223 13.818 38.3223 13.326V7.656C38.3223 7.104 38.2383 6.702 38.0703 6.45C37.9023 6.198 37.6023 6.072 37.1703 6.072V5.694C37.5543 5.73 37.9263 5.748 38.2863 5.748C39.3543 5.748 40.2303 5.664 40.9143 5.496V13.326ZM49.544 5.442C50.456 5.442 51.116 5.676 51.524 6.144C51.728 6.372 51.872 6.666 51.956 7.026C52.04 7.386 52.082 7.872 52.082 8.484V13.326C52.082 13.818 52.166 14.16 52.334 14.352C52.514 14.532 52.814 14.622 53.234 14.622V15C52.034 14.952 51.242 14.928 50.858 14.928C50.498 14.928 49.718 14.952 48.518 15V14.622C48.878 14.622 49.13 14.532 49.274 14.352C49.418 14.16 49.49 13.818 49.49 13.326V7.728C49.49 7.236 49.406 6.864 49.238 6.612C49.082 6.36 48.794 6.234 48.374 6.234C47.882 6.234 47.462 6.438 47.114 6.846C46.766 7.242 46.592 7.734 46.592 8.322V13.326C46.592 13.818 46.664 14.16 46.808 14.352C46.952 14.532 47.204 14.622 47.564 14.622V15C46.46 14.952 45.716 14.928 45.332 14.928C44.972 14.928 44.144 14.952 42.848 15V14.622C43.28 14.622 43.58 14.532 43.748 14.352C43.916 14.16 44 13.818 44 13.326V7.656C44 7.104 43.916 6.702 43.748 6.45C43.58 6.198 43.28 6.072 42.848 6.072V5.694C43.232 5.73 43.604 5.748 43.964 5.748C45.032 5.748 45.908 5.664 46.592 5.496V7.116C47.132 6 48.116 5.442 49.544 5.442ZM63.9558 2.616C63.5238 2.64 63.2058 2.688 63.0018 2.76C62.8098 2.832 62.6778 2.97 62.6058 3.174C62.5338 3.378 62.4978 3.708 62.4978 4.164V13.308C62.4978 13.692 62.5278 13.974 62.5878 14.154C62.6478 14.322 62.7498 14.436 62.8938 14.496C63.0498 14.556 63.2958 14.586 63.6318 14.586H64.5138C65.3298 14.586 66.0318 14.22 66.6198 13.488C67.2198 12.756 67.6098 11.784 67.7898 10.572H68.2038C68.1678 10.98 68.1498 11.508 68.1498 12.156C68.1498 13.308 68.1918 14.256 68.2758 15C67.4598 14.964 66.0858 14.946 64.1538 14.946C61.5378 14.946 59.5818 14.964 58.2858 15V14.64C58.6818 14.616 58.9698 14.568 59.1498 14.496C59.3418 14.424 59.4678 14.286 59.5278 14.082C59.5998 13.878 59.6358 13.548 59.6358 13.092V4.164C59.6358 3.708 59.5998 3.378 59.5278 3.174C59.4678 2.97 59.3418 2.832 59.1498 2.76C58.9698 2.688 58.6818 2.64 58.2858 2.616V2.256C58.8978 2.292 59.8458 2.31 61.1298 2.31C62.3538 2.31 63.2958 2.292 63.9558 2.256V2.616ZM71.4497 1.05C71.9537 1.05 72.3497 1.176 72.6377 1.428C72.9377 1.668 73.0877 2.004 73.0877 2.436C73.0877 2.868 72.9377 3.21 72.6377 3.462C72.3497 3.702 71.9537 3.822 71.4497 3.822C70.9457 3.822 70.5437 3.702 70.2437 3.462C69.9557 3.21 69.8117 2.868 69.8117 2.436C69.8117 2.004 69.9557 1.668 70.2437 1.428C70.5437 1.176 70.9457 1.05 71.4497 1.05ZM72.8537 13.326C72.8537 13.818 72.9377 14.16 73.1057 14.352C73.2857 14.532 73.5857 14.622 74.0057 14.622V15C72.8057 14.952 72.0077 14.928 71.6117 14.928C71.2397 14.928 70.4057 14.952 69.1097 15V14.622C69.5417 14.622 69.8417 14.532 70.0097 14.352C70.1777 14.16 70.2617 13.818 70.2617 13.326V7.656C70.2617 7.104 70.1777 6.702 70.0097 6.45C69.8417 6.198 69.5417 6.072 69.1097 6.072V5.694C69.4937 5.73 69.8657 5.748 70.2257 5.748C71.2937 5.748 72.1697 5.664 72.8537 5.496V13.326ZM83.7515 13.038C83.7515 13.59 83.8355 13.992 84.0035 14.244C84.1835 14.496 84.4835 14.622 84.9035 14.622V15C84.5315 14.964 84.1595 14.946 83.7875 14.946C82.7435 14.946 81.8675 15.03 81.1595 15.198V13.578C80.6075 14.694 79.6415 15.252 78.2615 15.252C77.3615 15.252 76.7075 15.018 76.2995 14.55C76.1075 14.322 75.9635 14.028 75.8675 13.668C75.7835 13.296 75.7415 12.81 75.7415 12.21V7.656C75.7415 7.104 75.6515 6.702 75.4715 6.45C75.3035 6.198 75.0095 6.072 74.5895 6.072V5.694C74.9615 5.73 75.3335 5.748 75.7055 5.748C76.7495 5.748 77.6255 5.664 78.3335 5.496V12.948C78.3335 13.452 78.4055 13.83 78.5495 14.082C78.7055 14.334 78.9935 14.46 79.4135 14.46C79.8935 14.46 80.3015 14.262 80.6375 13.866C80.9855 13.458 81.1595 12.96 81.1595 12.372V7.656C81.1595 7.104 81.0695 6.702 80.8895 6.45C80.7215 6.198 80.4275 6.072 80.0075 6.072V5.694C80.3915 5.73 80.7635 5.748 81.1235 5.748C82.1675 5.748 83.0435 5.664 83.7515 5.496V13.038Z" fill="black"/>
</svg>
