<svg width="170" height="27" viewBox="0 0 170 27" fill="none" xmlns="http://www.w3.org/2000/svg">
<path d="M8.69978 17.1441C9.0115 17.8526 9.43657 18.5044 9.94666 19.0711C8.84147 19.6662 7.70795 19.9496 6.43274 19.9496C2.69211 19.9496 0 17.4559 0 13.4602C0 9.4362 2.83381 6.94245 6.43274 6.94245C7.70795 6.94245 8.72812 7.22583 9.74829 7.76425C9.26654 8.35935 8.86981 9.03947 8.58643 9.77626C7.96299 9.52121 7.33956 9.40786 6.68778 9.40786C4.47741 9.40786 2.74879 10.8531 2.74879 13.4602C2.74879 15.9256 4.42074 17.5126 6.77279 17.5126C7.48125 17.5126 8.10468 17.3992 8.69978 17.1441ZM16.2094 6.97079C19.8933 6.97079 22.5288 9.60623 22.5288 13.4885C22.5288 17.3425 19.865 19.978 16.2094 19.978C12.5538 19.978 9.91832 17.3425 9.91832 13.4885C9.91832 9.60623 12.5821 6.97079 16.2094 6.97079ZM16.2094 9.35118C14.169 9.35118 12.6671 10.9381 12.6671 13.4885C12.6671 15.9823 14.169 17.5976 16.2094 17.5976C18.3064 17.5976 19.78 16.0106 19.78 13.4885C19.78 10.9381 18.3347 9.35118 16.2094 9.35118ZM24.2857 19.6662V7.22583H27.0345V19.6662H24.2857ZM23.9457 3.42853C23.9457 2.46504 24.7391 1.72825 25.6459 1.72825C26.5528 1.72825 27.3462 2.49338 27.3462 3.42853C27.3462 4.42036 26.5528 5.1855 25.6459 5.1855C24.7391 5.1855 23.9457 4.39203 23.9457 3.42853ZM29.4149 8.0193C31.1152 7.33919 33.2405 6.94245 35.0258 6.94245C38.143 6.94245 40.155 8.16099 40.155 11.6466V19.6379H37.4346V11.9299C37.4346 10.1447 36.3294 9.49288 34.7991 9.49288C33.8356 9.49288 32.8721 9.63457 32.1354 9.86127V19.6946H29.3866V8.0193H29.4149ZM42.4504 0.594727H45.1992V7.59423C45.766 7.28251 46.8995 6.97079 48.0047 6.97079C51.5469 6.97079 54.2107 9.26618 54.2107 13.2618C54.2107 17.2858 51.5753 19.978 47.0412 19.978C45.2842 19.978 43.7256 19.6096 42.4787 19.1562V0.594727H42.4504ZM45.1709 17.3142C45.7093 17.4842 46.3894 17.5692 47.0695 17.5692C49.5916 17.5692 51.3769 16.1523 51.3769 13.2902C51.3769 10.8814 49.6766 9.4362 47.6079 9.4362C46.5311 9.4362 45.7093 9.71958 45.1425 10.0313V17.3142H45.1709ZM62.0603 11.3348C62.0603 9.97462 61.0685 9.37952 59.7083 9.37952C58.2914 9.37952 57.1862 9.8046 56.166 10.3997V7.96262C57.2429 7.33918 58.6314 6.94245 60.1334 6.94245C62.8255 6.94245 64.7241 8.07597 64.7241 11.1932V19.4112C63.5623 19.7229 61.9186 19.9213 60.5301 19.9213C57.3562 19.9213 55.0325 18.9294 55.0325 16.124C55.0325 13.6019 57.1579 12.355 60.7001 12.355H62.0603V11.3348ZM62.0603 14.2253H60.8985C58.9998 14.2253 57.753 14.7921 57.753 16.039C57.753 17.3425 58.9148 17.8243 60.5868 17.8243C61.0118 17.8243 61.5786 17.7676 62.0887 17.6826L62.0603 14.2253ZM66.7361 16.294C67.8696 17.1725 69.2299 17.7109 70.4767 17.7109C71.6953 17.7109 72.4887 17.2858 72.4887 16.294C72.4887 15.2738 71.7803 14.9054 70.1934 14.5087C67.6429 13.9136 66.5661 12.8934 66.5661 10.7114C66.5661 8.18933 68.4364 6.94245 70.9302 6.94245C72.3187 6.94245 73.4239 7.25417 74.4441 7.90594V10.4564C73.3672 9.6629 72.3187 9.18115 71.0152 9.18115C69.825 9.18115 69.2015 9.77625 69.2015 10.5981C69.2015 11.4199 69.74 11.8449 71.1285 12.2133C73.934 12.8368 75.1242 13.8853 75.1242 16.1523C75.1242 18.7594 73.1689 19.9496 70.5051 19.9496C69.0598 19.9496 67.6429 19.5529 66.7078 18.9295V16.294H66.7361ZM78.8931 14.0836V14.1403C79.0632 16.3507 80.9335 17.5692 82.8605 17.5692C84.5608 17.5692 85.7509 17.1725 86.9695 16.3507V18.7878C85.8643 19.5812 84.2207 19.9496 82.6621 19.9496C78.8365 19.9496 76.2577 17.4842 76.2577 13.5452C76.2577 9.57789 78.8081 6.94245 82.1804 6.94245C85.751 6.94245 87.4229 9.26617 87.4229 12.6667V14.0836H78.8931ZM84.8441 12.2983C84.7875 10.3714 83.8523 9.29451 82.067 9.29451C80.4801 9.29451 79.3182 10.428 78.9782 12.2983H84.8441Z" fill="#0667D0"/>
<path d="M8.69978 17.1441C9.0115 17.8526 9.43657 18.5044 9.94666 19.0711C8.84147 19.6662 7.70795 19.9496 6.43274 19.9496C2.69211 19.9496 0 17.4559 0 13.4602C0 9.4362 2.83381 6.94245 6.43274 6.94245C7.70795 6.94245 8.72812 7.22583 9.74829 7.76425C9.26654 8.35935 8.86981 9.03947 8.58643 9.77626C7.96299 9.52121 7.33956 9.40786 6.68778 9.40786C4.47741 9.40786 2.74879 10.8531 2.74879 13.4602C2.74879 15.9256 4.42074 17.5126 6.77279 17.5126C7.48125 17.5126 8.10468 17.3992 8.69978 17.1441ZM16.2094 6.97079C19.8933 6.97079 22.5288 9.60623 22.5288 13.4885C22.5288 17.3425 19.865 19.978 16.2094 19.978C12.5538 19.978 9.91832 17.3425 9.91832 13.4885C9.91832 9.60623 12.5821 6.97079 16.2094 6.97079ZM16.2094 9.35118C14.169 9.35118 12.6671 10.9381 12.6671 13.4885C12.6671 15.9823 14.169 17.5976 16.2094 17.5976C18.3064 17.5976 19.78 16.0106 19.78 13.4885C19.78 10.9381 18.3347 9.35118 16.2094 9.35118ZM24.2857 19.6662V7.22583H27.0345V19.6662H24.2857ZM23.9457 3.42853C23.9457 2.46504 24.7391 1.72825 25.6459 1.72825C26.5528 1.72825 27.3462 2.49338 27.3462 3.42853C27.3462 4.42036 26.5528 5.1855 25.6459 5.1855C24.7391 5.1855 23.9457 4.39203 23.9457 3.42853ZM29.4149 8.0193C31.1152 7.33919 33.2405 6.94245 35.0258 6.94245C38.143 6.94245 40.155 8.16099 40.155 11.6466V19.6379H37.4346V11.9299C37.4346 10.1447 36.3294 9.49288 34.7991 9.49288C33.8356 9.49288 32.8721 9.63457 32.1354 9.86127V19.6946H29.3866V8.0193H29.4149ZM42.4504 0.594727H45.1992V7.59423C45.766 7.28251 46.8995 6.97079 48.0047 6.97079C51.5469 6.97079 54.2107 9.26618 54.2107 13.2618C54.2107 17.2858 51.5753 19.978 47.0412 19.978C45.2842 19.978 43.7256 19.6096 42.4787 19.1562V0.594727H42.4504ZM45.1709 17.3142C45.7093 17.4842 46.3894 17.5692 47.0695 17.5692C49.5916 17.5692 51.3769 16.1523 51.3769 13.2902C51.3769 10.8814 49.6766 9.4362 47.6079 9.4362C46.5311 9.4362 45.7093 9.71958 45.1425 10.0313V17.3142H45.1709ZM62.0603 11.3348C62.0603 9.97462 61.0685 9.37952 59.7083 9.37952C58.2914 9.37952 57.1862 9.8046 56.166 10.3997V7.96262C57.2429 7.33918 58.6314 6.94245 60.1334 6.94245C62.8255 6.94245 64.7241 8.07597 64.7241 11.1932V19.4112C63.5623 19.7229 61.9186 19.9213 60.5301 19.9213C57.3562 19.9213 55.0325 18.9294 55.0325 16.124C55.0325 13.6019 57.1579 12.355 60.7001 12.355H62.0603V11.3348ZM62.0603 14.2253H60.8985C58.9998 14.2253 57.753 14.7921 57.753 16.039C57.753 17.3425 58.9148 17.8243 60.5868 17.8243C61.0118 17.8243 61.5786 17.7676 62.0887 17.6826L62.0603 14.2253ZM66.7361 16.294C67.8696 17.1725 69.2299 17.7109 70.4767 17.7109C71.6953 17.7109 72.4887 17.2858 72.4887 16.294C72.4887 15.2738 71.7803 14.9054 70.1934 14.5087C67.6429 13.9136 66.5661 12.8934 66.5661 10.7114C66.5661 8.18933 68.4364 6.94245 70.9302 6.94245C72.3187 6.94245 73.4239 7.25417 74.4441 7.90594V10.4564C73.3672 9.6629 72.3187 9.18115 71.0152 9.18115C69.825 9.18115 69.2015 9.77625 69.2015 10.5981C69.2015 11.4199 69.74 11.8449 71.1285 12.2133C73.934 12.8368 75.1242 13.8853 75.1242 16.1523C75.1242 18.7594 73.1689 19.9496 70.5051 19.9496C69.0598 19.9496 67.6429 19.5529 66.7078 18.9295V16.294H66.7361ZM78.8931 14.0836V14.1403C79.0632 16.3507 80.9335 17.5692 82.8605 17.5692C84.5608 17.5692 85.7509 17.1725 86.9695 16.3507V18.7878C85.8643 19.5812 84.2207 19.9496 82.6621 19.9496C78.8365 19.9496 76.2577 17.4842 76.2577 13.5452C76.2577 9.57789 78.8081 6.94245 82.1804 6.94245C85.751 6.94245 87.4229 9.26617 87.4229 12.6667V14.0836H78.8931ZM84.8441 12.2983C84.7875 10.3714 83.8523 9.29451 82.067 9.29451C80.4801 9.29451 79.3182 10.428 78.9782 12.2983H84.8441Z" fill="black"/>
<path d="M97.1712 0H97.4262C97.6813 0 97.8796 0.198368 97.8796 0.453411V25.9577C97.8796 26.2127 97.6813 26.4111 97.4262 26.4111H97.1712C96.9161 26.4111 96.7178 26.2127 96.7178 25.9577V0.453411C96.7178 0.198368 96.9445 0 97.1712 0Z" fill="#BFBFBF"/>
<path d="M112.956 19.6954H111.425L106.721 7.1416H108.11L112.247 18.3918L116.384 7.1416H117.716L112.956 19.6954ZM125.169 15.1613H118.368V15.1896C118.368 17.4567 119.955 18.7885 121.712 18.7885C122.987 18.7885 123.866 18.4485 124.773 17.74V19.0152C123.979 19.6387 122.817 19.8937 121.712 19.8937C119.105 19.8937 117.121 18.0801 117.121 15.0763C117.121 12.2991 118.963 10.2588 121.4 10.2588C123.667 10.2588 125.169 11.6473 125.169 14.2828V15.1613ZM118.453 14.0844H123.951C123.866 12.1574 122.846 11.3923 121.344 11.3923C119.955 11.3923 118.822 12.3558 118.453 14.0844ZM126.558 19.6954V10.9672C127.748 10.5138 129.108 10.2588 130.327 10.2588C132.594 10.2588 133.982 11.1656 133.982 13.461V19.667H132.736V13.716C132.736 11.8457 131.432 11.4206 130.213 11.4206C129.278 11.4206 128.428 11.5907 127.776 11.7607V19.667H126.558V19.6954ZM134.748 11.5623V10.4855H136.136V8.24678H137.383V10.4855H139.905V11.5623H137.383V17.1733C137.383 18.3635 137.836 18.8169 138.687 18.8169C139.253 18.8169 139.735 18.6185 140.358 18.3068V19.4403C139.82 19.7237 139.197 19.8937 138.431 19.8937C137.128 19.8937 136.164 19.1853 136.164 17.2866V11.534H134.748V11.5623ZM148.52 10.4855V19.582C147.415 19.7804 146.309 19.8937 145.374 19.8937C142.767 19.8937 141.294 18.9869 141.294 16.6915V10.4855H142.541V16.6348C142.541 18.3635 143.872 18.8169 145.318 18.8169C145.941 18.8169 146.65 18.7885 147.301 18.7035V10.5138H148.52V10.4855ZM151.864 12.0157V19.6954H150.617V11.3356C151.552 10.7122 152.714 10.3438 153.961 10.3438C154.442 10.3438 154.953 10.4005 155.463 10.5422V11.789C154.924 11.5907 154.301 11.5623 153.876 11.5623C152.997 11.534 152.317 11.7324 151.864 12.0157ZM163.482 15.1613H156.681V15.1896C156.681 17.4567 158.268 18.7885 160.025 18.7885C161.3 18.7885 162.179 18.4485 163.086 17.74V19.0152C162.292 19.6387 161.13 19.8937 160.025 19.8937C157.418 19.8937 155.434 18.0801 155.434 15.0763C155.434 12.2991 157.276 10.2588 159.713 10.2588C161.98 10.2588 163.482 11.6473 163.482 14.2828V15.1613ZM156.766 14.0844H162.264C162.179 12.1574 161.159 11.3923 159.657 11.3923C158.24 11.3923 157.106 12.3558 156.766 14.0844ZM164.417 19.1569V17.7117C165.183 18.4201 165.976 18.8169 166.94 18.8169C168.073 18.8169 168.782 18.3635 168.782 17.3433C168.782 16.2381 167.988 15.9547 166.571 15.473C164.984 14.9346 164.304 14.2545 164.304 12.7809C164.304 11.1656 165.494 10.2871 167.138 10.2871C168.016 10.2871 168.895 10.4855 169.603 10.9956V12.3558C168.895 11.7607 168.186 11.364 167.138 11.364C166.146 11.364 165.523 11.9024 165.523 12.7809C165.523 13.631 166.004 14.0561 167.393 14.5095C168.952 14.9912 170 15.6147 170 17.2866C170 19.1003 168.612 19.9221 166.94 19.9221C165.948 19.8937 164.984 19.6103 164.417 19.1569Z" fill="#2E3742"/>
</svg>
