<svg width="118" height="30" viewBox="0 0 118 30" fill="none" xmlns="http://www.w3.org/2000/svg">
<path d="M47.3982 25.0356H52.5817C53.1353 25.0356 53.599 24.9617 53.973 24.814C54.362 24.6662 54.6686 24.4118 54.893 24.0506C55.1324 23.6731 55.297 23.1642 55.3867 22.5239C55.4914 21.8673 55.5438 21.0301 55.5438 20.0123C55.5438 18.9945 55.4914 18.1573 55.3867 17.5007C55.282 16.844 55.11 16.3269 54.8706 15.9494C54.6462 15.5718 54.3395 15.3174 53.9506 15.186C53.5766 15.0383 53.1203 14.9644 52.5817 14.9644H47.3982V25.0356ZM43 11H52.6042C53.8159 11 54.8706 11.1231 55.7682 11.3694C56.6807 11.5992 57.4362 12.0506 58.0346 12.7237C58.6479 13.3803 59.1042 14.2914 59.4034 15.4569C59.7176 16.6224 59.8746 18.1409 59.8746 20.0123C59.8746 21.8837 59.7176 23.4022 59.4034 24.5677C59.1042 25.7332 58.6479 26.6443 58.0346 27.301C57.4362 27.9576 56.6807 28.409 55.7682 28.6553C54.8706 28.8851 53.8159 29 52.6042 29H43V11Z" fill="black"/>
<path d="M78.89 11V29H74.4918V21.9822H66.6604V29H62.2622V11H66.6604V18.0178H74.4918V11H78.89Z" fill="black"/>
<path d="M93.3401 29H88.5829L80.6168 11H85.4413L90.9391 24.1491L96.549 11H101.441L93.3401 29Z" fill="black"/>
<path d="M117.163 28.544H108.979C106.951 28.544 104.735 27.9945 103.203 26.5C101.498 24.7944 101 22.0666 101 19.784C101 17.5014 101.498 14.7056 103.203 13C104.705 11.4979 106.969 11 108.979 11H115.163L117.163 14.864H109.003C108.088 14.864 106.875 15.176 106.203 16C105.243 17.1771 105.203 18.5172 105.203 19.784C105.203 20.9469 105.243 22.42 106.203 23.5C106.875 24.256 108.076 24.68 109.003 24.68H117.163V28.544Z" fill="black"/>
<path fill-rule="evenodd" clip-rule="evenodd" d="M31.3591 29.25H39.775L31.8746 17.6303L26.7726 21.3001L31.3591 29.25ZM24.7637 17.8178L29.6247 14.3213L19.8875 0L16.9644 4.29917L24.7637 17.8178ZM14.4662 7.97343L21.5001 20.1654L8.87018 29.25H0L14.4662 7.97343ZM23.509 23.6476L26.7412 29.25H15.7203L23.509 23.6476Z" fill="black"/>
<path fill-rule="evenodd" clip-rule="evenodd" d="M14.4662 7.97363L21.5001 20.1656L8.87018 29.2502H0L14.4662 7.97363ZM23.509 23.6478L26.7412 29.2502H15.7203L23.509 23.6478Z" fill="black"/>
</svg>
