<svg width="116" height="55" viewBox="0 0 116 55" fill="none" xmlns="http://www.w3.org/2000/svg">
<path d="M6.92773 22H6.03125V9.15039H13.0713V9.97656H6.92773V15.4258H12.7285V16.2607H6.92773V22Z" fill="black"/>
<path d="M15.6025 12.4463V18.6338C15.6025 19.5947 15.8047 20.2949 16.209 20.7344C16.6133 21.168 17.2402 21.3848 18.0898 21.3848C19.2266 21.3848 20.0615 21.0977 20.5947 20.5234C21.1338 19.9492 21.4033 19.0146 21.4033 17.7197V12.4463H22.2646V22H21.5264L21.3682 20.6816H21.3154C20.6943 21.6777 19.5898 22.1758 18.002 22.1758C15.8281 22.1758 14.7412 21.0127 14.7412 18.6865V12.4463H15.6025Z" fill="black"/>
<path d="M32.126 22V15.8037C32.126 14.8428 31.9238 14.1455 31.5195 13.7119C31.1152 13.2725 30.4883 13.0527 29.6387 13.0527C28.4961 13.0527 27.6582 13.3428 27.125 13.9229C26.5977 14.4971 26.334 15.4316 26.334 16.7266V22H25.4639V12.4463H26.2021L26.3691 13.7559H26.4219C27.043 12.7598 28.1475 12.2617 29.7354 12.2617C31.9033 12.2617 32.9873 13.4248 32.9873 15.751V22H32.126Z" fill="black"/>
<path d="M39.5791 12.2617C40.2705 12.2617 40.8682 12.3877 41.3721 12.6396C41.876 12.8916 42.3271 13.3223 42.7256 13.9316H42.7783C42.7432 13.1934 42.7256 12.4697 42.7256 11.7607V8.32422H43.5869V22H43.0156L42.7959 20.541H42.7256C41.999 21.6309 40.9561 22.1758 39.5967 22.1758C38.2783 22.1758 37.2705 21.7656 36.5732 20.9453C35.876 20.125 35.5273 18.9297 35.5273 17.3594C35.5273 15.707 35.873 14.4443 36.5645 13.5713C37.2559 12.6982 38.2607 12.2617 39.5791 12.2617ZM39.5791 13.0527C38.5361 13.0527 37.751 13.4189 37.2236 14.1514C36.7021 14.8838 36.4414 15.9473 36.4414 17.3418C36.4414 20.0488 37.4932 21.4023 39.5967 21.4023C40.6748 21.4023 41.4658 21.0889 41.9697 20.4619C42.4736 19.835 42.7256 18.8008 42.7256 17.3594V17.21C42.7256 15.7334 42.4766 14.6729 41.9785 14.0283C41.4863 13.3779 40.6865 13.0527 39.5791 13.0527Z" fill="black"/>
<path d="M52.6045 22L52.3848 20.4883H52.3145C51.834 21.1035 51.3389 21.54 50.8291 21.7979C50.3252 22.0498 49.7275 22.1758 49.0361 22.1758C48.0986 22.1758 47.3691 21.9355 46.8477 21.4551C46.3262 20.9746 46.0654 20.3096 46.0654 19.46C46.0654 18.5283 46.4521 17.8047 47.2256 17.2891C48.0049 16.7734 49.1299 16.501 50.6006 16.4717L52.4199 16.4189V15.7861C52.4199 14.8779 52.2354 14.1924 51.8662 13.7295C51.4971 13.2666 50.9023 13.0352 50.082 13.0352C49.1973 13.0352 48.2803 13.2812 47.3311 13.7734L47.0059 13.0176C48.0547 12.5254 49.0918 12.2793 50.1172 12.2793C51.166 12.2793 51.9482 12.5518 52.4639 13.0967C52.9854 13.6416 53.2461 14.4912 53.2461 15.6455V22H52.6045ZM49.0889 21.3848C50.1084 21.3848 50.9111 21.0947 51.4971 20.5146C52.0889 19.9287 52.3848 19.1172 52.3848 18.0801V17.1396L50.7148 17.21C49.373 17.2744 48.415 17.4854 47.8408 17.8428C47.2725 18.1943 46.9883 18.7451 46.9883 19.4951C46.9883 20.0928 47.1699 20.5586 47.5332 20.8926C47.9023 21.2207 48.4209 21.3848 49.0889 21.3848Z" fill="black"/>
<path d="M68.2842 22V15.7334C68.2842 14.8018 68.1025 14.1221 67.7393 13.6943C67.376 13.2666 66.8193 13.0527 66.0693 13.0527C65.0908 13.0527 64.3672 13.3223 63.8984 13.8613C63.4297 14.4004 63.1953 15.2471 63.1953 16.4014V22H62.3076V15.4697C62.3076 13.8584 61.5693 13.0527 60.0928 13.0527C59.0908 13.0527 58.3613 13.3457 57.9043 13.9316C57.4473 14.5117 57.2188 15.4434 57.2188 16.7266V22H56.3486V12.4463H57.0693L57.2539 13.7559H57.3066C57.5703 13.2812 57.9453 12.915 58.4316 12.6572C58.918 12.3936 59.4541 12.2617 60.04 12.2617C61.5459 12.2617 62.5127 12.8271 62.9404 13.958H62.9756C63.2861 13.4131 63.7021 12.9941 64.2236 12.7012C64.751 12.4082 65.3486 12.2617 66.0166 12.2617C67.0596 12.2617 67.8418 12.54 68.3633 13.0967C68.8848 13.6533 69.1455 14.5381 69.1455 15.751V22H68.2842Z" fill="black"/>
<path d="M76.0977 22.1758C74.709 22.1758 73.625 21.748 72.8457 20.8926C72.0723 20.0371 71.6855 18.8389 71.6855 17.2979C71.6855 15.7744 72.0605 14.5557 72.8105 13.6416C73.5605 12.7217 74.5713 12.2617 75.8428 12.2617C76.9678 12.2617 77.8555 12.6543 78.5059 13.4395C79.1562 14.2246 79.4814 15.291 79.4814 16.6387V17.3418H72.5996C72.6113 18.6543 72.916 19.6562 73.5137 20.3477C74.1172 21.0391 74.9785 21.3848 76.0977 21.3848C76.6426 21.3848 77.1201 21.3467 77.5303 21.2705C77.9463 21.1943 78.4707 21.0303 79.1035 20.7783V21.5693C78.5645 21.8037 78.0664 21.9619 77.6094 22.0439C77.1523 22.1318 76.6484 22.1758 76.0977 22.1758ZM75.8428 13.0352C74.9229 13.0352 74.1846 13.3398 73.6279 13.9492C73.0713 14.5527 72.7461 15.4258 72.6523 16.5684H78.5586C78.5586 15.4609 78.3184 14.5967 77.8379 13.9756C77.3574 13.3486 76.6924 13.0352 75.8428 13.0352Z" fill="black"/>
<path d="M88.7803 22V15.8037C88.7803 14.8428 88.5781 14.1455 88.1738 13.7119C87.7695 13.2725 87.1426 13.0527 86.293 13.0527C85.1504 13.0527 84.3125 13.3428 83.7793 13.9229C83.252 14.4971 82.9883 15.4316 82.9883 16.7266V22H82.1182V12.4463H82.8564L83.0234 13.7559H83.0762C83.6973 12.7598 84.8018 12.2617 86.3896 12.2617C88.5576 12.2617 89.6416 13.4248 89.6416 15.751V22H88.7803Z" fill="black"/>
<path d="M95.2578 21.4023C95.8086 21.4023 96.2891 21.3555 96.6992 21.2617V21.9648C96.2773 22.1055 95.791 22.1758 95.2402 22.1758C94.3965 22.1758 93.7725 21.9502 93.3682 21.499C92.9697 21.0479 92.7705 20.3389 92.7705 19.3721V13.2021H91.3555V12.6924L92.7705 12.2969L93.21 10.1348H93.6582V12.4463H96.4619V13.2021H93.6582V19.249C93.6582 19.9814 93.7871 20.5234 94.0449 20.875C94.3027 21.2266 94.707 21.4023 95.2578 21.4023Z" fill="black"/>
<path d="M104.565 22L104.346 20.4883H104.275C103.795 21.1035 103.3 21.54 102.79 21.7979C102.286 22.0498 101.688 22.1758 100.997 22.1758C100.06 22.1758 99.3301 21.9355 98.8086 21.4551C98.2871 20.9746 98.0264 20.3096 98.0264 19.46C98.0264 18.5283 98.4131 17.8047 99.1865 17.2891C99.9658 16.7734 101.091 16.501 102.562 16.4717L104.381 16.4189V15.7861C104.381 14.8779 104.196 14.1924 103.827 13.7295C103.458 13.2666 102.863 13.0352 102.043 13.0352C101.158 13.0352 100.241 13.2812 99.292 13.7734L98.9668 13.0176C100.016 12.5254 101.053 12.2793 102.078 12.2793C103.127 12.2793 103.909 12.5518 104.425 13.0967C104.946 13.6416 105.207 14.4912 105.207 15.6455V22H104.565ZM101.05 21.3848C102.069 21.3848 102.872 21.0947 103.458 20.5146C104.05 19.9287 104.346 19.1172 104.346 18.0801V17.1396L102.676 17.21C101.334 17.2744 100.376 17.4854 99.8018 17.8428C99.2334 18.1943 98.9492 18.7451 98.9492 19.4951C98.9492 20.0928 99.1309 20.5586 99.4941 20.8926C99.8633 21.2207 100.382 21.3848 101.05 21.3848Z" fill="black"/>
<path d="M109.18 22H108.31V8.32422H109.18V22Z" fill="black"/>
<path d="M40.3701 47V34.1504H41.2666V46.1562H47.3926V47H40.3701Z" fill="black"/>
<path d="M55.1973 47L54.9775 45.4883H54.9072C54.4268 46.1035 53.9316 46.54 53.4219 46.7979C52.918 47.0498 52.3203 47.1758 51.6289 47.1758C50.6914 47.1758 49.9619 46.9355 49.4404 46.4551C48.9189 45.9746 48.6582 45.3096 48.6582 44.46C48.6582 43.5283 49.0449 42.8047 49.8184 42.2891C50.5977 41.7734 51.7227 41.501 53.1934 41.4717L55.0127 41.4189V40.7861C55.0127 39.8779 54.8281 39.1924 54.459 38.7295C54.0898 38.2666 53.4951 38.0352 52.6748 38.0352C51.79 38.0352 50.873 38.2812 49.9238 38.7734L49.5986 38.0176C50.6475 37.5254 51.6846 37.2793 52.71 37.2793C53.7588 37.2793 54.541 37.5518 55.0566 38.0967C55.5781 38.6416 55.8389 39.4912 55.8389 40.6455V47H55.1973ZM51.6816 46.3848C52.7012 46.3848 53.5039 46.0947 54.0898 45.5146C54.6816 44.9287 54.9775 44.1172 54.9775 43.0801V42.1396L53.3076 42.21C51.9658 42.2744 51.0078 42.4854 50.4336 42.8428C49.8652 43.1943 49.5811 43.7451 49.5811 44.4951C49.5811 45.0928 49.7627 45.5586 50.126 45.8926C50.4951 46.2207 51.0137 46.3848 51.6816 46.3848Z" fill="black"/>
<path d="M62.9756 37.2617C64.3115 37.2617 65.3164 37.6836 65.9902 38.5273C66.6699 39.3652 67.0098 40.5928 67.0098 42.21C67.0098 43.7979 66.6523 45.0225 65.9375 45.8838C65.2285 46.7451 64.2295 47.1758 62.9404 47.1758C62.2607 47.1758 61.6484 47.0352 61.1035 46.7539C60.5586 46.4727 60.1279 46.0742 59.8115 45.5586H59.7324L59.4863 47H58.9414V33.3242H59.8115V36.7607C59.8115 37.2764 59.7998 37.751 59.7764 38.1846L59.75 38.9316H59.8115C60.1748 38.3574 60.6113 37.9355 61.1211 37.666C61.6367 37.3965 62.2549 37.2617 62.9756 37.2617ZM62.958 38.0527C61.833 38.0527 61.0273 38.375 60.541 39.0195C60.0547 39.6641 59.8115 40.7275 59.8115 42.21V42.3594C59.8115 43.8008 60.0635 44.835 60.5674 45.4619C61.0771 46.0889 61.8682 46.4023 62.9404 46.4023C63.9834 46.4023 64.7686 46.0391 65.2959 45.3125C65.8232 44.5801 66.0869 43.54 66.0869 42.1924C66.0869 39.4326 65.0439 38.0527 62.958 38.0527Z" fill="black"/>
<path d="M75.5879 44.5127C75.5879 45.3682 75.2627 46.0273 74.6123 46.4902C73.9619 46.9473 73.0391 47.1758 71.8438 47.1758C70.5664 47.1758 69.5527 46.9795 68.8027 46.5869V45.6465C69.7637 46.127 70.7773 46.3672 71.8438 46.3672C72.7871 46.3672 73.502 46.2119 73.9883 45.9014C74.4805 45.585 74.7266 45.166 74.7266 44.6445C74.7266 44.1641 74.5303 43.7598 74.1377 43.4316C73.751 43.1035 73.1123 42.7812 72.2217 42.4648C71.2666 42.1191 70.5957 41.8232 70.209 41.5771C69.8223 41.3252 69.5293 41.0439 69.3301 40.7334C69.1367 40.417 69.04 40.0332 69.04 39.582C69.04 38.8672 69.3389 38.3018 69.9365 37.8857C70.54 37.4697 71.3809 37.2617 72.459 37.2617C73.4902 37.2617 74.4688 37.4551 75.3945 37.8418L75.0693 38.6328C74.1318 38.2461 73.2617 38.0527 72.459 38.0527C71.6797 38.0527 71.0615 38.1816 70.6045 38.4395C70.1475 38.6973 69.9189 39.0547 69.9189 39.5117C69.9189 40.0098 70.0947 40.4082 70.4463 40.707C70.8037 41.0059 71.498 41.3398 72.5293 41.709C73.3906 42.0195 74.0176 42.3008 74.4102 42.5527C74.8027 42.7988 75.0957 43.0801 75.2891 43.3965C75.4883 43.7129 75.5879 44.085 75.5879 44.5127Z" fill="black"/>
<path fill-rule="evenodd" clip-rule="evenodd" d="M115.4 0.6H0.6V54.4H115.4V0.6ZM0 0V55H116V0H0Z" fill="black"/>
</svg>
