<svg width="137" height="19" viewBox="0 0 137 19" fill="none" xmlns="http://www.w3.org/2000/svg">
<path d="M6.62106 2.004C7.36505 2.004 7.98905 2.106 8.49305 2.31C9.00906 2.514 9.51306 2.802 10.0051 3.174C10.1491 3.282 10.2691 3.336 10.3651 3.336C10.4851 3.336 10.5811 3.252 10.6531 3.084C10.7251 2.904 10.7791 2.628 10.8151 2.256H11.2291C11.1811 3.072 11.1571 4.524 11.1571 6.612H10.7431C10.6471 5.796 10.5031 5.136 10.3111 4.632C10.1311 4.128 9.82506 3.702 9.39305 3.354C9.10506 3.078 8.75106 2.862 8.33105 2.706C7.91106 2.55 7.47906 2.472 7.03506 2.472C6.19506 2.472 5.49305 2.76 4.92906 3.336C4.37705 3.9 3.96905 4.65 3.70505 5.586C3.44105 6.522 3.30905 7.548 3.30905 8.664C3.30905 12.816 4.46105 14.892 6.76506 14.892C7.29305 14.892 7.71906 14.772 8.04306 14.532C8.19905 14.424 8.30705 14.298 8.36706 14.154C8.43906 14.01 8.47505 13.824 8.47505 13.596V11.832C8.47505 11.268 8.42705 10.86 8.33105 10.608C8.23505 10.344 8.06105 10.164 7.80905 10.068C7.56906 9.972 7.18506 9.912 6.65705 9.888V9.528C7.40105 9.564 8.42705 9.582 9.73505 9.582C10.8031 9.582 11.6071 9.564 12.1471 9.528V9.888C11.9071 9.912 11.7331 9.96 11.6251 10.032C11.5171 10.104 11.4391 10.242 11.3911 10.446C11.3551 10.65 11.3371 10.98 11.3371 11.436V15H10.9771C10.9651 14.748 10.9111 14.514 10.8151 14.298C10.7311 14.082 10.6111 13.974 10.4551 13.974C10.2511 13.974 9.92705 14.1 9.48305 14.352C8.43906 14.952 7.45506 15.252 6.53105 15.252C4.45505 15.252 2.86505 14.688 1.76105 13.56C0.657055 12.42 0.105055 10.824 0.105055 8.772C0.105055 7.428 0.381055 6.246 0.933055 5.226C1.49705 4.206 2.27105 3.414 3.25505 2.85C4.23905 2.286 5.36106 2.004 6.62106 2.004ZM18.2914 13.776C19.2754 13.776 20.0674 13.296 20.6674 12.336L20.9914 12.444C20.7514 13.224 20.3194 13.89 19.6954 14.442C19.0834 14.982 18.3154 15.252 17.3914 15.252C16.1194 15.252 15.1054 14.85 14.3494 14.046C13.6054 13.23 13.2334 12.03 13.2334 10.446C13.2334 8.826 13.6354 7.59 14.4394 6.738C15.2434 5.874 16.3114 5.442 17.6434 5.442C19.8994 5.442 21.0274 6.774 21.0274 9.438H15.9694C15.9574 9.618 15.9514 9.9 15.9514 10.284C15.9514 11.076 16.0594 11.736 16.2754 12.264C16.5034 12.792 16.7914 13.176 17.1394 13.416C17.4994 13.656 17.8834 13.776 18.2914 13.776ZM17.5354 5.82C17.1034 5.82 16.7434 6.09 16.4554 6.63C16.1794 7.158 16.0054 7.98 15.9334 9.096H18.7594C18.7834 8.148 18.6874 7.368 18.4714 6.756C18.2674 6.132 17.9554 5.82 17.5354 5.82ZM26.7137 5.442C28.0937 5.442 29.1737 5.838 29.9537 6.63C30.7337 7.41 31.1237 8.652 31.1237 10.356C31.1237 12.06 30.7337 13.302 29.9537 14.082C29.1737 14.862 28.0937 15.252 26.7137 15.252C25.3457 15.252 24.2657 14.862 23.4737 14.082C22.6937 13.302 22.3037 12.06 22.3037 10.356C22.3037 8.652 22.6937 7.41 23.4737 6.63C24.2657 5.838 25.3457 5.442 26.7137 5.442ZM26.7137 5.802C26.1977 5.802 25.7837 6.18 25.4717 6.936C25.1717 7.68 25.0217 8.82 25.0217 10.356C25.0217 11.892 25.1717 13.032 25.4717 13.776C25.7837 14.52 26.1977 14.892 26.7137 14.892C27.2417 14.892 27.6557 14.526 27.9557 13.794C28.2557 13.05 28.4057 11.904 28.4057 10.356C28.4057 8.808 28.2497 7.662 27.9377 6.918C27.6377 6.174 27.2297 5.802 26.7137 5.802ZM38.4394 5.442C38.9794 5.442 39.3874 5.604 39.6634 5.928C39.9394 6.252 40.0774 6.642 40.0774 7.098C40.0774 7.542 39.9454 7.908 39.6814 8.196C39.4294 8.472 39.0934 8.61 38.6734 8.61C38.2654 8.61 37.9414 8.508 37.7014 8.304C37.4614 8.088 37.3414 7.806 37.3414 7.458C37.3414 6.882 37.6054 6.414 38.1334 6.054C38.0854 6.042 38.0134 6.036 37.9174 6.036C37.7974 6.036 37.7014 6.048 37.6294 6.072C37.1734 6.144 36.7834 6.42 36.4594 6.9C36.1474 7.38 35.9914 7.872 35.9914 8.376V13.146C35.9914 13.698 36.1234 14.082 36.3874 14.298C36.6634 14.514 37.0954 14.622 37.6834 14.622V15C37.5154 15 37.3774 14.994 37.2694 14.982C36.0454 14.946 35.2294 14.928 34.8214 14.928C34.4974 14.928 33.7594 14.946 32.6074 14.982C32.5114 14.994 32.3914 15 32.2474 15V14.622C32.6794 14.622 32.9794 14.532 33.1474 14.352C33.3154 14.16 33.3994 13.818 33.3994 13.326V7.656C33.3994 7.104 33.3154 6.702 33.1474 6.45C32.9794 6.198 32.6794 6.072 32.2474 6.072V5.694C32.6314 5.73 33.0034 5.748 33.3634 5.748C34.4314 5.748 35.3074 5.664 35.9914 5.496V7.17C36.2194 6.654 36.5494 6.24 36.9814 5.928C37.4134 5.604 37.8994 5.442 38.4394 5.442ZM49.1818 7.422C48.9418 7.422 48.7378 7.344 48.5698 7.188C48.4018 7.02 48.3178 6.786 48.3178 6.486C48.3178 6.198 48.3898 5.904 48.5338 5.604C48.2458 5.724 48.0058 5.862 47.8138 6.018C47.6338 6.162 47.4778 6.348 47.3458 6.576C47.7178 7.02 47.9038 7.596 47.9038 8.304C47.9038 9.252 47.5738 9.966 46.9138 10.446C46.2658 10.926 45.4018 11.166 44.3218 11.166H43.9978C43.5058 11.454 43.2598 11.772 43.2598 12.12C43.2598 12.504 43.4998 12.696 43.9798 12.696H45.9418C46.9978 12.696 47.8378 12.894 48.4618 13.29C49.0978 13.674 49.4158 14.268 49.4158 15.072C49.4158 15.684 49.2178 16.236 48.8218 16.728C48.4378 17.232 47.8498 17.634 47.0578 17.934C46.2658 18.234 45.2938 18.384 44.1418 18.384C42.9778 18.384 42.0418 18.234 41.3338 17.934C40.6378 17.646 40.2898 17.226 40.2898 16.674C40.2898 16.302 40.4578 15.966 40.7938 15.666C41.1298 15.378 41.6278 15.15 42.2878 14.982L42.4498 15.27C42.0178 15.63 41.8018 16.044 41.8018 16.512C41.8018 17.016 42.0298 17.4 42.4858 17.664C42.9418 17.94 43.5718 18.078 44.3758 18.078C45.2158 18.078 45.8938 17.91 46.4098 17.574C46.9378 17.238 47.2018 16.764 47.2018 16.152C47.2018 15.756 47.0518 15.444 46.7518 15.216C46.4638 14.988 45.9538 14.874 45.2218 14.874H44.1058C43.3378 14.874 42.7378 14.748 42.3058 14.496C41.8738 14.232 41.6578 13.836 41.6578 13.308C41.6578 12.864 41.8138 12.468 42.1258 12.12C42.4378 11.772 42.9118 11.436 43.5478 11.112C42.6838 11.004 41.9998 10.716 41.4958 10.248C40.9918 9.78 40.7398 9.132 40.7398 8.304C40.7398 7.356 41.0638 6.642 41.7118 6.162C42.3718 5.682 43.2418 5.442 44.3218 5.442C45.5218 5.442 46.4398 5.724 47.0758 6.288C47.3038 5.964 47.5858 5.706 47.9218 5.514C48.2578 5.322 48.5998 5.226 48.9478 5.226C49.3078 5.226 49.5898 5.334 49.7938 5.55C50.0098 5.754 50.1178 6.024 50.1178 6.36C50.1178 6.696 50.0218 6.96 49.8298 7.152C49.6498 7.332 49.4338 7.422 49.1818 7.422ZM44.3218 10.842C44.6578 10.842 44.9098 10.65 45.0778 10.266C45.2578 9.882 45.3478 9.228 45.3478 8.304C45.3478 7.38 45.2578 6.726 45.0778 6.342C44.9098 5.958 44.6578 5.766 44.3218 5.766C43.9858 5.766 43.7278 5.958 43.5478 6.342C43.3798 6.726 43.2958 7.38 43.2958 8.304C43.2958 9.228 43.3798 9.882 43.5478 10.266C43.7278 10.65 43.9858 10.842 44.3218 10.842ZM55.6097 13.776C56.5937 13.776 57.3857 13.296 57.9857 12.336L58.3097 12.444C58.0697 13.224 57.6377 13.89 57.0137 14.442C56.4017 14.982 55.6337 15.252 54.7097 15.252C53.4377 15.252 52.4237 14.85 51.6677 14.046C50.9237 13.23 50.5517 12.03 50.5517 10.446C50.5517 8.826 50.9537 7.59 51.7577 6.738C52.5617 5.874 53.6297 5.442 54.9617 5.442C57.2177 5.442 58.3457 6.774 58.3457 9.438H53.2877C53.2757 9.618 53.2697 9.9 53.2697 10.284C53.2697 11.076 53.3777 11.736 53.5937 12.264C53.8217 12.792 54.1097 13.176 54.4577 13.416C54.8177 13.656 55.2017 13.776 55.6097 13.776ZM54.8537 5.82C54.4217 5.82 54.0617 6.09 53.7737 6.63C53.4977 7.158 53.3237 7.98 53.2517 9.096H56.0777C56.1017 8.148 56.0057 7.368 55.7897 6.756C55.5857 6.132 55.2737 5.82 54.8537 5.82ZM69.4392 2.616C69.0072 2.64 68.6892 2.688 68.4852 2.76C68.2932 2.832 68.1612 2.97 68.0892 3.174C68.0172 3.378 67.9812 3.708 67.9812 4.164V13.308C67.9812 13.692 68.0112 13.974 68.0712 14.154C68.1312 14.322 68.2332 14.436 68.3772 14.496C68.5332 14.556 68.7792 14.586 69.1152 14.586H69.9972C70.8132 14.586 71.5152 14.22 72.1032 13.488C72.7032 12.756 73.0932 11.784 73.2732 10.572H73.6872C73.6512 10.98 73.6332 11.508 73.6332 12.156C73.6332 13.308 73.6752 14.256 73.7592 15C72.9432 14.964 71.5692 14.946 69.6372 14.946C67.0212 14.946 65.0652 14.964 63.7692 15V14.64C64.1652 14.616 64.4532 14.568 64.6332 14.496C64.8252 14.424 64.9512 14.286 65.0112 14.082C65.0832 13.878 65.1192 13.548 65.1192 13.092V4.164C65.1192 3.708 65.0832 3.378 65.0112 3.174C64.9512 2.97 64.8252 2.832 64.6332 2.76C64.4532 2.688 64.1652 2.64 63.7692 2.616V2.256C64.3812 2.292 65.3292 2.31 66.6132 2.31C67.8372 2.31 68.7792 2.292 69.4392 2.256V2.616ZM76.9691 15.126C76.2011 15.126 75.6251 14.928 75.2411 14.532C74.8691 14.136 74.6831 13.614 74.6831 12.966C74.6831 12.426 74.8211 11.982 75.0971 11.634C75.3851 11.274 75.7271 10.998 76.1231 10.806C76.5311 10.614 77.0471 10.41 77.6711 10.194C78.3311 9.966 78.8111 9.762 79.1111 9.582C79.4231 9.39 79.5791 9.132 79.5791 8.808V7.404C79.5791 6.9 79.4591 6.51 79.2191 6.234C78.9911 5.946 78.6311 5.802 78.1391 5.802C77.5631 5.802 77.1251 5.946 76.8251 6.234C77.1611 6.354 77.4191 6.534 77.5991 6.774C77.7911 7.014 77.8871 7.296 77.8871 7.62C77.8871 8.028 77.7491 8.352 77.4731 8.592C77.1971 8.832 76.8611 8.952 76.4651 8.952C76.0451 8.952 75.7211 8.82 75.4931 8.556C75.2651 8.292 75.1511 7.962 75.1511 7.566C75.1511 7.23 75.2291 6.948 75.3851 6.72C75.5531 6.48 75.8051 6.258 76.1411 6.054C76.4651 5.862 76.8611 5.712 77.3291 5.604C77.8091 5.496 78.3311 5.442 78.8951 5.442C79.4831 5.442 79.9931 5.502 80.4251 5.622C80.8571 5.742 81.2171 5.946 81.5051 6.234C81.7691 6.498 81.9431 6.822 82.0271 7.206C82.1231 7.59 82.1711 8.112 82.1711 8.772V13.668C82.1711 13.956 82.1951 14.16 82.2431 14.28C82.3031 14.4 82.4111 14.46 82.5671 14.46C82.7471 14.46 82.9631 14.358 83.2151 14.154L83.3951 14.46C82.8551 14.904 82.1951 15.126 81.4151 15.126C80.7551 15.126 80.2931 14.994 80.0291 14.73C79.7651 14.466 79.6271 14.112 79.6151 13.668C79.0151 14.64 78.1331 15.126 76.9691 15.126ZM78.3551 13.974C78.8231 13.974 79.2311 13.728 79.5791 13.236V9.546C79.4351 9.786 79.1291 10.05 78.6611 10.338C78.1931 10.638 77.8391 10.938 77.5991 11.238C77.3591 11.538 77.2391 11.97 77.2391 12.534C77.2391 13.026 77.3411 13.392 77.5451 13.632C77.7491 13.86 78.0191 13.974 78.3551 13.974ZM98.3815 13.326C98.3815 13.818 98.4655 14.16 98.6335 14.352C98.8135 14.532 99.1135 14.622 99.5335 14.622V15C98.3335 14.952 97.5415 14.928 97.1575 14.928C96.8215 14.928 96.0775 14.952 94.9255 15V14.622C95.2495 14.622 95.4715 14.532 95.5915 14.352C95.7235 14.172 95.7895 13.83 95.7895 13.326V7.728C95.7895 7.224 95.7115 6.852 95.5555 6.612C95.4115 6.36 95.1295 6.234 94.7095 6.234C94.2655 6.234 93.8755 6.42 93.5395 6.792C93.2155 7.164 93.0235 7.62 92.9635 8.16V8.484V13.326C92.9635 13.818 93.0355 14.16 93.1795 14.352C93.3355 14.532 93.6115 14.622 94.0075 14.622V15C92.8555 14.952 92.0995 14.928 91.7395 14.928C91.4035 14.928 90.6595 14.952 89.5075 15V14.622C89.8315 14.622 90.0535 14.532 90.1735 14.352C90.3055 14.16 90.3715 13.818 90.3715 13.326V7.728C90.3715 7.224 90.3055 6.852 90.1735 6.612C90.0415 6.36 89.7835 6.234 89.3995 6.234C88.9195 6.234 88.5055 6.438 88.1575 6.846C87.8215 7.242 87.6535 7.734 87.6535 8.322V13.326C87.6535 13.818 87.7135 14.16 87.8335 14.352C87.9655 14.532 88.1935 14.622 88.5175 14.622V15C87.4615 14.952 86.7535 14.928 86.3935 14.928C86.0335 14.928 85.2055 14.952 83.9095 15V14.622C84.3415 14.622 84.6415 14.532 84.8095 14.352C84.9775 14.16 85.0615 13.818 85.0615 13.326V7.656C85.0615 7.104 84.9775 6.702 84.8095 6.45C84.6415 6.198 84.3415 6.072 83.9095 6.072V5.694C84.2935 5.73 84.6655 5.748 85.0255 5.748C86.0935 5.748 86.9695 5.664 87.6535 5.496V7.116C88.1815 6 89.1115 5.442 90.4435 5.442C91.3555 5.442 92.0155 5.676 92.4235 6.144C92.6515 6.384 92.8015 6.744 92.8735 7.224C93.1855 6.576 93.5935 6.12 94.0975 5.856C94.6015 5.58 95.1895 5.442 95.8615 5.442C96.7735 5.442 97.4335 5.676 97.8415 6.144C98.0335 6.36 98.1715 6.654 98.2555 7.026C98.3395 7.398 98.3815 7.884 98.3815 8.484V13.326ZM106.378 5.442C107.35 5.442 108.136 5.844 108.736 6.648C109.336 7.44 109.636 8.592 109.636 10.104C109.636 11.868 109.252 13.17 108.484 14.01C107.716 14.838 106.726 15.252 105.514 15.252C104.686 15.252 104.014 15.042 103.498 14.622C103.066 14.586 102.634 14.634 102.202 14.766C101.77 14.898 101.428 15.072 101.176 15.288L100.906 15.126C100.99 14.826 101.032 14.49 101.032 14.118V3.084C101.032 2.532 100.942 2.13 100.762 1.878C100.594 1.626 100.3 1.5 99.8805 1.5V1.122C100.252 1.158 100.624 1.176 100.996 1.176C102.04 1.176 102.916 1.092 103.624 0.923999V7.152C103.876 6.6 104.242 6.18 104.722 5.892C105.202 5.592 105.754 5.442 106.378 5.442ZM104.956 14.874C105.616 14.874 106.108 14.502 106.432 13.758C106.756 13.014 106.918 11.88 106.918 10.356C106.918 8.88 106.78 7.824 106.504 7.188C106.228 6.54 105.832 6.216 105.316 6.216C104.932 6.216 104.578 6.36 104.254 6.648C103.942 6.924 103.732 7.302 103.624 7.782V14.388C104.02 14.712 104.464 14.874 104.956 14.874ZM116.043 13.776C117.027 13.776 117.819 13.296 118.419 12.336L118.743 12.444C118.503 13.224 118.071 13.89 117.447 14.442C116.835 14.982 116.067 15.252 115.143 15.252C113.871 15.252 112.857 14.85 112.101 14.046C111.357 13.23 110.985 12.03 110.985 10.446C110.985 8.826 111.387 7.59 112.191 6.738C112.995 5.874 114.063 5.442 115.395 5.442C117.651 5.442 118.779 6.774 118.779 9.438H113.721C113.709 9.618 113.703 9.9 113.703 10.284C113.703 11.076 113.811 11.736 114.027 12.264C114.255 12.792 114.543 13.176 114.891 13.416C115.251 13.656 115.635 13.776 116.043 13.776ZM115.287 5.82C114.855 5.82 114.495 6.09 114.207 6.63C113.931 7.158 113.757 7.98 113.685 9.096H116.511C116.535 8.148 116.439 7.368 116.223 6.756C116.019 6.132 115.707 5.82 115.287 5.82ZM123.476 5.694H125.6V6.054H123.476V13.326C123.476 13.686 123.536 13.944 123.656 14.1C123.788 14.244 123.992 14.316 124.268 14.316C124.784 14.316 125.192 13.956 125.492 13.236L125.798 13.398C125.342 14.634 124.52 15.252 123.332 15.252C122.54 15.252 121.94 15.048 121.532 14.64C121.28 14.388 121.106 14.076 121.01 13.704C120.926 13.32 120.884 12.798 120.884 12.138V6.054H119.372V5.694H120.884V3.318C121.88 3.318 122.744 3.126 123.476 2.742V5.694ZM129.804 7.116C130.344 6 131.322 5.442 132.738 5.442C133.674 5.442 134.334 5.676 134.718 6.144C134.922 6.372 135.066 6.672 135.15 7.044C135.246 7.404 135.294 7.884 135.294 8.484V13.326C135.294 13.818 135.378 14.16 135.546 14.352C135.714 14.532 136.014 14.622 136.446 14.622V15C135.198 14.952 134.406 14.928 134.07 14.928C133.662 14.928 132.882 14.952 131.73 15V14.622C132.09 14.622 132.342 14.532 132.486 14.352C132.63 14.16 132.702 13.818 132.702 13.326V7.728C132.702 7.236 132.618 6.864 132.45 6.612C132.294 6.36 132.006 6.234 131.586 6.234C131.082 6.234 130.656 6.432 130.308 6.828C129.972 7.212 129.804 7.704 129.804 8.304V13.326C129.804 13.818 129.876 14.16 130.02 14.352C130.164 14.532 130.416 14.622 130.776 14.622V15C129.624 14.952 128.88 14.928 128.544 14.928C128.136 14.928 127.308 14.952 126.06 15V14.622C126.48 14.622 126.774 14.532 126.942 14.352C127.122 14.16 127.212 13.818 127.212 13.326V3.084C127.212 2.532 127.122 2.13 126.942 1.878C126.774 1.626 126.48 1.5 126.06 1.5V1.122C126.444 1.158 126.816 1.176 127.176 1.176C128.22 1.176 129.096 1.092 129.804 0.923999V7.116Z" fill="black"/>
</svg>
