<svg width="103" height="27" viewBox="0 0 103 27" fill="none" xmlns="http://www.w3.org/2000/svg">
<path d="M20.7793 25.5653L25.3383 7.12598H29.3763L27.5138 14.5996H31.6089L33.4714 7.12598H37.4934L32.9321 25.5653H28.8964L30.9508 17.2278H26.8694L24.8013 25.5653H20.7793Z" fill="black"/>
<path d="M59.3948 6.58887C61.1818 6.58887 62.5004 6.97714 63.3482 7.75367C64.196 8.52102 64.4611 9.57325 64.1412 10.9081L63.7573 12.4267H59.7193L60.1032 10.9081C60.302 10.1407 60.302 9.58703 60.1055 9.24701C59.909 8.90699 59.4908 8.73698 58.8555 8.73698C58.2476 8.73698 57.7609 8.91158 57.3975 9.26079C57.0433 9.60082 56.7668 10.1499 56.5657 10.9104L56.4149 11.5513C56.1338 12.6151 56.4469 13.4261 57.3541 13.9866L60.2677 15.7281C61.9428 16.7413 62.537 18.2139 62.0571 20.1507L61.7531 21.4074C61.3829 22.926 60.5762 24.0908 59.3354 24.9018C58.0922 25.7036 56.5017 26.1056 54.5616 26.1056C52.6511 26.1056 51.2823 25.6691 50.455 24.7961C49.6369 23.9231 49.429 22.6802 49.8312 21.0674L50.1922 19.6154H54.2142L53.8669 21.0628C53.6109 22.0828 53.5812 22.8203 53.7777 23.2752C53.9743 23.7278 54.413 23.9552 55.0986 23.9552C55.8413 23.9552 56.4057 23.7668 56.7965 23.3924C57.185 23.0087 57.4935 22.3447 57.7174 21.4028L57.9094 20.5527C58.1516 19.6108 57.8454 18.8779 56.9885 18.3541L54.5958 16.9274C53.6201 16.3346 52.9276 15.6132 52.5209 14.7678C52.1141 13.9223 52.0227 13.0217 52.2466 12.0729L52.5437 10.9081C52.8568 9.64217 53.6498 8.60832 54.9203 7.80651C56.1909 6.99551 57.6832 6.58887 59.3948 6.58887Z" fill="black"/>
<path d="M61.8999 25.5653L66.4589 7.12598H70.4969L68.6344 14.5996H72.7295L74.592 7.12598H78.614L74.0527 25.5653H70.0147L72.0691 17.2278H67.99L65.9219 25.5653H61.8999Z" fill="black"/>
<path d="M76.1338 25.5653L80.6928 7.12598H90.5489L89.8908 9.75655H84.0841L82.866 14.5996H88.3871L87.745 17.2301H82.2239L80.8139 22.937H86.6206L85.9762 25.5676H76.1338V25.5653Z" fill="black"/>
<path d="M96.4976 9.75655H95.3275L92.0551 22.9347H93.2252C94.3472 22.9347 95.1767 22.6957 95.7092 22.2156C96.2439 21.7262 96.6621 20.8578 96.9683 19.6103L98.5863 13.0672C98.8902 11.8105 98.8971 10.9466 98.6045 10.4756C98.3143 9.99548 97.6105 9.75655 96.4976 9.75655ZM97.142 7.12598C99.5004 7.12598 101.125 7.61533 102.016 8.59175C102.917 9.56127 103.116 11.0523 102.611 13.0672L101.006 19.6103C100.501 21.6251 99.5598 23.1231 98.1772 24.0995C96.7947 25.0759 94.9254 25.5653 92.567 25.5653H87.375L91.934 7.12598H97.142Z" fill="black"/>
<path d="M38.0109 25.5659H34.0415L42.9523 7.12207H48.0204L49.034 25.5659H45.2329L44.5994 12.2907L38.0109 25.5659Z" fill="black"/>
<path fill-rule="evenodd" clip-rule="evenodd" d="M11.91 0H8.10896L6.56329 7.09534H2.53405L1.77383 10.3896H5.84564L4.96268 14.4441H0.760215L0 17.7383H4.24503L2.53405 25.5939H6.33512L8.0461 17.7383H12.354L10.643 25.5939H14.4441L16.1551 17.7383H20.019L20.7792 14.4441H16.8727L17.7557 10.3896H21.7928L22.553 7.09534H18.4733L20.019 0H16.2179L14.6722 7.09534H10.3644L11.91 0ZM13.0716 14.4441L13.9546 10.3896H9.64671L8.76375 14.4441H13.0716Z" fill="black"/>
</svg>
