<svg width="248" height="32" viewBox="0 0 248 32" fill="none" xmlns="http://www.w3.org/2000/svg">
<path fill-rule="evenodd" clip-rule="evenodd" d="M39.4027 8.16528V17.2609H30.4322V9.33566C30.4322 8.68933 29.9082 8.16528 29.2618 8.16528H26.2341V29.8398C26.2341 30.4857 26.7579 31.0098 27.4042 31.0098H30.4322V20.9291H39.4027V29.8398C39.4027 30.4857 39.9264 31.0098 40.5728 31.0098H43.6006V9.33566C43.6006 8.68933 43.0766 8.16528 42.4302 8.16528H39.4027Z" fill="black"/>
<path fill-rule="evenodd" clip-rule="evenodd" d="M57.0113 13.5504V24.3757C57.0113 25.3591 56.5098 26.2915 55.6582 26.7835C53.281 28.157 50.8211 26.4414 50.8211 24.1792V14.7201C50.8211 14.0742 50.297 13.55 49.6511 13.55H46.6111V24.565C46.6111 28.1091 49.5107 31.0088 53.0547 31.0088H54.7777C58.3218 31.0088 61.2217 28.1091 61.2217 24.565V14.7201C61.2217 14.0742 60.6977 13.55 60.0513 13.55L57.0113 13.5504Z" fill="black"/>
<path fill-rule="evenodd" clip-rule="evenodd" d="M103.41 31.0091H106.438V15.6792C106.438 15.0328 105.914 14.5088 105.268 14.5088H102.24V29.8391C102.24 30.485 102.764 31.0091 103.41 31.0091Z" fill="#008AC4"/>
<path fill-rule="evenodd" clip-rule="evenodd" d="M104.339 12.8475C105.633 12.8475 106.682 11.7984 106.682 10.5045C106.682 9.21089 105.633 8.16187 104.339 8.16187C103.045 8.16187 101.996 9.21089 101.996 10.5045C101.996 11.7984 103.045 12.8475 104.339 12.8475Z" fill="#008AC4"/>
<path fill-rule="evenodd" clip-rule="evenodd" d="M75.995 23.7609C75.995 25.8435 74.2906 27.2299 72.2081 27.2299C70.1256 27.2299 68.4214 25.8435 68.4214 23.7609V20.7887C68.4214 18.7062 70.1256 17.3194 72.2081 17.3194C74.2906 17.3194 75.995 18.7062 75.995 20.7887V23.7609ZM72.2081 13.5403C67.8048 13.5403 64.2021 16.6902 64.2021 21.0932V23.4748C64.2021 27.8781 67.8048 31.0094 72.2081 31.0094C76.6114 31.0094 80.2145 27.8781 80.2145 23.4748V21.0932C80.2145 16.6902 76.6114 13.5403 72.2081 13.5403Z" fill="black"/>
<path fill-rule="evenodd" clip-rule="evenodd" d="M95.0142 23.7604C95.0142 25.8429 93.3103 27.2294 91.2275 27.2294C89.1453 27.2294 87.4411 25.8429 87.4411 23.7604V20.7882C87.4411 18.7056 89.1453 17.3192 91.2275 17.3192C93.3103 17.3192 95.0142 18.7056 95.0142 20.7882V23.7604ZM91.2278 13.5397H91.2275C89.8515 13.5397 88.5538 13.8474 87.4195 14.4046V9.31509C87.4195 8.66875 86.8955 8.14502 86.2494 8.14502H83.2214V23.4743C83.2214 27.8779 86.8242 31.0088 91.2275 31.0088H91.2278C95.6312 31.0088 99.2339 27.8779 99.2339 23.4743V21.0926C99.2339 16.6896 95.6312 13.5397 91.2278 13.5397Z" fill="#008AC4"/>
<path fill-rule="evenodd" clip-rule="evenodd" d="M146.421 20.4663H139.31C139.483 19.4062 139.848 18.5606 140.4 17.9478C141.008 17.2695 141.874 16.9403 143.049 16.9403C143.633 16.9403 144.141 17.0451 144.553 17.2514C144.971 17.4602 145.318 17.7391 145.585 18.0813C145.859 18.4326 146.071 18.8518 146.214 19.327C146.323 19.6897 146.392 20.0719 146.421 20.4663ZM149.891 18.3793C149.59 17.4323 149.118 16.6086 148.515 15.9223C147.909 15.231 147.149 14.6803 146.254 14.2869C145.36 13.8943 144.314 13.6953 143.144 13.6953C141.781 13.6953 140.577 13.9317 139.567 14.3986C138.558 14.8661 137.706 15.5057 137.039 16.2993C136.373 17.0911 135.873 18.0337 135.553 19.1011C135.238 20.1523 135.079 21.2983 135.079 22.5067C135.079 23.7363 135.245 24.8842 135.57 25.9181C135.904 26.9709 136.44 27.8957 137.162 28.6669C137.887 29.4409 138.817 30.047 139.926 30.4699C141.022 30.8888 142.757 31.1387 144.264 30.9398C147 30.5786 148.198 29.5401 149.01 28.4445C150.446 26.5061 150.035 26.1718 150.035 26.1718H146.89C146.533 26.1718 145.795 27.6425 143.471 27.6425C141.878 27.6425 141.258 27.3942 140.467 26.6661C139.747 26.0051 139.335 24.9609 139.239 23.5567H149.967C150.264 23.5567 150.337 23.3631 150.35 23.072C150.401 21.8607 150.467 20.1897 149.891 18.3793Z" fill="black"/>
<path fill-rule="evenodd" clip-rule="evenodd" d="M169.447 12.2301V9.58488C169.447 8.808 168.835 8.17529 168.083 8.17529H153.406L153.405 8.34986C153.405 8.34986 153.398 24.8508 153.384 29.5969C153.383 29.9733 153.523 30.3273 153.781 30.594C154.038 30.8614 154.381 31.0088 154.746 31.0088L157.467 31.0008V21.1417H165.912C166.002 21.1417 166.547 21.1524 167.207 21.1733L167.381 21.1794V18.6269C167.381 18.2458 167.235 17.889 166.973 17.6222C166.709 17.3542 166.373 17.1952 165.985 17.218L157.467 17.2186V12.2301H169.447Z" fill="black"/>
<path fill-rule="evenodd" clip-rule="evenodd" d="M127.897 20.0462C127.897 23.7557 124.89 26.7628 121.181 26.7628H119.057V12.6081H121.182C124.89 12.6081 127.897 15.6145 127.897 19.3233V20.0462ZM121.179 8.36279H116.013C115.349 8.36279 114.81 8.90078 114.81 9.56454V31.009H121.178C127.234 31.009 132.143 26.0994 132.143 20.0434V19.3265C132.143 13.2715 127.234 8.36279 121.179 8.36279Z" fill="black"/>
<path fill-rule="evenodd" clip-rule="evenodd" d="M175.477 14.5088H172.448V29.8387C172.448 30.485 172.973 31.0091 173.618 31.0091H176.647V15.6788C176.647 15.0326 176.122 14.5088 175.477 14.5088Z" fill="black"/>
<path fill-rule="evenodd" clip-rule="evenodd" d="M174.547 12.8475C175.841 12.8475 176.89 11.7988 176.89 10.5048C176.89 9.21089 175.841 8.16187 174.547 8.16187C173.254 8.16187 172.205 9.21089 172.205 10.5048C172.205 11.7988 173.254 12.8475 174.547 12.8475Z" fill="black"/>
<path fill-rule="evenodd" clip-rule="evenodd" d="M184.412 26.7639V9.50635C184.412 8.79506 183.834 8.21875 183.124 8.21875H179.855V29.7211C179.855 30.4305 180.429 31.0063 181.138 31.0088H194.268V28.0514C194.268 27.3405 193.692 26.7639 192.981 26.7639H184.412Z" fill="black"/>
<path fill-rule="evenodd" clip-rule="evenodd" d="M241.29 12.2234C239.394 12.2586 237.758 12.7348 236.434 13.6634C235.011 14.662 234.29 16.0121 234.29 17.6754C234.29 18.8334 234.611 19.8388 235.245 20.6625C235.877 21.485 237.163 22.2746 239.193 23.0803C240.73 23.6454 241.75 24.1299 242.226 24.5199C242.637 24.8573 242.837 25.2731 242.837 25.7901C242.837 26.5831 242.514 27.7035 239.738 27.637C236.653 27.5631 234.419 26.0302 234.419 26.0302C234.419 26.0302 234.315 25.9701 234.315 26.2955C234.315 26.5527 234.315 29.1301 234.315 29.7059C234.343 29.7923 234.401 29.8911 234.535 29.9546C235.931 30.6541 237.582 31.0086 239.441 31.0086C241.595 31.0086 243.384 30.5254 244.758 29.5724C246.183 28.5843 246.905 27.2133 246.905 25.4967C246.905 24.2665 246.525 23.2133 245.773 22.3677C245.034 21.5386 243.693 20.7743 241.682 20.0342C239.861 19.3198 239.151 18.8883 238.877 18.6519C238.538 18.362 238.374 17.9567 238.374 17.4134C238.374 16.8732 238.602 16.4654 239.093 16.1297C239.622 15.7665 240.333 15.5821 241.207 15.5821C242.739 15.5821 244.128 15.9715 245.335 16.7398L245.915 17.1099C245.989 17.1036 246.057 17.0437 246.077 16.8713V13.3092C244.216 12.3799 242.375 12.2161 241.29 12.2234Z" fill="black"/>
<path fill-rule="evenodd" clip-rule="evenodd" d="M227.085 23.7607C227.085 25.8433 225.381 27.2297 223.297 27.2297C221.215 27.2297 219.511 25.8433 219.511 23.7607V20.7885C219.511 18.706 221.215 17.3192 223.297 17.3192C225.381 17.3192 227.085 18.706 227.085 20.7885V23.7607ZM223.297 13.54C221.921 13.54 220.624 13.8477 219.489 14.405V9.3154C219.489 8.66906 218.966 8.14502 218.319 8.14502H215.292V23.4746C215.292 27.8782 218.894 31.0092 223.297 31.0092C227.701 31.0092 231.304 27.8782 231.304 23.4746V21.093C231.304 16.69 227.701 13.54 223.297 13.54Z" fill="black"/>
<mask id="mask0" style="mask-type:alpha" maskUnits="userSpaceOnUse" x="0" y="0" width="213" height="32">
<path fill-rule="evenodd" clip-rule="evenodd" d="M0 0.0119629H212.259V31.6824H0V0.0119629Z" fill="white"/>
</mask>
<g mask="url(#mask0)">
<path fill-rule="evenodd" clip-rule="evenodd" d="M207.936 22.8545V27.3744C207.599 27.44 207.225 27.4917 206.822 27.529C205.831 27.6222 204.943 27.6393 203.913 27.5452C203.51 27.5088 203.137 27.4061 202.806 27.2417C202.486 27.0823 202.223 26.8558 202.006 26.5485C201.799 26.2573 201.694 25.8273 201.694 25.2704C201.694 24.4029 202.003 23.7816 202.64 23.3706C203.318 22.9328 204.345 22.7106 205.692 22.7106C206.056 22.7106 206.498 22.7312 207.022 22.7728C207.364 22.8 207.67 22.8272 207.936 22.8545ZM210.278 14.526C208.979 13.4896 207.083 12.9644 204.639 12.9644C203.73 12.9644 202.776 13.0305 201.8 13.161C201.017 13.2653 199.911 13.4149 199.143 13.5917C198.831 13.6636 198.774 13.9081 198.774 14.2012V16.5375C198.774 16.9542 198.778 17.3328 199.219 17.2254C200.041 17.0252 201.636 16.6716 202.07 16.5999C202.755 16.4871 203.502 16.4304 204.288 16.4304C205.512 16.4304 206.446 16.6497 207.063 17.0802C207.642 17.4858 207.936 18.2582 207.936 19.3754V19.5106C207.718 19.4908 207.479 19.4714 207.217 19.454C206.729 19.4214 206.104 19.4042 205.342 19.4042C204.3 19.4042 203.291 19.5224 202.344 19.7552C201.382 19.9922 200.516 20.3585 199.774 20.8448C199.016 21.3407 198.409 21.9702 197.969 22.717C197.524 23.4695 197.299 24.3506 197.299 25.3346C197.299 26.3343 197.492 27.2046 197.872 27.9207C198.255 28.6433 198.806 29.246 199.507 29.7111C200.198 30.1702 201.046 30.506 202.027 30.7101C202.98 30.9084 204.06 31.0088 205.235 31.0088C206.092 31.0088 212.259 30.922 212.259 27.9869C212.259 24.5863 212.259 19.5031 212.259 19.5031C212.259 17.2517 211.593 15.5772 210.278 14.526Z" fill="black"/>
<path fill-rule="evenodd" clip-rule="evenodd" d="M13.5683 9.75083C13.5683 5.20208 11.3524 1.28984 9.66652 0.015861C9.65986 0.0120591 9.53758 -0.0566935 9.54802 0.125168C9.54802 0.127703 9.5458 0.128653 9.5458 0.130871C9.40545 8.91408 4.91848 11.2948 2.45163 14.5017C-3.2412 21.9016 2.05337 30.0154 7.44458 31.515C10.4611 32.3539 6.74787 30.0303 6.26945 25.1219C5.69155 19.1898 13.5683 14.6617 13.5683 9.75083Z" fill="black"/>
<path fill-rule="evenodd" clip-rule="evenodd" d="M16.1551 12.7412C16.1206 12.7181 16.0714 12.702 16.0376 12.758C15.945 13.8637 14.8155 16.2287 13.3841 18.4008C8.52897 25.7672 11.2959 29.3179 12.8515 31.2252C13.7548 32.3325 12.8515 31.2252 15.1092 30.0938C15.2864 30.0051 19.5151 27.6336 19.9729 22.2304C20.4162 16.9976 17.2738 13.6996 16.1551 12.7412Z" fill="#008AC4"/>
</g>
</svg>
