<svg width="116" height="16" viewBox="0 0 116 16" fill="none" xmlns="http://www.w3.org/2000/svg">
<path d="M11.736 13.542C11.916 13.818 12.102 14.04 12.294 14.208C12.486 14.376 12.732 14.52 13.032 14.64V15C12.192 14.964 11.256 14.946 10.224 14.946C9.432 14.946 8.67 14.964 7.938 15V14.64C8.274 14.616 8.514 14.58 8.658 14.532C8.814 14.484 8.892 14.4 8.892 14.28C8.892 14.184 8.826 14.034 8.694 13.83L6.084 9.6C5.844 9.216 5.64 8.958 5.472 8.826C5.316 8.694 5.1 8.616 4.824 8.592V13.092C4.824 13.548 4.854 13.878 4.914 14.082C4.986 14.286 5.112 14.424 5.292 14.496C5.472 14.568 5.766 14.616 6.174 14.64V15C5.526 14.964 4.62 14.946 3.456 14.946C2.172 14.946 1.224 14.964 0.612 15V14.64C1.008 14.616 1.296 14.568 1.476 14.496C1.668 14.424 1.794 14.286 1.854 14.082C1.926 13.878 1.962 13.548 1.962 13.092V4.164C1.962 3.708 1.926 3.378 1.854 3.174C1.794 2.97 1.668 2.832 1.476 2.76C1.296 2.688 1.008 2.64 0.612 2.616V2.256C1.224 2.292 2.172 2.31 3.456 2.31C4.62 2.31 5.526 2.292 6.174 2.256V2.616C5.766 2.64 5.472 2.688 5.292 2.76C5.112 2.832 4.986 2.97 4.914 3.174C4.854 3.378 4.824 3.708 4.824 4.164V8.214C5.304 8.19 5.742 8.046 6.138 7.782C6.534 7.518 6.984 7.098 7.488 6.522L8.55 5.244C9.102 4.608 9.378 4.05 9.378 3.57C9.378 3.282 9.258 3.054 9.018 2.886C8.79 2.718 8.466 2.622 8.046 2.598V2.256C8.922 2.292 9.81 2.31 10.71 2.31C11.406 2.31 11.97 2.292 12.402 2.256V2.598C11.442 2.826 10.572 3.402 9.792 4.326L7.542 7.008L11.736 13.542ZM15.6576 15.126C14.8896 15.126 14.3136 14.928 13.9296 14.532C13.5576 14.136 13.3716 13.614 13.3716 12.966C13.3716 12.426 13.5096 11.982 13.7856 11.634C14.0736 11.274 14.4156 10.998 14.8116 10.806C15.2196 10.614 15.7356 10.41 16.3596 10.194C17.0196 9.966 17.4996 9.762 17.7996 9.582C18.1116 9.39 18.2676 9.132 18.2676 8.808V7.404C18.2676 6.9 18.1476 6.51 17.9076 6.234C17.6796 5.946 17.3196 5.802 16.8276 5.802C16.2516 5.802 15.8136 5.946 15.5136 6.234C15.8496 6.354 16.1076 6.534 16.2876 6.774C16.4796 7.014 16.5756 7.296 16.5756 7.62C16.5756 8.028 16.4376 8.352 16.1616 8.592C15.8856 8.832 15.5496 8.952 15.1536 8.952C14.7336 8.952 14.4096 8.82 14.1816 8.556C13.9536 8.292 13.8396 7.962 13.8396 7.566C13.8396 7.23 13.9176 6.948 14.0736 6.72C14.2416 6.48 14.4936 6.258 14.8296 6.054C15.1536 5.862 15.5496 5.712 16.0176 5.604C16.4976 5.496 17.0196 5.442 17.5836 5.442C18.1716 5.442 18.6816 5.502 19.1136 5.622C19.5456 5.742 19.9056 5.946 20.1936 6.234C20.4576 6.498 20.6316 6.822 20.7156 7.206C20.8116 7.59 20.8596 8.112 20.8596 8.772V13.668C20.8596 13.956 20.8836 14.16 20.9316 14.28C20.9916 14.4 21.0996 14.46 21.2556 14.46C21.4356 14.46 21.6516 14.358 21.9036 14.154L22.0836 14.46C21.5436 14.904 20.8836 15.126 20.1036 15.126C19.4436 15.126 18.9816 14.994 18.7176 14.73C18.4536 14.466 18.3156 14.112 18.3036 13.668C17.7036 14.64 16.8216 15.126 15.6576 15.126ZM17.0436 13.974C17.5116 13.974 17.9196 13.728 18.2676 13.236V9.546C18.1236 9.786 17.8176 10.05 17.3496 10.338C16.8816 10.638 16.5276 10.938 16.2876 11.238C16.0476 11.538 15.9276 11.97 15.9276 12.534C15.9276 13.026 16.0296 13.392 16.2336 13.632C16.4376 13.86 16.7076 13.974 17.0436 13.974ZM24.938 1.05C25.442 1.05 25.838 1.176 26.126 1.428C26.426 1.668 26.576 2.004 26.576 2.436C26.576 2.868 26.426 3.21 26.126 3.462C25.838 3.702 25.442 3.822 24.938 3.822C24.434 3.822 24.032 3.702 23.732 3.462C23.444 3.21 23.3 2.868 23.3 2.436C23.3 2.004 23.444 1.668 23.732 1.428C24.032 1.176 24.434 1.05 24.938 1.05ZM26.342 13.326C26.342 13.818 26.426 14.16 26.594 14.352C26.774 14.532 27.074 14.622 27.494 14.622V15C26.294 14.952 25.496 14.928 25.1 14.928C24.728 14.928 23.894 14.952 22.598 15V14.622C23.03 14.622 23.33 14.532 23.498 14.352C23.666 14.16 23.75 13.818 23.75 13.326V7.656C23.75 7.104 23.666 6.702 23.498 6.45C23.33 6.198 23.03 6.072 22.598 6.072V5.694C22.982 5.73 23.354 5.748 23.714 5.748C24.782 5.748 25.658 5.664 26.342 5.496V13.326ZM34.9718 5.442C35.8838 5.442 36.5438 5.676 36.9518 6.144C37.1558 6.372 37.2998 6.666 37.3838 7.026C37.4678 7.386 37.5098 7.872 37.5098 8.484V13.326C37.5098 13.818 37.5938 14.16 37.7617 14.352C37.9418 14.532 38.2418 14.622 38.6618 14.622V15C37.4618 14.952 36.6698 14.928 36.2858 14.928C35.9258 14.928 35.1458 14.952 33.9458 15V14.622C34.3058 14.622 34.5578 14.532 34.7018 14.352C34.8458 14.16 34.9178 13.818 34.9178 13.326V7.728C34.9178 7.236 34.8338 6.864 34.6658 6.612C34.5098 6.36 34.2218 6.234 33.8018 6.234C33.3098 6.234 32.8898 6.438 32.5418 6.846C32.1938 7.242 32.0198 7.734 32.0198 8.322V13.326C32.0198 13.818 32.0918 14.16 32.2358 14.352C32.3798 14.532 32.6318 14.622 32.9918 14.622V15C31.8878 14.952 31.1438 14.928 30.7598 14.928C30.3997 14.928 29.5717 14.952 28.2758 15V14.622C28.7078 14.622 29.0078 14.532 29.1758 14.352C29.3438 14.16 29.4278 13.818 29.4278 13.326V7.656C29.4278 7.104 29.3438 6.702 29.1758 6.45C29.0078 6.198 28.7078 6.072 28.2758 6.072V5.694C28.6598 5.73 29.0318 5.748 29.3918 5.748C30.4598 5.748 31.3358 5.664 32.0198 5.496V7.116C32.5598 6 33.5438 5.442 34.9718 5.442ZM58.5796 2.31C59.1436 2.31 59.6056 2.292 59.9656 2.256V2.616C59.6656 2.736 59.3716 2.97 59.0836 3.318C58.8076 3.654 58.5736 4.134 58.3816 4.758L55.2136 15.036C55.0816 15.024 54.8716 15.018 54.5836 15.018C54.2956 15.018 54.0856 15.024 53.9536 15.036L51.3076 7.008L48.6436 15.036C48.5116 15.024 48.3016 15.018 48.0136 15.018C47.7256 15.018 47.5156 15.024 47.3836 15.036L43.3516 3.768C43.2076 3.372 43.0336 3.084 42.8296 2.904C42.6256 2.724 42.4216 2.628 42.2176 2.616V2.256C42.9376 2.292 43.8316 2.31 44.8996 2.31C45.9076 2.31 46.6456 2.292 47.1136 2.256V2.616C46.6936 2.676 46.4836 2.91 46.4836 3.318C46.4836 3.51 46.5376 3.78 46.6456 4.128L49.2736 11.742L51.0916 6.378L50.1736 3.588C50.0536 3.24 49.9096 3 49.7416 2.868C49.5856 2.724 49.3996 2.64 49.1836 2.616V2.256C49.8556 2.292 50.7136 2.31 51.7576 2.31C52.9336 2.31 53.7976 2.292 54.3496 2.256V2.616C53.9176 2.628 53.6056 2.682 53.4136 2.778C53.2216 2.862 53.1256 3.03 53.1256 3.282C53.1256 3.498 53.1856 3.78 53.3056 4.128L55.7716 11.652L57.4816 6.216C57.7576 5.316 57.8956 4.62 57.8956 4.128C57.8956 3.612 57.7636 3.24 57.4996 3.012C57.2476 2.772 56.8636 2.64 56.3476 2.616V2.256C57.1636 2.292 57.9076 2.31 58.5796 2.31ZM61.431 15.126C60.663 15.126 60.087 14.928 59.703 14.532C59.331 14.136 59.145 13.614 59.145 12.966C59.145 12.426 59.283 11.982 59.559 11.634C59.847 11.274 60.189 10.998 60.585 10.806C60.993 10.614 61.509 10.41 62.133 10.194C62.793 9.966 63.273 9.762 63.573 9.582C63.885 9.39 64.041 9.132 64.041 8.808V7.404C64.041 6.9 63.921 6.51 63.681 6.234C63.453 5.946 63.093 5.802 62.601 5.802C62.025 5.802 61.587 5.946 61.287 6.234C61.623 6.354 61.881 6.534 62.061 6.774C62.253 7.014 62.349 7.296 62.349 7.62C62.349 8.028 62.211 8.352 61.935 8.592C61.659 8.832 61.323 8.952 60.927 8.952C60.507 8.952 60.183 8.82 59.955 8.556C59.727 8.292 59.613 7.962 59.613 7.566C59.613 7.23 59.691 6.948 59.847 6.72C60.015 6.48 60.267 6.258 60.603 6.054C60.927 5.862 61.323 5.712 61.791 5.604C62.271 5.496 62.793 5.442 63.357 5.442C63.945 5.442 64.455 5.502 64.887 5.622C65.319 5.742 65.679 5.946 65.967 6.234C66.231 6.498 66.405 6.822 66.489 7.206C66.585 7.59 66.633 8.112 66.633 8.772V13.668C66.633 13.956 66.657 14.16 66.705 14.28C66.765 14.4 66.873 14.46 67.029 14.46C67.209 14.46 67.425 14.358 67.677 14.154L67.857 14.46C67.317 14.904 66.657 15.126 65.877 15.126C65.217 15.126 64.755 14.994 64.491 14.73C64.227 14.466 64.089 14.112 64.077 13.668C63.477 14.64 62.595 15.126 61.431 15.126ZM62.817 13.974C63.285 13.974 63.693 13.728 64.041 13.236V9.546C63.897 9.786 63.591 10.05 63.123 10.338C62.655 10.638 62.301 10.938 62.061 11.238C61.821 11.538 61.701 11.97 61.701 12.534C61.701 13.026 61.803 13.392 62.007 13.632C62.211 13.86 62.481 13.974 62.817 13.974ZM74.5635 5.442C75.1035 5.442 75.5115 5.604 75.7875 5.928C76.0635 6.252 76.2015 6.642 76.2015 7.098C76.2015 7.542 76.0695 7.908 75.8055 8.196C75.5535 8.472 75.2175 8.61 74.7975 8.61C74.3895 8.61 74.0655 8.508 73.8255 8.304C73.5855 8.088 73.4655 7.806 73.4655 7.458C73.4655 6.882 73.7295 6.414 74.2575 6.054C74.2095 6.042 74.1375 6.036 74.0415 6.036C73.9215 6.036 73.8255 6.048 73.7535 6.072C73.2975 6.144 72.9075 6.42 72.5835 6.9C72.2715 7.38 72.1155 7.872 72.1155 8.376V13.146C72.1155 13.698 72.2475 14.082 72.5115 14.298C72.7875 14.514 73.2195 14.622 73.8075 14.622V15C73.6395 15 73.5015 14.994 73.3935 14.982C72.1695 14.946 71.3535 14.928 70.9455 14.928C70.6215 14.928 69.8835 14.946 68.7315 14.982C68.6355 14.994 68.5155 15 68.3715 15V14.622C68.8035 14.622 69.1035 14.532 69.2715 14.352C69.4395 14.16 69.5235 13.818 69.5235 13.326V7.656C69.5235 7.104 69.4395 6.702 69.2715 6.45C69.1035 6.198 68.8035 6.072 68.3715 6.072V5.694C68.7555 5.73 69.1275 5.748 69.4875 5.748C70.5555 5.748 71.4315 5.664 72.1155 5.496V7.17C72.3435 6.654 72.6735 6.24 73.1055 5.928C73.5375 5.604 74.0235 5.442 74.5635 5.442ZM89.1398 5.748C89.7518 5.748 90.2078 5.73 90.5078 5.694V6.054C90.2558 6.126 90.0278 6.276 89.8238 6.504C89.6198 6.732 89.4398 7.098 89.2838 7.602L86.8898 15.036C86.7578 15.024 86.5598 15.018 86.2958 15.018C86.0438 15.018 85.8518 15.024 85.7198 15.036L83.2718 8.358L81.2738 15.036C81.1538 15.024 80.9618 15.018 80.6978 15.018C80.4338 15.018 80.2358 15.024 80.1038 15.036L77.2598 7.08C77.1158 6.66 76.9538 6.39 76.7738 6.27C76.5938 6.138 76.4078 6.072 76.2158 6.072V5.694C76.9958 5.766 77.8478 5.802 78.7718 5.802C79.3718 5.802 80.1518 5.766 81.1118 5.694V6.072C80.7158 6.072 80.4278 6.102 80.2478 6.162C80.0798 6.222 79.9958 6.366 79.9958 6.594C79.9958 6.75 80.0258 6.912 80.0858 7.08L81.7058 12.174L83.6678 5.676L84.3338 5.694L84.9818 5.676L87.3218 12.552L88.4558 8.934C88.6238 8.37 88.7078 7.914 88.7078 7.566C88.7078 6.63 88.2338 6.126 87.2858 6.054V5.694C87.8498 5.73 88.4678 5.748 89.1398 5.748ZM93.2818 1.05C93.7858 1.05 94.1818 1.176 94.4698 1.428C94.7698 1.668 94.9198 2.004 94.9198 2.436C94.9198 2.868 94.7698 3.21 94.4698 3.462C94.1818 3.702 93.7858 3.822 93.2818 3.822C92.7778 3.822 92.3758 3.702 92.0758 3.462C91.7878 3.21 91.6438 2.868 91.6438 2.436C91.6438 2.004 91.7878 1.668 92.0758 1.428C92.3758 1.176 92.7778 1.05 93.2818 1.05ZM94.6858 13.326C94.6858 13.818 94.7698 14.16 94.9378 14.352C95.1178 14.532 95.4178 14.622 95.8378 14.622V15C94.6378 14.952 93.8398 14.928 93.4438 14.928C93.0718 14.928 92.2378 14.952 90.9418 15V14.622C91.3738 14.622 91.6738 14.532 91.8418 14.352C92.0098 14.16 92.0938 13.818 92.0938 13.326V7.656C92.0938 7.104 92.0098 6.702 91.8418 6.45C91.6738 6.198 91.3738 6.072 90.9418 6.072V5.694C91.3258 5.73 91.6978 5.748 92.0578 5.748C93.1258 5.748 94.0018 5.664 94.6858 5.496V13.326ZM101.3 5.442C101.744 5.442 102.164 5.49 102.56 5.586C102.956 5.682 103.286 5.814 103.55 5.982C103.862 6.174 104.102 6.42 104.27 6.72C104.45 7.008 104.54 7.326 104.54 7.674C104.54 8.094 104.408 8.442 104.144 8.718C103.88 8.982 103.538 9.114 103.118 9.114C102.698 9.114 102.362 8.994 102.11 8.754C101.858 8.514 101.732 8.19 101.732 7.782C101.732 7.422 101.846 7.11 102.074 6.846C102.302 6.582 102.584 6.402 102.92 6.306C102.824 6.174 102.674 6.072 102.47 6C102.278 5.916 102.068 5.874 101.84 5.874C101.12 5.874 100.556 6.27 100.148 7.062C99.7515 7.842 99.5535 8.868 99.5535 10.14C99.5535 11.424 99.7815 12.348 100.238 12.912C100.694 13.476 101.264 13.758 101.948 13.758C102.356 13.758 102.764 13.65 103.172 13.434C103.592 13.218 103.97 12.84 104.306 12.3L104.612 12.408C104.372 13.188 103.952 13.86 103.352 14.424C102.752 14.976 101.978 15.252 101.03 15.252C99.7935 15.252 98.7855 14.844 98.0055 14.028C97.2255 13.212 96.8355 12 96.8355 10.392C96.8355 9.336 97.0275 8.436 97.4115 7.692C97.7955 6.948 98.3235 6.39 98.9955 6.018C99.6675 5.634 100.436 5.442 101.3 5.442ZM114.693 13.686C114.885 13.974 115.041 14.19 115.161 14.334C115.281 14.466 115.437 14.562 115.629 14.622V15C114.669 14.952 114.039 14.928 113.739 14.928C113.343 14.928 112.569 14.952 111.417 15V14.622C111.585 14.622 111.717 14.592 111.813 14.532C111.909 14.472 111.957 14.388 111.957 14.28C111.957 14.22 111.927 14.13 111.867 14.01L110.085 10.788C109.965 10.584 109.839 10.446 109.707 10.374C109.575 10.302 109.407 10.254 109.203 10.23V13.326C109.203 13.818 109.281 14.16 109.437 14.352C109.593 14.532 109.875 14.622 110.283 14.622V15C109.083 14.952 108.303 14.928 107.943 14.928C107.535 14.928 106.707 14.952 105.459 15V14.622C105.879 14.622 106.173 14.532 106.341 14.352C106.521 14.16 106.611 13.818 106.611 13.326V3.066C106.611 2.514 106.521 2.112 106.341 1.86C106.173 1.608 105.879 1.482 105.459 1.482V1.104C105.843 1.14 106.215 1.158 106.575 1.158C107.619 1.158 108.495 1.074 109.203 0.905999V9.888C109.443 9.864 109.647 9.816 109.815 9.744C109.995 9.672 110.151 9.564 110.283 9.42L111.651 8.088C112.047 7.692 112.245 7.326 112.245 6.99C112.245 6.714 112.119 6.498 111.867 6.342C111.615 6.174 111.279 6.078 110.859 6.054V5.694C111.519 5.73 112.221 5.748 112.965 5.748C113.961 5.748 114.663 5.73 115.071 5.694V6.054C114.363 6.21 113.613 6.672 112.821 7.44L111.669 8.628L114.693 13.686Z" fill="black"/>
</svg>
