<svg width="244" height="33" viewBox="0 0 244 33" fill="none" xmlns="http://www.w3.org/2000/svg">
<path d="M13.904 18.7278L5.70333 1.11392H2.83479L0 25.0981H3.10477L5.23086 7.06646L12.5541 22.4525H15.3214L22.5771 7.06646L24.7032 25.0981H27.8079L24.9732 1.11392H22.1046L13.904 18.7278Z" fill="black"/>
<path d="M39.2056 25.4462C43.6941 25.4462 47.4738 22.0696 47.4738 16.9177C47.4738 11.7658 43.6941 8.49367 39.2056 8.49367C34.7172 8.49367 30.9712 11.7658 30.9712 16.9177C30.9712 22.0696 34.7172 25.4462 39.2056 25.4462ZM39.2056 22.3829C36.3371 22.3829 34.0085 20.2595 34.0085 16.9177C34.0085 13.6456 36.3371 11.5918 39.2056 11.5918C42.0067 11.5918 44.4028 13.6456 44.4028 16.9177C44.4028 20.2595 42.0067 22.3829 39.2056 22.3829Z" fill="black"/>
<path d="M54.6317 16.326C54.6317 12.8797 56.859 11.5918 59.0863 11.5918C61.2462 11.5918 62.5623 13.1582 62.5623 15.9082V25.0981H65.6334V15.6994C65.6334 11.1044 63.5073 8.49367 59.5588 8.49367C57.8377 8.49367 55.5429 9.32911 54.6317 11.2785V8.84177H51.5606V25.0981H54.6317V16.326Z" fill="black"/>
<path d="M83.0294 25.0981H86.1004V0H83.0294V11.2785C81.9832 9.43354 79.7896 8.49367 77.4611 8.49367C73.1414 8.49367 69.5304 11.7658 69.5304 16.9525C69.5304 22.1044 73.1751 25.4462 77.4948 25.4462C79.6884 25.4462 81.9832 24.4019 83.0294 22.5918V25.0981ZM82.9957 16.9177C82.9957 20.3639 80.5658 22.3481 77.7648 22.3481C74.93 22.3481 72.6689 20.1203 72.6689 16.9177C72.6689 13.7152 74.93 11.5918 77.7648 11.5918C80.3296 11.5918 82.9957 13.4367 82.9957 16.9177Z" fill="black"/>
<path d="M103.727 25.0981H106.764V8.84177H103.727V11.2785C102.647 9.43354 100.386 8.49367 98.1923 8.49367C93.8726 8.49367 90.1942 11.7658 90.1942 16.9525C90.1942 22.1044 93.8726 25.4462 98.1923 25.4462C100.386 25.4462 102.681 24.4019 103.727 22.5918V25.0981ZM103.693 16.9177C103.693 20.3639 101.263 22.3481 98.4623 22.3481C95.6275 22.3481 93.3327 20.1203 93.3327 16.9177C93.3327 13.7152 95.6275 11.5918 98.4623 11.5918C101.027 11.5918 103.693 13.4367 103.693 16.9177Z" fill="black"/>
<path d="M116.156 33L125.943 8.84177H122.67L117.945 20.6076L113.22 8.84177H109.947L116.258 24.6108L112.95 33H116.156Z" fill="black"/>
<path d="M154.296 19.25C152.71 21.1646 150.449 22.3133 147.851 22.3133C142.957 22.3133 139.211 18.2753 139.211 13.1582C139.211 8.04114 142.957 3.96835 147.851 3.96835C150.416 3.96835 152.643 5.1519 154.229 6.92721L156.591 4.90823C154.533 2.4019 151.462 0.835443 147.851 0.835443C141.27 0.835443 136.073 6.37025 136.073 13.1582C136.073 19.981 141.27 25.4462 147.851 25.4462C151.495 25.4462 154.6 23.8449 156.659 21.3038L154.296 19.25Z" fill="black"/>
<path d="M172.507 25.0981H175.545V8.84177H172.507V11.2785C171.427 9.43354 169.166 8.49367 166.973 8.49367C162.653 8.49367 158.974 11.7658 158.974 16.9525C158.974 22.1044 162.653 25.4462 166.973 25.4462C169.166 25.4462 171.461 24.4019 172.507 22.5918V25.0981ZM172.473 16.9177C172.473 20.3639 170.044 22.3481 167.243 22.3481C164.408 22.3481 162.113 20.1203 162.113 16.9177C162.113 13.7152 164.408 11.5918 167.243 11.5918C169.807 11.5918 172.473 13.4367 172.473 16.9177Z" fill="black"/>
<path d="M183.755 8.84177H180.684V33H183.755V22.6614C184.835 24.5063 187.029 25.4462 189.256 25.4462C193.576 25.4462 197.153 22.174 197.153 17.0222C197.153 11.8703 193.576 8.49367 189.256 8.49367C187.029 8.49367 184.835 9.53797 183.755 11.3829V8.84177ZM183.789 17.057C183.789 13.6108 186.185 11.5918 188.953 11.5918C191.787 11.5918 194.048 13.8196 194.048 17.057C194.048 20.2943 191.787 22.3481 188.953 22.3481C186.421 22.3481 183.789 20.538 183.789 17.057Z" fill="black"/>
<path d="M204.287 8.84177H201.249V25.0981H204.287V8.84177ZM200.642 2.85443C200.642 4.07278 201.587 4.90823 202.768 4.90823C203.949 4.90823 204.894 4.07278 204.894 2.85443C204.894 1.63608 203.949 0.800633 202.768 0.800633C201.587 0.800633 200.642 1.63608 200.642 2.85443Z" fill="black"/>
<path d="M213.675 8.84177V2.71519H210.604V8.84177H207.769V11.5222H210.604V25.0981H213.675V11.5222H217.016V8.84177H213.675Z" fill="black"/>
<path d="M232.752 25.0981H235.789V8.84177H232.752V11.2785C231.672 9.43354 229.411 8.49367 227.217 8.49367C222.898 8.49367 219.219 11.7658 219.219 16.9525C219.219 22.1044 222.898 25.4462 227.217 25.4462C229.411 25.4462 231.706 24.4019 232.752 22.5918V25.0981ZM232.718 16.9177C232.718 20.3639 230.288 22.3481 227.487 22.3481C224.652 22.3481 222.358 20.1203 222.358 16.9177C222.358 13.7152 224.652 11.5918 227.487 11.5918C230.052 11.5918 232.718 13.4367 232.718 16.9177Z" fill="black"/>
<path d="M240.929 0V25.0981H244V0H240.929Z" fill="black"/>
</svg>
