<svg width="139" height="44" viewBox="0 0 139 44" fill="none" xmlns="http://www.w3.org/2000/svg">
<path d="M66.1887 34.5623H67.1759L69.5386 40.848L71.9141 34.5623H72.9012L70.0098 41.7587H69.0801L66.1887 34.5623Z" fill="black"/>
<path d="M80.2182 41.8857C79.752 41.9034 79.2875 41.8211 78.8557 41.6443C78.424 41.4674 78.0352 41.2001 77.7154 40.8604C77.055 40.1176 76.7101 39.1467 76.7537 38.1538C76.7302 37.6602 76.8048 37.1669 76.9731 36.7023C77.1415 36.2377 77.4002 35.8111 77.7345 35.4472C78.0641 35.1084 78.4612 34.8427 78.9 34.6672C79.3388 34.4917 79.8096 34.4102 80.2819 34.4282C80.7401 34.4059 81.198 34.4799 81.6258 34.6456C82.0536 34.8112 82.4419 35.0648 82.7656 35.3899C83.0684 35.7078 83.3052 36.0825 83.4626 36.4924C83.62 36.9022 83.6948 37.3392 83.6827 37.7781C83.6862 38.0147 83.6691 38.2512 83.6318 38.485H77.7027C77.6956 39.2085 77.9643 39.9076 78.4541 40.4401C78.6835 40.6734 78.9586 40.8565 79.2622 40.9782C79.5658 41.0998 79.8913 41.1574 80.2182 41.147C80.7189 41.1621 81.2129 41.0292 81.6384 40.7649C82.0107 40.5298 82.2951 40.1783 82.4472 39.765H83.4343C83.2029 40.3736 82.8003 40.9022 82.2753 41.2871C81.674 41.7073 80.9511 41.9177 80.2182 41.8857ZM82.7656 37.7653C82.7848 37.4149 82.7313 37.0643 82.6085 36.7356C82.4858 36.4068 82.2965 36.1069 82.0524 35.8547C81.8179 35.6231 81.5392 35.4411 81.2328 35.3197C80.9264 35.1982 80.5987 35.1398 80.2692 35.1479C79.9441 35.1384 79.6203 35.1944 79.3173 35.3126C79.0142 35.4307 78.738 35.6086 78.5051 35.8356C78.0139 36.3508 77.7382 37.0343 77.7345 37.7462L82.7656 37.7653Z" fill="black"/>
<path d="M88.4593 34.5619V35.7338C88.6932 35.3126 89.0417 34.9664 89.4644 34.7353C89.8871 34.5042 90.3667 34.3977 90.8475 34.4282C91.2173 34.4175 91.5855 34.4814 91.9302 34.6159C92.2748 34.7505 92.5889 34.953 92.8536 35.2115C93.1351 35.5133 93.3515 35.8697 93.4896 36.2586C93.6276 36.6475 93.6843 37.0607 93.656 37.4724V41.7584H92.7453V37.6443C92.791 36.9905 92.5861 36.3438 92.1722 35.8356C91.9716 35.6238 91.728 35.4575 91.4578 35.3476C91.1876 35.2378 90.897 35.187 90.6055 35.1988C90.3132 35.1877 90.0218 35.2388 89.7507 35.3486C89.4796 35.4583 89.2348 35.6243 89.0325 35.8356C88.6186 36.3438 88.4136 36.9905 88.4593 37.6443V41.7584H87.5422V34.5619H88.4593Z" fill="black"/>
<path d="M101.425 35.2815H99.4321V40.0579C99.4053 40.3278 99.4802 40.5981 99.6422 40.8158C99.8558 40.9813 100.125 41.0588 100.394 41.0323H101.425V41.7583H100.196C99.966 41.7905 99.7314 41.7685 99.5111 41.6942C99.2908 41.6199 99.0908 41.4953 98.927 41.3303C98.7632 41.1653 98.6402 40.9644 98.5675 40.7435C98.4949 40.5227 98.4747 40.2879 98.5086 40.0579V35.2815H97.5088V34.5618H98.5277V32.7532H99.4512V34.5618H101.445L101.425 35.2815Z" fill="black"/>
<path d="M110.469 34.5618H111.393V41.7583H110.469V40.5801C110.235 40.9975 109.886 41.3391 109.464 41.5648C109.042 41.7905 108.564 41.8908 108.087 41.8538C107.718 41.8645 107.349 41.8007 107.005 41.6661C106.66 41.5315 106.346 41.329 106.081 41.0705C105.8 40.7687 105.583 40.4123 105.445 40.0234C105.307 39.6345 105.251 39.2214 105.279 38.8097V34.53H106.17V38.6377C106.121 39.2919 106.327 39.9398 106.744 40.4464C106.943 40.6592 107.187 40.8263 107.457 40.9362C107.728 41.0461 108.019 41.0963 108.31 41.0833C108.602 41.0963 108.893 41.0461 109.163 40.9362C109.434 40.8263 109.677 40.6592 109.877 40.4464C110.294 39.9398 110.499 39.2919 110.45 38.6377L110.469 34.5618Z" fill="black"/>
<path d="M116.169 34.5621V35.7467C116.355 35.321 116.671 34.9646 117.071 34.7281C117.471 34.4915 117.935 34.3867 118.398 34.4284V35.39H118.13C117.866 35.3724 117.601 35.4091 117.351 35.4978C117.101 35.5865 116.872 35.7254 116.678 35.9059C116.288 36.4067 116.106 37.0383 116.169 37.6699V41.7586H115.245V34.5621H116.169Z" fill="black"/>
<path d="M125.715 41.8857C125.249 41.9034 124.784 41.8211 124.353 41.6443C123.921 41.4674 123.532 41.2001 123.212 40.8604C122.552 40.1176 122.207 39.1467 122.251 38.1538C122.227 37.6602 122.302 37.1669 122.47 36.7023C122.639 36.2377 122.897 35.8111 123.232 35.4472C123.561 35.1084 123.958 34.8427 124.397 34.6672C124.836 34.4917 125.307 34.4102 125.779 34.4282C126.237 34.4059 126.695 34.4799 127.123 34.6456C127.551 34.8112 127.939 35.0648 128.263 35.3899C128.566 35.7075 128.804 36.082 128.963 36.4918C129.121 36.9017 129.197 37.3388 129.186 37.7781C129.188 38.0149 129.168 38.2514 129.129 38.485H123.2C123.196 39.2079 123.464 39.9059 123.951 40.4401C124.181 40.6727 124.456 40.8555 124.76 40.9771C125.063 41.0987 125.388 41.1566 125.715 41.147C126.216 41.1621 126.71 41.0292 127.135 40.7649C127.509 40.5316 127.794 40.1795 127.944 39.765H128.931C128.7 40.3736 128.297 40.9022 127.772 41.2871C127.171 41.7073 126.448 41.9177 125.715 41.8857ZM128.263 37.7653C128.281 37.4144 128.226 37.0636 128.103 36.7348C127.979 36.406 127.788 36.1064 127.543 35.8547C127.309 35.6222 127.031 35.4396 126.724 35.3181C126.418 35.1966 126.09 35.1387 125.76 35.1479C125.435 35.1384 125.111 35.1944 124.808 35.3126C124.505 35.4307 124.229 35.6086 123.996 35.8356C123.505 36.3508 123.229 37.0343 123.225 37.7462L128.263 37.7653Z" fill="black"/>
<path d="M133.039 36.549C133.036 36.2573 133.101 35.9689 133.229 35.7068C133.358 35.4448 133.545 35.2163 133.778 35.0397C134.316 34.6022 134.995 34.3758 135.688 34.4028C136.338 34.3622 136.978 34.5771 137.471 35.0015C137.915 35.4393 138.169 36.034 138.178 36.6573H137.229C137.226 36.2494 137.063 35.8589 136.777 35.5683C136.622 35.4204 136.437 35.3062 136.236 35.2328C136.034 35.1594 135.82 35.1283 135.605 35.1416C135.181 35.1164 134.762 35.2479 134.427 35.511C134.293 35.6171 134.184 35.7526 134.11 35.9072C134.036 36.0617 133.999 36.2312 134.001 36.4025C133.993 36.5536 134.016 36.7048 134.07 36.8462C134.124 36.9877 134.206 37.1164 134.313 37.2241C134.537 37.4323 134.815 37.5735 135.115 37.6317C135.433 37.7017 135.784 37.7845 136.153 37.8801C136.523 37.9756 136.873 38.0839 137.198 38.1921C137.518 38.3013 137.797 38.5084 137.994 38.7844C138.216 39.1077 138.327 39.4942 138.312 39.8862C138.316 40.1641 138.252 40.4388 138.125 40.6863C137.999 40.9338 137.814 41.1466 137.586 41.3063C137.029 41.6989 136.356 41.8939 135.675 41.8604C134.995 41.8909 134.329 41.6635 133.81 41.2236C133.578 41.0144 133.393 40.7601 133.263 40.4765C133.134 40.1928 133.064 39.8857 133.058 39.5741H134.007C134.007 39.779 134.049 39.9818 134.13 40.1701C134.211 40.3584 134.33 40.5283 134.478 40.6695C134.82 40.9647 135.263 41.1154 135.714 41.0898C136.145 41.1172 136.573 41.0008 136.93 40.7587C137.068 40.6607 137.18 40.5306 137.257 40.3798C137.333 40.2289 137.372 40.0616 137.37 39.8925C137.377 39.7399 137.353 39.5875 137.298 39.4449C137.243 39.3023 137.159 39.1728 137.051 39.0646C136.829 38.855 136.554 38.7097 136.255 38.6443C135.93 38.5742 135.586 38.485 135.211 38.3895C134.835 38.294 134.491 38.1921 134.172 38.0838C133.856 37.984 133.577 37.7881 133.376 37.5234C133.16 37.2444 133.042 36.902 133.039 36.549Z" fill="black"/>
<path d="M80.9637 5.43213H86.4916V28.1933H80.9637L71.7166 13.8704V28.1933H66.1887V5.43213H71.7166L80.9637 19.7549V5.43213Z" fill="black"/>
<path d="M93.65 25.1046C92.5376 24.0293 91.6622 22.7334 91.0799 21.3C90.4975 19.8666 90.2211 18.3274 90.2683 16.781C90.2203 15.2345 90.4964 13.695 91.0788 12.2615C91.6612 10.8281 92.537 9.53218 93.65 8.45729C94.7385 7.38158 96.0326 6.5362 97.455 5.97161C98.8775 5.40701 100.399 5.13482 101.929 5.17119C104.322 5.13308 106.668 5.83353 108.648 7.17721C110.607 8.5116 112.056 10.4719 112.756 12.737H106.17C105.803 11.9598 105.214 11.3087 104.478 10.8655C103.741 10.4224 102.89 10.2072 102.031 10.2469C101.204 10.2062 100.378 10.3439 99.6087 10.6504C98.8395 10.957 98.1453 11.4254 97.573 12.0237C96.4365 13.3404 95.8504 15.0439 95.9362 16.781C95.8501 18.5163 96.4363 20.2179 97.573 21.5319C98.1321 22.1264 98.8131 22.5929 99.5694 22.8996C100.326 23.2063 101.139 23.3459 101.955 23.3087C103.108 23.3606 104.245 23.0118 105.171 22.3216C106.004 21.6563 106.59 20.7298 106.833 19.6914H100.432V15.4882H112.781V19.6914C112.276 21.9242 111.09 23.9449 109.387 25.4741C108.44 26.381 107.326 27.0948 106.107 27.5756C104.79 28.1182 103.379 28.3932 101.955 28.3844C100.421 28.424 98.895 28.1539 97.4682 27.5904C96.0413 27.0269 94.7427 26.1814 93.65 25.1046Z" fill="black"/>
<path d="M119.894 25.1046C118.782 24.0293 117.907 22.7334 117.324 21.3C116.742 19.8666 116.465 18.3274 116.513 16.781C116.465 15.2345 116.741 13.695 117.323 12.2615C117.906 10.8281 118.781 9.53218 119.894 8.45729C120.983 7.38158 122.277 6.5362 123.699 5.97161C125.122 5.40701 126.643 5.13482 128.173 5.17119C130.568 5.13301 132.916 5.83341 134.899 7.17721C136.858 8.51006 138.305 10.4712 139 12.737H132.409C132.041 11.9598 131.452 11.3087 130.716 10.8655C129.979 10.4224 129.128 10.2072 128.269 10.2469C127.442 10.2062 126.616 10.3439 125.847 10.6504C125.078 10.957 124.383 11.4254 123.811 12.0237C122.676 13.341 122.092 15.0446 122.181 16.781C122.092 18.5155 122.676 20.2173 123.811 21.5319C124.383 22.1303 125.078 22.5986 125.847 22.9052C126.616 23.2118 127.442 23.3494 128.269 23.3087C129.128 23.3501 129.98 23.1356 130.717 22.6923C131.454 22.249 132.043 21.5969 132.409 20.8186H139C138.308 23.086 136.861 25.0481 134.899 26.3783C132.916 27.7221 130.568 28.4226 128.173 28.3844C126.644 28.4206 125.123 28.1489 123.701 27.5854C122.279 27.022 120.984 26.1783 119.894 25.1046Z" fill="black"/>
<path d="M6.79522 3.92302L0 0V35.8294L6.79522 39.7524L13.5841 43.6754V7.84603L6.79522 3.92302Z" fill="black"/>
<path d="M27.1744 3.92302L20.3792 0V35.8294L27.1744 39.7524L33.9696 43.6754V7.84603L27.1744 3.92302Z" fill="black"/>
<path d="M47.5538 3.92302L40.7585 0V35.8294L47.5538 39.7524L54.349 43.6754V7.84603L47.5538 3.92302Z" fill="black"/>
</svg>
