<svg width="110" height="36" viewBox="0 0 110 36" fill="none" xmlns="http://www.w3.org/2000/svg">
<path d="M0 29.4116V0L10.7635 6.05101V35.9027L0 29.4116ZM16.2644 29.4116V0L27.0278 6.05101V35.9027L16.2644 29.4116ZM32.5288 29.4116V0L43.2922 6.05101V35.9027L32.5288 29.4116ZM65.9927 3.4289H69.99V21.5453H65.6626L61.4086 14.6141C59.9417 12.267 58.8781 10.4517 58.218 9.14986C58.3281 11.2402 58.3647 13.5873 58.3647 16.1544V21.5269H54.3674V3.41057H58.8048L63.4256 10.9652C64.7091 13.0372 65.5893 14.5408 66.1027 15.4759C66.0293 14.0457 65.9927 11.9737 65.9927 9.2232V3.4289ZM81.0102 14.7058V11.2402H89.6283V21.5453H86.4927L86.3461 19.9867C85.3009 21.3069 83.6506 21.967 81.3769 21.967C78.6631 21.967 76.4994 21.0868 74.9041 19.3082C73.3089 17.5296 72.5021 15.2559 72.5021 12.4504C72.4654 9.69995 73.3089 7.42624 74.9958 5.64761C76.7194 3.85064 78.9748 2.95216 81.7803 2.98883C83.3572 2.98883 84.7508 3.24554 85.961 3.75896C87.1895 4.27238 88.4181 5.13419 89.6833 6.36273L87.0795 9.05818C86.0527 8.15969 85.1542 7.53626 84.3474 7.16953C83.5406 6.82114 82.6971 6.63778 81.7803 6.63778C80.2217 6.63778 78.9748 7.13285 78.058 8.14136C77.1595 9.14986 76.7011 10.5801 76.7011 12.4321C76.7011 14.3391 77.1412 15.806 78.0213 16.8511C78.9198 17.878 80.1484 18.3731 81.6886 18.3731C83.0088 18.3731 84.0357 18.0613 84.7691 17.4379C85.5209 16.7961 85.8876 15.916 85.8876 14.7791V14.7058H81.0102ZM100.978 2.97049C102.427 2.97049 103.656 3.19053 104.682 3.61227C105.728 4.05234 106.791 4.76746 107.873 5.75763L105.434 8.59977C104.536 7.82964 103.766 7.31622 103.106 7.04117C102.482 6.74779 101.749 6.6011 100.942 6.6011C99.4199 6.6011 98.228 7.13286 97.3112 8.17803C96.4311 9.22321 95.991 10.6351 95.991 12.4321C95.991 14.2474 96.4311 15.6959 97.3112 16.7411C98.2097 17.7863 99.4199 18.3181 100.905 18.3181C101.785 18.3181 102.555 18.153 103.197 17.8413C103.857 17.5296 104.701 16.9795 105.728 16.1544L108.093 18.9598C106.974 20.005 105.838 20.7568 104.701 21.2519C103.582 21.7286 102.335 21.967 100.96 21.967C98.173 21.967 95.936 21.0685 94.2857 19.2899C92.6171 17.4929 91.792 15.1825 91.792 12.3771C91.792 9.62661 92.6171 7.35289 94.2674 5.5926C95.9176 3.85064 98.1547 2.97049 100.978 2.97049ZM57.3929 33.5006L59.905 26.0744H59.2265L57.0262 32.8588H56.9895L54.8075 26.0927H54.0923L56.5861 33.5189H57.3929V33.5006ZM64.8925 33.6289C65.9193 33.6289 66.6711 33.0972 67.0195 32.3087L66.5611 31.997C66.2677 32.7121 65.6809 33.0972 64.9108 33.0972C63.7923 33.0972 63.1322 32.3087 63.1322 31.1719V30.8968H67.1662V30.6034C67.1662 29.0082 66.2677 27.9263 64.8741 27.9263C63.4256 27.9263 62.5087 28.9898 62.5087 30.7685C62.5087 32.5471 63.4439 33.6289 64.8925 33.6289ZM64.8741 28.4397C65.846 28.4397 66.5061 29.1915 66.5061 30.3467V30.4384H63.1322V30.3834C63.1505 29.2282 63.829 28.4397 64.8741 28.4397ZM71.4386 33.5006V29.6683C71.4386 28.8615 72.1537 28.4764 72.9238 28.4764C73.8223 28.4764 74.3174 29.0082 74.3174 30.1084V33.5006H74.9225V29.9983C74.9225 28.6781 74.244 27.9263 73.0888 27.9263C72.2087 27.9263 71.732 28.3481 71.4752 28.9165H71.4386V28.0547H70.8335V33.5006H71.4386V33.5006ZM80.9735 33.5006V32.9688H79.8183V28.5864H81.0468V28.0547H79.8183V26.5328H79.2682V27.6329C79.2682 27.9447 79.1765 28.0547 78.8831 28.0547H78.2597V28.5864H79.2132V32.8221C79.2132 33.2255 79.4516 33.5006 79.8916 33.5006H80.9735V33.5006ZM88.033 33.5006H88.6381V28.0547H88.033V31.8686C88.033 32.6938 87.3179 33.0788 86.5661 33.0788C85.6676 33.0788 85.1725 32.5471 85.1725 31.4286V28.0547H84.5674V31.5569C84.5674 32.8772 85.2642 33.6289 86.4194 33.6289C87.3546 33.6289 87.7946 33.1522 87.9963 32.6388H88.033V33.5006ZM93.3505 33.5006V29.7783C93.3505 29.0815 93.9923 28.6598 94.9091 28.6598H95.3859V28.073H95.0192C94.084 28.073 93.6073 28.5314 93.3872 29.0448H93.3505V28.073H92.7455V33.5189H93.3505V33.5006ZM100.593 33.6289C101.62 33.6289 102.372 33.0972 102.72 32.3087L102.28 32.0153C101.987 32.7305 101.4 33.1155 100.63 33.1155C99.5116 33.1155 98.8515 32.3271 98.8515 31.1902V30.8968H102.885V30.6034C102.885 29.0082 101.987 27.9263 100.593 27.9263C99.1448 27.9263 98.228 28.9898 98.228 30.7685C98.228 32.5471 99.1265 33.6289 100.593 33.6289ZM100.575 28.4397C101.547 28.4397 102.207 29.1915 102.207 30.3467V30.4384H98.8331V30.3834C98.8515 29.2282 99.5299 28.4397 100.575 28.4397ZM108.075 33.6289C109.267 33.6289 110 33.0238 110 32.0153C110 31.1352 109.487 30.6584 108.368 30.4934L107.928 30.4384C107.158 30.3101 106.754 30.0717 106.754 29.4482C106.754 28.8248 107.213 28.4764 107.983 28.4764C108.735 28.4764 109.175 28.8248 109.468 29.1732L109.872 28.8065C109.468 28.3114 108.918 27.963 108.02 27.963C106.974 27.963 106.168 28.4764 106.168 29.4849C106.168 30.4567 106.846 30.8601 107.836 31.0068L108.276 31.0802C109.065 31.1902 109.395 31.5203 109.395 32.107C109.395 32.7671 108.918 33.1339 108.093 33.1339C107.378 33.1339 106.846 32.8405 106.406 32.2537L105.966 32.6021C106.479 33.2622 107.14 33.6289 108.075 33.6289Z" fill="#0B3460"/>
<path d="M0 29.4116V0L10.7635 6.05101V35.9027L0 29.4116ZM16.2644 29.4116V0L27.0278 6.05101V35.9027L16.2644 29.4116ZM32.5288 29.4116V0L43.2922 6.05101V35.9027L32.5288 29.4116ZM65.9927 3.4289H69.99V21.5453H65.6626L61.4086 14.6141C59.9417 12.267 58.8781 10.4517 58.218 9.14986C58.3281 11.2402 58.3647 13.5873 58.3647 16.1544V21.5269H54.3674V3.41057H58.8048L63.4256 10.9652C64.7091 13.0372 65.5893 14.5408 66.1027 15.4759C66.0293 14.0457 65.9927 11.9737 65.9927 9.2232V3.4289ZM81.0102 14.7058V11.2402H89.6283V21.5453H86.4927L86.3461 19.9867C85.3009 21.3069 83.6506 21.967 81.3769 21.967C78.6631 21.967 76.4994 21.0868 74.9041 19.3082C73.3089 17.5296 72.5021 15.2559 72.5021 12.4504C72.4654 9.69995 73.3089 7.42624 74.9958 5.64761C76.7194 3.85064 78.9748 2.95216 81.7803 2.98883C83.3572 2.98883 84.7508 3.24554 85.961 3.75896C87.1895 4.27238 88.4181 5.13419 89.6833 6.36273L87.0795 9.05818C86.0527 8.15969 85.1542 7.53626 84.3474 7.16953C83.5406 6.82114 82.6971 6.63778 81.7803 6.63778C80.2217 6.63778 78.9748 7.13285 78.058 8.14136C77.1595 9.14986 76.7011 10.5801 76.7011 12.4321C76.7011 14.3391 77.1412 15.806 78.0213 16.8511C78.9198 17.878 80.1484 18.3731 81.6886 18.3731C83.0088 18.3731 84.0357 18.0613 84.7691 17.4379C85.5209 16.7961 85.8876 15.916 85.8876 14.7791V14.7058H81.0102ZM100.978 2.97049C102.427 2.97049 103.656 3.19053 104.682 3.61227C105.728 4.05234 106.791 4.76746 107.873 5.75763L105.434 8.59977C104.536 7.82964 103.766 7.31622 103.106 7.04117C102.482 6.74779 101.749 6.6011 100.942 6.6011C99.4199 6.6011 98.228 7.13286 97.3112 8.17803C96.4311 9.22321 95.991 10.6351 95.991 12.4321C95.991 14.2474 96.4311 15.6959 97.3112 16.7411C98.2097 17.7863 99.4199 18.3181 100.905 18.3181C101.785 18.3181 102.555 18.153 103.197 17.8413C103.857 17.5296 104.701 16.9795 105.728 16.1544L108.093 18.9598C106.974 20.005 105.838 20.7568 104.701 21.2519C103.582 21.7286 102.335 21.967 100.96 21.967C98.173 21.967 95.936 21.0685 94.2857 19.2899C92.6171 17.4929 91.792 15.1825 91.792 12.3771C91.792 9.62661 92.6171 7.35289 94.2674 5.5926C95.9176 3.85064 98.1547 2.97049 100.978 2.97049ZM57.3929 33.5006L59.905 26.0744H59.2265L57.0262 32.8588H56.9895L54.8075 26.0927H54.0923L56.5861 33.5189H57.3929V33.5006ZM64.8925 33.6289C65.9193 33.6289 66.6711 33.0972 67.0195 32.3087L66.5611 31.997C66.2677 32.7121 65.6809 33.0972 64.9108 33.0972C63.7923 33.0972 63.1322 32.3087 63.1322 31.1719V30.8968H67.1662V30.6034C67.1662 29.0082 66.2677 27.9263 64.8741 27.9263C63.4256 27.9263 62.5087 28.9898 62.5087 30.7685C62.5087 32.5471 63.4439 33.6289 64.8925 33.6289ZM64.8741 28.4397C65.846 28.4397 66.5061 29.1915 66.5061 30.3467V30.4384H63.1322V30.3834C63.1505 29.2282 63.829 28.4397 64.8741 28.4397ZM71.4386 33.5006V29.6683C71.4386 28.8615 72.1537 28.4764 72.9238 28.4764C73.8223 28.4764 74.3174 29.0082 74.3174 30.1084V33.5006H74.9225V29.9983C74.9225 28.6781 74.244 27.9263 73.0888 27.9263C72.2087 27.9263 71.732 28.3481 71.4752 28.9165H71.4386V28.0547H70.8335V33.5006H71.4386V33.5006ZM80.9735 33.5006V32.9688H79.8183V28.5864H81.0468V28.0547H79.8183V26.5328H79.2682V27.6329C79.2682 27.9447 79.1765 28.0547 78.8831 28.0547H78.2597V28.5864H79.2132V32.8221C79.2132 33.2255 79.4516 33.5006 79.8916 33.5006H80.9735V33.5006ZM88.033 33.5006H88.6381V28.0547H88.033V31.8686C88.033 32.6938 87.3179 33.0788 86.5661 33.0788C85.6676 33.0788 85.1725 32.5471 85.1725 31.4286V28.0547H84.5674V31.5569C84.5674 32.8772 85.2642 33.6289 86.4194 33.6289C87.3546 33.6289 87.7946 33.1522 87.9963 32.6388H88.033V33.5006ZM93.3505 33.5006V29.7783C93.3505 29.0815 93.9923 28.6598 94.9091 28.6598H95.3859V28.073H95.0192C94.084 28.073 93.6073 28.5314 93.3872 29.0448H93.3505V28.073H92.7455V33.5189H93.3505V33.5006ZM100.593 33.6289C101.62 33.6289 102.372 33.0972 102.72 32.3087L102.28 32.0153C101.987 32.7305 101.4 33.1155 100.63 33.1155C99.5116 33.1155 98.8515 32.3271 98.8515 31.1902V30.8968H102.885V30.6034C102.885 29.0082 101.987 27.9263 100.593 27.9263C99.1448 27.9263 98.228 28.9898 98.228 30.7685C98.228 32.5471 99.1265 33.6289 100.593 33.6289ZM100.575 28.4397C101.547 28.4397 102.207 29.1915 102.207 30.3467V30.4384H98.8331V30.3834C98.8515 29.2282 99.5299 28.4397 100.575 28.4397ZM108.075 33.6289C109.267 33.6289 110 33.0238 110 32.0153C110 31.1352 109.487 30.6584 108.368 30.4934L107.928 30.4384C107.158 30.3101 106.754 30.0717 106.754 29.4482C106.754 28.8248 107.213 28.4764 107.983 28.4764C108.735 28.4764 109.175 28.8248 109.468 29.1732L109.872 28.8065C109.468 28.3114 108.918 27.963 108.02 27.963C106.974 27.963 106.168 28.4764 106.168 29.4849C106.168 30.4567 106.846 30.8601 107.836 31.0068L108.276 31.0802C109.065 31.1902 109.395 31.5203 109.395 32.107C109.395 32.7671 108.918 33.1339 108.093 33.1339C107.378 33.1339 106.846 32.8405 106.406 32.2537L105.966 32.6021C106.479 33.2622 107.14 33.6289 108.075 33.6289Z" fill="black"/>
</svg>
