<svg width="172" height="19" viewBox="0 0 172 19" fill="none" xmlns="http://www.w3.org/2000/svg">
<path d="M36.6961 9.12202C37.3784 9.12202 37.8926 8.98358 38.2387 8.7067C38.5848 8.41994 38.7578 8.00957 38.7578 7.47559C38.7578 6.29887 38.031 5.71051 36.5774 5.71051H30.2736V9.12202H36.6961ZM37.0076 4.09375C37.5515 4.09375 38.0459 4.17286 38.4909 4.33107C38.9358 4.48929 39.3116 4.71672 39.6181 5.01337C39.9247 5.30014 40.162 5.65118 40.3301 6.06649C40.4982 6.48181 40.5823 6.94162 40.5823 7.44593C40.5823 8.51388 40.251 9.32967 39.5885 9.89331C38.9259 10.457 37.9519 10.7388 36.6664 10.7388H30.2736V14.8326H28.4937V4.09375H37.0076Z" fill="black"/>
<path d="M54.5874 5.62151L51.8434 10.8129H57.3166L54.5874 5.62151ZM59.4377 14.8326L58.1917 12.4297H50.9682L49.7223 14.8326H47.7792L53.4601 4.09375H55.6998L61.3808 14.8326H59.4377Z" fill="black"/>
<path d="M81.2929 14.8326L73.0756 6.02199V14.8326H71.2957V4.09375H73.5057L81.7082 12.9043V4.09375H83.4881V14.8326H81.2929Z" fill="black"/>
<path d="M100.291 5.71051V14.8326H98.5107V5.71051H93.3786V4.09375H105.423V5.71051H100.291Z" fill="black"/>
<path d="M115.3 14.8326V4.09375H126.128V5.71051H117.08V8.45455H123.369V10.0713H117.08V13.2158H126.543V14.8326H115.3Z" fill="black"/>
<path d="M145.447 9.12202C146.119 9.12202 146.628 8.98358 146.974 8.7067C147.33 8.41994 147.508 8.00957 147.508 7.47559C147.508 6.29887 146.767 5.71051 145.283 5.71051H139.024V9.12202H145.447ZM147.36 14.8326L144.453 10.7388H139.024V14.8326H137.244V4.09375H145.714C146.851 4.09375 147.736 4.39535 148.369 4.99854C149.011 5.60174 149.333 6.42742 149.333 7.47559C149.333 7.95024 149.264 8.3705 149.125 8.73637C148.987 9.10224 148.789 9.41867 148.532 9.68566C148.285 9.94276 147.988 10.1504 147.642 10.3086C147.306 10.4668 146.94 10.5806 146.544 10.6498L149.422 14.8326H147.36Z" fill="black"/>
<path d="M165.206 5.62151L162.462 10.8129H167.936L165.206 5.62151ZM170.057 14.8326L168.811 12.4297H161.587L160.341 14.8326H158.398L164.079 4.09375H166.319L172 14.8326H170.057Z" fill="black"/>
<rect width="18.2936" height="18.2936" fill="black"/>
<path fill-rule="evenodd" clip-rule="evenodd" d="M8.40625 15.3258V3.9541H9.9884V15.3258H8.40625Z" fill="white"/>
<path fill-rule="evenodd" clip-rule="evenodd" d="M4.74805 11.3714V3.95508H6.3302V11.3714H4.74805Z" fill="white"/>
<path fill-rule="evenodd" clip-rule="evenodd" d="M12.0625 11.3704V3.9541H13.6446V11.3704H12.0625Z" fill="white"/>
</svg>
