<svg width="140" height="40" viewBox="0 0 140 40" fill="none" xmlns="http://www.w3.org/2000/svg">
<path fill-rule="evenodd" clip-rule="evenodd" d="M5.07227 21.9425C7.11761 17.2651 9.17256 12.5917 11.1945 7.9044C11.4177 7.38679 11.673 7.19664 12.242 7.20329C14.8116 7.23474 17.3819 7.22671 19.9517 7.20862C20.4336 7.20527 20.7447 7.27632 20.9622 7.78937C24.521 16.1854 28.1025 24.5717 31.6752 32.9619C31.7149 33.0556 31.7035 33.171 31.7275 33.3717C30.2067 33.3717 28.7147 33.3391 27.2251 33.386C26.5287 33.408 26.4857 32.8866 26.3152 32.486C23.5033 25.8727 20.682 19.2632 17.929 12.6256C17.5688 11.7573 17.1438 11.4498 16.2443 11.5297C15.3325 11.6108 14.4786 11.3491 13.9995 12.6453C12.8376 15.7888 11.4477 18.8486 10.1495 21.9421C8.4572 21.9422 6.76473 21.9423 5.07227 21.9425Z" fill="black"/>
<path fill-rule="evenodd" clip-rule="evenodd" d="M6.36021 26.4869C5.14719 26.4872 4.0046 26.4875 3.02805 26.4875C2.03224 28.7519 1.03569 31.0172 0 33.3717C1.66802 33.3717 3.14586 33.3477 4.62213 33.3854C5.1118 33.3978 5.35021 33.2307 5.5262 32.8086C6.4059 30.6969 7.30463 28.5928 8.19706 26.4863C7.5811 26.4866 6.96502 26.4868 6.36021 26.4869Z" fill="black"/>
<path fill-rule="evenodd" clip-rule="evenodd" d="M57.9102 14.7681C58.8966 12.461 59.8877 10.1559 60.8629 7.84394C60.9706 7.58864 61.0937 7.49485 61.3681 7.49813C62.6074 7.51364 63.8471 7.50968 65.0865 7.50076C65.3189 7.4991 65.469 7.53415 65.5739 7.78721C67.2903 11.9285 69.0177 16.065 70.7408 20.2034C70.7599 20.2496 70.7544 20.3065 70.766 20.4055C70.0325 20.4055 69.3129 20.3894 68.5945 20.4126C68.2586 20.4234 68.2379 20.1663 68.1556 19.9686C66.7995 16.7067 65.4387 13.4466 64.111 10.1727C63.9372 9.74438 63.7323 9.59268 63.2985 9.6321C62.8587 9.67211 62.4469 9.54303 62.2158 10.1824C61.6554 11.7329 60.985 13.2421 60.3589 14.768C59.5427 14.768 58.7264 14.7681 57.9102 14.7681Z" fill="black"/>
<path fill-rule="evenodd" clip-rule="evenodd" d="M96.3008 14.7681C97.2873 12.461 98.2784 10.1559 99.2535 7.84394C99.3612 7.58864 99.4843 7.49485 99.7588 7.49813C100.998 7.51364 102.238 7.50968 103.477 7.50076C103.71 7.4991 103.86 7.53415 103.965 7.78721C105.681 11.9285 107.408 16.065 109.131 20.2034C109.151 20.2496 109.145 20.3065 109.157 20.4055C108.423 20.4055 107.704 20.3894 106.985 20.4126C106.649 20.4234 106.628 20.1663 106.546 19.9686C105.19 16.7067 103.829 13.4466 102.502 10.1727C102.328 9.74438 102.123 9.59268 101.689 9.6321C101.249 9.67211 100.837 9.54303 100.606 10.1824C100.046 11.7329 99.3756 13.2421 98.7496 14.768C97.9333 14.768 97.1171 14.7681 96.3008 14.7681Z" fill="black"/>
<path fill-rule="evenodd" clip-rule="evenodd" d="M47.0448 14.4366C47.7167 14.4366 48.1818 14.3744 48.4402 14.2498C48.6982 14.1252 48.8276 13.8968 48.8276 13.5648V9.97365C48.8276 9.64143 48.6982 9.41324 48.4402 9.28867C48.1818 9.16409 47.7167 9.10181 47.0448 9.10181H43.273V14.4366H47.0448ZM43.273 20.3527H40.6895V7.37891H47.0192C48.1729 7.37891 49.073 7.51735 49.7188 7.79413C50.3646 8.07109 50.8298 8.52422 51.1142 9.15364C51.3982 9.78366 51.5402 10.6518 51.5402 11.7589C51.5402 13.309 51.2212 14.4159 50.5843 15.0801C49.9471 15.7445 48.8878 16.0765 47.4066 16.0765H43.273V20.3527Z" fill="black"/>
<path fill-rule="evenodd" clip-rule="evenodd" d="M78.7119 14.1252H82.6067C83.2772 14.1252 83.7415 14.0629 83.9995 13.9383C84.2572 13.8138 84.3862 13.5856 84.3862 13.2534V9.97365C84.3862 9.64143 84.2572 9.41324 83.9995 9.28867C83.7415 9.16409 83.2772 9.10181 82.6067 9.10181H78.7119V14.1252ZM85.0569 20.3527L82.3744 15.7651H78.7119V20.3527H76.1328V7.37891H82.5808C83.7326 7.37891 84.6312 7.51735 85.2761 7.79413C85.9208 8.07109 86.3852 8.52422 86.669 9.15364C86.9525 9.78366 87.0945 10.6517 87.0945 11.7588C87.0945 12.8247 86.9267 13.6581 86.5916 14.2601C86.2562 14.8622 85.7102 15.2809 84.9538 15.516L87.8682 20.3527H85.0569Z" fill="black"/>
<path fill-rule="evenodd" clip-rule="evenodd" d="M118.11 20.3527H115.526V7.37891H124.313L124.028 9.10186H118.11V13.3157H123.279V14.9556H118.11V20.3527Z" fill="black"/>
<mask id="mask0" mask-type="alpha" maskUnits="userSpaceOnUse" x="31" y="0" width="109" height="40">
<path d="M31.5508 39.7553H140V0.833984H31.5508V39.7553Z" fill="white"/>
</mask>
<g mask="url(#mask0)">
<path fill-rule="evenodd" clip-rule="evenodd" d="M131.152 20.3527H133.688V7.37891H131.152V20.3527Z" fill="black"/>
<path fill-rule="evenodd" clip-rule="evenodd" d="M56.8932 16.9342C56.4132 18.0567 55.9328 19.1796 55.4336 20.3469C56.2376 20.3469 56.9499 20.335 57.6615 20.3536C57.8976 20.3598 58.0125 20.2769 58.0973 20.0677C58.5213 19.0209 58.9545 17.9778 59.3847 16.9336C59.0878 16.9337 58.7908 16.9338 58.4993 16.9339C57.9146 16.934 57.3639 16.9342 56.8932 16.9342Z" fill="black"/>
<path fill-rule="evenodd" clip-rule="evenodd" d="M96.9615 16.9339C96.3728 16.934 95.8184 16.9342 95.3458 16.9342C94.8647 18.0567 94.3835 19.1796 93.8833 20.3469C94.6864 20.3469 95.398 20.335 96.1088 20.3536C96.3446 20.3598 96.4594 20.2772 96.5441 20.0686C96.9691 19.0215 97.4033 17.9781 97.8344 16.9336C97.5417 16.9337 97.249 16.9338 96.9615 16.9339Z" fill="black"/>
<path fill-rule="evenodd" clip-rule="evenodd" d="M47.7666 31.4376V29.4959C47.7666 28.8772 47.9046 28.4272 48.1803 28.1462C48.4562 27.8651 48.8948 27.7246 49.4965 27.7246H50.5077C51.0202 27.7246 51.4019 27.834 51.6526 28.0525C51.9033 28.2711 52.0425 28.6217 52.0704 29.1043C52.0815 29.2519 52.0091 29.3256 51.8532 29.3256C51.7195 29.3256 51.647 29.2519 51.6359 29.1043C51.6136 28.758 51.5189 28.5153 51.3517 28.3761C51.1846 28.2371 50.9032 28.1674 50.5077 28.1674H49.4965C49.1734 28.1674 48.9185 28.2101 48.7318 28.2952C48.5452 28.3804 48.4101 28.5181 48.3266 28.7083C48.243 28.8985 48.2013 29.1611 48.2013 29.4959V31.4376C48.2013 31.7728 48.243 32.0352 48.3266 32.2253C48.4101 32.4156 48.5452 32.5532 48.7318 32.6384C48.9185 32.7235 49.1761 32.7662 49.5049 32.7662H50.5077C50.9032 32.7662 51.1846 32.6981 51.3517 32.5618C51.5189 32.4255 51.6136 32.1815 51.6359 31.8295C51.647 31.6818 51.7195 31.608 51.8532 31.608C52.0091 31.608 52.0815 31.6846 52.0704 31.8379C52.0425 32.3205 51.9033 32.6696 51.6526 32.8854C51.4019 33.1012 51.0202 33.209 50.5077 33.209H49.5049C48.9032 33.209 48.463 33.0672 48.1845 32.7831C47.9059 32.4994 47.7666 32.0508 47.7666 31.4376Z" fill="black"/>
<path fill-rule="evenodd" clip-rule="evenodd" d="M62.4237 31.2843H64.778L63.6009 28.4229L62.4237 31.2843ZM65.9302 33.0046C65.9302 33.0785 65.8832 33.138 65.7893 33.1834C65.7561 33.2004 65.7201 33.209 65.6815 33.209C65.604 33.209 65.5489 33.1636 65.5157 33.0727L64.9604 31.7272H64.9355H62.2496L61.6943 33.0727C61.6555 33.1636 61.5948 33.209 61.5119 33.209C61.4842 33.209 61.4483 33.2004 61.4042 33.1834C61.3157 33.1494 61.2715 33.0869 61.2715 32.9961C61.2715 32.9507 61.277 32.9166 61.288 32.8939L63.3439 27.8949C63.3881 27.7814 63.4709 27.7246 63.5925 27.7246H63.6091C63.7196 27.7246 63.7998 27.7814 63.8495 27.8949L65.9053 32.8939C65.9219 32.9336 65.9302 32.9705 65.9302 33.0046Z" fill="black"/>
<path fill-rule="evenodd" clip-rule="evenodd" d="M78.4113 29.1979C78.4113 28.8403 78.3324 28.5792 78.1746 28.4144C78.0167 28.2498 77.7605 28.1674 77.4061 28.1674H75.6781V30.4838H77.4061C77.7605 30.4838 78.0167 30.403 78.1746 30.2411C78.3324 30.0793 78.4113 29.8168 78.4113 29.4534V29.1979ZM78.4778 28.0993C78.7214 28.3493 78.8434 28.7155 78.8434 29.1979V29.4534C78.8434 29.936 78.7229 30.3022 78.482 30.5519C78.241 30.8019 77.8824 30.9266 77.4061 30.9266H75.6781V32.9875C75.6781 33.1353 75.606 33.209 75.462 33.209C75.318 33.209 75.2461 33.1353 75.2461 32.9875V27.946C75.2461 27.7984 75.318 27.7246 75.462 27.7246H77.4061C77.8768 27.7246 78.2341 27.8495 78.4778 28.0993Z" fill="black"/>
<path fill-rule="evenodd" clip-rule="evenodd" d="M88.2787 33.1494C88.2416 33.1097 88.2231 33.0556 88.2231 32.9875V27.946C88.2231 27.878 88.2416 27.8241 88.2787 27.7842C88.3157 27.7446 88.366 27.7246 88.4295 27.7246C88.4931 27.7246 88.5433 27.7446 88.5804 27.7842C88.6174 27.8241 88.6359 27.878 88.6359 27.946V32.9875C88.6359 33.0556 88.6174 33.1097 88.5804 33.1494C88.5433 33.1891 88.4931 33.209 88.4295 33.209C88.366 33.209 88.3157 33.1891 88.2787 33.1494Z" fill="black"/>
<path fill-rule="evenodd" clip-rule="evenodd" d="M100.126 33.1452C100.084 33.1027 100.064 33.0504 100.064 32.9879V28.1667H98.2862C98.2249 28.1667 98.1736 28.1455 98.1319 28.103C98.0901 28.0604 98.0693 28.0081 98.0693 27.9457C98.0693 27.8777 98.0901 27.8239 98.1319 27.7841C98.1736 27.7446 98.2249 27.7246 98.2862 27.7246H102.275C102.342 27.7246 102.395 27.7446 102.434 27.7841C102.473 27.8239 102.492 27.8777 102.492 27.9457C102.492 28.0081 102.473 28.0604 102.434 28.103C102.395 28.1455 102.342 28.1667 102.275 28.1667H100.498V32.9879C100.498 33.0504 100.478 33.1027 100.439 33.1452C100.4 33.1878 100.347 33.209 100.281 33.209C100.219 33.209 100.168 33.1878 100.126 33.1452Z" fill="black"/>
<path fill-rule="evenodd" clip-rule="evenodd" d="M111.193 31.2843H113.547L112.37 28.4229L111.193 31.2843ZM114.699 33.0046C114.699 33.0785 114.652 33.138 114.558 33.1834C114.525 33.2004 114.489 33.209 114.451 33.209C114.373 33.209 114.318 33.1636 114.285 33.0727L113.729 31.7272H113.704H111.019L110.463 33.0727C110.424 33.1636 110.364 33.209 110.281 33.209C110.253 33.209 110.217 33.2004 110.173 33.1834C110.085 33.1494 110.041 33.0869 110.041 32.9961C110.041 32.9507 110.046 32.9166 110.057 32.8939L112.113 27.8949C112.157 27.7814 112.24 27.7246 112.361 27.7246H112.378C112.489 27.7246 112.569 27.7814 112.618 27.8949L114.674 32.8939C114.691 32.9336 114.699 32.9705 114.699 33.0046Z" fill="black"/>
<path fill-rule="evenodd" clip-rule="evenodd" d="M124.076 32.9875V27.9461C124.076 27.7984 124.148 27.7246 124.292 27.7246C124.436 27.7246 124.508 27.7984 124.508 27.9461V32.7662H127.045C127.189 32.7662 127.261 32.84 127.261 32.9875C127.261 33.1353 127.189 33.209 127.045 33.209H124.292C124.148 33.209 124.076 33.1353 124.076 32.9875Z" fill="black"/>
</g>
</svg>
