<svg width="62" height="24" viewBox="0 0 62 24" fill="none" xmlns="http://www.w3.org/2000/svg">
<path d="M16.224 5.024L11.936 6.272C11.7653 5.67467 11.3387 5.16267 10.656 4.736C9.97333 4.30933 9.19467 4.096 8.32 4.096C7.38133 4.096 6.58133 4.33067 5.92 4.8C5.25867 5.248 4.928 5.80267 4.928 6.464C4.928 7.296 5.61067 8 6.976 8.576C7.53067 8.81067 8.75733 9.20533 10.656 9.76C12.0427 10.144 13.152 10.56 13.984 11.008C14.6453 11.3493 15.1787 11.744 15.584 12.192C16.5867 13.2373 17.088 14.592 17.088 16.256C17.088 18.4107 16.3093 20.1387 14.752 21.44C13.216 22.72 11.2213 23.36 8.768 23.36C6.54933 23.36 4.65067 22.848 3.072 21.824C1.49333 20.7573 0.469333 19.456 0 17.92L4.288 16.64C4.45867 17.3653 4.96 17.984 5.792 18.496C6.64533 18.9867 7.63733 19.232 8.768 19.232C9.92 19.232 10.88 18.9973 11.648 18.528C12.416 18.0373 12.8 17.408 12.8 16.64C12.8 16.0853 12.5333 15.5627 12 15.072C11.7867 14.9013 11.4773 14.72 11.072 14.528C10.7307 14.3573 10.1333 14.1333 9.28 13.856C6.61333 13.0667 4.81067 12.4267 3.872 11.936C1.71733 10.784 0.64 9.06667 0.64 6.784C0.64 4.75733 1.344 3.12533 2.752 1.888C4.20267 0.629333 6.03733 0 8.256 0C10.2187 0 11.9253 0.48 13.376 1.44C14.8267 2.37867 15.776 3.57333 16.224 5.024Z" fill="black"/>
<path d="M24.3305 22.88H20.2025V0.48H24.0105L35.8185 15.52V0.48H39.9465V22.88H36.1385L24.3305 7.872V22.88Z" fill="black"/>
<path d="M61.0153 18.912V22.88H43.0633L53.9033 4.448H43.1593V0.48H60.9193L50.0473 18.912H61.0153Z" fill="black"/>
</svg>
