<svg width="124" height="16" viewBox="0 0 124 16" fill="none" xmlns="http://www.w3.org/2000/svg">
<path d="M4.53485 2.022C5.15885 2.022 5.65685 2.082 6.02885 2.202C6.40085 2.322 6.77885 2.496 7.16285 2.724C7.29485 2.796 7.40885 2.856 7.50485 2.904C7.61285 2.952 7.70285 2.976 7.77485 2.976C7.88285 2.976 7.96685 2.916 8.02685 2.796C8.08685 2.664 8.13485 2.46 8.17085 2.184H8.58485C8.52485 2.988 8.49485 4.356 8.49485 6.288H8.08085C8.03285 5.64 7.88285 5.022 7.63085 4.434C7.39085 3.846 7.04285 3.372 6.58685 3.012C6.14285 2.64 5.62085 2.454 5.02085 2.454C4.43285 2.454 3.95285 2.622 3.58085 2.958C3.22085 3.282 3.04085 3.726 3.04085 4.29C3.04085 4.71 3.13085 5.076 3.31085 5.388C3.49085 5.7 3.74285 5.988 4.06685 6.252C4.39085 6.504 4.88885 6.852 5.56085 7.296L6.13685 7.692C6.84485 8.16 7.40285 8.568 7.81085 8.916C8.21885 9.264 8.54885 9.672 8.80085 10.14C9.06485 10.596 9.19685 11.13 9.19685 11.742C9.19685 12.51 8.99885 13.158 8.60285 13.686C8.20685 14.202 7.66685 14.592 6.98285 14.856C6.31085 15.12 5.56085 15.252 4.73285 15.252C4.06085 15.252 3.50285 15.192 3.05885 15.072C2.61485 14.952 2.20685 14.79 1.83485 14.586C1.57085 14.418 1.36685 14.334 1.22285 14.334C1.11485 14.334 1.03085 14.4 0.970852 14.532C0.910852 14.652 0.862852 14.85 0.826852 15.126H0.412852C0.460852 14.37 0.484852 12.75 0.484852 10.266H0.898852C0.982852 11.61 1.28285 12.702 1.79885 13.542C2.31485 14.37 3.10685 14.784 4.17485 14.784C4.82285 14.784 5.35685 14.61 5.77685 14.262C6.19685 13.914 6.40685 13.416 6.40685 12.768C6.40685 12.096 6.19085 11.52 5.75885 11.04C5.32685 10.56 4.64285 10.02 3.70685 9.42C2.98685 8.952 2.41085 8.544 1.97885 8.196C1.54685 7.848 1.19285 7.44 0.916852 6.972C0.640852 6.492 0.502852 5.94 0.502852 5.316C0.502852 4.596 0.682852 3.99 1.04285 3.498C1.41485 2.994 1.90685 2.622 2.51885 2.382C3.13085 2.142 3.80285 2.022 4.53485 2.022ZM14.0206 5.694H16.1446V6.054H14.0206V13.326C14.0206 13.686 14.0806 13.944 14.2006 14.1C14.3326 14.244 14.5366 14.316 14.8126 14.316C15.3286 14.316 15.7366 13.956 16.0366 13.236L16.3426 13.398C15.8866 14.634 15.0646 15.252 13.8766 15.252C13.0846 15.252 12.4846 15.048 12.0766 14.64C11.8246 14.388 11.6506 14.076 11.5546 13.704C11.4706 13.32 11.4286 12.798 11.4286 12.138V6.054H9.91657V5.694H11.4286V3.318C12.4246 3.318 13.2886 3.126 14.0206 2.742V5.694ZM19.0707 15.126C18.3027 15.126 17.7267 14.928 17.3427 14.532C16.9707 14.136 16.7847 13.614 16.7847 12.966C16.7847 12.426 16.9227 11.982 17.1987 11.634C17.4867 11.274 17.8287 10.998 18.2247 10.806C18.6327 10.614 19.1487 10.41 19.7727 10.194C20.4327 9.966 20.9127 9.762 21.2127 9.582C21.5247 9.39 21.6807 9.132 21.6807 8.808V7.404C21.6807 6.9 21.5607 6.51 21.3207 6.234C21.0927 5.946 20.7327 5.802 20.2407 5.802C19.6647 5.802 19.2267 5.946 18.9267 6.234C19.2627 6.354 19.5207 6.534 19.7007 6.774C19.8927 7.014 19.9887 7.296 19.9887 7.62C19.9887 8.028 19.8507 8.352 19.5747 8.592C19.2987 8.832 18.9627 8.952 18.5667 8.952C18.1467 8.952 17.8227 8.82 17.5947 8.556C17.3667 8.292 17.2527 7.962 17.2527 7.566C17.2527 7.23 17.3307 6.948 17.4867 6.72C17.6547 6.48 17.9067 6.258 18.2427 6.054C18.5667 5.862 18.9627 5.712 19.4307 5.604C19.9107 5.496 20.4327 5.442 20.9967 5.442C21.5847 5.442 22.0947 5.502 22.5267 5.622C22.9587 5.742 23.3187 5.946 23.6067 6.234C23.8707 6.498 24.0447 6.822 24.1287 7.206C24.2247 7.59 24.2727 8.112 24.2727 8.772V13.668C24.2727 13.956 24.2967 14.16 24.3447 14.28C24.4047 14.4 24.5127 14.46 24.6687 14.46C24.8487 14.46 25.0647 14.358 25.3167 14.154L25.4967 14.46C24.9567 14.904 24.2967 15.126 23.5167 15.126C22.8567 15.126 22.3947 14.994 22.1307 14.73C21.8667 14.466 21.7287 14.112 21.7167 13.668C21.1167 14.64 20.2347 15.126 19.0707 15.126ZM20.4567 13.974C20.9247 13.974 21.3327 13.728 21.6807 13.236V9.546C21.5367 9.786 21.2307 10.05 20.7627 10.338C20.2947 10.638 19.9407 10.938 19.7007 11.238C19.4607 11.538 19.3407 11.97 19.3407 12.534C19.3407 13.026 19.4427 13.392 19.6467 13.632C19.8507 13.86 20.1207 13.974 20.4567 13.974ZM32.7071 5.442C33.6191 5.442 34.2791 5.676 34.6871 6.144C34.8911 6.372 35.0351 6.666 35.1191 7.026C35.2031 7.386 35.2451 7.872 35.2451 8.484V13.326C35.2451 13.818 35.3291 14.16 35.4971 14.352C35.6771 14.532 35.9771 14.622 36.3971 14.622V15C35.1971 14.952 34.4051 14.928 34.0211 14.928C33.6611 14.928 32.8811 14.952 31.6811 15V14.622C32.0411 14.622 32.2931 14.532 32.4371 14.352C32.5811 14.16 32.6531 13.818 32.6531 13.326V7.728C32.6531 7.236 32.5691 6.864 32.4011 6.612C32.2451 6.36 31.9571 6.234 31.5371 6.234C31.0451 6.234 30.6251 6.438 30.2771 6.846C29.9291 7.242 29.7551 7.734 29.7551 8.322V13.326C29.7551 13.818 29.8271 14.16 29.9711 14.352C30.1151 14.532 30.3671 14.622 30.7271 14.622V15C29.6231 14.952 28.8791 14.928 28.4951 14.928C28.1351 14.928 27.3071 14.952 26.0111 15V14.622C26.4431 14.622 26.7431 14.532 26.9111 14.352C27.0791 14.16 27.1631 13.818 27.1631 13.326V7.656C27.1631 7.104 27.0791 6.702 26.9111 6.45C26.7431 6.198 26.4431 6.072 26.0111 6.072V5.694C26.3951 5.73 26.7671 5.748 27.1271 5.748C28.1951 5.748 29.0711 5.664 29.7551 5.496V7.116C30.2951 6 31.2791 5.442 32.7071 5.442ZM39.4077 1.05C39.9117 1.05 40.3077 1.176 40.5957 1.428C40.8957 1.668 41.0457 2.004 41.0457 2.436C41.0457 2.868 40.8957 3.21 40.5957 3.462C40.3077 3.702 39.9117 3.822 39.4077 3.822C38.9037 3.822 38.5017 3.702 38.2017 3.462C37.9137 3.21 37.7697 2.868 37.7697 2.436C37.7697 2.004 37.9137 1.668 38.2017 1.428C38.5017 1.176 38.9037 1.05 39.4077 1.05ZM40.8117 13.326C40.8117 13.818 40.8957 14.16 41.0637 14.352C41.2437 14.532 41.5437 14.622 41.9637 14.622V15C40.7637 14.952 39.9657 14.928 39.5697 14.928C39.1977 14.928 38.3637 14.952 37.0677 15V14.622C37.4997 14.622 37.7997 14.532 37.9677 14.352C38.1357 14.16 38.2197 13.818 38.2197 13.326V7.656C38.2197 7.104 38.1357 6.702 37.9677 6.45C37.7997 6.198 37.4997 6.072 37.0677 6.072V5.694C37.4517 5.73 37.8237 5.748 38.1837 5.748C39.2517 5.748 40.1277 5.664 40.8117 5.496V13.326ZM58.2506 13.542C58.4306 13.818 58.6166 14.04 58.8086 14.208C59.0006 14.376 59.2466 14.52 59.5466 14.64V15C58.7066 14.964 57.7706 14.946 56.7386 14.946C55.9466 14.946 55.1846 14.964 54.4526 15V14.64C54.7886 14.616 55.0286 14.58 55.1726 14.532C55.3286 14.484 55.4066 14.4 55.4066 14.28C55.4066 14.184 55.3406 14.034 55.2086 13.83L52.5986 9.6C52.3586 9.216 52.1546 8.958 51.9866 8.826C51.8306 8.694 51.6146 8.616 51.3386 8.592V13.092C51.3386 13.548 51.3686 13.878 51.4286 14.082C51.5006 14.286 51.6266 14.424 51.8066 14.496C51.9866 14.568 52.2806 14.616 52.6886 14.64V15C52.0406 14.964 51.1346 14.946 49.9706 14.946C48.6866 14.946 47.7386 14.964 47.1266 15V14.64C47.5226 14.616 47.8106 14.568 47.9906 14.496C48.1826 14.424 48.3086 14.286 48.3686 14.082C48.4406 13.878 48.4766 13.548 48.4766 13.092V4.164C48.4766 3.708 48.4406 3.378 48.3686 3.174C48.3086 2.97 48.1826 2.832 47.9906 2.76C47.8106 2.688 47.5226 2.64 47.1266 2.616V2.256C47.7386 2.292 48.6866 2.31 49.9706 2.31C51.1346 2.31 52.0406 2.292 52.6886 2.256V2.616C52.2806 2.64 51.9866 2.688 51.8066 2.76C51.6266 2.832 51.5006 2.97 51.4286 3.174C51.3686 3.378 51.3386 3.708 51.3386 4.164V8.214C51.8186 8.19 52.2566 8.046 52.6526 7.782C53.0486 7.518 53.4986 7.098 54.0026 6.522L55.0646 5.244C55.6166 4.608 55.8926 4.05 55.8926 3.57C55.8926 3.282 55.7726 3.054 55.5326 2.886C55.3046 2.718 54.9806 2.622 54.5606 2.598V2.256C55.4366 2.292 56.3246 2.31 57.2246 2.31C57.9206 2.31 58.4846 2.292 58.9166 2.256V2.598C57.9566 2.826 57.0866 3.402 56.3066 4.326L54.0566 7.008L58.2506 13.542ZM68.5845 13.038C68.5845 13.59 68.6685 13.992 68.8365 14.244C69.0165 14.496 69.3165 14.622 69.7365 14.622V15C69.3645 14.964 68.9925 14.946 68.6205 14.946C67.5765 14.946 66.7005 15.03 65.9925 15.198V13.578C65.4405 14.694 64.4745 15.252 63.0945 15.252C62.1945 15.252 61.5405 15.018 61.1325 14.55C60.9405 14.322 60.7965 14.028 60.7005 13.668C60.6165 13.296 60.5745 12.81 60.5745 12.21V7.656C60.5745 7.104 60.4845 6.702 60.3045 6.45C60.1365 6.198 59.8425 6.072 59.4225 6.072V5.694C59.7945 5.73 60.1665 5.748 60.5385 5.748C61.5825 5.748 62.4585 5.664 63.1665 5.496V12.948C63.1665 13.452 63.2385 13.83 63.3825 14.082C63.5385 14.334 63.8265 14.46 64.2465 14.46C64.7265 14.46 65.1345 14.262 65.4705 13.866C65.8185 13.458 65.9925 12.96 65.9925 12.372V7.656C65.9925 7.104 65.9025 6.702 65.7225 6.45C65.5545 6.198 65.2605 6.072 64.8405 6.072V5.694C65.2245 5.73 65.5965 5.748 65.9565 5.748C67.0005 5.748 67.8765 5.664 68.5845 5.496V13.038ZM74.2085 13.326C74.2085 13.818 74.2925 14.16 74.4605 14.352C74.6285 14.532 74.9285 14.622 75.3605 14.622V15C74.1125 14.952 73.3085 14.928 72.9485 14.928C72.5405 14.928 71.7125 14.952 70.4645 15V14.622C70.8845 14.622 71.1785 14.532 71.3465 14.352C71.5265 14.16 71.6165 13.818 71.6165 13.326V3.066C71.6165 2.514 71.5265 2.112 71.3465 1.86C71.1785 1.608 70.8845 1.482 70.4645 1.482V1.104C70.8485 1.14 71.2205 1.158 71.5805 1.158C72.6245 1.158 73.5005 1.074 74.2085 0.905999V13.326ZM81.2426 13.776C82.2266 13.776 83.0186 13.296 83.6186 12.336L83.9426 12.444C83.7026 13.224 83.2706 13.89 82.6466 14.442C82.0346 14.982 81.2666 15.252 80.3426 15.252C79.0706 15.252 78.0566 14.85 77.3006 14.046C76.5566 13.23 76.1846 12.03 76.1846 10.446C76.1846 8.826 76.5866 7.59 77.3906 6.738C78.1946 5.874 79.2626 5.442 80.5946 5.442C82.8506 5.442 83.9786 6.774 83.9786 9.438H78.9206C78.9086 9.618 78.9026 9.9 78.9026 10.284C78.9026 11.076 79.0106 11.736 79.2266 12.264C79.4546 12.792 79.7426 13.176 80.0906 13.416C80.4506 13.656 80.8346 13.776 81.2426 13.776ZM80.4866 5.82C80.0546 5.82 79.6946 6.09 79.4066 6.63C79.1306 7.158 78.9566 7.98 78.8846 9.096H81.7106C81.7346 8.148 81.6386 7.368 81.4226 6.756C81.2186 6.132 80.9066 5.82 80.4866 5.82ZM89.7009 5.442C90.1449 5.442 90.5649 5.49 90.9609 5.586C91.3569 5.682 91.6869 5.814 91.9509 5.982C92.2629 6.174 92.5029 6.42 92.6709 6.72C92.8509 7.008 92.9409 7.326 92.9409 7.674C92.9409 8.094 92.8089 8.442 92.5449 8.718C92.2809 8.982 91.9389 9.114 91.5189 9.114C91.0989 9.114 90.7629 8.994 90.5109 8.754C90.2589 8.514 90.1329 8.19 90.1329 7.782C90.1329 7.422 90.2469 7.11 90.4749 6.846C90.7029 6.582 90.9849 6.402 91.3209 6.306C91.2249 6.174 91.0749 6.072 90.8709 6C90.6789 5.916 90.4689 5.874 90.2409 5.874C89.5209 5.874 88.9569 6.27 88.5489 7.062C88.1529 7.842 87.9549 8.868 87.9549 10.14C87.9549 11.424 88.1829 12.348 88.6389 12.912C89.0949 13.476 89.6649 13.758 90.3489 13.758C90.7569 13.758 91.1649 13.65 91.5729 13.434C91.9929 13.218 92.3709 12.84 92.7069 12.3L93.0129 12.408C92.7729 13.188 92.3529 13.86 91.7529 14.424C91.1529 14.976 90.3789 15.252 89.4309 15.252C88.1949 15.252 87.1869 14.844 86.4069 14.028C85.6269 13.212 85.2369 12 85.2369 10.392C85.2369 9.336 85.4289 8.436 85.8129 7.692C86.1969 6.948 86.7249 6.39 87.3969 6.018C88.0689 5.634 88.8369 5.442 89.7009 5.442ZM97.6046 7.116C98.1446 6 99.1226 5.442 100.539 5.442C101.475 5.442 102.135 5.676 102.519 6.144C102.723 6.372 102.867 6.672 102.951 7.044C103.047 7.404 103.095 7.884 103.095 8.484V13.326C103.095 13.818 103.179 14.16 103.347 14.352C103.515 14.532 103.815 14.622 104.247 14.622V15C102.999 14.952 102.207 14.928 101.871 14.928C101.463 14.928 100.683 14.952 99.5306 15V14.622C99.8906 14.622 100.143 14.532 100.287 14.352C100.431 14.16 100.503 13.818 100.503 13.326V7.728C100.503 7.236 100.419 6.864 100.251 6.612C100.095 6.36 99.8066 6.234 99.3866 6.234C98.8826 6.234 98.4566 6.432 98.1086 6.828C97.7726 7.212 97.6046 7.704 97.6046 8.304V13.326C97.6046 13.818 97.6766 14.16 97.8206 14.352C97.9646 14.532 98.2166 14.622 98.5766 14.622V15C97.4246 14.952 96.6806 14.928 96.3446 14.928C95.9366 14.928 95.1086 14.952 93.8606 15V14.622C94.2806 14.622 94.5746 14.532 94.7426 14.352C94.9226 14.16 95.0126 13.818 95.0126 13.326V3.084C95.0126 2.532 94.9226 2.13 94.7426 1.878C94.5746 1.626 94.2806 1.5 93.8606 1.5V1.122C94.2446 1.158 94.6166 1.176 94.9766 1.176C96.0206 1.176 96.8966 1.092 97.6046 0.923999V7.116ZM109.546 5.442C110.926 5.442 112.006 5.838 112.786 6.63C113.566 7.41 113.956 8.652 113.956 10.356C113.956 12.06 113.566 13.302 112.786 14.082C112.006 14.862 110.926 15.252 109.546 15.252C108.178 15.252 107.098 14.862 106.306 14.082C105.526 13.302 105.136 12.06 105.136 10.356C105.136 8.652 105.526 7.41 106.306 6.63C107.098 5.838 108.178 5.442 109.546 5.442ZM109.546 5.802C109.03 5.802 108.616 6.18 108.304 6.936C108.004 7.68 107.854 8.82 107.854 10.356C107.854 11.892 108.004 13.032 108.304 13.776C108.616 14.52 109.03 14.892 109.546 14.892C110.074 14.892 110.488 14.526 110.788 13.794C111.088 13.05 111.238 11.904 111.238 10.356C111.238 8.808 111.082 7.662 110.77 6.918C110.47 6.174 110.062 5.802 109.546 5.802ZM122.177 5.748C122.789 5.748 123.251 5.73 123.563 5.694V6.054C123.311 6.126 123.083 6.282 122.879 6.522C122.687 6.75 122.501 7.11 122.321 7.602L119.693 15.036C119.561 15.024 119.363 15.018 119.099 15.018C118.847 15.018 118.655 15.024 118.523 15.036L115.319 7.08C115.151 6.672 114.977 6.402 114.797 6.27C114.629 6.138 114.455 6.072 114.275 6.072V5.694C115.115 5.754 115.967 5.784 116.831 5.784C117.587 5.784 118.367 5.754 119.171 5.694V6.072C118.763 6.072 118.469 6.102 118.289 6.162C118.121 6.21 118.037 6.354 118.037 6.594C118.037 6.69 118.067 6.84 118.127 7.044L120.179 12.498L121.475 8.934C121.667 8.37 121.763 7.884 121.763 7.476C121.763 6.6 121.325 6.126 120.449 6.054V5.694C121.001 5.73 121.577 5.748 122.177 5.748Z" fill="black"/>
</svg>
